<svg width="127" height="101" viewBox="0 0 127 101" fill="none" xmlns="http://www.w3.org/2000/svg">
<path d="M14.4996 10.0998H29.9996C28.7996 9.3998 27.6996 8.6998 26.7996 7.9998C24.8996 6.5998 23.2996 5.0998 22.0996 3.3998C21.1996 4.7998 20.2996 5.7998 19.3996 6.6998C18.2996 7.7998 16.6996 8.8998 14.4996 10.0998ZM19.2996 3.3998H13.9996V1.2998H23.7996C25.5996 4.1998 29.3996 6.8998 35.0996 9.3998L33.3996 11.8998C32.5996 11.4998 31.7996 11.1998 31.0996 10.7998V12.4998H23.3996V16.6998H30.6996V18.8998H23.3996V23.6998H33.9996V25.9998H10.2996V23.6998H20.6996V18.8998H13.5996V16.6998H20.6996V12.4998H13.2996V10.7998C12.5996 11.1998 11.8996 11.4998 11.0996 11.7998L9.59961 9.1998C12.4996 8.0998 14.6996 6.9998 16.2996 5.8998C17.3996 5.2998 18.3996 4.3998 19.2996 3.3998Z" fill="#FFFCDB"/>
<path d="M62.7998 1.7L64.1998 4.3C61.6998 5 58.8998 5.4 55.7998 5.5V10H64.1998V12.3H61.3998V26.3H58.8998V12.3H55.7998V14.7C55.6998 16.6 55.3998 18.7 54.8998 20.9C54.3998 22.8 53.4998 24.5 52.3998 26.2L50.4998 24.2C51.3998 22.8 52.0998 21.4 52.4998 20C52.8998 18.5 53.0998 16.7 53.2998 14.6V3.4C57.0998 3.4 60.1998 2.8 62.7998 1.7ZM44.5998 9.5H46.7998C47.2998 8.4 47.6998 7 48.1998 5.2H43.1998C43.6998 6.4 44.0998 7.9 44.5998 9.5ZM45.4998 1C46.0998 1.6 46.5998 2.3 47.0998 2.9H51.8998V5.2H49.1998L50.3998 5.6C49.8998 7.1 49.3998 8.4 48.9998 9.4H51.8998V11.5H46.8998V13.6H51.7998V15.8H47.0998C48.8998 17.1 50.4998 18.5 51.7998 19.7L50.1998 21.3C49.2998 20.3 48.1998 19.2 46.8998 18.2V26.1H44.4998V19C43.2998 21 41.8998 22.6 40.2998 24L38.7998 21.8C41.0998 20.2 42.7998 18.2 44.0998 15.9H39.4998V13.7H44.4998V11.6H39.1998V9.5H42.2998C41.9998 8.4 41.5998 7.1 41.0998 5.7L42.4998 5.2H39.2998V2.9H44.0998C43.7998 2.3 43.3998 1.7 42.8998 1.3L45.4998 1Z" fill="#FFFCDB"/>
<path d="M79.6998 22.8H88.9998V19.8H79.6998V22.8ZM91.2998 17.8V26.3H88.9998V24.9H79.6998V26.3H77.2998V17.8H91.2998ZM80.6998 10C81.5998 11 82.7998 11.8 84.0998 12.6C85.2998 11.9 86.5998 11 87.9998 9.9H80.8998C80.7998 10 80.6998 10 80.6998 10ZM81.7998 5.8L84.2998 6.4C83.7998 6.9 83.3998 7.4 82.9998 7.9H91.5998V9.6C89.9998 11.3 88.2998 12.7 86.6998 13.8C88.4998 14.5 90.8998 15.1 93.7998 15.7L92.2998 17.9C88.6998 17.1 85.9998 16.2 84.1998 15.3C81.9998 16.4 78.9998 17.4 75.2998 18.1L73.9998 15.6C76.9998 15.1 79.5998 14.4 81.5998 13.7C80.5998 13 79.6998 12.3 78.8998 11.5C77.9998 12 77.1998 12.6 76.3998 13L74.6998 10.9C77.7998 9.4 80.1998 7.7 81.7998 5.8ZM73.1998 17.5L74.7998 19.4C73.5998 21.8 71.9998 24 70.1998 26L68.2998 23.8C70.1998 22 71.7998 19.9 73.1998 17.5ZM69.9998 11.6C71.6998 12.3 73.1998 13.2 74.5998 14.2L73.0998 16.5C71.6998 15.3 70.1998 14.3 68.6998 13.6L69.9998 11.6ZM70.6998 6.5C72.3998 7.2 73.8998 8 75.2998 9L73.9998 11.1C72.4998 9.9 70.9998 9 69.4998 8.3L70.6998 6.5ZM81.4998 2.9H84.5998V1H87.1998V2.9H93.2998V5.2H87.1998V6.7H84.5998V5.2H81.4998V2.9ZM68.3998 2.9H74.6998V1H77.2998V2.9H80.3998V5.2H77.2998V6.9H74.6998V5.2H68.3998V2.9Z" fill="#FFFCDB"/>
<path d="M122.1 4.7999V7.2999H114.5C114.8 11.1999 115.3 14.2999 116 16.5999C117.3 14.6999 118.5 12.1999 119.5 9.1999L121.9 10.1999C120.4 14.2999 118.8 17.2999 117.2 19.2999C118.4 21.6999 119.3 22.8999 119.8 22.8999C120.1 22.8999 120.5 21.5999 120.9 19.0999L123.1 20.5999C122.5 23.1999 121.9 24.7999 121.4 25.2999C121 25.6999 120.7 25.9999 120.2 25.9999C119 25.9999 117.9 25.2999 116.7 23.9999C116.1 23.2999 115.6 22.4999 115.1 21.5999C113.4 23.1999 111.2 24.5999 108.5 25.8999L107 23.4999C109.8 22.1999 112.2 20.6999 113.9 18.9999C113.5 18.0999 113.2 17.0999 112.9 16.0999C112.3 13.6999 112 10.7999 111.7 7.2999H102.5V10.5999H110.1C110 15.4999 109.8 18.6999 109.4 19.9999C109 21.4999 108.1 22.2999 106.7 22.2999H103.1L102.6 19.6999C104.5 19.8999 105.8 19.8999 106.7 19.8999C106.9 19.8999 107.1 19.4999 107.2 18.6999C107.3 17.7999 107.4 15.8999 107.4 12.9999H102.4C102.4 14.8999 102.2 16.8999 101.9 18.9999C101.4 21.4999 100.6 23.9999 99.5002 26.4999L97.2002 24.5999C98.3002 22.5999 99.0002 20.4999 99.4002 18.2999C99.7002 15.9999 99.9002 13.9999 99.9002 11.9999V4.7999H111.6C111.6 3.5999 111.5 2.2999 111.5 0.999902H114.1C114.1 2.3999 114.1 3.5999 114.2 4.7999H118.1C117.4 4.0999 116.5 3.2999 115.4 2.4999L117.1 0.899902C118.4 1.6999 119.5 2.4999 120.3 3.2999L118.9 4.6999H122.1V4.7999Z" fill="#FFFCDB"/>
<path d="M126.8 32.2002H4.7002V93.7002H126.8V32.2002Z" fill="url(#paint0_linear)"/>
<path d="M31.2002 44.5002H37.5002V42.5002H31.2002V44.5002ZM31.2002 48.4002H37.5002V46.3002H31.2002V48.4002ZM39.4002 40.7002V50.2002H35.2002C35.5002 51.3002 35.8002 52.3002 36.2002 53.1002C37.2002 52.5002 38.2002 51.8002 39.1002 50.7002L40.6002 52.1002C39.6002 53.2002 38.5002 54.0002 37.2002 54.6002C38.3002 56.0002 39.6002 57.1002 41.4002 58.1002L40.3002 60.0002C38.1002 58.6002 36.5002 57.1002 35.4002 55.5002C34.4002 54.0002 33.7002 52.3002 33.2002 50.2002H31.1002V57.1002C32.3002 56.8002 33.5002 56.4002 34.7002 55.9002V58.0002C32.6002 58.8002 30.2002 59.5002 27.6002 60.0002L27.3002 57.9002C27.9002 57.8002 28.5002 57.7002 29.1002 57.6002V40.7002H39.4002ZM21.7002 40.8002H28.5002V42.4002C28.0002 44.1002 27.5002 45.8002 26.9002 47.7002C27.5002 48.7002 27.9002 49.6002 28.1002 50.4002C28.4002 51.2002 28.5002 51.9002 28.5002 52.5002C28.5002 53.6002 28.2002 54.4002 27.8002 54.9002C27.3002 55.5002 26.3002 55.8002 24.7002 55.8002L24.0002 53.7002C24.4002 53.8002 24.7002 53.8002 25.0002 53.8002C25.4002 53.8002 25.8002 53.7002 26.0002 53.5002C26.2002 53.3002 26.4002 53.0002 26.4002 52.5002C26.4002 51.8002 26.3002 51.2002 26.1002 50.6002C25.9002 49.8002 25.4002 49.0002 24.8002 47.9002C25.6002 45.8002 26.1002 44.1002 26.4002 42.7002H23.7002V60.1002H21.7002V40.8002Z" fill="black"/>
<path d="M55.3002 50.3999V51.2999H60.9002V50.3999H55.3002ZM48.0002 51.3999H53.4002V50.4999H48.0002V51.3999ZM53.4002 53.3999V52.5999H48.0002V53.3999H53.4002ZM60.9002 53.3999V52.5999H55.3002V53.3999H60.9002ZM46.1002 49.0999H62.8002V54.7999H55.3002V55.7999H63.1002V57.0999H55.3002V58.0999H64.5002V59.4999H44.2002V58.0999H53.4002V57.0999H45.7002V55.7999H53.4002V54.7999H46.1002V49.0999V49.0999ZM44.5002 46.7999H64.1002V48.2999H44.5002V46.7999ZM48.0002 42.5999H60.8002V41.7999H48.0002V42.5999ZM60.8002 44.5999V43.6999H48.0002V44.5999H60.8002ZM46.1002 40.3999H62.8002V45.8999H46.1002V40.3999Z" fill="black"/>
<path d="M99.4002 47.1999V48.8999H105.1V47.1999H99.4002ZM94.9002 45.3999H97.4002V43.7999H99.4002V45.3999H105.1V43.7999H107.1V45.3999H110.2V47.1999H107V50.6999H103.3V52.2999H109.5V56.3999C109.5 57.0999 109.3 57.5999 109 57.9999C108.7 58.2999 108.3 58.4999 107.7 58.4999H105.5L105.1 56.5999L107 56.6999C107.4 56.6999 107.6 56.3999 107.6 55.8999V54.0999H103.4V59.9999H101.3V54.0999H97.4002V58.4999H95.4002V52.3999H101.2V50.7999H97.3002V47.2999H94.8002V45.3999H94.9002ZM102.6 39.8999C102.8 40.2999 103.1 40.7999 103.3 41.3999H110.9V43.2999H94.4002V48.2999C94.4002 50.0999 94.3002 51.9999 94.0002 53.9999C93.7002 55.9999 93.2002 57.9999 92.6002 59.9999L90.7002 58.3999C91.3002 56.7999 91.7002 55.0999 91.9002 53.3999C92.1002 51.5999 92.2002 49.8999 92.2002 48.3999V41.4999H101.1C100.9 41.0999 100.6 40.6999 100.4 40.3999L102.6 39.8999Z" fill="black"/>
<path d="M74 57.5999H71.9V45.3999C71.2 45.9999 70.2 46.4999 69 46.9999V44.6999C70.4 44.0999 71.5 43.2999 72.5 42.3999H74V57.5999Z" fill="black"/>
<path d="M87.8998 57.6002H78.2998V55.7002C80.2998 53.9002 81.8998 52.2002 82.9998 50.9002C84.6998 48.9002 85.5998 47.4002 85.5998 46.4002C85.5998 44.9002 84.6998 44.1002 82.9998 44.1002C81.3998 44.1002 80.5998 45.0002 80.5998 46.9002H78.3998C78.4998 43.7002 79.9998 42.2002 82.9998 42.2002C84.3998 42.2002 85.4998 42.6002 86.2998 43.3002C87.1998 44.0002 87.5998 45.1002 87.5998 46.4002C87.5998 48.4002 85.3998 51.6002 80.9998 55.7002H87.6998V57.6002H87.8998Z" fill="black"/>
<path d="M30.9 76.2001H37.9V75.3001H30.9V76.2001ZM30.9 78.2001H37.9V77.3001H30.9V78.2001ZM37.9 80.2001V79.3001H30.9V80.2001H37.9ZM29 74.0001H39.8V81.6001H36.1C37.9 82.0001 39.5 82.5001 41 83.1001L40.1 84.5001C38.5 83.7001 36.8 83.1001 35 82.7001L35.7 81.6001H32.7L33.6 82.6001C31.9 83.5001 30.2 84.1001 28.4 84.5001L27.8 83.0001C29.6 82.7001 31.2 82.2001 32.5 81.6001H29V74.0001ZM32 72.0001V70.7001H30.3V72.0001H32ZM35.5 72.0001V70.7001H33.7V72.0001H35.5ZM38.8 72.0001V70.7001H37.1V72.0001H38.8ZM28.5 69.4001H40.6V73.3001H28.5V69.4001ZM28.4 65.1001H33.6V64.1001H35.5V65.1001H41V66.5001H35.5V67.4001H40.2V68.7001H28.9V67.4001H33.5V66.5001H28.3V65.1001H28.4ZM23.5 80.9001H25.7V78.2001H23.5V80.9001ZM27.7 76.4001V82.7001H23.5V84.2001H21.5V76.5001H27.7V76.4001ZM21.5 73.0001H27.6V74.7001H21.5V73.0001ZM21.5 69.8001H27.6V71.5001H21.5V69.8001ZM25.2 64.1001C25.3 64.8001 25.5 65.6001 25.6 66.5001H28.4V68.3001H21V66.5001H23.6C23.5 65.7001 23.3 65.0001 23.1 64.3001L25.2 64.1001Z" fill="black"/>
<path d="M62.2002 73.8001L63.9002 74.8001C62.8002 77.4001 61.4002 79.4001 59.9002 80.8001C58.4002 82.2001 56.0002 83.4001 52.9002 84.3001L51.8002 82.4001C55.2002 81.5001 57.4002 80.4001 58.7002 79.3001C59.9002 78.3001 61.0002 76.5001 62.2002 73.8001ZM62.4002 66.7001C63.2002 68.5001 64.0002 70.7001 64.6002 73.0001L62.7002 73.5001C62.2002 71.3001 61.5002 69.2001 60.6002 67.2001L62.4002 66.7001ZM57.0002 64.1001H59.0002V76.0001C59.0002 76.8001 58.8002 77.3001 58.5002 77.6001C58.2002 77.9001 57.6002 78.1001 56.7002 78.1001H54.5002L54.2002 76.0001C55.0002 76.1001 55.6002 76.1001 56.2002 76.1001C56.8002 76.1001 57.1002 75.9001 57.1002 75.6001V64.1001H57.0002ZM52.0002 64.5001L52.7002 66.3001C51.9002 66.6001 50.9002 66.8001 49.9002 67.0001V70.1001H52.9002V71.5001C53.5002 70.1001 54.0002 68.6001 54.3002 67.0001L56.2002 67.3001C55.7002 69.9001 54.9002 72.1001 54.0002 74.0001L52.2002 73.0001C52.4002 72.6001 52.5002 72.3001 52.7002 72.0001H49.9002V72.6001C50.9002 73.7001 52.0002 75.0001 53.0002 76.3001L51.9002 77.9001C51.1002 76.6001 50.5002 75.5001 49.9002 74.7001V84.2001H48.0002V75.0001C47.9002 75.2001 47.9002 75.3001 47.8002 75.5001C47.0002 77.2001 46.1002 78.7001 45.0002 80.0001L44.2002 77.9001C45.7002 76.2001 46.9002 74.2001 47.8002 71.9001H44.5002V70.1001H48.0002V67.3001C47.2002 67.4001 46.3002 67.5001 45.3002 67.6001L45.0002 65.8001C47.6002 65.5001 49.9002 65.1001 52.0002 64.5001Z" fill="black"/>
<path d="M78.6002 76.1002V77.9002H83.4002V76.1002H78.6002ZM78.6002 72.3002V74.3002H83.4002V72.3002H78.6002ZM72.0002 67.1002C72.5002 68.0002 73.0002 68.9002 73.4002 69.8002L72.0002 70.4002H77.2002C76.8002 69.3002 76.3002 68.3002 75.8002 67.4002L77.6002 66.8002C78.2002 67.7002 78.6002 68.7002 79.0002 69.8002L77.6002 70.4002H82.9002L81.5002 69.5002C82.3002 68.6002 83.1002 67.6002 83.7002 66.4002L85.3002 67.2002C84.7002 68.5002 84.1002 69.6002 83.3002 70.5002H85.3002V74.3002H87.6002V76.2002H85.3002V79.8002H78.5002V82.3002C78.5002 83.0002 78.3002 83.5002 78.0002 83.8002C77.7002 84.1002 77.1002 84.3002 76.2002 84.3002H73.1002L72.7002 82.3002C73.9002 82.4002 74.8002 82.5002 75.6002 82.5002C76.2002 82.5002 76.5002 82.3002 76.5002 82.0002V79.9002H69.2002V78.1002H76.5002V76.3002H67.7002V74.4002H76.5002V72.4002H69.3002V70.6002H71.4002C71.0002 69.6002 70.6002 68.6002 70.1002 67.9002L72.0002 67.1002ZM85.2002 64.2002L86.1002 65.8002C81.8002 66.5002 76.1002 66.8002 68.9002 66.8002L68.4002 65.1002C75.0002 65.1002 80.6002 64.8002 85.2002 64.2002Z" fill="black"/>
<path d="M99.4 77.9002H102.7V76.6002H99.4V77.9002ZM101.1 75.2002V73.8002H99.5V75.2002H101.1ZM101.1 81.2002V79.4002H99.5V81.2002H101.1ZM101.6 65.5002H104.1V64.2002H106.2V65.5002H111.2V67.2002H106.2V68.3002H106.6V69.4002H108.7C108.4 69.0002 108 68.6002 107.5 68.2002L108.6 67.5002C109.3 68.0002 109.9 68.4002 110.3 68.8002L109.4 69.4002H111V71.2002H106.6C106.7 73.6002 106.9 75.6002 107.1 77.1002C107.6 75.8002 108.2 74.1002 108.7 72.3002L110.3 73.2002C109.5 75.7002 108.8 77.7002 108.1 79.1002C108 79.3002 107.9 79.5002 107.8 79.7002C108.3 81.3002 108.8 82.1002 109 82.1002C109.2 82.1002 109.5 81.1002 109.9 79.1002L111.4 80.1002C110.9 82.1002 110.5 83.3002 110.1 83.7002C109.8 84.0002 109.5 84.2002 109.2 84.2002C108.6 84.2002 108 83.8002 107.4 82.9002C107.1 82.5002 106.9 82.1002 106.7 81.6002C106.2 82.4002 105.6 83.3002 104.9 84.0002L104 82.5002H99.4V83.4002H97.8V72.2002H104.1V73.8002H102.7V75.2002H104.3V79.4002H102.7V81.2002H104.7V81.7002C105.1 81.1002 105.6 80.5002 106 79.7002C105.8 79.2002 105.7 78.6002 105.6 78.0002C105.3 76.3002 105 74.0002 105 71.3002H97.4V74.6002C97.4 76.1002 97.3 77.7002 97 79.4002C96.7 81.1002 96.3 82.8002 95.6 84.5002L93.9 83.0002C94.5 81.7002 94.9 80.3002 95.1 78.9002C95.2 78.2002 95.3 77.5002 95.3 76.8002H93.9C93.8 78.2002 93.7 79.1002 93.6 79.7002C93.4 80.7002 93 81.7002 92.4 82.7002L91 81.4002C91.5 80.7002 91.8 80.0002 91.9 79.3002C92 78.7002 92.1 77.8002 92.1 76.6002H91V74.9002H95.2V74.0002H91.8V68.8002H93.5V72.3002H95.2V69.5002H104.7V68.6002H104V67.2002H101.5V65.5002H101.6ZM91.1 65.5002H96V64.2002H98.2V65.5002H100.7V67.2002H98.2V68.8002H96V67.2002H91.1V65.5002Z" fill="black"/>
<defs>
<linearGradient id="paint0_linear" x1="4.708" y1="62.9474" x2="126.807" y2="62.9474" gradientUnits="userSpaceOnUse">
<stop stop-color="#8A5324"/>
<stop offset="0.08" stop-color="#E4A941"/>
<stop offset="0.21" stop-color="#FFE88D"/>
<stop offset="0.41" stop-color="#E4A941"/>
<stop offset="0.54" stop-color="#E4A941"/>
<stop offset="0.76" stop-color="#FFE88D"/>
<stop offset="0.86" stop-color="#E4A941"/>
<stop offset="0.93" stop-color="#B97E23"/>
<stop offset="0.98" stop-color="#8A5324"/>
<stop offset="1" stop-color="#8A5324"/>
</linearGradient>
</defs>
</svg>
