<svg width="389" height="92" viewBox="0 0 389 92" fill="none" xmlns="http://www.w3.org/2000/svg">
<path fill-rule="evenodd" clip-rule="evenodd" d="M373.9 51.3001V77.7001C373.9 77.8001 374 77.8001 374.1 77.9001L381 81.9001L385 79.6001C385.1 79.5001 385.3 79.4001 385.5 79.3001L387.9 77.9001C388 77.8001 388.1 77.8001 388.1 77.7001V51.3001C388.1 51.1001 387.4 50.8001 387.3 50.7001L381.3 47.2001C381.2 47.1001 381.2 47.1001 381.1 47.1001C380.8 47.3001 380.5 47.4001 380.2 47.6001C380 47.7001 379.9 47.8001 379.8 47.8001L374.4 50.9001C374.1 51.1001 373.9 51.2001 373.9 51.3001Z" fill="white"/>
<path d="M373.9 51.3001V77.7001C373.9 77.8001 374 77.8001 374.1 77.9001L381 81.9001L385 79.6001C385.1 79.5001 385.3 79.4001 385.5 79.3001L387.9 77.9001C388 77.8001 388.1 77.8001 388.1 77.7001V51.3001C388.1 51.1001 387.4 50.8001 387.3 50.7001L381.3 47.2001C381.2 47.1001 381.2 47.1001 381.1 47.1001C380.8 47.3001 380.5 47.4001 380.2 47.6001C380 47.7001 379.9 47.8001 379.8 47.8001L374.4 50.9001C374.1 51.1001 373.9 51.2001 373.9 51.3001Z" stroke="#E60012" stroke-width="0.216" stroke-miterlimit="22.9256"/>
<path fill-rule="evenodd" clip-rule="evenodd" d="M374.8 51.6999V76.7999L380.4 80.3999C380.5 80.3999 380.5 80.4999 380.6 80.4999L380.7 80.5999C380.8 80.6999 380.7 80.5999 380.8 80.6999C381.5 80.1999 382.8 79.4999 383.4 78.9999L384.2 78.4999C384.3 78.3999 384.4 78.3999 384.6 78.2999C384.7 78.1999 384.8 78.0999 385 78.0999L385.8 77.5999C385.9 77.4999 386 77.3999 386.2 77.2999C386.3 77.1999 386.3 77.1999 386.4 77.1999L387 76.7999V51.7999L381 47.8999L379.5 48.8999C379.4 48.9999 379.3 49.0999 379.1 49.0999L377.2 50.2999C377.1 50.3999 377 50.4999 376.8 50.4999C376.7 50.5999 376.6 50.6999 376.4 50.6999L375.1 51.4999C374.9 51.6999 374.9 51.6999 374.8 51.6999Z" fill="#E60012"/>
<path fill-rule="evenodd" clip-rule="evenodd" d="M373.9 50.0001C374 50.0001 374.2 49.9001 374.3 49.8001C374.5 49.7001 374.6 49.6001 374.7 49.5001C375.3 49.2001 376.7 48.3001 377.3 47.9001C377.7 47.7001 380.7 45.8001 380.8 45.8001C380.9 45.8001 387.8 49.9001 388 49.9001V43.1001H374C373.8 43.1001 373.9 43.5001 373.9 43.8001V50.0001Z" fill="#E60012"/>
<path fill-rule="evenodd" clip-rule="evenodd" d="M373.9 85.7999H388V78.9999C387.9 78.9999 387.7 79.1999 387.6 79.1999L384.4 80.9999C383.8 81.3999 383.2 81.6999 382.6 81.9999C382.3 82.1999 382 82.2999 381.7 82.4999C381.6 82.5999 380.9 82.9999 380.8 82.9999C380.7 82.9999 380 82.5999 379.9 82.4999L375.6 79.8999C375.3 79.6999 374 78.8999 373.8 78.8999V85.7999H373.9Z" fill="#E60012"/>
<path fill-rule="evenodd" clip-rule="evenodd" d="M373.9 40.4999V41.8999H388V40.3999H374C373.9 40.3999 373.9 40.4999 373.9 40.4999Z" fill="#E60012"/>
<path fill-rule="evenodd" clip-rule="evenodd" d="M373.9 87.2001V88.6001H388V87.1001H374C373.9 87.1001 373.9 87.1001 373.9 87.2001Z" fill="#E60012"/>
<path fill-rule="evenodd" clip-rule="evenodd" d="M377 55.7H377.6V55.4L377.1 55.3L377 55.7ZM377.6 57.3L377.5 56.3H377C377 56.8 377 57.2 377.6 57.3ZM378.1 57.3C378.2 57.2 378.2 57.3 378.2 57.2L378.4 56.8C378.5 56.6 378.6 56.5 378.7 56.2H378.1V57.3ZM378.9 57.4H379.9L379.4 56.4C379.2 56.6 379 57.1 378.9 57.4ZM380.7 57.4V56.3L380 56.2L380.4 57.1C380.6 57.4 380.5 57.3 380.7 57.4ZM381.3 57.2C381.5 57 381.6 56.7 381.6 56.4H381.3V57.2ZM381.3 55.8H381.6C381.6 55.5 381.6 55.4 381.3 55.4V55.8ZM379.7 52H379.2C379 53 379.2 54.6 379 55.8C378.7 55.8 378.4 55.8 378.1 55.7C378.2 55.1 378.4 55.4 378.9 55.1C378.8 54.7 378.5 54.8 378.1 54.8C378 54.1 378.5 54.4 378.8 54C379.1 53.6 379.1 53.2 378.8 52.8C378.2 53 378.7 53.6 378.2 53.8C377.9 53.3 378.4 52.5 377.9 52.1C377.4 52.3 377.6 53.1 377.6 53.8C377 53.6 377.6 52.8 376.9 52.8C376.7 53 376.7 53.5 376.8 53.8C376.9 54.2 377.2 54.1 377.6 54.3V54.7H377.1C377 54.4 377.1 54.3 376.9 54.2C376.5 54.3 376.5 54.7 376.5 55.4C376.5 55.9 376.5 56.5 376.7 56.9C376.9 57.4 377.1 57.5 377.7 57.6C378.9 57.9 381.7 58.1 382.1 56.9C382.3 56.4 382.6 54.4 382.1 54.1C381.7 54.2 381.9 54.3 381.7 54.7H381.4C381.4 54 381.8 54.3 382.1 53.9C382.3 53.6 382.4 53 382.1 52.7C381.5 52.9 382.1 53.6 381.5 53.7C381.3 53.3 381.7 53 381.3 52C380.7 52.1 381 52.7 380.9 53.7C380.4 53.5 380.7 53.1 380.4 52.7C380.1 52.7 380.1 52.7 380 53C379.9 53.6 380.2 54 380.9 54.2L380.8 54.6L379.9 54.7C379.9 55.1 379.9 55.1 380.8 55.1L380.7 55.5C380.5 55.5 380.5 55.5 380.3 55.5C380 55.5 380.1 55.6 379.9 55.6C379.5 54.5 379.7 53.4 379.7 52Z" fill="white"/>
<path fill-rule="evenodd" clip-rule="evenodd" d="M377.8 60.6001C378.4 60.9001 379.9 61.0001 380.7 60.8001C381.1 60.7001 381.8 59.7001 379 59.8001C377.9 59.8001 377.7 60.0001 377.8 60.6001ZM379.8 62.0001V61.4001H379C378.8 61.6001 378.9 62.2001 378.9 62.4001H379.8C379.9 62.1001 379.8 62.2001 379.8 62.0001ZM378.4 61.3001C378.4 61.4001 378.5 61.2001 378.5 61.6001C378.5 61.7001 378.5 61.8001 378.5 61.9001C378.5 62.1001 378.5 62.2001 378.5 62.4001H377.2C376.3 62.4001 376.4 62.9001 377 62.9001H381.3C381.8 62.9001 382.5 63.0001 382.7 62.6001C382.7 62.2001 381.1 62.3001 380.5 62.3001V61.2001C380.9 61.1001 381.3 61.0001 381.5 60.8001C381.7 60.6001 381.7 60.0001 381.6 59.7001C381.3 59.1001 380.1 59.2001 379.4 59.2001C379 59.2001 378.5 59.2001 378.1 59.3001C377.7 59.4001 377.4 59.5001 377.3 59.8001C376.9 61.2001 377.9 61.0001 378.4 61.3001Z" fill="white"/>
<path fill-rule="evenodd" clip-rule="evenodd" d="M384.5 57.3999C385.3 57.3999 385.9 57.2999 385.6 56.4999C385.3 56.2999 384.9 56.2999 384.5 56.2999V57.3999ZM382.6 55.9999C382.7 56.1999 382.7 56.1999 383 56.1999C383.2 56.1999 383.5 56.1999 383.8 56.1999V57.3999C383.4 57.5999 383 57.4999 382.8 57.8999C382.6 58.1999 382.6 58.7999 382.8 59.0999C383.2 59.7999 384.4 59.5999 385 59.8999C385.7 60.2999 385.6 61.2999 385.6 62.0999C385.6 62.5999 385.6 62.9999 385.6 63.4999C385.6 63.8999 385.5 64.3999 385.9 64.4999C386.5 64.0999 386.1 61.4999 386 60.6999C385.8 58.8999 384.6 59.5999 383.2 58.8999C383.1 57.2999 384.4 58.4999 385.7 57.6999C386.1 57.4999 386.1 57.3999 386.1 56.8999C386.2 55.6999 385 55.7999 383.6 55.7999C383.2 55.6999 382.8 55.5999 382.6 55.9999Z" fill="white"/>
<path fill-rule="evenodd" clip-rule="evenodd" d="M383.8 53.5C383 53.8 383.6 55 384.8 54.6C385 54.5 385.1 54.5 385.2 54.2C385.4 53.2 383.9 53.5 383.8 53.5ZM383.7 53.1C383 53.3 382.6 54 383.1 54.6C383.3 54.9 383.4 55 383.8 55.1C385.2 55.4 386.1 54.5 385.7 53.5C385.5 53 384.3 52.9 383.7 53.1Z" fill="white"/>
<path fill-rule="evenodd" clip-rule="evenodd" d="M377 58.3999V58.7999C377.6 59.0999 378.8 58.9999 379.5 58.9999C379.9 58.9999 381.7 59.0999 381.8 58.6999C381.9 58.2999 381.2 58.3999 380.9 58.3999C380.1 58.3999 377.4 58.2999 377 58.3999Z" fill="white"/>
<path fill-rule="evenodd" clip-rule="evenodd" d="M376.9 73.1999C377.1 73.4999 377.7 73.5999 378.4 73.5999C379.1 73.5999 379.8 73.5999 380.5 73.5999C380.3 74.2999 380 74.5999 381.1 74.8999C382 75.1999 382.6 75.2999 382.3 76.0999C381.9 77.0999 379.9 77.9999 379.8 78.2999V78.4999C380.7 78.5999 381.8 77.4999 382.2 77.0999C384.3 75.0999 382.8 74.8999 381 74.1999C381 73.9999 381.1 73.5999 381.4 73.4999C382.5 73.3999 384.6 73.5999 385.2 73.0999C385 72.8999 385 72.8999 384.5 72.8999H377.4C377 72.9999 377 72.9999 376.9 73.1999Z" fill="white"/>
<path fill-rule="evenodd" clip-rule="evenodd" d="M383.4 66.9002L382.6 66.6002C382.5 66.1002 382.6 65.9002 382.4 65.5002C381.4 65.5002 381.6 66.7002 382.3 67.2002C383.4 67.9002 383.5 67.2002 383.6 68.7002C382.8 68.9002 382.5 69.2002 381.9 69.6002C381.7 69.8002 381.6 69.8002 381.7 70.1002C382.7 70.3002 383.1 69.3002 383.9 69.4002C384.6 69.5002 385.2 70.7002 385.7 70.3002C385.8 70.2002 385.9 70.4002 385.8 70.0002C385.7 69.6002 385.2 69.3002 384.9 69.1002C384.1 68.5002 384.2 68.7002 384.3 67.6002C384.8 67.4002 385.4 67.3002 385.7 66.9002C386.1 66.5002 386 65.8002 385.7 65.4002C384.5 65.6002 386 66.6002 384.3 66.8002C384.4 65.7002 384.7 65.0002 384.1 64.7002C383.5 65.0002 383.5 66.2002 383.4 66.9002Z" fill="white"/>
<path fill-rule="evenodd" clip-rule="evenodd" d="M377.9 67C377.6 66.9 377.2 66.8 377 66.5C376.8 66.2 376.9 65.8 376.7 65.5C376 65.6 376.1 66.5 376.3 66.9C376.7 67.5 377.3 67.3 377.8 67.6C378 67.7 378.1 68.2 378 68.4C377.8 68.8 375.8 69.4 376.4 69.9C376.9 70.2 377.6 69.1 378.3 69.2C379.2 69.2 379.3 70.3 380.2 69.9C380.1 69.5 379.8 69.2 379.6 69C379.3 68.8 378.9 68.6 378.5 68.4C378.6 67.2 379.1 67.6 379.8 67.1C380.3 66.7 380.6 65.8 379.9 65.5C379 65.9 380 66.9 378.6 66.8C378.4 65.8 378.9 64.6 377.6 64.5C377.6 65.4 378 66 377.9 67Z" fill="white"/>
<path fill-rule="evenodd" clip-rule="evenodd" d="M380.3 71.6999C379.6 71.8999 378.3 71.3999 378.1 72.0999C378.7 72.5999 382.3 72.2999 383.2 72.1999L383 71.6999L381.2 71.5999C381.2 70.9999 381 69.6999 381.1 69.1999C381.3 68.1999 382.3 68.2999 382.2 67.4999C381.4 67.3999 380.7 68.2999 380.5 68.8999C380.2 69.7999 380.4 70.6999 380.4 71.2999L380.3 71.6999Z" fill="white"/>
<path fill-rule="evenodd" clip-rule="evenodd" d="M381.8 71.0999C382.7 71.1999 382.9 70.1999 383.9 70.7999C384.2 70.9999 384.5 71.1999 384.9 71.3999C385.5 71.6999 385.8 71.4999 385.5 70.9999C385.3 70.6999 384.1 69.8999 383.5 69.8999C383 69.8999 382.8 70.1999 382.4 70.3999C382.1 70.5999 381.6 70.6999 381.8 71.0999Z" fill="white"/>
<path fill-rule="evenodd" clip-rule="evenodd" d="M376.8 71.4999C377.7 71.4999 377.8 70.8999 378.3 70.5999C379 70.6999 379.3 71.4999 379.9 71.2999C380.2 70.7999 378.9 69.8999 378.1 69.8999C377.2 70.6999 376.7 70.7999 376.8 71.4999Z" fill="white"/>
<path fill-rule="evenodd" clip-rule="evenodd" d="M27.7 67C27.3 65.3 28.9 65 31.2 64.6C39.1 63.2 42.2 65.8 50.2 62.1C50.8 61.8 51.3 61.3 52 60.9C53.8 59.9 57 59.1 59.4 58.5C64 57.3 66.8 56.7 67.4 54.1C68.3 54.1 69.2 54.3 70.1 54.3C71.2 54.4 71.4 54 72.3 53.6C74.5 52.7 80.6 53.2 88.2 50.6C91 49.6 89 50.2 91.3 48.3C91.9 47.8 91.9 47.5 92.3 46.9C93.3 45.3 94.8 45.1 88.7 44C86.9 43.7 85 43.4 83.1 43.2C77.3 42.5 68.6 41.4 62.6 40.9C57.2 40.5 48.7 42.2 47.1 42C43.7 41.6 42.5 40 35.9 41.4C34.4 41.7 26.3 42.6 23.9 42.3C18 41.5 16.9 40.1 9.39998 44.3C7.19998 45.5 2.79997 48.6 2.29997 50.3C1.99997 51.7 2.49998 50.8 1.49998 51.9C-0.900015 54.5 1.79998 56 1.89998 56.6C2.09998 57.3 1.7 57.7 2.2 58.5C2.9 59.8 4.79999 59.3 6.59999 62C7.09999 62.8 6.79999 62.9 8.09999 63.2C9.79999 63.6 11.6 64.1 12.5 64.7C15.1 66.5 18.1 66.5 22.2 67.2C23.1 67.4 24.1 67.5 25.1 67.5C26.8 67.7 26.5 67.3 27.7 67ZM5.29997 49C5.09997 48.3 5.69997 48.1 6.29997 47.6C6.69997 47.2 7.39997 46.7 7.79997 46.4C8.29997 46.1 8.39997 46.1 8.79997 45.9C9.29997 45.7 9.99999 44.9 11.6 44.5C13.3 44.1 12.8 44.6 14.1 43.8C14.8 43.4 15.2 43.1 16.1 42.8C20.9 41.2 21.4 44.1 34.2 42.5C35.8 42.3 38.3 41.5 39.8 41.7C41.1 41.9 44 41.8 44.9 42.5C43.6 42.9 40.8 43.4 39.3 43.7C38.2 43.9 37.6 44.2 36.3 44C35.3 43.9 34.1 43.4 33.4 43.7C33.1 44.2 33.7 44.6 34.3 44.8C35.3 45.2 35.6 45 36.4 45.3C34.4 45.9 31.6 47.2 28.6 46.5C25.4 45.8 25 44.8 20.3 45.2C17.4 45.4 14.7 46.1 12.3 46.7C7.59997 47.9 5.99997 48.9 5.29997 49ZM49.4 43C53.5 41.8 66.5 41.7 70.8 42.9C69.3 43.1 66.7 42.9 65 42.9C63.2 42.9 61.5 43.2 59.8 43.2L54.1 43C52.3 43 50.6 43.7 49.4 43Z" fill="white"/>
<path fill-rule="evenodd" clip-rule="evenodd" d="M108.5 30.9C107.7 31.8 107.9 31.8 108.4 33.5C108.7 34.5 109.2 35 109.5 36C109.9 37.5 112.2 38.8 114 39.8C114.5 40.1 115 40.2 115.4 40.5C116.7 41.3 114.9 41.2 118.2 42.2C120.6 42.9 119.2 43.2 123.5 43.9C128.7 44.8 128 43.7 132 43.3C133.7 43.1 134.7 42.8 135.9 42.4C141.6 40.4 143.7 38.5 150.4 37.9C154.4 37.5 154.1 37 160 37.5C160.3 36.8 160.7 36.4 162 36.2C162 35.5 162.1 35.7 162.4 35.2C162.7 34.7 162.3 34.9 162.5 34.3L163.3 34.2C163.6 34.2 164 34.2 164.2 34.2C164.4 34 164.2 34.2 164.3 33.9C164.3 33.7 164.3 33.7 164.4 33.5C164.6 33.2 164.9 33.1 165.6 33.1C163.2 30.9 165.3 32.5 164.5 31.3C164.2 30.9 162.9 30.1 163.1 29.5C163.4 28.6 166.3 28.1 165.8 27.1C165.5 26.5 165.1 26.9 164.7 26.1C165.6 25.8 166.2 25.6 166.6 24.9L165.3 24.3C165.4 24.1 167 23.6 164 23C162.7 22.8 161 22.6 159.6 22.6C157.5 22.5 157.4 22.2 155.7 22L149 22.3C146.9 22.5 147 22.8 142.3 22.9C137.7 23 137.8 22.8 132.5 23.1C128.3 23.3 122.6 24.2 119.7 23.7C117.7 23.3 117.5 23.7 116 24.2C113.8 24.9 111.3 25.6 109.7 26.4C108 27.7 105.8 30 108.5 30.9ZM116 28C117.2 28.4 117.6 28.9 118.5 29.7C121.6 30 124.4 29.3 126.9 28.6L133.9 26.7C129.5 26.8 124.6 27 120.3 27.4C119.1 27.5 116.8 27.6 116 28ZM109.5 29.8C110.1 27.7 112.6 27.3 114.6 26.4L114.8 26.3L115 26.2L115.2 26.1L115.4 26L115.6 25.9L115.8 25.8L116 25.7L116.1 25.6L116.2 25.5L116.3 25.4H116.4H116.5H116.6H116.7H116.8H116.9H117H117.1H117.2H117.3H117.4H117.5H117.6H117.7H117.8H117.9H118H118.1H118.2H118.3H118.4H118.5H118.6H118.7H118.8H118.9H119H119.1H119.2H119.3H119.4H119.5H119.6H119.7H119.8H119.9H120.1H120.3H120.5H120.7H120.9H121.1H121.3H121.5H121.7H121.9H122.1H122.3H122.5H122.7H123H123.3H123.4H123.5H123.6H123.7H123.8H123.9H124H124.1H124.2H124.3H124.4H124.5H124.6H124.7H124.8H124.9H125H125.1H125.2H125.3H125.4H125.5H125.6H125.7H125.8H125.9H126H126.1H126.2H126.3H126.4H126.5H126.6H126.7H126.8H126.9H127H127.1H127.2H127.3H127.4H127.5H127.6H127.7H127.8H127.9H128H128.1H128.2H128.3H128.4H128.5H128.6H128.7H128.8H128.9H129H129.1H129.2H129.3H129.4H129.5H129.6H129.7C130.6 25.3 130.8 25.4 131.9 25.3C136 24.8 135.1 25.2 139.1 25.1H139.2H139.3H139.4H139.5H139.6H139.7H139.8H139.9H140H140.1H140.2H140.3H140.4H140.5H140.6H140.7H140.8H140.9H141H141.1H141.2H141.3H141.4H141.5H141.6H141.7H141.8H141.9H142H142.1H142.2H142.3H142.4H142.5H142.6H142.7H142.8H142.9H143H143.1H143.2H143.3H143.4H143.5H143.6H143.7H143.8H143.9H144H144.1H144.2H144.3H144.4H144.5H144.6H144.7H144.8H144.9H145H145.1H145.2H145.3H145.4H145.5C143.5 25.5 134.1 25.4 131.5 25.5C130 25.6 129 25.4 127.3 25.7H127.2H127.1H127H126.9H126.8H126.7H126.6H126.5H126.4H126.3H126.2H126.1H126H125.9H125.8H125.7H125.6H125.5H125.4H125.3H125.2H125.1H125H124.9H124.8H124.7H124.6H124.5H124.4H124.3H124.2H124.1H124H123.9H123.8H123.7H123.6H123.5H123.4H123.3H123.2H123.1H123H122.9H122.8H122.7H122.6H122.5H122.4H122.3C119.3 25.9 117.8 27 116.2 27.8L116.7 29.4L109.5 29.8Z" fill="white"/>
<path fill-rule="evenodd" clip-rule="evenodd" d="M104.8 59.0999C105.2 59.4999 104.9 59.1999 105.4 59.4999C105.8 59.7999 105.7 59.5999 106 59.8999L104.4 60.3999C106.3 61.8999 120.2 59.4999 123.1 59.0999L122.8 58.9999C121.7 58.8999 119.5 59.0999 118.3 59.0999C111.4 59.3999 113.4 57.7999 109.5 58.3999L106 58.8999C105.8 58.8999 105.5 58.8999 105.3 58.8999L104.8 59.0999ZM185.1 60.7999C184.6 60.0999 184.1 60.2999 184.8 59.2999C185.2 58.7999 185.6 58.4999 185.7 57.8999C184 57.0999 183 57.3999 180.8 56.5999C180 56.2999 179.5 55.8999 178.6 55.8999C177.4 55.8999 177.2 55.9999 175.9 55.6999C174.9 55.4999 174.9 55.1999 173.5 54.9999C166.8 54.1999 145.1 57.5999 136.6 57.0999C135.2 56.9999 131.2 57.5999 127.6 57.6999L115 57.9999C112.4 57.8999 112.8 56.8999 109.9 57.2999C108 57.4999 106 57.7999 104 57.8999C102.7 57.9999 102 57.7999 101 58.1999C98.8999 58.9999 95.6999 59.6999 97.1999 61.3999C97.9999 62.1999 98.8999 62.3999 97.4999 64.1999C95.7999 66.5999 96.4999 66.2999 99.0999 68.1999C100.9 69.5999 102.1 70.6999 105.3 70.3999C106.6 70.2999 109.8 69.7999 110.8 69.5999C111.5 69.3999 112.2 69.0999 113 68.7999C113.8 68.5999 114.5 68.3999 115.3 68.1999C121 66.7999 139.6 63.5999 139.8 63.4999C141.6 62.7999 138.9 63.6999 140.4 63.2999C142 62.7999 155.9 61.0999 157.7 60.9999C164.3 60.3999 164.7 60.6999 170.1 60.6999C170 61.9999 171.2 61.0999 170 62.8999C170.6 63.1999 171 63.2999 171.8 63.5999C173.5 64.1999 173.7 63.6999 176.1 63.4999C177.2 63.3999 177.1 63.5999 178.3 63.3999C180.5 62.9999 184.2 61.5999 185.1 60.7999Z" fill="white"/>
<path fill-rule="evenodd" clip-rule="evenodd" d="M208.4 12.6998C208.6 17.1998 205.8 18.5998 203.6 20.5998C203.2 20.9998 202.8 23.0998 202.6 23.6998L205.7 20.3998C206.1 19.9998 206.5 19.7998 206.8 19.3998C208.1 17.9998 209.5 16.1998 211 14.9998C212.5 13.7998 213.9 11.9998 215.2 10.5998L218.5 7.2998C219.3 6.4998 219.1 6.99981 219.8 6.69981L220 5.49981C218.8 5.59981 217.1 5.49981 215.8 5.89981C214.4 6.39981 215.8 6.79981 213.8 8.59981C212.4 9.99981 210.1 11.6998 208.4 12.6998ZM193.9 37.9998C194.2 38.1998 194.5 38.3998 195 38.4998C195.2 39.2998 195.3 39.7998 195.3 40.5998C195.3 41.4998 195.6 41.9998 195.6 42.6998C197.5 42.4998 197.5 43.1998 198.5 42.9998L198.6 43.9998C199.7 43.6998 199 43.5998 199.6 43.9998C199.9 44.1998 200.3 44.4998 200.5 44.6998C200.9 44.5998 200.6 44.6998 200.9 44.4998L201.4 44.1998C201.9 44.5998 202 44.7998 202.7 45.1998C203.2 45.4998 203.6 45.3998 204.1 45.4998L204.5 45.5998L204.1 46.3998C205.4 46.6998 205.1 46.6998 205.6 46.0998L206.5 47.1998C207.3 47.0998 206.9 47.0998 207.4 46.6998C207.8 47.4998 207.4 47.2998 208.4 47.4998C209.1 47.5998 209.1 47.4998 209.5 47.0998C209.5 47.0998 209.5 47.1998 209.6 47.1998L210 47.7998C210.1 47.8998 210.5 47.8998 210.9 47.9998C211.7 48.1998 212.3 48.6998 212.9 48.6998C214.4 48.6998 217.3 46.5998 218.1 45.4998L220.7 42.5998C221.4 41.8998 221.9 41.5998 221.8 43.0998L222.6 42.9998C223 45.3998 219.1 48.2998 217.4 49.5998L210.1 54.7998C209.1 55.4998 209.3 55.9998 207.6 56.3998C205.4 56.8998 205 59.1998 203.1 60.0998C200.2 61.4998 201.2 61.2998 200.1 63.1998C198 66.9998 189.3 72.0998 191.5 79.0998C191.8 80.0998 191.7 79.7998 192.5 80.1998C192.4 81.1998 192.1 81.5998 192.7 82.2998L194.1 84.2998C196.1 84.2998 194.6 84.4998 196.6 84.7998C198 84.9998 196.6 85.8998 199.4 83.8998C199.9 84.0998 200.4 84.4998 201 84.6998C201.9 84.9998 202.1 84.4998 202.8 84.1998C203.6 84.7998 202.8 84.2998 203.2 84.6998C203.4 84.8998 202.6 84.7998 203.7 84.9998C204.1 85.0998 204.6 84.8998 205.3 84.9998C206.3 85.1998 206.1 85.3998 207.1 85.2998C208.7 84.9998 211.1 82.1998 211.4 81.6998C211.6 81.2998 211.8 80.6998 212 80.1998C213 77.8998 216.2 71.2998 218.4 70.5998C218.7 74.2998 217.6 80.6998 218.9 82.8998C219.3 82.7998 219.5 82.6998 219.9 82.5998C220.3 82.3998 220 82.4998 220.4 82.4998H220.5H221.8H221.9C222.5 82.5998 221.7 82.9998 223 82.5998C223.9 82.2998 224.3 82.6998 224.9 81.8998C226.1 80.2998 225.6 81.3998 226.3 81.1998C228.6 78.9998 228.3 74.4998 226.7 71.4998C225.9 69.9998 225.1 69.0998 224 67.8998C222.7 66.4998 221 66.1998 220.1 65.3998C220.8 62.9998 227 54.8998 228.7 52.0998C230.7 48.9998 233.2 43.4998 229.2 40.4998C228.6 39.9998 228.3 39.7998 227.5 39.3998C226.5 38.8998 226.2 39.0998 226.4 38.0998C226 38.3998 225.9 38.5998 225.4 38.1998C225.1 37.8998 224.9 37.6998 224.8 37.2998C224.7 35.7998 224.9 35.9998 225.6 35.0998C226.1 34.4998 228.1 31.5998 228.3 30.9998C228.7 29.7998 228.4 29.5998 229.2 28.5998C229.6 27.9998 230.3 27.2998 230.7 26.7998C231.1 26.0998 230.7 26.0998 231.7 24.7998C232.6 23.5998 232.7 21.2998 233.5 19.7998C234.1 18.7998 233.9 18.3998 233.4 17.3998C232.8 16.0998 233 16.1998 232.8 14.6998C232.7 14.2998 232.6 13.6998 232.5 13.3998C232.2 12.6998 232 12.8998 231.8 12.2998C230.7 9.5998 232.1 11.2998 229.2 8.2998C227.6 6.6998 227.2 6.99981 226 4.69981C222.6 4.69981 223.4 4.0998 221.3 3.2998C220.1 3.8998 220.2 4.19981 218.6 4.39981C215.1 4.99981 213.9 6.89981 211.5 8.99981C210.8 9.59981 210.2 10.1998 209.4 10.7998C208.3 11.4998 207.8 11.1998 207.3 12.6998C206.4 15.7998 207.2 15.4998 204.8 17.9998C204.1 18.6998 203.1 19.0998 202.6 19.5998C202.1 20.0998 201.8 21.5998 201.4 22.2998C199.6 25.5998 196.4 28.3998 195.5 32.1998C194.8 35.5998 196.6 32.5998 193.9 37.9998Z" fill="white"/>
<path fill-rule="evenodd" clip-rule="evenodd" d="M262 25.6999C261.4 27.6999 260.4 28.4999 259.8 29.5999C258.3 31.9999 259.5 30.4999 257.2 32.9999C256.5 33.7999 256 34.4999 255.3 35.2999C254.2 36.6999 250.9 40.5999 249.6 41.6999C248.2 42.8999 249 42.8999 246.7 42.6999C245.8 44.8999 242.2 45.2999 239 48.2999C238.4 48.8999 236 51.0999 236 51.9999C236.1 52.7999 236.9 53.4999 237.8 53.4999C238.9 53.5999 240 53.2999 241.1 53.2999C244.2 53.2999 246.7 52.9999 249.4 51.7999C252 50.5999 252.5 50.9999 256.6 48.7999C257.9 48.0999 259.9 46.9999 261.2 46.5999C259.9 49.7999 259.5 49.2999 258.7 53.8999C258.5 55.2999 258.3 54.6999 258.2 55.6999C258.2 56.4999 258.1 57.1999 258 57.9999C257.5 62.8999 258.4 64.7999 258.2 67.0999C258.1 68.6999 257.8 69.8999 257.5 71.3999C256.9 74.8999 258 76.9999 258.2 80.3999C255.5 79.8999 252.8 77.7999 251 77.8999C249.2 77.9999 249.9 78.0999 248.5 77.4999C248.5 79.0999 251.1 80.4999 252.2 81.1999C253.9 82.3999 252.8 84.4999 255.2 85.8999C256.6 86.7999 258.5 87.7999 260.1 88.4999C265.5 90.4999 263.8 86.3999 263.8 86.1999C264.2 85.7999 264.3 85.7999 264.8 85.4999C264.8 84.7999 264.7 84.6999 264.9 83.9999C265.6 81.1999 265.1 83.9999 264.8 79.6999C264.7 77.6999 264.4 75.4999 263.9 73.6999C263.4 71.8999 264.3 69.6999 264.3 67.6999C264.4 65.4999 264.3 63.0999 264.1 60.8999C263.7 55.6999 263.4 50.4999 266.1 46.1999C266.7 45.1999 266.7 44.8999 267.6 44.1999C269 43.2999 271 42.5999 272.8 42.2999C272.4 39.4999 272.5 40.0999 271 39.2999C270 38.7999 268.3 38.7999 267.2 38.8999C264.6 39.1999 262.3 40.0999 260.2 40.9999C256.7 42.5999 251 45.9999 247.9 46.9999C248.7 45.6999 249.6 44.3999 250.5 43.0999C251.5 41.6999 252.2 40.4999 253.2 39.1999C255.8 35.7999 264.1 29.5999 266.9 26.5999C268 25.3999 268.1 24.5999 266.6 22.2999C264.1 18.4999 259.5 19.5999 256.7 19.5999C255.2 19.5999 252.8 18.8999 250.8 18.7999C247.7 18.6999 245.3 19.1999 242.7 20.5999C241.7 21.1999 241.5 21.4999 242.3 22.4999C245.4 26.1999 247.6 26.1999 250.8 27.0999C252.7 27.5999 254.7 27.6999 256.5 27.0999C257.4 26.7999 258 26.1999 258.8 26.0999C260.7 26.1999 260.7 26.0999 262 25.6999Z" fill="white"/>
<path fill-rule="evenodd" clip-rule="evenodd" d="M347.2 75.3002C347.1 76.9002 347.6 78.8002 348.8 79.5002C349.5 79.3002 349.8 78.8002 350.3 78.5002C352 77.3002 353.6 76.5002 355.2 75.4002C355.8 75.0002 356.3 74.7002 356.8 74.3002C358.5 73.1002 360.2 72.1002 360.5 69.8002C357.4 70.1002 349 73.8002 347.2 75.3002ZM349.8 51.7002C349.7 52.8002 350.1 52.7002 349.6 53.6002C349.2 54.2002 349 54.6002 348.7 55.4002C348.4 56.2002 348.4 56.8002 348 57.4002C347.5 58.2002 347.4 58.4002 347.3 59.6002C348.4 59.2002 349.7 58.3002 350.5 57.7002C351 57.3002 351.5 57.0002 351.9 56.6002C352.6 55.9002 352.4 55.8002 352.9 55.1002C353.5 54.2002 355.1 53.5002 353.8 52.0002C352.9 50.8002 351.1 51.4002 349.8 51.7002ZM344.3 35.6002L344.4 37.2002C343.9 37.5002 344.1 37.5002 343.5 37.7002C343 37.2002 342.9 36.6002 342.5 36.2002C342.1 35.8002 341.2 35.7002 340.6 35.4002C339 34.4002 340.8 35.2002 338.8 34.5002C337.8 34.2002 338 34.0002 337 34.6002L337.2 35.8002C336.1 36.2002 336.3 36.2002 336.1 37.5002C335.9 38.9002 337.1 43.8002 337.6 45.2002C338.4 47.6002 339.2 49.6002 340.8 51.4002C342.1 52.8002 342 52.0002 342.6 52.1002C343.7 54.1002 343.1 55.5002 342.6 57.6002C341.7 61.5002 341.3 65.5002 341.3 69.5002C341.3 72.0002 341.8 74.7002 340.6 75.4002C341 76.4002 340.8 75.3002 340.9 76.3002C340.9 76.6002 340.9 77.0002 340.9 77.5002L342.1 77.7002L343.2 81.8002C342.7 81.6002 342.9 81.6002 342.4 81.6002C342.1 83.4002 344.5 82.9002 344.5 86.7002C344.5 87.6002 344.6 87.5002 344.9 88.1002C345.3 88.8002 345.3 90.7002 346.7 91.8002L347.7 91.2002C347.7 90.7002 347.5 89.5002 347.5 89.2002C347.6 88.4002 349.5 87.7002 349.6 84.3002C352.6 83.7002 354.1 82.0002 359.4 81.2002C365.7 80.3002 364.4 78.8002 363.8 77.0002C363.5 76.0002 363.5 75.5002 363 74.6002C361.5 74.6002 361.3 75.2002 360.1 75.6002C360.9 74.7002 363.3 73.0002 364.1 71.6002C364.4 71.1002 364.4 70.5002 364.6 70.1002C364.8 69.7002 364.7 69.9002 365.1 69.5002C366.3 68.1002 366.1 66.7002 364.9 66.3002C362.9 66.2002 361.5 67.0002 359.6 67.2002C358.5 67.3002 355.9 68.1002 354.8 68.5002L348.1 71.0002C346.9 71.5002 346.9 71.8002 345.9 71.3002C346 68.9002 349.3 66.4002 351 65.0002C352.4 63.8002 351.7 64.7002 352.9 64.4002C353.6 64.2002 353.9 63.5002 354.1 62.8002C354.5 61.4002 354.4 61.8002 354.3 60.4002C354.3 59.9002 354.3 59.2002 354.3 58.9002C354.1 58.1002 354.2 58.8002 353.6 58.1002C354.3 55.9002 356.4 56.4002 357.3 53.0002C357.6 52.1002 359.9 48.4002 356.6 47.1002C353.4 45.9002 347.1 47.4002 344 49.3002C343.4 49.6002 343.2 50.0002 342.6 50.3002C343 49.2002 344 48.0002 344.7 46.7002C346.1 43.9002 344.2 43.4002 344.5 42.1002C346.7 42.0002 345.3 41.6002 347.3 40.4002C349.9 38.8002 353.5 36.9002 356.2 35.7002C357.9 35.0002 361.7 33.5002 363 35.3002C363.8 36.5002 362.6 37.8002 362.1 38.4002C361.2 39.2002 360.4 39.8002 358.8 39.3002C358.5 40.2002 358.5 39.9002 357.3 40.0002C357.4 40.8002 357.8 41.3002 358.2 42.0002C358 42.6002 357.9 42.3002 357.6 42.9002C359.2 43.6002 360 44.0002 362.6 42.3002C364.6 41.0002 365.1 40.0002 366.2 39.2002C367.1 38.5002 367.3 38.5002 367.8 37.4002C368.2 36.6002 368.5 35.6002 368.4 34.7002C368.3 33.0002 366.7 31.7002 365 31.3002C359.5 30.1002 348.9 36.9002 346.5 36.0002C345.4 35.4002 345.9 35.1002 344.3 35.6002Z" fill="white"/>
<path fill-rule="evenodd" clip-rule="evenodd" d="M312.3 6.3999L310 6.1999C309 8.6999 308.1 10.3999 307.3 13.1999C305.9 17.9999 300.8 26.2999 297.5 30.5999C296.2 32.2999 297.1 30.7999 295.4 33.2999C294.2 35.0999 293.2 35.5999 291.8 37.0999C290.9 37.9999 288.2 39.9999 286.7 40.5999C286.1 40.7999 286.1 40.6999 285.8 41.0999C285.5 41.4999 283.6 47.4999 283.3 48.3999C282.3 51.3999 281.9 53.3999 282.5 56.7999C283.6 56.1999 283.7 55.0999 284.2 54.3999C285.8 51.7999 284.8 52.6999 286.9 50.2999C288 49.0999 291.3 46.2999 292.4 45.0999C293.2 44.1999 294.3 43.3999 295.3 42.5999L297.9 39.8999C299.2 38.1999 300.5 34.7999 301.4 32.6999L303.6 27.0999L306.7 22.2999C307.7 21.2999 308.4 20.4999 309.4 19.5999C312.7 16.3999 311.9 15.9999 312.8 14.8999C314.4 12.7999 314.6 12.5999 316.1 10.1999C316.4 9.5999 316.8 9.0999 317.1 8.4999C317.7 7.5999 317.6 7.6999 317.3 6.4999C318 5.8999 318 6.6999 318.1 5.4999C318.1 4.6999 317.9 4.5999 317.8 3.8999C319 3.1999 318.4 3.3999 319.7 3.7999C320 2.9999 320.5 2.7999 320.7 1.8999C317.3 1.3999 319.9 1.9999 315.4 2.8999C314.3 3.0999 314.7 2.9999 313.8 4.3999C313.2 5.0999 312.6 5.7999 312.3 6.3999ZM313.4 74.9999C313.4 80.7999 315.6 81.4999 321.3 79.8999C323.5 79.2999 324.3 78.8999 325.1 76.7999C325.3 76.1999 324.6 75.2999 324.2 74.6999C323.8 73.9999 323 73.1999 322.5 72.7999C323.2 71.9999 323.4 72.9999 322.8 71.7999C323.8 71.7999 323.4 71.9999 323.7 71.3999L322 71.5999C321.9 71.3999 321.9 71.2999 321.9 71.0999L321.6 70.4999L320.4 71.1999L319.4 70.4999L314.4 73.5999C313.8 73.8999 313.4 73.8999 313.4 74.9999ZM313.9 69.4999C314.4 69.2999 316.5 67.8999 316.8 67.4999C317.2 66.8999 316.6 64.1999 316.3 63.4999C316 63.5999 314.4 64.6999 314.2 65.5999C313.9 66.5999 313.6 68.3999 313.9 69.4999ZM315.9 59.9999C317.6 59.4999 318.2 58.2999 320.8 58.1999C321.3 56.8999 321.1 53.8999 321.1 52.2999C319.3 52.3999 318.2 53.7999 317.6 55.1999C317 56.1999 316 58.8999 315.9 59.9999ZM311.4 4.8999C310.1 4.6999 309.6 3.9999 308.7 5.0999C307.4 6.7999 305.7 11.3999 305.3 13.3999C304.5 17.8999 302.2 20.7999 300 23.6999C296.9 27.5999 296.1 28.2999 293.7 32.9999C292.5 35.3999 289.6 36.3999 287.3 38.2999L286.5 38.8999C284.9 39.6999 284.8 37.5999 284.2 40.4999C283.6 43.3999 281.7 47.2999 280.8 50.4999C280 53.3999 280.4 57.8999 282.3 59.6999C283.8 61.0999 284.1 60.1999 284.1 61.7999C284.9 61.6999 284.8 61.2999 285.4 60.8999C285.6 60.6999 286 60.5999 286.2 60.4999C286.7 60.1999 286.4 60.1999 286.8 59.8999C287.1 59.5999 287.9 59.3999 288.4 59.0999C289.2 58.5999 288.8 58.7999 289.9 59.1999L293.4 59.9999C294.9 60.5999 295.8 60.0999 297.2 59.5999C298.3 59.0999 299.2 58.2999 300.6 58.4999C303.5 58.6999 305.5 55.7999 306.9 55.2999C307.5 55.0999 308.2 54.9999 308.8 54.7999C309.4 54.5999 309.9 54.2999 310.5 54.0999C311.4 63.3999 304.7 75.3999 309.8 84.1999C311.1 86.3999 312.5 86.9999 315.6 86.1999C317.2 85.7999 325.4 83.1999 326.3 81.4999C326.6 80.8999 326 81.3999 327.2 80.2999C327.9 80.7999 328.3 81.9999 329 82.6999C329.6 83.3999 329.4 82.6999 330.4 83.1999C332.1 83.9999 331.5 84.3999 332.1 81.9999C332.3 81.1999 332.1 80.8999 331.9 80.2999L333 79.8999C332.9 76.9999 334.9 73.7999 328.8 71.4999C327.8 71.0999 325.7 70.8999 325.1 70.5999C325.3 70.0999 325.1 70.4999 325.4 70.1999L326 69.8999C326 68.9999 328.7 64.5999 329.5 62.9999C331.8 58.4999 332.7 52.9999 328.3 49.2999C327.5 48.5999 327.6 48.5999 326.2 48.5999C324.8 48.5999 325.1 48.4999 324 48.0999C321.5 47.1999 322.4 48.7999 317.2 48.7999C317 48.1999 316.8 47.4999 316.5 47.1999C316.1 47.5999 315.8 47.7999 315.3 47.9999C316.3 45.0999 317.6 42.4999 318.2 39.0999C318.9 39.3999 321.4 41.1999 321.9 41.6999C321.8 43.1999 321 43.3999 320.7 44.2999C321.3 44.2999 322.5 43.6999 323 43.3999C323.3 43.1999 323.8 42.8999 324.1 42.7999C324.7 42.5999 325.1 42.7999 325.8 42.5999C326.6 40.6999 325 42.3999 326.5 39.8999C327.2 38.7999 327.3 38.0999 326.8 36.7999C326.3 35.6999 325.5 35.6999 324.5 34.9999C322.6 33.7999 324.7 34.1999 321.3 33.9999L324.1 30.7999C326.2 29.4999 325.6 27.1999 326.1 26.7999C326.6 26.5999 327.7 27.1999 328.3 27.4999C329.4 27.8999 330 27.6999 330.4 28.7999C331.3 31.2999 330.7 31.9999 334.3 31.9999C335.2 31.9999 335.5 32.1999 336.1 31.5999L336.2 31.4999L336.3 31.3999C336.3 31.3999 336.3 31.2999 336.4 31.2999V31.1999C336.4 31.0999 336.5 30.7999 336.5 30.5999C336.6 30.0999 336.6 29.6999 336.7 29.2999C336.9 28.4999 337.1 27.7999 337.6 27.2999C338.2 26.7999 337.9 27.2999 338.2 26.5999C338.6 25.6999 338.5 24.0999 337.8 23.0999C336.7 21.4999 332.1 20.2999 329.6 19.6999C330.3 17.5999 331.4 18.0999 331.3 16.6999C331.3 16.5999 331.3 16.5999 331.3 16.3999C331.4 15.9999 334.7 13.5999 332.7 9.8999L329.7 5.4999C329.3 5.0999 328 4.5999 327.4 4.0999C327.2 3.9999 326.4 3.3999 326.3 3.3999C325.9 3.2999 325.6 3.4999 325 3.6999C322.5 2.1999 323.7 0.399902 318.4 0.399902C317.3 0.399902 317.4 0.899902 316.3 1.2999C314.1 1.7999 314.2 0.599902 311.4 4.8999Z" fill="white"/>
<path fill-rule="evenodd" clip-rule="evenodd" d="M349.5 29.8C352.3 26.3 349.5 24.1 349.1 23.5C348.5 22.4 348.1 21.3 348.9 20.4C349.4 19.8 349.5 20 349.9 19.1C349.2 17.9 349.4 18.7 347.4 18C346.2 19.8 346.6 22.2 347.3 24.2L349.3 29.6C349.4 29.8 349.2 29.6 349.5 29.8ZM345.1 20.9C345.1 24.4 346.2 28.7 348.6 31L348 33.2C348.5 33.4 348.6 33.6 349.1 33.8C350.2 33.3 350.5 32.6 351.2 31.9C351.6 31.5 351.6 31.4 352.2 30.8C352.8 30.2 353 29.7 353.1 30.8C353.6 30.5 353.4 30.4 353.9 30.4C354.3 30.4 354.1 30.7 355.1 30.7C356.4 30.7 356.7 29 357.2 28.1C358.4 26 357.4 26 358.4 24.6C359.2 23.5 359.6 22.8 359 21.2C358.6 20.3 358.6 20.4 357.8 20C357.2 19.8 356.7 19.6 356.1 19.3C353.6 18.2 347.8 14.6 345.8 16.6C345.1 17.4 345.1 19.8 345.1 20.9Z" fill="white"/>
</svg>
