<svg width="411" height="193" viewBox="0 0 411 193" fill="none" xmlns="http://www.w3.org/2000/svg">
<path d="M408.9 30.1006H1V61.7006H408.9V30.1006Z" stroke="#FFFCDB" stroke-width="0.5669" stroke-miterlimit="22.9256"/>
<path d="M10.9 79.2006H15.4V78.3006H10.9V79.2006ZM10.9 81.3006H15.4V80.4006H10.9V81.3006ZM10.9 83.4006H15.4V82.4006H10.9V83.4006ZM9.8 86.6006H12.4V85.1006L13.8 85.2006C14.1 85.2006 14.2 85.3006 14.2 85.4006C14.2 85.5006 14.1 85.6006 13.9 85.7006V86.5006H16.5C16 86.0006 15.5 85.4006 15.1 84.7006H11.4C10.8 85.5006 10.3 86.1006 9.8 86.6006ZM6.8 77.0006H9.40001V75.7006L10.8 75.8006C11 75.8006 11.2 75.9006 11.2 76.0006C11.2 76.1006 11.1 76.2006 10.9 76.3006V76.9006H15.4V75.6006L16.8 75.7006C17.1 75.7006 17.2 75.8006 17.2 75.9006C17.2 76.0006 17.1 76.1006 16.9 76.2006V76.8006H19.6V78.1006H16.8V83.2006H20.6V84.6006H16.7C17.1 85.1006 17.5 85.5006 18 85.8006C18.8 86.4006 19.9 87.0006 21.3 87.5006L19.8 88.6006C18.8 88.2006 18 87.6006 17.2 87.1006C17 87.0006 16.8 86.8006 16.7 86.7006V87.7006H13.8V89.3006H19.4V90.6006H6.8V89.3006H12.3V87.7006H9.40001V86.7006L9.3 86.8006C8.6 87.4006 7.5 88.0006 6.3 88.7006L5 87.5006C6.3 87.0006 7.4 86.4006 8.3 85.8006C8.7 85.5006 9.2 85.1006 9.7 84.6006H5.5V83.2006H9.3V78.1006H6.8V77.0006Z" fill="white"/>
<path d="M36.6994 79.9004C36.9994 79.5004 37.1994 79.4004 37.2994 79.4004C37.3994 79.4004 37.4994 79.4004 37.5994 79.6004L38.2994 80.1004C38.3994 80.2004 38.4994 80.2004 38.4994 80.3004C38.4994 80.4004 38.3994 80.6004 38.1994 80.7004L38.0994 84.4004C38.0994 85.4004 37.8994 86.1004 37.4994 86.5004C37.1994 86.8004 36.5994 87.0004 35.6994 87.2004L35.0994 85.7004C35.8994 85.7004 36.3994 85.6004 36.4994 85.3004C36.5994 85.1004 36.6994 84.7004 36.6994 84.2004V81.3004L34.5994 81.9004V87.1004H33.1994V82.4004L31.2994 83.0004V88.2004C31.2994 88.6004 31.3994 89.0004 31.4994 89.2004C31.5994 89.4004 31.9994 89.5004 32.3994 89.5004H35.6994C36.1994 89.5004 36.5994 89.4004 36.8994 89.2004C37.1994 89.0004 37.3994 88.5004 37.5994 87.6004L38.9994 88.2004C38.6994 89.4004 38.3994 90.2004 37.9994 90.5004C37.6994 90.8004 37.1994 91.0004 36.6994 91.0004H31.7994C31.0994 91.0004 30.5994 90.8004 30.2994 90.4004C29.9994 90.0004 29.7994 89.5004 29.7994 88.7004V83.6004L28.3994 84.0004L28.0994 82.7004L29.7994 82.1004V77.6004L31.4994 77.8004C31.6994 77.8004 31.7994 77.9004 31.7994 78.1004C31.7994 78.2004 31.6994 78.4004 31.4994 78.6004C31.2994 78.7004 31.1994 78.9004 31.1994 79.1004V81.7004L33.0994 81.1004V75.9004L34.3994 76.0004C34.5994 76.0004 34.7994 76.1004 34.7994 76.2004C34.7994 76.3004 34.6994 76.4004 34.4994 76.6004V80.7004L36.6994 79.9004ZM23.4994 80.0004H25.4994V75.9004L26.8994 76.0004C27.1994 76.0004 27.2994 76.1004 27.2994 76.2004C27.2994 76.3004 27.1994 76.4004 26.9994 76.6004V80.0004H28.8994V81.4004H26.9994V86.1004C27.6994 85.9004 28.2994 85.7004 28.9994 85.4004V86.8004C27.9994 87.2004 26.3994 87.8004 24.2994 88.6004C24.1994 88.8004 24.0994 89.0004 23.9994 89.0004C23.8994 89.0004 23.7994 88.9004 23.7994 88.7004L23.3994 87.0004C24.0994 86.9004 24.7994 86.7004 25.4994 86.5004V81.3004H23.4994V80.0004Z" fill="white"/>
<path d="M53.6996 81.0998L55.2996 81.6998C55.4996 81.7998 55.5996 81.8998 55.5996 81.9998C55.5996 82.0998 55.4996 82.1998 55.1996 82.3998C54.6996 84.4998 53.8996 86.7998 52.9996 89.2998H56.6996V90.7998H45.7996V89.2998H51.3996C51.7996 88.0998 52.1996 86.9998 52.4996 86.0998C52.9996 84.3998 53.3996 82.6998 53.6996 81.0998ZM48.6996 81.4998C49.4996 83.7998 50.0996 85.9998 50.3996 87.9998L48.6996 88.3998C48.4996 86.5998 47.9996 84.3998 47.1996 81.8998L48.6996 81.4998ZM50.2996 76.2998L51.7996 76.3998C52.0996 76.3998 52.1996 76.4998 52.1996 76.5998C52.1996 76.6998 52.0996 76.7998 51.8996 76.9998V78.7998H55.9996V80.1998H46.4996V78.7998H50.1996V76.2998H50.2996ZM45.2996 75.7998L46.6996 76.3998C46.8996 76.4998 46.8996 76.4998 46.8996 76.5998C46.8996 76.7998 46.7996 76.8998 46.4996 76.9998C45.9996 78.1998 45.3996 79.1998 44.9996 80.0998V91.1998H43.4996V82.4998C43.0996 82.9998 42.6996 83.5998 42.1996 84.1998L41.0996 83.0998C42.0996 81.9998 42.8996 80.8998 43.4996 79.6998C44.0996 78.6998 44.6996 77.3998 45.2996 75.7998Z" fill="white"/>
<path d="M64.4998 78.6004V77.5004H61.7998V78.6004H64.4998ZM68.4998 78.6004V77.5004H65.8998V78.6004H68.4998ZM72.4998 78.6004V77.5004H69.7998V78.6004H72.4998ZM62.8998 84.3004H71.4998V83.6004H62.8998V84.3004ZM62.8998 86.0004H71.4998V85.4004H62.8998V86.0004ZM62.8998 87.7004H71.4998V87.1004H62.8998V87.7004ZM62.8998 89.5004H71.4998V88.8004H62.8998V89.5004ZM60.2998 76.4004H73.9998V79.9004H68.1998L67.9998 80.7004H74.4998V81.9004H67.5998L67.3998 82.6004H72.7998V89.6004H74.4998V90.7004H59.7998V89.6004H61.4998V82.6004H65.9998L66.1998 81.9004H59.7998V80.7004H66.4998L66.6998 79.9004H60.2998V76.4004Z" fill="white"/>
<path d="M83.8994 78.7998H86.3994V81.2998H83.8994V78.7998ZM83.8994 85.4998H86.3994V87.9998H83.8994V85.4998Z" fill="white"/>
<path d="M106.5 75.7998L107.9 75.9998C108.1 75.9998 108.2 76.0998 108.2 76.1998C108.2 76.2998 108.1 76.3998 107.9 76.5998V80.2998C108.6 79.6998 109.2 79.1998 109.8 78.5998L110.9 79.6998C111 79.7998 111 79.8998 111 79.9998C111 80.0998 110.8 80.0998 110.5 80.0998C109.7 80.6998 108.8 81.3998 107.9 81.9998V83.3998C109 84.2998 110.1 85.3998 111.2 86.6998L109.9 87.5998C109.3 86.7998 108.6 85.9998 108 85.2998V89.4998C108 89.8998 108.3 89.9998 108.9 89.9998C109.1 89.9998 109.3 89.9998 109.4 89.8998C109.6 89.6998 109.7 89.1998 109.9 88.2998L111.3 88.8998C111.1 90.0998 110.9 90.8998 110.5 91.0998C110.2 91.2998 109.7 91.4998 108.9 91.4998C107.9 91.4998 107.3 91.3998 107 91.0998C106.7 90.8998 106.6 90.4998 106.6 89.9998V75.7998H106.5ZM103.8 75.7998L105.3 75.9998C105.5 75.9998 105.6 76.0998 105.6 76.1998C105.6 76.3998 105.5 76.4998 105.3 76.5998C105.3 78.4998 105.2 80.2998 105.2 81.9998C105.2 83.5998 105.1 84.9998 104.9 86.2998C104.7 87.2998 104.4 88.1998 104 89.0998C103.7 89.8998 103.2 90.5998 102.5 91.4998L100.9 90.7998C101.6 90.0998 102.2 89.3998 102.6 88.5998C103 87.7998 103.3 86.9998 103.5 85.9998C103.5 85.8998 103.5 85.8998 103.5 85.7998L101.9 87.0998C101.8 87.3998 101.6 87.5998 101.5 87.5998C101.4 87.5998 101.3 87.4998 101.2 87.2998L100.6 85.7998C101.6 85.2998 102.6 84.6998 103.6 84.0998C103.6 83.4998 103.7 82.6998 103.7 81.9998V81.4998L103 82.1998C102.4 81.1998 101.6 80.3998 100.9 79.5998L101.9 78.6998C102.6 79.3998 103.2 80.0998 103.7 80.7998V75.7998H103.8ZM95.6 79.1998H97.8V75.7998L99.2 75.8998C99.5 75.8998 99.6 75.9998 99.6 76.0998C99.6 76.1998 99.5 76.2998 99.3 76.3998V79.0998H100.8V80.4998H99.5C100 81.8998 100.7 83.0998 101.4 83.9998L100.4 85.0998C100 84.3998 99.6 83.5998 99.3 82.7998V90.6998H97.8V83.0998C97.7 83.4998 97.6 83.8998 97.5 84.1998C97.2 85.3998 96.9 86.3998 96.5 87.3998L95 86.3998C95.5 85.4998 96 84.5998 96.4 83.5998C96.7 82.8998 97 81.8998 97.4 80.4998H95.6V79.1998Z" fill="white"/>
<path d="M123.7 83.9004V83.2004H118.7V83.9004H123.7ZM117.4 82.1004H125.1V84.9004H122.3C122.6 85.4004 123 85.9004 123.4 86.2004C124.1 85.8004 124.7 85.5004 125.2 85.1004L126.1 86.0004C126.1 86.1004 126.2 86.2004 126.2 86.2004C126.2 86.3004 126.1 86.3004 125.8 86.3004C125.4 86.5004 124.9 86.7004 124.5 86.9004C125.1 87.2004 125.9 87.6004 126.9 87.9004L125.6 89.0004C124.2 88.3004 123.3 87.6004 122.7 87.0004C122.2 86.5004 121.8 85.8004 121.4 84.9004H121.1C120.8 85.2004 120.6 85.4004 120.3 85.7004V87.6004C121.1 87.5004 121.9 87.3004 122.5 87.2004L122.6 88.3004C121.2 88.7004 119.9 89.0004 118.7 89.2004C118.6 89.3004 118.6 89.4004 118.5 89.4004C118.4 89.4004 118.4 89.3004 118.3 89.2004L117.6 88.0004C118.1 87.9004 118.5 87.9004 118.9 87.8004V86.6004C118.3 86.9004 117.7 87.2004 116.9 87.4004L115.8 86.3004C116.8 86.0004 117.7 85.7004 118.5 85.4004C118.8 85.3004 119.1 85.1004 119.4 84.9004H117.5V82.1004H117.4ZM117 78.8004H120.5V78.0004L121.8 78.1004C122 78.1004 122.2 78.2004 122.2 78.3004C122.2 78.4004 122.1 78.5004 121.9 78.7004V78.8004H125.4V79.9004H121.8V80.5004H126.1V81.6004H116V80.5004H120.3V79.9004H116.8V78.8004H117ZM115.4 89.4004H127V77.7004H115.4V89.4004ZM114 76.4004H128.4V91.2004H127V90.7004H115.4V91.2004H114V76.4004Z" fill="white"/>
<path d="M133.799 81.8998H138.299V80.0998L139.799 80.1998C140.099 80.1998 140.199 80.2998 140.199 80.3998C140.199 80.4998 140.099 80.5998 139.799 80.7998V81.8998H145.399V88.2998C145.399 89.0998 144.899 89.5998 143.999 89.7998C143.299 89.9998 142.499 90.0998 141.799 90.0998L141.199 88.4998H142.999C143.499 88.4998 143.799 88.2998 143.799 87.8998V83.3998H139.799V91.2998H138.199V83.3998H134.499V90.3998H132.899V81.8998H133.799ZM138.299 75.7998L139.799 75.8998C140.099 75.8998 140.199 75.9998 140.199 76.0998C140.199 76.1998 140.099 76.2998 139.799 76.4998V78.1998H146.699V79.6998H131.399V78.1998H138.199V75.7998H138.299Z" fill="white"/>
<path d="M163.3 86.1998C162.8 87.3998 162.3 88.3998 161.8 88.9998C161.6 89.2998 161.3 89.4998 161.1 89.7998C162 89.7998 162.6 89.6998 162.7 89.5998C162.9 89.4998 163 89.2998 163.1 88.8998C163.1 88.4998 163.2 87.5998 163.3 86.1998ZM155.7 82.6998H165.3V83.8998H159.4C159.3 84.1998 159.2 84.4998 159.1 84.7998H164.8C164.8 87.2998 164.7 88.8998 164.5 89.5998C164.4 90.2998 164.1 90.6998 163.8 90.8998C163.4 91.1998 162.7 91.2998 161.8 91.2998L161.1 89.7998C160.4 90.3998 159.7 90.9998 158.8 91.5998L157.5 90.7998C158.9 89.9998 159.9 89.2998 160.6 88.4998C161.2 87.7998 161.7 86.9998 162.1 85.9998H160.8C160.3 87.0998 159.8 87.8998 159.2 88.4998C158.3 89.2998 157.2 89.9998 155.9 90.6998L154.6 89.8998C156.1 89.2998 157.2 88.5998 157.9 87.9998C158.5 87.4998 159 86.7998 159.5 85.9998H158.4C158.4 86.0998 158.3 86.0998 158.3 86.1998C157.7 86.9998 156.9 87.5998 155.9 88.1998L154.6 87.3998C155.7 86.7998 156.5 86.1998 157 85.5998C157.4 85.0998 157.8 84.5998 158.1 83.8998H155.8V82.6998H155.7ZM158.1 78.3998H162.8V77.2998H158.1V78.3998ZM162.9 80.5998V79.4998H158.2V80.5998H162.9ZM156.7 76.1998H164.4V81.7998H156.7V76.1998ZM149.6 79.4998H152.1V75.7998L153.5 75.8998C153.8 75.8998 153.9 75.9998 153.9 76.0998C153.9 76.1998 153.8 76.2998 153.6 76.3998V79.3998H155.5V80.7998H153.6V80.8998C154.1 82.3998 154.8 83.6998 155.6 84.6998L154.6 85.7998C154.2 85.0998 153.9 84.3998 153.6 83.5998V90.7998H152.1V83.9998C152 84.1998 152 84.2998 151.9 84.4998C151.5 85.5998 151 86.5998 150.5 87.5998L149 86.5998C149.7 85.7998 150.2 84.8998 150.7 83.8998C151 83.2998 151.5 82.2998 151.9 80.9998H149.4V79.4998H149.6Z" fill="white"/>
<path d="M178.1 81.8002C178.6 82.2002 179.2 82.7002 179.7 83.3002L178.5 84.1002C178.1 83.5002 177.7 83.0002 177.2 82.6002L178.1 81.8002ZM176 84.1002H180.5C180.5 83.4002 180.5 82.5002 180.5 81.6002H176.3C176.2 82.5002 176.1 83.3002 176 84.1002ZM175.4 87.7002H178.3C177.8 87.1002 177.3 86.5002 176.8 86.0002L177.7 85.3002C178.3 85.7002 178.9 86.3002 179.5 87.0002L178.4 87.7002H180.2C180.3 87.2002 180.3 86.4002 180.4 85.3002H175.8C175.7 86.1002 175.6 87.0002 175.4 87.7002ZM175 80.4002H181.9C181.9 81.8002 181.9 83.1002 181.9 84.1002H183.2V85.3002H181.8C181.8 86.3002 181.7 87.1002 181.6 87.7002H182.9V89.0002H181.4C181.2 89.8002 181 90.4002 180.6 90.7002C180.1 91.1002 179.3 91.3002 178.1 91.3002L177.4 89.8002C178.6 89.8002 179.3 89.7002 179.5 89.4002C179.6 89.3002 179.7 89.1002 179.8 88.9002H175C175 89.0002 175 89.0002 175 89.1002H173.6C173.8 87.9002 174.1 86.6002 174.3 85.2002H173.1V84.0002H174.5C174.7 82.9002 174.9 81.7002 175 80.4002ZM175.2 75.7002L176.6 76.1002C176.7 76.1002 176.8 76.2002 176.8 76.3002C176.8 76.4002 176.7 76.6002 176.5 76.7002C176.4 77.1002 176.2 77.4002 176.1 77.8002H183V79.2002H175.4C174.9 80.1002 174.4 81.0002 173.9 81.7002L172.5 81.2002C173.1 80.5002 173.6 79.8002 173.9 79.0002C174.5 78.1002 174.9 76.9002 175.2 75.7002ZM169.7 75.8002L171.1 75.9002C171.4 75.9002 171.5 76.0002 171.5 76.1002C171.5 76.2002 171.4 76.3002 171.2 76.4002V78.9002H172.9V80.3002H171.2V80.4002C171.8 81.7002 172.5 82.8002 173.4 83.6002L172.4 84.7002C172 84.1002 171.6 83.4002 171.2 82.7002V90.6002H169.7V83.4002C169.7 83.5002 169.6 83.6002 169.6 83.7002C169.3 84.8002 168.9 85.9002 168.5 86.9002L167 85.9002C167.6 85.1002 168.1 84.2002 168.5 83.2002C168.8 82.6002 169.1 81.6002 169.5 80.3002H167.5V78.9002H169.7V75.8002Z" fill="white"/>
<path d="M198.4 87.3004V85.1004H196.4V87.3004H198.4ZM195 83.8004H199.8V88.5004H195V83.8004ZM192.4 87.3004V85.1004H190.5V87.3004H192.4ZM189.1 83.8004H193.8V88.5004H189.1V83.8004ZM196.6 81.7004V79.9004H192.1V81.7004H196.6ZM190.7 78.6004H198V82.9004H190.7V78.6004ZM200.5 76.4004V77.8004H187.9V89.4004H200.9V90.8004H187.9V91.4004H186.3V76.4004H200.5Z" fill="white"/>
<path d="M217.3 86.1998C216.8 87.3998 216.3 88.3998 215.8 88.9998C215.6 89.2998 215.3 89.4998 215.1 89.7998C216 89.7998 216.6 89.6998 216.7 89.5998C216.9 89.4998 217 89.2998 217.1 88.8998C217.2 88.4998 217.3 87.5998 217.3 86.1998ZM209.7 82.6998H219.3V83.8998H213.4C213.3 84.1998 213.2 84.4998 213.1 84.7998H218.8C218.8 87.2998 218.7 88.8998 218.5 89.5998C218.4 90.2998 218.1 90.6998 217.8 90.8998C217.4 91.1998 216.7 91.2998 215.8 91.2998L215.1 89.7998C214.4 90.3998 213.7 90.9998 212.8 91.5998L211.5 90.7998C212.9 89.9998 213.9 89.2998 214.6 88.4998C215.2 87.7998 215.7 86.9998 216.1 85.9998H214.8C214.3 87.0998 213.8 87.8998 213.2 88.4998C212.3 89.2998 211.2 89.9998 209.9 90.6998L208.6 89.8998C210.1 89.2998 211.2 88.5998 211.9 87.9998C212.5 87.4998 213 86.7998 213.5 85.9998H212.4C212.4 86.0998 212.3 86.0998 212.3 86.1998C211.7 86.9998 210.9 87.5998 209.9 88.1998L208.6 87.3998C209.7 86.7998 210.5 86.1998 211 85.5998C211.4 85.0998 211.8 84.5998 212.1 83.8998H209.8V82.6998H209.7ZM212.2 78.3998H216.9V77.2998H212.2V78.3998ZM216.9 80.5998V79.4998H212.2V80.5998H216.9ZM210.7 76.1998H218.4V81.7998H210.7V76.1998ZM203.6 79.4998H206.1V75.7998L207.5 75.8998C207.8 75.8998 207.9 75.9998 207.9 76.0998C207.9 76.1998 207.8 76.2998 207.6 76.3998V79.3998H209.5V80.7998H207.6V80.8998C208.1 82.3998 208.8 83.6998 209.6 84.6998L208.6 85.7998C208.2 85.0998 207.9 84.3998 207.6 83.5998V90.7998H206.1V83.9998C206 84.1998 206 84.2998 205.9 84.4998C205.5 85.5998 205 86.5998 204.5 87.5998L203 86.5998C203.7 85.7998 204.2 84.8998 204.7 83.8998C205 83.2998 205.5 82.2998 205.9 80.9998H203.4V79.4998H203.6Z" fill="white"/>
<path d="M233.6 80.2H235.5V77.7H233.6V80.2ZM233.6 84.1H235.5V81.4H233.6V81.8C233.6 82.7 233.6 83.4 233.6 84.1ZM232.2 77.7V76.4H237V89.6C237 90.3 236.7 90.8 236 91C235.5 91.2 235 91.3 234.5 91.3L233.9 89.8H235C235.3 89.8 235.5 89.6 235.5 89.2V85.5H233.6C233.6 85.7 233.6 85.8 233.6 86C233.5 87.2 233.3 88.3 233 89.3C232.8 90 232.6 90.7 232.2 91.4L230.9 90.5C231.2 90 231.4 89.5 231.5 89.2C231.8 88.5 231.9 87.7 232.1 86.9C232.2 85.8 232.3 84.1 232.3 81.9V77.7H232.2ZM227.4 87.9H229.3V84.9H227.4V87.9ZM225.7 79.1H227.7V76L229 76.1C229.2 76.1 229.4 76.2 229.4 76.3C229.4 76.4 229.3 76.5 229.1 76.7V79.1H231.1V80.4H229.1V83.5H230.7V89.8H229.3V89.2H227.4V90.3H226V83.6H227.6V80.5H225.6V79.1H225.7ZM224.5 84.8L225.4 85.9C224.7 87.6 224 89.2 223.2 90.7C223.2 91.1 223.1 91.2 222.9 91.2L221.6 90.2C222.7 88.6 223.6 86.8 224.5 84.8ZM222.6 80.5C223.6 81.1 224.4 81.7 225.1 82.4L224.1 83.5C223.3 82.8 222.4 82.2 221.5 81.6L222.6 80.5ZM223.8 76.2C224.7 76.7 225.4 77.3 226 77.9L225.1 78.9C224.4 78.3 223.7 77.7 222.8 77.2L223.8 76.2Z" fill="white"/>
<path d="M248.5 88.9998H252.2V86.3998H248.5V88.9998ZM247 84.9998H253.6V91.2998H252.1V90.2998H248.4V91.2998H246.9V84.9998H247ZM248.7 78.8998C249.2 79.6998 249.7 80.3998 250.3 80.9998C250.6 80.7998 250.9 80.4998 251.1 80.1998C251.4 79.7998 251.8 79.2998 252.2 78.5998H248.8C248.8 78.6998 248.7 78.7998 248.7 78.8998ZM248.6 75.7998L249.9 76.1998C250 76.1998 250.1 76.2998 250.1 76.3998C250.1 76.4998 250 76.5998 249.8 76.7998C249.7 76.9998 249.7 77.1998 249.6 77.2998H253.2C253.3 77.2998 253.4 77.1998 253.5 77.1998L253.7 77.2998L254.3 77.9998C254.4 78.0998 254.4 78.2998 254.4 78.2998C254.4 78.3998 254.2 78.4998 253.9 78.6998C253.2 79.9998 252.5 80.9998 251.8 81.5998C251.7 81.6998 251.6 81.7998 251.5 81.8998C252.4 82.3998 253.7 82.9998 255.4 83.5998L253.9 84.7998C252.4 84.0998 251.2 83.3998 250.4 82.7998C250.2 82.8998 250.1 82.9998 249.9 83.0998C249.1 83.5998 248.1 84.0998 246.7 84.6998L245.6 83.4998C247.2 82.8998 248.5 82.2998 249.2 81.6998C248.7 81.1998 248.3 80.5998 247.9 79.8998C247.6 80.2998 247.3 80.7998 246.9 81.1998L245.6 80.1998C246.9 79.1998 247.9 77.5998 248.6 75.7998ZM244.1 80.4998V77.8998H241.7V80.4998H244.1ZM240.2 76.5998H245.5V81.7998H244V84.1998H245.8V85.5998H244V88.3998C244.7 88.1998 245.4 87.9998 246.1 87.7998V89.0998C244.8 89.4998 242.9 90.0998 240.1 90.8998C240 91.0998 239.9 91.1998 239.8 91.1998C239.7 91.1998 239.6 91.0998 239.6 90.8998L239.2 89.3998C239.4 89.3998 239.6 89.2998 239.9 89.2998V83.6998L241.2 83.7998C241.4 83.7998 241.6 83.8998 241.6 83.9998C241.6 84.0998 241.5 84.1998 241.3 84.2998V88.9998C241.7 88.8998 242.1 88.7998 242.5 88.6998V81.7998H240.2V76.5998Z" fill="white"/>
<path d="M273 82.2998H257.6V83.7998H273V82.2998Z" fill="white"/>
<path d="M284.9 84.5C285 84.9 285.1 85.2 285.3 85.6C285.6 86.2 285.9 86.8 286.4 87.4C286.5 87.5 286.5 87.5 286.6 87.6C286.7 87.5 286.7 87.5 286.8 87.4C287.3 86.8 287.8 85.8 288.3 84.5H284.9ZM282.7 83.2H288.7C288.9 83 289.1 82.9 289.1 82.9C289.2 82.9 289.3 83 289.5 83.1L290.3 83.9C290.4 84 290.4 84.1 290.4 84.2C290.4 84.3 290.2 84.4 289.9 84.6C289.3 86.4 288.5 87.7 287.7 88.6C287.9 88.7 288.2 88.9 288.5 89C289.2 89.3 290.1 89.6 291.2 89.8L289.9 91.3C288.8 91 287.9 90.5 287.2 90C287 89.9 286.8 89.7 286.7 89.6C285.7 90.3 284.5 90.8 282.9 91.3L281.8 89.9C282.9 89.7 283.7 89.4 284.4 89.1C284.8 88.9 285.2 88.7 285.5 88.5C285.4 88.4 285.3 88.2 285.2 88.1C284.7 87.4 284.2 86.7 283.9 85.8C283.7 85.3 283.6 84.9 283.5 84.5H282.8V83.2H282.7ZM284 76.6H288.5V80.4C288.5 80.7 288.7 80.8 289.2 80.8C289.6 80.8 289.8 80.7 289.9 80.6C290 80.5 290.1 80 290.2 79.3L291.4 79.6C291.3 80.7 291.1 81.5 290.7 81.8C290.5 82.1 289.9 82.2 289.1 82.2C288.1 82.2 287.6 82 287.4 81.7C287.2 81.5 287.1 81.2 287.1 80.7V78H285.3C285.2 79 285.1 79.9 284.8 80.4C284.5 81.1 283.9 81.8 283 82.4L282.1 81.3C282.8 80.9 283.3 80.4 283.5 79.8C283.9 79.3 284 78.2 284 76.6ZM281.6 77.5C281.5 77.5 281.3 77.5 281.1 77.6C280.3 77.8 279.4 77.9 278.3 78V80.4H281.7V81.8H278.3V83.7H281.7V85.1H278.3V87.3C279.6 87.1 280.9 86.9 282.2 86.7V88C281.3 88.2 280 88.5 278.3 88.8V91.4H276.8V89.1C276.6 89.1 276.4 89.2 276.2 89.2C276.1 89.4 276 89.5 275.9 89.5C275.8 89.5 275.7 89.4 275.7 89.3L275.3 87.7C275.8 87.6 276.3 87.6 276.8 87.5V76.9C277.5 76.8 278.3 76.7 279 76.6C279.7 76.5 280.4 76.3 281 76L282.1 77.2C282.2 77.3 282.3 77.4 282.3 77.6C282.3 77.7 282.3 77.8 282.2 77.8L281.6 77.5Z" fill="white"/>
<path d="M328.2 81.2998H331.7V79.3998H328.2V81.2998ZM326.8 84.2998H333.2C332.8 83.7998 332.4 83.2998 332 82.7998H327.9C327.5 83.2998 327.2 83.7998 326.8 84.2998ZM332.2 85.5998H327.4V86.8998H332.2V85.5998ZM323 77.9998H326.6V75.7998L328 75.8998C328.3 75.8998 328.4 75.9998 328.4 76.0998C328.4 76.1998 328.3 76.2998 328.1 76.4998V77.9998H331.6V75.7998L333 75.8998C333.3 75.8998 333.4 75.9998 333.4 76.0998C333.4 76.1998 333.3 76.2998 333.1 76.4998V77.9998H336.6V79.2998H333.1V81.1998H337.4V82.5998H333.6C334.2 83.3998 334.8 83.8998 335.3 84.2998C335.9 84.7998 336.7 85.1998 337.7 85.5998L336.5 86.9998C335.6 86.4998 334.8 85.7998 334 85.0998C333.8 84.8998 333.6 84.6998 333.5 84.5998V88.0998H327.3V89.1998C327.3 89.5998 327.5 89.6998 327.8 89.6998H333.3C333.8 89.6998 334.1 89.5998 334.3 89.3998C334.5 89.2998 334.7 88.6998 334.9 87.8998L336.3 88.2998C336.1 89.3998 335.8 90.1998 335.4 90.4998C335 90.8998 334.4 91.0998 333.7 91.0998H327.4C326.4 91.0998 325.9 90.6998 325.9 89.8998V85.1998C325.2 85.8998 324.3 86.4998 323.2 87.1998L321.8 85.8998C323 85.2998 324.1 84.6998 325 83.9998C325.4 83.6998 325.8 83.2998 326.3 82.6998H322.1V81.2998H326.5V79.3998H322.9V77.9998H323Z" fill="white"/>
<path d="M368.899 85.6998H372.699V84.9998C372.699 84.6998 372.699 84.2998 372.599 83.7998L374.299 83.8998C374.599 83.8998 374.699 83.9998 374.699 84.0998C374.699 84.2998 374.499 84.3998 374.199 84.5998V85.6998H378.699V83.8998L380.199 83.9998C380.499 83.9998 380.599 84.0998 380.599 84.1998C380.599 84.2998 380.499 84.3998 380.299 84.5998V85.6998H383.899V87.1998H380.299V91.2998H378.699V87.1998H374.199C374.099 87.7998 373.999 88.3998 373.699 88.8998C373.399 89.3998 372.899 89.8998 372.199 90.3998C371.699 90.6998 370.999 91.0998 370.299 91.3998L368.999 90.1998C369.699 89.9998 370.299 89.7998 370.699 89.4998C371.399 89.1998 371.799 88.8998 372.099 88.4998C372.399 88.0998 372.599 87.6998 372.699 87.1998H368.899V85.6998ZM370.299 76.2998H382.699V77.6998H377.199V79.1998H382.099V80.5998H377.199V82.0998H383.499V83.5998H369.199V82.0998H375.499V80.5998H370.599V79.1998H375.499V77.6998H370.199V76.2998H370.299Z" fill="white"/>
<path d="M406.499 85.1998L408.099 85.3998C408.299 85.3998 408.399 85.4998 408.399 85.5998C408.399 85.6998 408.299 85.8998 408.099 85.9998C407.899 86.0998 407.799 86.2998 407.799 86.4998V88.3998C407.799 88.8998 407.899 89.1998 407.999 89.3998C408.099 89.5998 408.299 89.6998 408.599 89.6998C408.799 89.6998 408.899 89.5998 408.999 89.4998C409.099 89.3998 409.299 89.0998 409.399 88.4998L410.699 89.0998C410.499 89.8998 410.299 90.2998 410.099 90.5998C409.899 90.7998 409.599 90.8998 409.299 90.8998H408.299C407.699 90.8998 407.199 90.6998 406.899 90.2998C406.599 89.8998 406.499 89.3998 406.499 88.6998V85.1998ZM403.899 85.0998L405.299 85.2998C405.499 85.2998 405.599 85.3998 405.599 85.4998C405.599 85.5998 405.499 85.6998 405.299 85.7998C405.299 86.2998 405.199 86.6998 405.199 87.0998C405.199 87.7998 405.099 88.4998 404.999 88.9998C404.899 89.3998 404.699 89.7998 404.399 90.1998C404.199 90.4998 403.799 90.8998 403.299 91.2998L401.799 90.6998C402.299 90.3998 402.699 90.0998 402.999 89.7998C403.299 89.4998 403.499 89.0998 403.599 88.6998C403.799 88.2998 403.799 87.6998 403.799 87.0998V85.0998H403.899ZM404.299 75.7998L405.699 75.8998C405.999 75.8998 406.099 75.9998 406.099 76.0998C406.099 76.1998 405.999 76.2998 405.799 76.3998V76.6998H409.399V77.7998H405.799V78.6998H410.299V81.3998H408.799V79.8998H405.899V80.9998L408.399 80.5998L408.499 81.6998L405.799 82.1998V82.5998C405.799 83.0998 405.899 83.3998 406.199 83.3998H407.799C407.999 83.3998 408.199 83.2998 408.399 83.1998C408.499 83.0998 408.599 82.7998 408.699 82.3998L409.999 82.7998C409.899 83.4998 409.599 83.8998 409.299 84.0998C408.999 84.2998 408.599 84.3998 407.999 84.3998H405.899C404.899 84.3998 404.399 83.9998 404.399 83.2998V82.3998L402.899 82.6998L402.799 81.4998L404.299 81.1998V79.7998H402.699V82.7998C402.699 84.4998 402.499 86.0998 402.299 87.4998C402.099 88.4998 401.699 89.7998 400.999 91.3998L399.599 90.6998C400.199 89.3998 400.599 88.1998 400.899 87.1998C401.199 85.6998 401.399 84.2998 401.399 82.8998V78.6998H404.199V75.7998H404.299ZM394.999 81.7998H400.999V83.0998H397.799C397.699 83.5998 397.599 84.1998 397.399 84.6998H400.499C400.399 86.6998 400.199 87.9998 399.999 88.6998C399.899 89.5998 399.499 90.2998 398.899 90.6998C398.399 90.9998 397.499 91.1998 396.199 91.1998L395.799 89.8998C397.199 89.8998 398.099 89.6998 398.399 89.2998C398.699 88.9998 398.899 87.7998 399.099 85.8998H396.999C396.899 86.3998 396.699 86.8998 396.499 87.3998L395.099 87.0998C395.599 85.6998 395.899 84.3998 396.199 83.1998H394.899V81.7998H394.999ZM398.999 79.4998V77.7998H396.899V79.4998H398.999ZM395.599 76.5998H400.299V80.5998H395.599V76.5998Z" fill="white"/>
<path d="M298.699 85.8C298.699 85.1 298.499 84.6 298.199 84.1C297.799 83.6 297.299 83.3 296.699 83.3C296.099 83.3 295.699 83.5 295.299 83.9C294.899 84.3 294.599 84.9 294.599 85.7C294.599 86.4 294.799 87 295.199 87.5C295.599 88.1 296.099 88.4 296.799 88.4C297.499 88.4 297.999 88.1 298.299 87.5C298.599 87 298.699 86.5 298.699 85.8ZM300.599 85.8C300.599 87 300.299 87.9 299.599 88.7C298.899 89.5 297.899 90 296.699 90C295.899 90 295.199 89.8 294.599 89.4C293.999 89.1 293.599 88.6 293.299 88.1C292.699 87.1 292.399 85.7 292.399 84C292.399 82.5 292.599 81.3 292.999 80.3C293.699 78.5 294.999 77.5 296.799 77.5C297.499 77.5 298.199 77.7 298.699 78C299.599 78.5 300.099 79.4 300.299 80.6L298.399 80.8C298.199 79.7 297.599 79.1 296.699 79.1C295.199 79.1 294.399 80.5 294.299 83.2C294.899 82.3 295.799 81.9 296.899 81.9C297.899 81.9 298.699 82.3 299.399 83C300.299 83.7 300.599 84.6 300.599 85.8Z" fill="white"/>
<path d="M310.7 79.1002C309.8 80.0002 308.9 81.3002 308.2 82.9002C307.1 85.1002 306.5 87.4002 306.3 89.8002H304.4C304.5 87.8002 305 85.8002 305.9 83.6002C306.6 81.9002 307.5 80.5002 308.4 79.5002H302.7V77.7002H310.7V79.1002Z" fill="white"/>
<path d="M319 85.8C319 85.1 318.8 84.6 318.5 84.1C318.1 83.6 317.6 83.3 317 83.3C316.4 83.3 316 83.5 315.6 83.9C315.2 84.3 314.9 84.9 314.9 85.7C314.9 86.4 315.1 87 315.5 87.5C315.9 88.1 316.4 88.4 317.1 88.4C317.8 88.4 318.3 88.1 318.6 87.5C318.8 87 319 86.5 319 85.8ZM320.9 85.8C320.9 87 320.6 87.9 319.9 88.7C319.2 89.5 318.2 90 317 90C316.2 90 315.5 89.8 314.9 89.4C314.3 89.1 313.9 88.6 313.6 88.1C313 87.1 312.7 85.7 312.7 84C312.7 82.5 312.9 81.3 313.3 80.3C314 78.5 315.3 77.5 317.1 77.5C317.8 77.5 318.5 77.7 319 78C319.9 78.5 320.4 79.4 320.6 80.6L318.7 80.8C318.5 79.7 317.9 79.1 317 79.1C315.5 79.1 314.7 80.5 314.6 83.2C315.2 82.3 316.1 81.9 317.2 81.9C318.2 81.9 319 82.3 319.7 83C320.5 83.7 320.9 84.6 320.9 85.8Z" fill="white"/>
<path d="M347.3 85.6002C347.3 86.7002 347 87.7002 346.3 88.5002C345.5 89.4002 344.4 89.9002 343.1 89.9002C342.1 89.9002 341.2 89.6002 340.5 89.0002C339.7 88.4002 339.3 87.5002 339.2 86.5002L341.1 86.3002C341.2 87.1002 341.5 87.7002 342 88.0002C342.3 88.2002 342.7 88.3002 343.1 88.3002C343.8 88.3002 344.3 88.0002 344.7 87.5002C345.1 87.0002 345.3 86.4002 345.3 85.7002C345.3 84.8002 345.1 84.1002 344.6 83.7002C344.2 83.3002 343.7 83.1002 343.1 83.1002C342.3 83.1002 341.6 83.5002 341.1 84.2002L339.4 84.0002L340.6 77.7002H346.7V79.5002H342L341.5 82.2002C342.1 81.8002 342.8 81.6002 343.5 81.6002C344.5 81.6002 345.4 82.0002 346.1 82.7002C346.9 83.4002 347.3 84.4002 347.3 85.6002Z" fill="white"/>
<path d="M357.4 85.6002C357.4 86.7002 357.1 87.7002 356.4 88.5002C355.6 89.4002 354.5 89.9002 353.2 89.9002C352.2 89.9002 351.3 89.6002 350.6 89.0002C349.8 88.4002 349.4 87.5002 349.3 86.5002L351.2 86.3002C351.3 87.1002 351.6 87.7002 352.1 88.0002C352.4 88.2002 352.8 88.3002 353.2 88.3002C353.9 88.3002 354.4 88.0002 354.8 87.5002C355.2 87.0002 355.4 86.4002 355.4 85.7002C355.4 84.8002 355.2 84.1002 354.7 83.7002C354.3 83.3002 353.8 83.1002 353.2 83.1002C352.4 83.1002 351.7 83.5002 351.2 84.2002L349.5 84.0002L350.7 77.7002H356.8V79.5002H352.1L351.6 82.2002C352.2 81.8002 352.9 81.6002 353.6 81.6002C354.6 81.6002 355.5 82.0002 356.2 82.7002C357 83.4002 357.4 84.4002 357.4 85.6002Z" fill="white"/>
<path d="M365.4 83.4004C365.4 80.5004 364.7 79.0004 363.4 79.0004C362.6 79.0004 362.1 79.5004 361.8 80.4004C361.6 81.1004 361.4 82.2004 361.4 83.7004C361.4 85.2004 361.5 86.3004 361.8 87.0004C362.1 87.9004 362.7 88.4004 363.4 88.4004C364.2 88.4004 364.7 87.9004 365.1 86.9004C365.2 86.2004 365.4 85.0004 365.4 83.4004ZM367.3 83.7004C367.3 87.9004 366 89.9004 363.3 89.9004C360.6 89.9004 359.3 87.8004 359.3 83.6004C359.3 79.4004 360.6 77.4004 363.3 77.4004C366 77.4004 367.3 79.5004 367.3 83.7004Z" fill="white"/>
<path d="M391.5 89.7004H389.6V80.5004C388.8 81.3004 387.8 81.9004 386.6 82.3004V80.5004C387.1 80.3004 387.7 80.0004 388.3 79.5004C389.2 78.9004 389.8 78.1004 390.1 77.4004H391.5V89.7004Z" fill="white"/>
<path d="M118.999 108.3H127.999V107.5H118.999V108.3ZM118.999 110.2H127.999V109.3H118.999V110.2ZM127.999 112V111.2H118.999V112.1H127.999V112ZM117.399 106.3H129.499V113.1H126.199C127.599 113.5 129.299 113.8 131.299 114.1L130.099 115.4C127.899 114.9 125.999 114.4 124.499 113.7L124.999 113.1H121.599L122.199 113.6C122.299 113.7 122.399 113.7 122.399 113.8C122.399 113.9 122.299 113.9 122.099 114C120.299 114.6 118.599 115.1 116.999 115.5L115.899 114.4C117.799 114.1 119.399 113.6 120.699 113.1H117.499V106.3H117.399ZM122.699 102.6V101.9H118.699V102.6H122.699ZM128.299 102.6V101.9H124.199V102.6H128.299ZM117.199 100.7H122.699V99.7002L124.099 99.8002C124.399 99.8002 124.499 99.9002 124.499 100C124.499 100.1 124.399 100.2 124.199 100.4V100.7H129.799V103.7H124.199V104.5H131.099V105.7H115.899V104.5H122.699V103.7H117.199V100.7Z" fill="white"/>
<path d="M137.2 108.8H146.5V108.1H137.2V108.8ZM137.2 110.5H146.5V109.9H137.2V110.5ZM146.5 112.2V111.5H137.2V112.2H146.5ZM140.9 103.9H138.8L139.4 104.3C139.6 104.4 139.7 104.5 139.7 104.6C139.7 104.7 139.6 104.8 139.4 104.8C138.4 105.2 137.2 105.6 135.9 105.9L134.7 105.1C136 104.8 137.1 104.4 138.1 104H136.1V102.9H146.9V104H142.4V105.4C144.1 105.1 145.8 104.8 147.3 104.4L148.5 105C148.6 105 148.7 105.1 148.7 105.3C148.7 105.5 148.5 105.5 148.2 105.6C145.6 106.2 142.6 106.7 139.3 107.1H148V113.6H144.2C145.7 113.9 147.4 114.2 149.4 114.4L148.3 115.6C146 115.2 144.1 114.7 142.6 114.2L143.2 113.6H139.9L140.6 114.1C140.7 114.2 140.7 114.2 140.7 114.3C140.7 114.4 140.6 114.5 140.4 114.5C138.4 115 136.5 115.3 134.8 115.6L133.7 114.5C135.7 114.3 137.5 114 138.9 113.6H135.7V107.5C135.3 107.5 134.9 107.6 134.6 107.6L133.7 106.4C136.8 106.2 139.1 105.9 140.9 105.6H141V103.9H140.9ZM140.6 99.9004L142.1 100C142.4 100 142.5 100.1 142.5 100.2C142.5 100.3 142.4 100.4 142.1 100.6V100.9H148.7V103.3H147.2V102.2H135.6V103.3H134.1V100.9H140.6V99.9004Z" fill="white"/>
<path d="M160.1 104.1V104.9H163.3V104.1H160.1ZM155.5 104.9H158.6V104.1H155.5V104.9ZM158.5 106.8V106H155.4V106.8H158.5ZM163.3 106.8V106H160.1V106.8H163.3ZM164.3 108.5C164.2 108.4 164.1 108.3 164 108.2L164.3 107.9H160V108.7C161.5 108.7 162.9 108.7 164.3 108.5ZM151.8 101H158.5V99.7998L159.9 99.8998C160.2 99.8998 160.3 99.9998 160.3 100.1C160.3 100.2 160.2 100.3 160 100.5V100.9H167.1V102.2H160V102.8H164.8V107.6L165.1 107.4C165.8 108.1 166.5 108.9 167.2 109.9L165.9 110.8C165.7 110.4 165.4 110 165.2 109.6C164.6 109.6 164 109.7 163.2 109.7V111H167.1V112.3H163.2V113.5C163.2 114.1 163 114.5 162.5 114.8C162.1 115.1 161.2 115.2 159.7 115.2L159.1 113.7H160.7C161.3 113.7 161.6 113.5 161.6 113.2V112.3H156.2C156.8 112.7 157.5 113.2 158.1 113.8L156.8 114.7C156.2 114 155.5 113.3 154.7 112.8L155.3 112.3H151.8V111H161.7V109.8C159.5 110 156.8 110.1 153.6 110.3C153.5 110.5 153.4 110.6 153.3 110.6C153.2 110.6 153.1 110.5 153.1 110.4L152.7 109C154.6 108.9 156.6 108.9 158.4 108.8V107.9H153.8V102.8H158.4V102.2H151.8V101Z" fill="white"/>
<path d="M176 109.1H178.2C178.4 109 178.5 108.9 178.6 108.9C178.6 108.9 179 109.2 179.6 109.7C179.7 109.8 179.7 109.8 179.7 109.9C179.7 110 179.7 110.1 179.6 110.1C179.5 110.2 179.4 110.5 179.2 111C178.8 112.1 178.4 112.9 177.9 113.4C177.4 114 176.7 114.6 175.8 115L174.9 113.9C175.4 113.7 175.9 113.4 176.3 113.1C176.7 112.8 177 112.5 177.3 112C177.6 111.6 177.8 111.1 178.1 110.3H176.1V109.1H176ZM179.9 107.8L181.4 108C181.6 108 181.7 108.1 181.7 108.2C181.7 108.3 181.6 108.5 181.4 108.6V110.1C181.5 110.3 181.7 110.5 181.8 110.7C182.7 110 183.5 109.3 184.2 108.5L185.3 109.5C185.4 109.6 185.4 109.7 185.4 109.7C185.4 109.8 185.2 109.8 184.9 109.8C184.1 110.4 183.4 111 182.5 111.6C182.7 111.9 183 112.2 183.2 112.4C183.7 112.9 184.5 113.5 185.5 114L184.2 115.1C183.3 114.6 182.6 113.9 182.1 113.3C181.8 113 181.6 112.7 181.3 112.3V113.3C181.3 113.9 181.1 114.4 180.8 114.7C180.5 115 179.8 115.2 178.7 115.2L178.2 113.8H179.3C179.7 113.8 179.9 113.6 179.9 113.1V107.8ZM178.3 103.8H182.8V102.6H178.3V103.8ZM182.8 106.2V105H178.3V106.2H182.8ZM180 99.7998L181.3 100.3C181.5 100.4 181.6 100.4 181.6 100.5C181.6 100.6 181.5 100.7 181.3 100.9C181.2 101 181.2 101.1 181.1 101.2H184.3V107.5H176.8V101.2H179.4C179.4 101.1 179.5 101 179.5 100.9C179.8 100.5 179.9 100.2 180 99.7998ZM175.5 109.4C175.8 110.5 176 111.6 176.1 112.6L174.9 112.8C174.7 111.7 174.5 110.6 174.3 109.7L175.5 109.4ZM170.7 109.4L171.8 109.9C171.9 109.9 171.9 110 171.9 110C171.9 110.1 171.9 110.1 171.8 110.2C171.5 111.9 171.1 113.3 170.8 114.4L169.5 113.8C170 112.7 170.4 111.2 170.7 109.4ZM172.7 99.8998L173.8 100.5C174 100.6 174 100.7 174 100.7C174 100.8 173.9 100.9 173.7 101L171.9 103.6C172.2 103.9 172.5 104.2 172.8 104.5L174.4 102.2L175.5 102.8C175.7 102.9 175.8 102.9 175.8 103C175.8 103.1 175.7 103.2 175.5 103.3L172.9 106.8C173.5 106.8 174.1 106.7 174.7 106.6C174.6 106.2 174.4 105.8 174.3 105.4L175.6 105.1C176.1 106.2 176.4 107.3 176.6 108.4L175.3 108.7C175.2 108.3 175.1 108 175 107.7L173.8 107.9V115.3H172.4V108.2L170.6 108.5C170.4 108.8 170.3 108.9 170.2 108.9C170.1 108.9 170 108.8 169.9 108.6L169.8 107C170.3 107 170.7 107 171.2 107L172.1 105.7C171.4 104.9 170.5 104.1 169.6 103.3L170.5 102.2C170.7 102.4 170.9 102.6 171.1 102.7L172.7 99.8998Z" fill="white"/>
<path d="M194.3 102.9H196.8V105.4H194.3V102.9ZM194.3 109.5H196.8V112H194.3V109.5Z" fill="white"/>
<path d="M210.8 107.4C210.8 104.5 210.1 103 208.8 103C208 103 207.5 103.5 207.2 104.4C207 105.1 206.8 106.2 206.8 107.7C206.8 109.2 206.9 110.3 207.2 111C207.5 111.9 208.1 112.4 208.8 112.4C209.6 112.4 210.1 111.9 210.5 110.9C210.7 110.2 210.8 109 210.8 107.4ZM212.8 107.7C212.8 111.9 211.5 113.9 208.8 113.9C206.1 113.9 204.8 111.8 204.8 107.6C204.8 103.4 206.1 101.4 208.8 101.4C211.5 101.5 212.8 103.6 212.8 107.7Z" fill="white"/>
<path d="M222.999 110.101C222.999 111.201 222.599 112.101 221.799 112.901C220.999 113.601 219.999 114.001 218.799 114.001C217.699 114.001 216.799 113.701 216.099 113.001C215.399 112.401 214.999 111.601 214.899 110.601L216.799 110.401C216.999 111.801 217.699 112.501 218.899 112.501C219.499 112.501 220.099 112.301 220.499 111.801C220.899 111.401 221.099 110.801 221.099 110.201C221.099 109.601 220.899 109.001 220.499 108.601C220.099 108.201 219.599 108.001 219.099 108.001C218.799 108.001 218.399 108.101 217.999 108.201L218.199 106.601C218.799 106.601 219.299 106.501 219.799 106.301C220.299 106.001 220.599 105.501 220.599 104.801C220.599 104.301 220.399 103.901 220.099 103.601C219.799 103.301 219.399 103.201 218.899 103.201C217.799 103.201 217.199 103.801 216.999 105.101L215.199 104.801C215.599 102.701 216.899 101.601 218.899 101.601C219.999 101.601 220.899 101.901 221.599 102.601C222.299 103.201 222.599 103.901 222.599 104.801C222.599 105.901 221.999 106.701 220.899 107.301C221.799 107.501 222.499 108.001 222.899 108.701C222.899 109.001 222.999 109.601 222.999 110.101Z" fill="white"/>
<path d="M229.499 108.4H224.899V110.3H229.499V108.4Z" fill="white"/>
<path d="M236.3 109.301V104.401L233 109.301H236.3ZM239.7 111.101H238.1V113.801H236.2V111.101H231V109.401L236.5 101.601H238.1V109.401H239.7V111.101Z" fill="white"/>
<path d="M249.7 103.1C248.8 104 247.9 105.3 247.2 106.9C246.1 109.1 245.5 111.4 245.3 113.8H243.4C243.5 111.8 244 109.8 244.9 107.6C245.6 105.9 246.5 104.5 247.4 103.5H241.7V101.7H249.7V103.1Z" fill="white"/>
<path d="M257.9 110.2C257.9 109.5 257.7 109 257.3 108.5C256.9 108.1 256.4 107.9 255.8 107.9C255.1 107.9 254.6 108.2 254.2 108.7C253.9 109.1 253.7 109.6 253.7 110.2C253.7 110.8 253.9 111.3 254.2 111.7C254.6 112.2 255.1 112.4 255.8 112.4C256.4 112.4 256.9 112.2 257.3 111.8C257.7 111.4 257.9 110.9 257.9 110.2ZM257.5 104.7C257.5 104.2 257.3 103.8 257 103.4C256.7 103.1 256.3 102.9 255.8 102.9C255.3 102.9 254.9 103.1 254.5 103.4C254.2 103.7 254 104.1 254 104.6C254 105.1 254.2 105.6 254.5 105.9C254.8 106.2 255.2 106.3 255.7 106.3C256.2 106.3 256.6 106.2 256.9 105.9C257.4 105.7 257.5 105.3 257.5 104.7ZM259.8 110.3C259.8 111.4 259.4 112.2 258.7 112.9C258 113.6 257 114 255.8 114C254.6 114 253.6 113.7 252.9 113C252.1 112.3 251.8 111.4 251.8 110.3C251.8 109.6 252 109 252.2 108.5C252.6 107.8 253.1 107.4 253.9 107.2C252.7 106.8 252.1 106 252.1 104.7C252.1 103.8 252.4 103.1 253 102.5C253.6 101.9 254.5 101.5 255.7 101.5C256.8 101.5 257.7 101.8 258.4 102.5C259 103.1 259.3 103.8 259.3 104.7C259.3 105.9 258.7 106.7 257.5 107.2C259.1 107.7 259.8 108.7 259.8 110.3Z" fill="white"/>
<path d="M269.8 113.801H261.7C261.7 112.501 262.6 111.001 264.4 109.501C265.9 108.201 266.8 107.301 267.2 106.801C267.7 106.201 267.9 105.601 267.9 105.001C267.9 104.401 267.7 103.901 267.3 103.601C267 103.301 266.5 103.101 266 103.101C264.7 103.101 264 103.801 263.9 105.301L262 105.101C262.1 103.701 262.7 102.701 263.7 102.101C264.3 101.701 265.1 101.601 265.9 101.601C267.3 101.601 268.4 102.001 269.1 102.901C269.6 103.501 269.9 104.201 269.9 105.101C269.9 106.001 269.6 106.901 268.9 107.701C268.5 108.201 267.7 109.001 266.7 109.901C265.5 110.901 264.8 111.701 264.5 112.101H269.9V113.801H269.8Z" fill="white"/>
<path d="M278.1 107.4C278.1 104.5 277.4 103 276.1 103C275.3 103 274.8 103.5 274.5 104.4C274.3 105.1 274.1 106.2 274.1 107.7C274.1 109.2 274.2 110.3 274.5 111C274.8 111.9 275.4 112.4 276.1 112.4C276.9 112.4 277.4 111.9 277.8 110.9C278 110.2 278.1 109 278.1 107.4ZM280.1 107.7C280.1 111.9 278.8 113.9 276.1 113.9C273.4 113.9 272.1 111.8 272.1 107.6C272.1 103.4 273.4 101.4 276.1 101.4C278.7 101.5 280.1 103.6 280.1 107.7Z" fill="white"/>
<path d="M288.3 110.2C288.3 109.5 288.1 109 287.7 108.5C287.3 108.1 286.8 107.9 286.2 107.9C285.5 107.9 285 108.2 284.6 108.7C284.3 109.1 284.1 109.6 284.1 110.2C284.1 110.8 284.3 111.3 284.6 111.7C285 112.2 285.5 112.4 286.2 112.4C286.8 112.4 287.3 112.2 287.7 111.8C288.1 111.4 288.3 110.9 288.3 110.2ZM287.9 104.7C287.9 104.2 287.7 103.8 287.4 103.4C287.1 103.1 286.7 102.9 286.2 102.9C285.7 102.9 285.3 103.1 284.9 103.4C284.6 103.7 284.4 104.1 284.4 104.6C284.4 105.1 284.6 105.6 284.9 105.9C285.2 106.2 285.6 106.3 286.1 106.3C286.6 106.3 287 106.2 287.3 105.9C287.8 105.7 287.9 105.3 287.9 104.7ZM290.2 110.3C290.2 111.4 289.8 112.2 289.1 112.9C288.4 113.6 287.4 114 286.2 114C285 114 284 113.7 283.3 113C282.5 112.3 282.2 111.4 282.2 110.3C282.2 109.6 282.4 109 282.6 108.5C283 107.8 283.5 107.4 284.3 107.2C283.1 106.8 282.5 106 282.5 104.7C282.5 103.8 282.8 103.1 283.4 102.5C284 101.9 284.9 101.5 286.1 101.5C287.2 101.5 288.1 101.8 288.8 102.5C289.4 103.1 289.7 103.8 289.7 104.7C289.7 105.9 289.1 106.7 287.9 107.2C289.5 107.7 290.2 108.7 290.2 110.3Z" fill="white"/>
<path d="M298.499 110.2C298.499 109.5 298.299 109 297.899 108.5C297.499 108.1 296.999 107.9 296.399 107.9C295.699 107.9 295.199 108.2 294.799 108.7C294.499 109.1 294.299 109.6 294.299 110.2C294.299 110.8 294.499 111.3 294.799 111.7C295.199 112.2 295.699 112.4 296.399 112.4C296.999 112.4 297.499 112.2 297.899 111.8C298.299 111.4 298.499 110.9 298.499 110.2ZM298.099 104.7C298.099 104.2 297.899 103.8 297.599 103.4C297.299 103.1 296.899 102.9 296.399 102.9C295.899 102.9 295.499 103.1 295.099 103.4C294.799 103.7 294.599 104.1 294.599 104.6C294.599 105.1 294.799 105.6 295.099 105.9C295.399 106.2 295.799 106.3 296.299 106.3C296.799 106.3 297.199 106.2 297.499 105.9C297.899 105.7 298.099 105.3 298.099 104.7ZM300.399 110.3C300.399 111.4 299.999 112.2 299.299 112.9C298.599 113.6 297.599 114 296.399 114C295.199 114 294.199 113.7 293.499 113C292.699 112.3 292.399 111.4 292.399 110.3C292.399 109.6 292.599 109 292.799 108.5C293.199 107.8 293.699 107.4 294.499 107.2C293.299 106.8 292.699 106 292.699 104.7C292.699 103.8 292.999 103.1 293.599 102.5C294.199 101.9 295.099 101.5 296.299 101.5C297.399 101.5 298.299 101.8 298.999 102.5C299.599 103.1 299.899 103.8 299.899 104.7C299.899 105.9 299.299 106.7 298.099 107.2C299.599 107.7 300.399 108.7 300.399 110.3Z" fill="white"/>
<path d="M148 161.2H150.8C151 161 151.2 160.9 151.4 160.9C151.5 160.9 151.9 161.2 152.6 161.9C152.7 162 152.7 162.1 152.7 162.1C152.7 162.2 152.7 162.3 152.6 162.4C152.5 162.5 152.3 162.9 152.1 163.6C151.6 165 151 166 150.5 166.7C149.8 167.5 148.9 168.2 147.9 168.8L146.7 167.4C147.4 167.1 148 166.8 148.4 166.4C148.9 166 149.3 165.6 149.6 165C149.9 164.5 150.3 163.8 150.6 162.8H148V161.2ZM153 159.6L154.9 159.9C155.1 159.9 155.2 160 155.2 160.2C155.2 160.4 155.1 160.5 154.8 160.7V162.6C155 162.9 155.1 163.1 155.3 163.4C156.5 162.5 157.5 161.5 158.4 160.6L159.8 161.9C159.9 162 159.9 162.1 159.9 162.2C159.9 162.3 159.7 162.4 159.3 162.4C158.3 163.2 157.3 164 156.2 164.7C156.5 165.1 156.8 165.4 157.1 165.7C157.8 166.4 158.8 167.1 160.1 167.8L158.5 169.3C157.4 168.6 156.5 167.8 155.8 166.9C155.5 166.5 155.1 166.1 154.8 165.6V166.9C154.8 167.7 154.6 168.3 154.2 168.7C153.9 169.1 153 169.3 151.6 169.3L150.9 167.5H152.3C152.8 167.5 153 167.2 153.1 166.6V159.6H153ZM150.9 154.4H156.7V152.8H150.9V154.4ZM156.6 157.5V156H150.8V157.5H156.6ZM153.1 149.3L154.8 150C155 150.1 155.2 150.2 155.2 150.3C155.2 150.4 155.1 150.5 154.8 150.8C154.7 150.9 154.6 151.1 154.5 151.2H158.6V159.4H149.1V151.2H152.5C152.6 151.1 152.6 151 152.7 150.8C152.8 150.2 153 149.8 153.1 149.3ZM147.3 161.7C147.7 163.1 147.9 164.5 148.1 165.8L146.6 166.1C146.4 164.6 146.1 163.3 145.8 162.1L147.3 161.7ZM141.1 161.7L142.5 162.3C142.6 162.4 142.7 162.4 142.7 162.5C142.7 162.6 142.6 162.7 142.5 162.8C142.1 164.9 141.7 166.8 141.2 168.2L139.6 167.4C140.2 165.8 140.7 163.9 141.1 161.7ZM143.7 149.5L145.1 150.3C145.3 150.4 145.4 150.5 145.4 150.6C145.4 150.8 145.3 150.9 145.1 151L142.8 154.2C143.2 154.6 143.6 155 143.9 155.4L145.9 152.4L147.3 153.2C147.5 153.3 147.6 153.4 147.6 153.5C147.6 153.7 147.5 153.8 147.3 153.9L143.9 158.4C144.7 158.3 145.5 158.3 146.2 158.2C146 157.7 145.9 157.2 145.7 156.7L147.3 156.4C147.9 157.8 148.3 159.2 148.6 160.6L146.9 161C146.8 160.5 146.7 160.1 146.6 159.7L145.1 159.9V169.4H143.3V160.1L141 160.4C140.8 160.8 140.6 160.9 140.5 160.9C140.3 160.9 140.2 160.8 140.2 160.5L140.1 158.5C140.7 158.5 141.3 158.5 141.9 158.5L143 156.9C142 155.9 141 154.8 139.8 153.8L140.9 152.4C141.2 152.6 141.4 152.9 141.7 153.1L143.7 149.5Z" fill="white"/>
<path d="M171.1 149.4L173.1 149.6C173.5 149.6 173.7 149.7 173.7 149.9C173.7 150 173.6 150.2 173.3 150.5V155.7H181V157.6H173.3V166.2H182.8V168.2H163.5V166.2H171.1V149.4Z" fill="white"/>
<path d="M203.499 154.6C203.899 154.1 204.099 153.9 204.199 153.9C204.299 153.9 204.399 154 204.499 154.1L205.399 154.8C205.499 154.9 205.599 155 205.599 155.1C205.599 155.3 205.499 155.4 205.299 155.6L205.199 160.3C205.199 161.5 204.999 162.4 204.399 162.9C203.999 163.3 203.199 163.6 202.099 163.8L201.299 161.8C202.299 161.8 202.899 161.6 203.099 161.3C203.299 161 203.399 160.6 203.399 159.9V156.2L200.799 157V163.6H198.999V157.5L196.599 158.3V165C196.599 165.6 196.699 166 196.899 166.3C197.099 166.5 197.499 166.6 198.099 166.6H202.299C202.999 166.6 203.499 166.5 203.799 166.2C204.199 166 204.499 165.3 204.699 164.1L206.499 164.9C206.199 166.4 205.699 167.4 205.199 167.8C204.799 168.2 204.199 168.4 203.599 168.4H197.299C196.499 168.4 195.799 168.1 195.299 167.6C194.899 167.1 194.699 166.4 194.699 165.5V159.2L192.899 159.8L192.499 158.1L194.699 157.4V151.6L196.899 151.9C197.199 151.9 197.299 152 197.299 152.2C197.299 152.4 197.199 152.6 196.899 152.8C196.699 152.9 196.599 153.2 196.599 153.5V156.8L198.999 156V149.4L200.699 149.5C200.999 149.5 201.199 149.6 201.199 149.8C201.199 149.9 201.099 150.1 200.899 150.3V155.5L203.499 154.6ZM186.499 154.8H189.099V149.5L190.899 149.7C191.199 149.7 191.399 149.8 191.399 150C191.399 150.1 191.299 150.3 191.099 150.5V154.9H193.599V156.7H191.099V162.8C191.999 162.5 192.799 162.2 193.699 161.9V163.7C192.399 164.3 190.399 165 187.599 166C187.499 166.3 187.299 166.5 187.199 166.5C187.099 166.5 186.999 166.4 186.899 166.1L186.399 164C187.299 163.8 188.199 163.6 189.099 163.4V156.8H186.499V154.8Z" fill="white"/>
<path d="M220.5 163V162.1H218.3V163H220.5ZM216.6 161H222.3V164.2H216.6V161ZM223.4 164.7V160.3H215.6V164.7H223.4ZM213.6 159H225.2V166.1H213.6V159ZM222.5 154.7V153.7H216.5V154.7H222.5ZM214.7 152.5H224.3V155.9H220.4V156.8H226V158.3H212.9V156.8H218.6V155.9H214.6V152.5H214.7ZM212.1 167H226.9V151.6H212.1V167ZM210.2 149.9H228.8V169.2H226.9V168.7H212.1V169.2H210.2V149.9Z" fill="white"/>
<path d="M242 155.401H249.2V154.601H242V155.401ZM242 157.201H249.2V156.501H242V157.201ZM249.2 159.001V158.301H242V159.001H249.2ZM243.3 149.101C243.8 149.701 244.2 150.301 244.5 150.801H247L248.1 149.101L249.6 149.401C249.9 149.401 250 149.501 250 149.701C250 149.801 249.9 150.001 249.6 150.201L249.1 150.801H252.2V152.301H246.7L246.3 153.201H251.1V160.301H240.1V153.201H244.3L244.7 152.301H239.1V150.801H242.5C242.2 150.301 241.9 149.801 241.5 149.401L243.3 149.101ZM233.6 156.301H238.3V159.701C238.6 160.201 239.2 160.601 240 160.801C240.8 161.001 242 161.101 243.7 161.101C247 161.101 250.1 161.001 252.8 160.901L252.2 162.901H248.5V163.901H252.5V165.601H248.5V167.301C248.5 168.001 248.2 168.601 247.7 169.001C247.3 169.401 246.1 169.601 244.3 169.601L243.5 167.601H245.4C246.1 167.601 246.4 167.401 246.5 167.001V165.701H240.4C241.1 166.201 241.8 166.801 242.5 167.501L240.9 168.601C240.1 167.701 239.3 166.901 238.3 166.201L238.9 165.701H232.8V164.001H246.6V163.001H243.8C242.3 163.001 241 162.901 240.1 162.701C239.1 162.501 238.3 162.201 237.8 161.701C237.6 161.601 237.4 161.401 237.3 161.201L234.8 163.101C234.7 163.301 234.6 163.401 234.5 163.401C234.4 163.401 234.3 163.301 234.2 163.101L233.2 161.701C234.5 161.101 235.6 160.501 236.5 159.901V158.001H233.7V156.301H233.6ZM234.1 152.501C235.3 153.001 236.4 153.601 237.2 154.201L236 155.501C235 154.801 234 154.201 232.8 153.701L234.1 152.501ZM235.5 149.701C236.7 150.201 237.6 150.701 238.4 151.301L237.2 152.601C236.3 152.001 235.3 151.401 234.2 150.901L235.5 149.701Z" fill="white"/>
<path d="M266.9 157.7V155.9H273V166.6C273 167.1 273.2 167.3 273.5 167.3C273.8 167.3 274 167.2 274.1 166.9C274.2 166.7 274.3 166 274.3 164.7L276.3 165C276.2 166.7 275.9 167.9 275.5 168.4C275.2 168.8 274.5 169 273.5 169C272.4 169 271.7 168.7 271.5 168.3C271.3 168 271.2 167.5 271.2 167V157.5H268.7V158.9C268.7 160.8 268.5 162.7 268.2 164.4C267.8 166.1 267.3 167.6 266.6 169L264.8 168.2C265.6 166.9 266.1 165.6 266.4 164.2C266.8 162.5 266.9 160.8 266.9 159.1V157.7ZM269 149.5L271 149.7C271.4 149.7 271.5 149.8 271.5 150C271.5 150.1 271.4 150.3 271.1 150.5V152.6H275.1V154.3H265.3V152.6H269V149.5ZM261.4 153.9C261.7 155.1 262 156.3 262.1 157.3L260.6 157.6C260.5 156.6 260.4 155.5 260.1 154.2L261.4 153.9ZM259.3 158.7C260.5 158.6 261.6 158.4 262.7 158.2V153.2H259.3V158.7ZM260.5 149.5L262.1 149.8C262.4 149.8 262.5 149.9 262.5 150.1C262.5 150.3 262.4 150.5 262.1 150.7L261.8 151.5H264.6V158C265.1 157.9 265.6 157.8 266.1 157.7V159.2C265.7 159.3 265.2 159.4 264.6 159.5V167.1C264.6 168 264.2 168.5 263.3 168.8C262.6 169 261.9 169.1 261.3 169.1L260.6 167.3H262.2C262.6 167.3 262.9 167 262.9 166.6V159.8C262.6 159.8 262.3 159.9 262 159.9V165H260.4V160.2C260.1 160.2 259.7 160.3 259.4 160.4C259.4 161.7 259.2 163 259 164.2C258.7 166 258.3 167.6 257.8 168.9L256 167.9C256.6 166.6 257 165.2 257.2 163.8C257.4 162.7 257.5 161.6 257.6 160.6C257.3 160.7 257 160.7 256.7 160.8C256.6 161 256.4 161.1 256.3 161.1C256.2 161.1 256.1 161 256.1 160.8L255.7 159C256.4 158.9 257 158.9 257.7 158.8C257.7 158.7 257.7 158.6 257.7 158.5V151.4H260L260.5 149.5Z" fill="white"/>
<path d="M90.8998 192.7H82.7998C82.7998 191.4 83.6998 189.9 85.4998 188.4C86.9998 187.1 87.8998 186.2 88.2998 185.7C88.7998 185.1 88.9998 184.5 88.9998 183.9C88.9998 183.3 88.7998 182.8 88.3998 182.5C88.0998 182.2 87.5998 182 87.0998 182C85.7998 182 85.0998 182.7 84.9998 184.2L83.0998 184C83.1998 182.6 83.7998 181.6 84.7998 181C85.3998 180.6 86.1998 180.5 86.9998 180.5C88.3998 180.5 89.4998 180.9 90.1998 181.8C90.6998 182.4 90.9998 183.1 90.9998 184C90.9998 184.9 90.6998 185.8 89.9998 186.6C89.5998 187.1 88.7998 187.9 87.7998 188.8C86.5998 189.8 85.8998 190.6 85.5998 191H90.9998V192.7H90.8998Z" fill="white"/>
<path d="M97.9002 188.3V183.4L94.6002 188.3H97.9002ZM101.3 190H99.8002V192.7H97.9002V190H92.7002V188.3L98.2002 180.5H99.8002V188.3H101.4V190H101.3Z" fill="white"/>
<path d="M105.899 182.6C106.199 182.6 106.399 182.5 106.699 182.3C106.899 182.1 106.999 181.8 106.999 181.5C106.999 181.2 106.899 180.9 106.699 180.7C106.499 180.5 106.199 180.4 105.899 180.4C105.599 180.4 105.399 180.5 105.099 180.7C104.899 180.9 104.799 181.2 104.799 181.5C104.799 181.8 104.899 182 105.099 182.3C105.399 182.5 105.599 182.6 105.899 182.6ZM105.899 179.4C106.399 179.4 106.899 179.6 107.299 180C107.699 180.4 107.899 180.9 107.899 181.5C107.899 182 107.699 182.5 107.299 182.9C106.899 183.3 106.399 183.5 105.899 183.5C105.399 183.5 104.899 183.3 104.499 182.9C104.099 182.5 103.899 182 103.899 181.5C103.899 180.9 104.099 180.5 104.499 180C104.899 179.6 105.399 179.4 105.899 179.4Z" fill="white"/>
<path d="M129.499 188.6C129.499 189.7 129.199 190.7 128.499 191.5C127.699 192.4 126.599 192.9 125.299 192.9C124.299 192.9 123.399 192.6 122.699 192C121.899 191.4 121.499 190.5 121.399 189.5L123.299 189.3C123.399 190.1 123.699 190.7 124.199 191C124.499 191.2 124.899 191.3 125.299 191.3C125.999 191.3 126.499 191 126.899 190.5C127.299 190 127.499 189.4 127.499 188.7C127.499 187.8 127.299 187.1 126.799 186.7C126.399 186.3 125.899 186.1 125.299 186.1C124.499 186.1 123.799 186.5 123.299 187.2L121.599 187L122.799 180.7H128.899V182.5H124.199L123.699 185.2C124.299 184.8 124.999 184.6 125.699 184.6C126.699 184.6 127.599 185 128.299 185.7C129.099 186.4 129.499 187.4 129.499 188.6Z" fill="white"/>
<path d="M136.199 188.3V183.4L132.899 188.3H136.199ZM139.599 190H137.999V192.7H136.099V190H130.899V188.3L136.399 180.5H137.999V188.3H139.599V190Z" fill="white"/>
<path d="M143.7 182.6L143.3 184.8H142L141.6 182.6V180.5H143.7V182.6Z" fill="white"/>
<path d="M154.2 188.6C154.2 189.7 153.9 190.7 153.2 191.5C152.4 192.4 151.3 192.9 150 192.9C149 192.9 148.1 192.6 147.4 192C146.6 191.4 146.2 190.5 146.1 189.5L148 189.3C148.1 190.1 148.4 190.7 148.9 191C149.2 191.2 149.6 191.3 150 191.3C150.7 191.3 151.2 191 151.6 190.5C152 190 152.2 189.4 152.2 188.7C152.2 187.8 152 187.1 151.5 186.7C151.1 186.3 150.6 186.1 150 186.1C149.2 186.1 148.5 186.5 148 187.2L146.3 187L147.5 180.7H153.6V182.5H148.9L148.4 185.2C149 184.8 149.7 184.6 150.4 184.6C151.4 184.6 152.3 185 153 185.7C153.8 186.4 154.2 187.4 154.2 188.6Z" fill="white"/>
<path d="M164.3 188.6C164.3 189.7 164 190.7 163.3 191.5C162.5 192.4 161.4 192.9 160.1 192.9C159.1 192.9 158.2 192.6 157.5 192C156.7 191.4 156.3 190.5 156.2 189.5L158.1 189.3C158.2 190.1 158.5 190.7 159 191C159.3 191.2 159.7 191.3 160.1 191.3C160.8 191.3 161.3 191 161.7 190.5C162.1 190 162.3 189.4 162.3 188.7C162.3 187.8 162.1 187.1 161.6 186.7C161.2 186.3 160.7 186.1 160.1 186.1C159.3 186.1 158.6 186.5 158.1 187.2L156.4 187L157.6 180.7H163.7V182.5H159L158.5 185.2C159.1 184.8 159.8 184.6 160.5 184.6C161.5 184.6 162.4 185 163.1 185.7C163.9 186.4 164.3 187.4 164.3 188.6Z" fill="white"/>
<path d="M168.899 190.7H166.899V192.7H168.899V190.7Z" fill="white"/>
<path d="M177.7 192.7H175.8V183.5C175 184.3 174 184.9 172.8 185.3V183.5C173.3 183.3 173.9 183 174.5 182.5C175.4 181.9 176 181.1 176.3 180.4H177.7V192.7Z" fill="white"/>
<path d="M184.2 182.6L183.8 184.9H182.5L182.1 182.6V180.5H184.2V182.6ZM187.4 182.6L187 184.9H185.7L185.3 182.6V180.5H187.4V182.6Z" fill="white"/>
<path d="M199.9 192.7H197.9L192.3 184.1C192.2 183.9 192.1 183.8 192 183.6C192 184 192.1 184.3 192.1 184.5V192.6H190.2V180.4H192.2L197.3 188.4C197.4 188.6 197.7 189 198 189.6C198 189.3 197.9 188.8 197.9 188.2V180.5H199.8V192.7H199.9Z" fill="white"/>
<path d="M212.1 192.7H210.2V183.5C209.4 184.3 208.4 184.9 207.2 185.3V183.5C207.7 183.3 208.3 183 208.9 182.5C209.8 181.9 210.4 181.1 210.7 180.4H212.1V192.7Z" fill="white"/>
<path d="M224.3 192.7H216.2C216.2 191.4 217.1 189.9 218.9 188.4C220.4 187.1 221.3 186.2 221.7 185.7C222.2 185.1 222.4 184.5 222.4 183.9C222.4 183.3 222.2 182.8 221.8 182.5C221.5 182.2 221 182 220.5 182C219.2 182 218.5 182.7 218.4 184.2L216.5 184C216.6 182.6 217.2 181.6 218.2 181C218.8 180.6 219.6 180.5 220.4 180.5C221.8 180.5 222.9 180.9 223.6 181.8C224.1 182.4 224.4 183.1 224.4 184C224.4 184.9 224.1 185.8 223.4 186.6C223 187.1 222.2 187.9 221.2 188.8C220 189.8 219.3 190.6 219 191H224.4V192.7H224.3Z" fill="white"/>
<path d="M232.4 192.7H230.5V183.5C229.7 184.3 228.7 184.9 227.5 185.3V183.5C228 183.3 228.6 183 229.2 182.5C230.1 181.9 230.7 181.1 231 180.4H232.4V192.7Z" fill="white"/>
<path d="M239.3 182.6C239.6 182.6 239.8 182.5 240.1 182.3C240.3 182.1 240.4 181.8 240.4 181.5C240.4 181.2 240.3 180.9 240.1 180.7C239.9 180.5 239.6 180.4 239.3 180.4C239 180.4 238.8 180.5 238.5 180.7C238.3 180.9 238.2 181.2 238.2 181.5C238.2 181.8 238.3 182 238.5 182.3C238.8 182.5 239 182.6 239.3 182.6ZM239.3 179.4C239.8 179.4 240.3 179.6 240.7 180C241.1 180.4 241.3 180.9 241.3 181.5C241.3 182 241.1 182.5 240.7 182.9C240.3 183.3 239.8 183.5 239.3 183.5C238.8 183.5 238.3 183.3 237.9 182.9C237.5 182.5 237.3 182 237.3 181.5C237.3 180.9 237.5 180.5 237.9 180C238.3 179.6 238.8 179.4 239.3 179.4Z" fill="white"/>
<path d="M260.7 186.4C260.7 183.5 260 182 258.7 182C257.9 182 257.4 182.5 257.1 183.4C256.9 184.1 256.7 185.2 256.7 186.7C256.7 188.2 256.8 189.3 257.1 190C257.4 190.9 258 191.4 258.7 191.4C259.5 191.4 260 190.9 260.4 189.9C260.6 189.2 260.7 188 260.7 186.4ZM262.7 186.7C262.7 190.9 261.4 192.9 258.7 192.9C256 192.9 254.7 190.8 254.7 186.6C254.7 182.4 256 180.4 258.7 180.4C261.3 180.4 262.7 182.5 262.7 186.7Z" fill="white"/>
<path d="M271 188.7C271 188 270.8 187.5 270.5 187C270.1 186.5 269.6 186.2 269 186.2C268.4 186.2 268 186.4 267.6 186.8C267.2 187.2 266.9 187.8 266.9 188.6C266.9 189.3 267.1 189.9 267.5 190.4C267.9 191 268.4 191.3 269.1 191.3C269.8 191.3 270.3 191 270.6 190.4C270.9 190 271 189.4 271 188.7ZM272.9 188.8C272.9 190 272.6 190.9 271.9 191.7C271.2 192.5 270.2 193 269 193C268.2 193 267.5 192.8 266.9 192.4C266.3 192.1 265.9 191.6 265.6 191.1C265 190.1 264.7 188.7 264.7 187C264.7 185.5 264.9 184.3 265.3 183.3C266 181.5 267.3 180.5 269.1 180.5C269.8 180.5 270.5 180.7 271 181C271.9 181.5 272.4 182.4 272.6 183.6L270.7 183.8C270.5 182.7 269.9 182.1 269 182.1C267.5 182.1 266.7 183.5 266.6 186.2C267.2 185.3 268.1 184.9 269.2 184.9C270.2 184.9 271 185.3 271.7 186C272.6 186.6 272.9 187.6 272.9 188.8Z" fill="white"/>
<path d="M277.1 182.6L276.7 184.8H275.4L275 182.6V180.5H277.1V182.6Z" fill="white"/>
<path d="M287.4 189.101C287.4 190.201 287 191.101 286.2 191.901C285.4 192.601 284.4 193.001 283.2 193.001C282.1 193.001 281.2 192.701 280.5 192.001C279.8 191.401 279.4 190.601 279.3 189.601L281.2 189.401C281.4 190.801 282.1 191.501 283.3 191.501C283.9 191.501 284.5 191.301 284.9 190.801C285.3 190.401 285.5 189.801 285.5 189.201C285.5 188.601 285.3 188.001 284.9 187.601C284.5 187.201 284 187.001 283.5 187.001C283.2 187.001 282.8 187.101 282.4 187.201L282.6 185.601C283.2 185.601 283.7 185.501 284.2 185.301C284.7 185.001 285 184.501 285 183.801C285 183.301 284.8 182.901 284.5 182.601C284.2 182.301 283.8 182.201 283.3 182.201C282.2 182.201 281.6 182.801 281.4 184.101L279.6 183.801C280 181.701 281.3 180.601 283.3 180.601C284.4 180.601 285.3 180.901 286 181.601C286.7 182.201 287 182.901 287 183.801C287 184.901 286.4 185.701 285.3 186.301C286.2 186.501 286.9 187.001 287.3 187.701C287.3 188.001 287.4 188.501 287.4 189.101Z" fill="white"/>
<path d="M297.7 188.6C297.7 189.7 297.4 190.7 296.7 191.5C295.9 192.4 294.8 192.9 293.5 192.9C292.5 192.9 291.6 192.6 290.9 192C290.1 191.4 289.7 190.5 289.6 189.5L291.5 189.3C291.6 190.1 291.9 190.7 292.4 191C292.7 191.2 293.1 191.3 293.5 191.3C294.2 191.3 294.7 191 295.1 190.5C295.5 190 295.7 189.4 295.7 188.7C295.7 187.8 295.5 187.1 295 186.7C294.6 186.3 294.1 186.1 293.5 186.1C292.7 186.1 292 186.5 291.5 187.2L289.8 187L291 180.7H297.1V182.5H292.4L291.9 185.2C292.5 184.8 293.2 184.6 293.9 184.6C294.9 184.6 295.8 185 296.5 185.7C297.3 186.4 297.7 187.4 297.7 188.6Z" fill="white"/>
<path d="M302.3 190.7H300.3V192.7H302.3V190.7Z" fill="white"/>
<path d="M311.4 189.2C311.4 188.5 311.2 188 310.8 187.5C310.4 187.1 309.9 186.9 309.3 186.9C308.6 186.9 308.1 187.2 307.7 187.7C307.4 188.1 307.2 188.6 307.2 189.2C307.2 189.8 307.4 190.3 307.7 190.7C308.1 191.2 308.6 191.4 309.3 191.4C309.9 191.4 310.4 191.2 310.8 190.8C311.2 190.4 311.4 189.9 311.4 189.2ZM311 183.7C311 183.2 310.8 182.8 310.5 182.4C310.2 182.1 309.8 181.9 309.3 181.9C308.8 181.9 308.4 182.1 308 182.4C307.7 182.7 307.5 183.1 307.5 183.6C307.5 184.1 307.7 184.6 308 184.9C308.3 185.2 308.7 185.3 309.2 185.3C309.7 185.3 310.1 185.2 310.4 184.9C310.8 184.7 311 184.2 311 183.7ZM313.3 189.2C313.3 190.3 312.9 191.1 312.2 191.8C311.5 192.5 310.5 192.9 309.3 192.9C308.1 192.9 307.1 192.6 306.4 191.9C305.6 191.2 305.3 190.3 305.3 189.2C305.3 188.5 305.5 187.9 305.7 187.4C306.1 186.7 306.6 186.3 307.4 186.1C306.2 185.7 305.6 184.9 305.6 183.6C305.6 182.7 305.9 182 306.5 181.4C307.1 180.8 308 180.4 309.2 180.4C310.3 180.4 311.2 180.7 311.9 181.4C312.5 182 312.8 182.7 312.8 183.6C312.8 184.8 312.2 185.6 311 186.1C312.5 186.6 313.3 187.7 313.3 189.2Z" fill="white"/>
<path d="M317.599 182.6L317.199 184.9H315.799L315.399 182.6V180.5H317.499V182.6H317.599ZM320.799 182.6L320.399 184.9H319.099L318.699 182.6V180.5H320.799V182.6Z" fill="white"/>
<path d="M332.9 192.7H323.6V180.5H332.6V182.2H325.7V185.5H332.1V187.2H325.7V191H332.9V192.7Z" fill="white"/>
<path d="M20.3002 15.5998V14.2998H18.3002V15.5998H20.3002ZM24.3002 15.5998V14.2998H22.4002V15.5998H24.3002ZM20.0002 6.1998V3.2998H18.1002V6.1998H20.0002ZM23.9002 6.1998V3.2998H21.9002V6.1998H23.9002ZM27.7002 6.1998V3.2998H25.7002V6.1998H27.7002ZM24.6002 18.4998C24.5002 18.1998 24.5002 17.8998 24.4002 17.4998L25.6002 17.1998H22.4002V18.5998C23.1002 18.5998 23.8002 18.5998 24.6002 18.4998ZM13.4002 1.3998L15.2002 1.9998C15.4002 2.0998 15.6002 2.1998 15.6002 2.2998C15.6002 2.3998 15.5002 2.49979 15.2002 2.59979C14.5002 3.69979 13.8002 4.7998 13.1002 5.6998C13.4002 6.2998 13.6002 6.7998 13.8002 7.3998C14.2002 8.4998 14.5002 9.79979 14.7002 11.0998C16.0002 10.1998 17.0002 9.0998 17.8002 7.8998H16.1002V1.2998H29.8002V7.8998H19.1002L19.7002 8.1998C19.8002 8.2998 19.9002 8.2998 19.9002 8.3998C19.9002 8.4998 19.8002 8.6998 19.7002 8.7998C19.5002 8.9998 19.4002 9.1998 19.2002 9.3998H29.9002C29.9002 14.7998 29.8002 18.1998 29.5002 19.5998C29.3002 20.9998 29.0002 21.8998 28.4002 22.3998C27.8002 22.8998 26.7002 23.1998 25.3002 23.1998L24.3002 21.0998C25.8002 21.0998 26.6002 20.8998 26.9002 20.5998C27.1002 20.3998 27.3002 19.7998 27.5002 18.8998C27.7002 17.8998 27.9002 15.3998 27.9002 11.1998H22.3002V12.5998H26.2002V17.0998H25.9002C26.3002 18.2998 26.5002 19.2998 26.7002 20.2998L24.9002 20.6998C24.9002 20.4998 24.9002 20.2998 24.9002 20.0998C23.0002 20.2998 20.3002 20.4998 16.9002 20.6998C16.7002 20.9998 16.6002 21.0998 16.4002 21.0998C16.3002 21.0998 16.2002 20.9998 16.2002 20.7998L15.8002 18.7998C17.3002 18.7998 18.9002 18.6998 20.4002 18.5998V17.0998H16.4002V12.5998H20.4002V11.1998H17.5002C17.0002 11.5998 16.5002 11.9998 16.0002 12.3998L14.8002 11.8998C14.9002 12.8998 15.0002 13.9998 15.0002 15.1998C15.0002 17.0998 14.8002 18.7998 14.5002 20.1998C14.2002 21.3998 13.8002 22.1998 13.3002 22.5998C12.7002 23.0998 11.5002 23.2998 9.6002 23.2998C9.5002 22.3998 9.4002 21.6998 9.1002 21.0998C9.8002 21.0998 10.3002 21.1998 10.7002 21.1998C11.8002 21.1998 12.4002 20.5998 12.6002 19.3998C12.9002 18.0998 13.0002 16.7998 13.0002 15.2998C13.0002 14.6998 13.0002 13.9998 13.0002 13.4998C12.8002 13.8998 12.5002 14.2998 12.3002 14.5998C11.7002 15.5998 10.8002 16.5998 9.6002 17.5998L7.7002 15.7998C8.9002 14.9998 9.9002 14.0998 10.8002 13.0998C11.3002 12.4998 12.0002 11.5998 12.7002 10.2998C12.6002 9.5998 12.4002 8.8998 12.2002 8.2998C12.1002 7.9998 12.0002 7.6998 11.9002 7.3998C11.1002 8.2998 10.2002 8.9998 9.3002 9.7998L7.7002 7.9998C8.8002 7.2998 9.9002 6.3998 10.8002 5.3998C10.2002 4.3998 9.5002 3.3998 8.6002 2.3998L10.2002 1.3998C10.9002 2.1998 11.5002 2.9998 12.1002 3.8998C12.4002 3.0998 12.9002 2.2998 13.4002 1.3998Z" fill="#FFFCDB"/>
<path d="M49.6994 8.70059V10.2006H52.4994V8.70059H49.6994ZM44.8994 10.3006H47.4994V8.8006H44.8994V10.3006ZM47.4994 13.7006V12.0006H44.8994V13.7006H47.4994ZM52.4994 13.7006V12.0006H49.6994V13.7006H52.4994ZM41.7994 3.3006H47.4994V0.700592L49.4994 0.900589C49.8994 0.900589 50.0994 1.00059 50.0994 1.20059C50.0994 1.30059 49.9994 1.50059 49.6994 1.70059V3.40059H55.2994V5.3006H49.6994V6.90059H54.5994V15.6006H50.1994C51.1994 16.7006 52.1994 17.6006 53.0994 18.2006C54.0994 18.8006 55.3994 19.5006 57.0994 20.2006L55.2994 22.0006C53.7994 21.2006 52.4994 20.3006 51.3994 19.4006C50.7994 18.9006 50.1994 18.3006 49.6994 17.6006V22.6006H47.5994V17.6006C46.9994 18.2006 46.4994 18.8006 45.8994 19.3006C44.9994 20.1006 43.6994 21.0006 41.9994 21.9006L40.2994 20.1006C41.8994 19.6006 43.1994 18.9006 44.1994 18.1006C44.9994 17.5006 45.8994 16.7006 46.9994 15.5006H42.7994V6.8006H47.4994V5.20059H41.7994V3.3006ZM34.0994 6.0006H36.9994V0.600586L38.9994 0.800598C39.3994 0.800598 39.5994 0.900586 39.5994 1.10059C39.5994 1.20059 39.4994 1.40059 39.1994 1.60059V6.0006H41.3994V8.0006H39.1994C40.0994 10.2006 41.0994 12.1006 42.2994 13.5006L40.7994 15.1006C40.1994 14.0006 39.5994 12.9006 39.0994 11.7006V22.6006H36.9994V13.1006C36.4994 14.8006 35.9994 16.3006 35.3994 17.7006L33.3994 16.3006C34.1994 15.0006 34.8994 13.5006 35.4994 12.0006C35.7994 11.1006 36.2994 9.70059 36.7994 7.90059H34.0994V6.0006Z" fill="#FFFCDB"/>
<path d="M75.7 1.60019L78 2.5002C78.3 2.6002 78.5 2.70019 78.5 2.90019C78.5 3.00019 78.3 3.2002 77.9 3.5002C77 8.1002 75.7 13.3002 74.2 18.9002C76 18.7002 77.8 18.4002 79.6 18.1002C79.1 16.3002 78.5 14.6002 77.9 13.0002L80 12.5002C81.3 15.8002 82.3 19.1002 82.8 22.2002L80.7 22.6002C80.5 21.8002 80.3 20.9002 80.1 20.1002C77.9 20.5002 74.8 21.0002 70.8 21.6002C70.6 21.9002 70.5 22.1002 70.3 22.1002C70.1 22.1002 70 22.0002 70 21.7002L69.4 19.4002C70.2 19.4002 71 19.3002 71.8 19.2002C72.6 16.6002 73.2 14.2002 73.7 12.0002C74.5 8.5002 75.2 5.00019 75.7 1.60019ZM70.6 3.3002C70.4 3.3002 70.2 3.30019 69.8 3.40019C69 3.70019 68.1 3.90019 67.3 4.10019V8.40019H72V10.4002H68.1C69.1 11.9002 70.3 13.2002 71.7 14.2002L70 16.0002C69 15.0002 68.2 13.8002 67.4 12.6002V23.2002H65.3V13.2002C65 14.0002 64.7 14.7002 64.4 15.3002C63.8 16.5002 63 17.8002 61.9 19.1002L60 17.3002C61.1 16.2002 62.1 15.1002 62.9 13.8002C63.4 13.1002 63.9 11.9002 64.6 10.3002H60.4V8.3002H65.4V4.5002C64.3 4.7002 63.2 4.9002 62.1 5.0002L60.6 3.0002C62.5 2.9002 64.1 2.70019 65.4 2.40019C66.6 2.20019 68.1 1.8002 69.9 1.2002L71.5 2.7002C71.6 2.8002 71.6 2.90019 71.6 3.10019C71.6 3.20019 71.5 3.3002 71.3 3.3002H70.6Z" fill="#FFFCDB"/>
<path d="M94.9002 12.3004H108.8V14.2004H104.6V20.2004C104.6 20.8004 104.9 21.1004 105.4 21.1004H106.2C106.6 21.1004 106.8 21.0004 107 20.7004C107.2 20.5004 107.3 19.9004 107.5 18.8004L109.6 19.4004C109.4 20.9004 109.1 21.8004 108.6 22.3004C108.1 22.8004 107.5 23.0004 106.8 23.0004H104.9C103.3 23.0004 102.5 22.4004 102.5 21.2004V14.1004H100.6C100.5 16.6004 100.1 18.4004 99.3002 19.6004C98.6002 20.9004 96.9002 22.0004 94.5002 23.0004L93.1002 21.3004C95.2002 20.6004 96.6002 19.7004 97.3002 18.8004C98.0002 17.9004 98.5002 16.4004 98.6002 14.1004H95.0002V12.3004H94.9002ZM98.1002 8.10039H105.4V10.0004H98.1002V8.10039ZM100.5 0.900391L102.7 1.10039C103.1 1.10039 103.3 1.20039 103.3 1.40039C103.3 1.50039 103.1 1.7004 102.8 2.0004V3.60039H108.6V9.20039H106.4V5.60039H97.0002V9.20039H94.9002V3.60039H100.5V0.900391ZM88.2002 1.8004H92.7002C92.8002 1.6004 92.9002 1.5004 93.0002 1.5004L94.8002 3.0004L92.3002 9.0004C93.7002 10.7004 94.4002 12.2004 94.4002 13.6004C94.4002 15.1004 94.0002 16.3004 93.3002 17.2004C92.6002 18.1004 91.7002 18.5004 90.6002 18.5004L89.7002 16.4004C90.8002 16.2004 91.5002 15.9004 91.8002 15.4004C92.1002 15.0004 92.3002 14.4004 92.3002 13.5004C92.3002 12.4004 91.6002 11.0004 90.2002 9.3004L92.2002 3.90039H89.3002V23.8004H87.2002V2.0004H88.2002V1.8004Z" fill="#FFFCDB"/>
<path d="M197.399 15.5998V14.2998H195.399V15.5998H197.399ZM201.399 15.5998V14.2998H199.499V15.5998H201.399ZM197.099 6.1998V3.2998H195.199V6.1998H197.099ZM200.999 6.1998V3.2998H198.999V6.1998H200.999ZM204.899 6.1998V3.2998H202.899V6.1998H204.899ZM201.699 18.4998C201.599 18.1998 201.599 17.8998 201.499 17.4998L202.699 17.1998H199.499V18.5998C200.199 18.5998 200.999 18.5998 201.699 18.4998ZM190.499 1.3998L192.299 1.9998C192.499 2.0998 192.699 2.1998 192.699 2.2998C192.699 2.3998 192.599 2.49979 192.299 2.59979C191.599 3.69979 190.899 4.7998 190.199 5.6998C190.499 6.2998 190.699 6.7998 190.899 7.3998C191.299 8.4998 191.599 9.79979 191.799 11.0998C193.099 10.1998 194.099 9.0998 194.899 7.8998H193.199V1.2998H206.999V7.8998H196.299L196.899 8.1998C196.999 8.2998 197.099 8.2998 197.099 8.3998C197.099 8.4998 196.999 8.6998 196.899 8.7998C196.699 8.9998 196.599 9.1998 196.399 9.3998H207.099C207.099 14.7998 206.999 18.1998 206.699 19.5998C206.499 20.9998 206.199 21.8998 205.599 22.3998C204.999 22.8998 203.899 23.1998 202.499 23.1998L201.499 21.0998C202.999 21.0998 203.799 20.8998 204.099 20.5998C204.299 20.3998 204.499 19.7998 204.699 18.8998C204.899 17.8998 205.099 15.3998 205.099 11.1998H199.499V12.5998H203.399V17.0998H203.099C203.499 18.2998 203.699 19.2998 203.899 20.2998L202.099 20.6998C202.099 20.4998 202.099 20.2998 202.099 20.0998C200.199 20.2998 197.499 20.4998 194.099 20.6998C193.899 20.9998 193.799 21.0998 193.599 21.0998C193.499 21.0998 193.399 20.9998 193.399 20.7998L192.999 18.7998C194.499 18.7998 196.099 18.6998 197.599 18.5998V17.0998H193.599V12.5998H197.599V11.1998H194.699C194.199 11.5998 193.699 11.9998 193.199 12.3998L191.999 11.8998C192.099 12.8998 192.199 13.9998 192.199 15.1998C192.199 17.0998 191.999 18.7998 191.699 20.1998C191.399 21.3998 190.999 22.1998 190.499 22.5998C189.899 23.0998 188.699 23.2998 186.799 23.2998C186.699 22.3998 186.599 21.6998 186.299 21.0998C186.999 21.0998 187.499 21.1998 187.899 21.1998C188.999 21.1998 189.599 20.5998 189.799 19.3998C190.099 18.0998 190.199 16.7998 190.199 15.2998C190.199 14.6998 190.199 13.9998 190.199 13.4998C189.999 13.8998 189.699 14.2998 189.499 14.5998C188.899 15.5998 187.999 16.5998 186.799 17.5998L184.899 15.7998C186.099 14.9998 187.099 14.0998 187.999 13.0998C188.499 12.4998 189.199 11.5998 189.899 10.2998C189.799 9.5998 189.599 8.8998 189.399 8.2998C189.299 7.9998 189.199 7.6998 189.099 7.3998C188.299 8.2998 187.399 8.9998 186.499 9.7998L184.899 7.9998C185.999 7.2998 187.099 6.3998 187.999 5.3998C187.399 4.3998 186.699 3.3998 185.799 2.3998L187.399 1.3998C188.099 2.1998 188.699 2.9998 189.299 3.8998C189.599 3.0998 190.099 2.2998 190.499 1.3998Z" fill="#FFFCDB"/>
<path d="M233.5 10.2002H211.1V12.4002H233.5V10.2002Z" fill="#FFFCDB"/>
<path d="M257.3 18.2998C257.8 19.5998 258.5 20.8998 259.6 22.1998L257.5 23.3998C256.5 21.7998 255.8 20.3998 255.4 19.0998L257.3 18.2998ZM251.9 18.1998C252.5 19.7998 253 21.3998 253.3 22.7998L250.9 23.3998C250.8 22.0998 250.4 20.4998 249.9 18.6998L251.9 18.1998ZM246.6 18.1998C247.1 19.8998 247.5 21.3998 247.7 22.8998L245.5 23.3998C245.4 22.0998 245.2 20.4998 244.8 18.6998L246.6 18.1998ZM240.4 17.8998L242.5 18.3998C242 20.0998 241.3 21.6998 240.4 23.3998L238.1 22.5998C239.1 20.9998 239.9 19.3998 240.4 17.8998ZM245.9 9.1998V5.2998H243.8V9.1998H245.9ZM250.2 9.1998V5.2998H248.1V9.1998H250.2ZM254.5 9.1998V5.2998H252.3V9.1998H254.5ZM252.3 15.0998H254.5V11.1998H252.3V15.0998ZM248 15.0998H250.1V11.1998H248V15.0998ZM243.7 15.0998H245.8V11.1998H243.7V15.0998ZM242.8 0.799805L244.7 1.6998C244.9 1.7998 245 1.8998 245 1.9998C245 2.2998 244.8 2.49979 244.4 2.59979C244.2 2.79979 244.1 3.0998 243.9 3.2998H258.7V5.2998H256.7V9.1998H259.7V11.1998H256.7V15.0998H259.6V17.1998H238.2V15.0998H241.6V11.1998H237.7V9.1998H241.6V6.09979C241 6.69979 240.4 7.2998 239.7 7.8998L238.1 6.2998C239.1 5.3998 240 4.5998 240.7 3.6998C241.4 2.9998 242.1 1.9998 242.8 0.799805Z" fill="#FFFCDB"/>
<path d="M263.8 18.3006H286V20.5006H263.8V18.3006ZM266 4.10059H283.8V6.3006H266V4.10059Z" fill="#FFFCDB"/>
<path d="M311.699 11.3002H320.199V9.60019H311.699V11.3002ZM311.699 14.7002H320.199V13.0002H311.699V14.7002ZM311.699 18.0002H320.199V16.3002H311.699V18.0002ZM311.699 21.1002H320.199V19.6002H311.699V21.1002ZM308.399 3.90019H314.799V1.0002L316.799 1.2002C317.199 1.2002 317.399 1.3002 317.399 1.5002C317.399 1.6002 317.299 1.80019 316.999 2.10019V3.90019H323.599V5.7002H316.999V7.5002H322.499V21.0002H324.299V22.8002H307.499V21.0002H309.299V7.5002H314.699V5.7002H308.299V3.90019H308.399ZM306.699 0.700195L308.699 1.7002C308.899 1.8002 308.999 1.9002 308.999 2.0002C308.999 2.3002 308.799 2.50019 308.399 2.60019C307.799 4.20019 307.299 5.5002 306.699 6.7002V23.3002H304.599V10.9002C304.099 11.7002 303.699 12.5002 303.099 13.3002L301.399 11.7002C302.599 10.0002 303.499 8.30019 304.299 6.60019C305.199 5.00019 305.999 3.1002 306.699 0.700195Z" fill="#FFFCDB"/>
<path d="M337.4 17.6C338.7 18.5 340 19.6 341.3 20.8L339.6 22.3C338.3 21 337 19.9 335.8 19.1L337.4 17.6ZM336.7 11.2H350.4V13.2H347.7V14.8H351V16.9H347.7V20.6C347.7 21.9 347.4 22.6 346.7 23C346.2 23.2 344.8 23.4 342.5 23.4L341.8 21.4C343.6 21.4 344.6 21.4 344.9 21.3C345.2 21.3 345.4 21.1 345.4 20.7V17H334.9V14.9H345.4V13.3H336.6V11.2H336.7ZM339.9 4.89999H347.7V3.59999H339.9V4.89999ZM347.6 8V6.59999H339.8V8H347.6ZM337.7 1.8H349.8V9.89999H337.7V1.8ZM335.1 6.3L337 7.2C337.2 7.3 337.3 7.4 337.3 7.5C337.3 7.7 337.1 7.89999 336.7 8.09999C335.8 9.29999 334.9 10.3 334.1 11.2V23.4H331.9V13.2C331.3 13.7 330.6 14.3 329.9 14.8L328.3 13.2C329.8 12.1 331.1 11.1 332.2 10C333.1 9 334.1 7.7 335.1 6.3ZM333.9 1L335.8 1.89999C336 1.99999 336.1 2.1 336.1 2.2C336.1 2.5 335.9 2.7 335.5 2.8C334.5 4.1 333.6 5.2 332.7 6C331.9 6.8 330.9 7.6 329.7 8.5L328.1 6.89999C329.4 5.99999 330.4 5.09999 331.3 4.09999C332.3 3.29999 333.1 2.3 333.9 1Z" fill="#FFFCDB"/>
<path d="M373 12.5006V9.90059H370.9V12.5006H373ZM373 16.6006V14.2006H370.9V16.6006H373ZM370.9 20.8006H373V18.3006H370.9V20.8006ZM370.1 5.5006L371.9 6.10059C372.1 6.20059 372.2 6.30059 372.2 6.40059C372.2 6.50059 372 6.60059 371.6 6.70059C371.5 7.20059 371.3 7.70059 371.2 8.20059H373.2L374.2 5.90059L375.6 6.60059C375.8 6.70059 375.9 6.80059 375.9 6.90059C375.9 7.10059 375.8 7.30059 375.5 7.40059L375 8.3006H377V10.0006H374.8V12.6006H376.8V14.2006H374.8V16.6006H376.8V18.2006H374.8V20.7006H377.3V22.4006H370.8V23.4006H369V12.5006C368.8 12.7006 368.7 13.0006 368.5 13.2006L366.8 12.1006C367.6 11.2006 368.2 10.2006 368.7 9.20059C369.3 8.40059 369.7 7.10059 370.1 5.5006ZM368.3 0.600586L370.3 0.800598C370.7 0.800598 370.9 0.900586 370.9 1.10059C370.9 1.20059 370.8 1.40059 370.5 1.70059V3.20059H377.1V5.10059H361.9V3.20059H368.2V0.600586H368.3ZM354.5 4.8006H357.2V0.700592L359.5 1.0006C359.8 1.0006 359.9 1.1006 359.9 1.3006C359.9 1.5006 359.7 1.60059 359.3 1.90059V4.8006H361.6V6.70059H359.3V11.5006C359.9 11.2006 360.5 10.9006 361.1 10.5006C360.9 10.4006 360.8 10.3006 360.7 10.2006L362 8.70059C362.2 8.90059 362.4 9.00059 362.7 9.20059L364.6 5.5006L366.1 6.3006C366.3 6.4006 366.4 6.50059 366.4 6.60059C366.4 6.80059 366.3 6.90059 366 7.10059L364 10.5006C364.3 10.8006 364.6 11.0006 364.9 11.3006L366.3 8.70059L367.8 9.70059C368 9.80059 368 9.90059 368 10.1006C368 10.2006 367.9 10.3006 367.6 10.4006L364.4 16.1006C365 15.9006 365.5 15.8006 366.1 15.6006C366.2 15.0006 366.2 14.3006 366.3 13.6006L368.2 13.8006C368.5 13.8006 368.6 13.9006 368.6 14.0006C368.6 14.2006 368.4 14.3006 368.1 14.5006C367.9 16.2006 367.6 17.5006 367.3 18.3006C366.8 19.7006 366.1 20.9006 365.1 21.8006C364.4 22.5006 363.4 23.2006 362.1 23.7006L360.8 22.2006C362.4 21.6006 363.5 20.9006 364.1 20.1006C364.7 19.4006 365.2 18.6006 365.5 17.6006V17.5006C364.5 17.9006 363.3 18.3006 361.7 18.8006C361.5 19.0006 361.4 19.1006 361.2 19.1006C361.1 19.1006 361 19.0006 361 18.8006L360.5 16.9006C360.9 16.8006 361.4 16.8006 361.8 16.7006L363.7 13.2006C363 12.5006 362.3 11.9006 361.5 11.3006V12.5006L359.2 13.9006V21.1006C359.2 22.1006 359 22.8006 358.5 23.2006C358.1 23.7006 357.2 23.9006 355.6 23.9006L354.7 21.8006H356.2C356.7 21.8006 357 21.4006 357.1 20.7006V15.2006L355.7 16.0006C355.5 16.5006 355.3 16.7006 355.1 16.7006C355 16.7006 354.9 16.6006 354.8 16.3006L354 14.2006C355 13.8006 356 13.4006 357 12.9006V7.0006H354.3V4.8006H354.5Z" fill="#FFFCDB"/>
<path d="M388.199 13.0002H397.599V10.7002H388.199V13.0002ZM388.199 17.1002H397.599V14.9002H388.199V17.1002ZM380.999 4.10019H388.699C389.199 3.10019 389.699 1.9002 390.099 0.700195L391.799 1.40019C392.099 1.50019 392.299 1.60019 392.299 1.90019C392.299 2.00019 392.099 2.1002 391.799 2.2002C391.499 2.9002 391.199 3.50019 390.999 4.10019H402.899V6.0002H390.099C389.599 7.0002 389.099 7.90019 388.599 8.60019H399.799V20.9002C399.799 22.0002 399.199 22.6002 398.099 22.9002C397.299 23.1002 396.399 23.3002 395.499 23.3002L394.599 21.2002H396.699C397.299 21.2002 397.599 20.9002 397.599 20.3002V19.0002H388.199V23.3002H386.099V11.7002C384.899 12.8002 383.499 13.8002 381.899 14.7002L380.399 12.6002C382.299 11.9002 384.199 10.5002 385.899 8.5002C386.499 7.9002 387.099 7.1002 387.599 6.2002H380.899V4.10019H380.999Z" fill="#FFFCDB"/>
<path d="M133.4 3.2002L126.7 21.1002H123.6L117 3.2002H120.2L124.8 16.3002C125 17.0002 125.2 17.5002 125.3 17.9002C125.4 17.5002 125.5 17.0002 125.8 16.3002L130.4 3.2002H133.4Z" fill="#FFFCDB"/>
<path d="M138.9 21.1002H136.2V8.2002H138.9V21.1002ZM138.9 6.10019H136.2V3.2002H138.9V6.10019Z" fill="#FFFCDB"/>
<path d="M146.3 3.2002H143.6V21.1002H146.3V3.2002Z" fill="#FFFCDB"/>
<path d="M153.7 3.2002H151V21.1002H153.7V3.2002Z" fill="#FFFCDB"/>
<path d="M166.2 14.8C165.6 15 164.5 15.3 163.1 15.5C162.3 15.6 161.8 15.8 161.4 16C160.8 16.3 160.5 16.8 160.5 17.5C160.5 18 160.7 18.4 161 18.7C161.4 19.2 162 19.4 162.9 19.4C164.2 19.4 165.2 18.9 165.8 17.8C166 17.3 166.2 16.3 166.2 14.8ZM169.6 21.1H166.8C166.6 20.6 166.4 20 166.3 19.6C165 20.8 163.6 21.4 162 21.4C160.6 21.4 159.6 21.1 158.8 20.4C158 19.7 157.6 18.8 157.6 17.7C157.6 15.5 159.2 14.1 162.5 13.6C164.2 13.4 165.4 13.1 166.1 12.8C166.1 12.3 166.1 11.9 166.1 11.6C166 11 165.6 10.6 165 10.3C164.6 10.1 164.1 10.1 163.7 10.1C162.7 10.1 161.9 10.3 161.5 10.7C161.1 11 160.9 11.5 160.7 12.2L158.1 11.7C158.5 10.6 159 9.7 159.7 9.2C160.7 8.4 162.1 8 163.9 8C165.8 8 167.2 8.4 168.1 9.3C168.5 9.7 168.7 10.1 168.9 10.5C169 11 169.1 11.8 169.1 12.9V17.5C168.9 18.9 169.1 20.1 169.6 21.1Z" fill="#FFFCDB"/>
<path d="M22.7998 45.7H30.4998V45H22.7998V45.7ZM22.7998 47.5H30.4998V46.8H22.7998V47.5ZM30.5998 49.2V48.6H22.7998V49.2H30.5998ZM31.2998 52.5C30.7998 52 30.2998 51.5 29.6998 51.1L30.3998 50.5H28.9998V51.8C28.9998 52.3 29.1998 52.5 29.5998 52.5H31.2998ZM21.0998 43.8H32.1998V50.5H30.8998C31.4998 50.9 32.0998 51.3 32.5998 51.9L31.6998 52.5H32.7998C32.9998 52.5 33.0998 52.4 33.1998 52.3C33.2998 52.2 33.3998 51.8 33.4998 51.1L35.0998 51.6C34.9998 52.6 34.6998 53.2 34.4998 53.5C34.1998 53.8 33.7998 54 33.2998 54H29.0998C27.8998 54 27.2998 53.6 27.2998 52.7V50.6H25.4998C25.1998 51.3 24.8998 51.9 24.3998 52.3C23.7998 52.8 23.0998 53.3 22.1998 53.6C21.3998 53.9 20.2998 54 18.9998 54.1L18.2998 52.6C19.4998 52.6 20.3998 52.5 20.9998 52.4C21.7998 52.2 22.4998 51.9 22.9998 51.5C23.2998 51.3 23.4998 51 23.6998 50.6H21.0998V43.8ZM20.8998 41.3H23.3998V40.2L24.8998 40.3C25.1998 40.3 25.2998 40.4 25.2998 40.5C25.2998 40.6 25.1998 40.7 24.9998 40.9V41.3H28.0998V40.2L29.5998 40.3C29.8998 40.3 29.9998 40.4 29.9998 40.5C29.9998 40.6 29.8998 40.7 29.6998 40.9V41.3H32.3998V42.6H29.6998V43.4H28.0998V42.6H24.9998V43.4H23.3998V42.6H20.8998V41.3ZM25.7998 37L27.4998 37.1C27.7998 37.1 27.9998 37.2 27.9998 37.4C27.9998 37.5 27.8998 37.6 27.5998 37.8V38.5H34.7998V41.8H33.0998V40H20.3998V41.8H18.6998V38.5H25.8998V37H25.7998Z" fill="#FFFCDB"/>
<path d="M47.6998 51.3004H51.8998V48.4004H47.6998V51.3004ZM46.0998 46.9004H53.5998V53.9004H51.9998V52.7004H47.7998V53.9004H46.1998V46.9004H46.0998ZM49.5998 40.4004L50.9998 40.8004C51.1998 40.8004 51.1998 40.9004 51.1998 41.0004C51.1998 41.1004 51.0998 41.3004 50.7998 41.4004C50.6998 41.5004 50.5998 41.7004 50.4998 41.8004C51.3998 42.8004 52.1998 43.6004 52.8998 44.1004C53.4998 44.6004 54.3998 45.2004 55.4998 45.8004L54.1998 47.1004C53.0998 46.4004 52.1998 45.8004 51.5998 45.2004C51.0998 44.8004 50.3998 44.0004 49.6998 43.0004C48.4998 44.6004 46.9998 46.0004 45.2998 47.3004L43.7998 46.3004C46.2998 44.8004 48.1998 42.9004 49.5998 40.4004ZM52.0998 37.3004C52.9998 38.6004 54.0998 39.7004 55.2998 40.6004L53.7998 41.8004C52.7998 40.8004 51.7998 39.6004 50.7998 38.1004L52.0998 37.3004ZM47.5998 37.2004L48.9998 37.7004C49.1998 37.8004 49.2998 37.8004 49.2998 37.9004C49.2998 38.0004 49.2998 38.0004 49.1998 38.1004C49.0998 38.1004 48.7998 38.4004 48.3998 39.1004C47.7998 40.1004 47.0998 41.0004 46.1998 41.9004L44.6998 41.0004C45.7998 40.0004 46.7998 38.7004 47.5998 37.2004ZM43.7998 42.8004L44.7998 43.3004C44.8998 43.4004 44.9998 43.4004 44.9998 43.5004C44.9998 43.6004 44.8998 43.7004 44.6998 43.8004L43.3998 45.3004L42.2998 44.8004L43.7998 42.8004ZM39.9998 36.9004L41.4998 37.0004C41.7998 37.0004 41.8998 37.1004 41.8998 37.3004C41.8998 37.4004 41.7998 37.5004 41.5998 37.7004V39.9004H42.6998C42.7998 39.7004 42.8998 39.6004 42.9998 39.6004L43.8998 40.3004C43.9998 40.4004 44.0998 40.5004 44.0998 40.6004C44.0998 40.7004 43.9998 40.8004 43.7998 40.9004C43.0998 42.3004 42.4998 43.5004 41.9998 44.4004V44.6004C42.8998 46.1004 43.9998 47.4004 45.1998 48.5004L43.9998 49.5004C43.1998 48.7004 42.5998 47.8004 41.9998 47.0004V54.0004H40.3998V46.8004C39.9998 47.3004 39.3998 47.9004 38.7998 48.5004L37.7998 47.1004C38.6998 46.3004 39.3998 45.5004 39.8998 44.8004C40.4998 44.1004 41.1998 43.0004 41.9998 41.4004H38.2998V39.9004H40.0998V36.9004H39.9998Z" fill="#FFFCDB"/>
<path d="M58 50.1004H74.8V51.8004H58V50.1004ZM59.7 39.4004H73.2V41.1004H59.7V39.4004Z" fill="#FFFCDB"/>
<path d="M88.8994 46.2002V45.3002H86.7994V46.2002H88.8994ZM92.5994 46.2002V45.3002H90.3994V46.2002H92.5994ZM90.3994 39.1002V40.0002H92.3994V39.1002H90.3994ZM86.8994 39.9002H88.7994V39.0002H86.8994V39.9002ZM88.8994 42.0002V41.1002H86.9994V42.0002H88.8994ZM92.3994 42.0002V41.1002H90.3994V42.0002H92.3994ZM90.2994 51.1002C90.6994 50.7002 91.0994 50.2002 91.4994 49.7002H88.5994C88.3994 50.0002 88.0994 50.2002 87.8994 50.5002C88.6994 50.7002 89.4994 50.9002 90.2994 51.1002ZM85.3994 37.9002H88.8994V36.7002L90.2994 36.8002C90.5994 36.8002 90.6994 36.9002 90.6994 37.0002C90.6994 37.1002 90.5994 37.2002 90.3994 37.4002V37.8002H93.8994V39.9002H95.0994V41.1002H93.8994V43.2002H90.3994V44.1002H94.1994V47.4002H90.2994C90.1994 47.5002 90.0994 47.5002 89.9994 47.6002C89.7994 47.9002 89.5994 48.2002 89.3994 48.5002H95.1994V49.7002H92.9994C92.5994 50.5002 92.1994 51.1002 91.6994 51.6002C92.7994 52.0002 93.7994 52.5002 94.7994 53.0002L93.6994 54.1002C92.4994 53.5002 91.4994 53.0002 90.4994 52.6002C89.8994 53.0002 89.1994 53.3002 88.4994 53.5002C87.6994 53.8002 86.3994 54.0002 84.4994 54.1002C84.2994 53.6002 83.9994 53.2002 83.6994 52.8002C85.5994 52.7002 86.8994 52.6002 87.6994 52.4002C88.0994 52.3002 88.4994 52.2002 88.8994 52.0002C88.2994 51.8002 87.5994 51.7002 86.8994 51.5002C86.6994 51.7002 86.4994 51.8002 86.3994 52.0002L84.9994 51.3002C85.5994 50.8002 86.0994 50.2002 86.5994 49.7002H83.4994V48.5002H87.5994C87.7994 48.2002 87.9994 47.8002 88.1994 47.5002H85.1994V44.2002H88.7994V43.2002H85.2994V41.1002H83.7994V39.9002H85.2994V37.9002H85.3994ZM77.8994 40.8002H80.2994V36.8002L81.7994 36.9002C82.0994 36.9002 82.1994 37.0002 82.1994 37.1002C82.1994 37.2002 82.0994 37.3002 81.8994 37.5002V40.7002H83.6994V42.2002H81.8994V42.3002C82.5994 43.8002 83.3994 45.1002 84.3994 46.1002L83.2994 47.3002C82.7994 46.5002 82.2994 45.7002 81.8994 44.8002V53.9002H80.2994V45.6002C80.2994 45.7002 80.2994 45.7002 80.1994 45.8002C79.7994 47.0002 79.3994 48.1002 78.8994 49.2002L77.3994 48.2002C78.0994 47.3002 78.5994 46.3002 79.0994 45.2002C79.3994 44.5002 79.7994 43.5002 80.1994 42.1002H77.8994V40.8002Z" fill="#FFFCDB"/>
<path d="M99.2998 43.2004H105.3V36.9004L106.9 37.0004C107.2 37.0004 107.3 37.1004 107.3 37.3004C107.3 37.4004 107.2 37.5004 107 37.7004V43.2004H113V44.8004H107V47.6004H114.7V49.2004H107V54.0004H105.3V49.2004H97.7998V47.6004H105.4V44.8004H99.3998V43.2004H99.2998ZM111.1 37.9004L112.4 38.5004C112.6 38.6004 112.7 38.7004 112.7 38.7004C112.7 38.8004 112.6 38.9004 112.4 39.0004C111.7 40.3004 110.9 41.4004 110 42.2004L108.5 41.3004C109.5 40.4004 110.4 39.2004 111.1 37.9004ZM101 38.2004C102 39.0004 102.9 40.0004 103.8 41.2004L102.5 42.4004C101.6 41.1004 100.7 40.1004 99.7998 39.3004L101 38.2004Z" fill="#FFFCDB"/>
<path d="M169.9 42.7998V44.2998H173.4V42.7998H169.9ZM164.9 44.2998H168.3V42.7998H164.9V44.2998ZM168.3 47.1998V45.6998H164.9V47.1998H168.3ZM173.4 47.1998V45.6998H169.9V47.1998H173.4ZM161.4 38.5998H168.3V36.7998L169.8 36.8998C170.1 36.8998 170.2 36.9998 170.2 37.1998C170.2 37.2998 170.1 37.3998 169.9 37.5998V38.5998H176.6V40.0998H169.9V41.3998H175.1V48.5998H169.9V49.9998H177.3V51.4998H169.9V54.0998H168.3V51.4998H160.8V49.9998H168.3V48.5998H163.3V41.3998H168.3V40.0998H161.4V38.5998Z" fill="#FFFCDB"/>
<path d="M193.9 42.8004L195.6 43.4004C195.8 43.5004 195.9 43.6004 195.9 43.7004C195.9 43.8004 195.8 43.9004 195.5 44.1004C194.9 46.4004 194.1 48.9004 193.1 51.7004H197.1V53.3004H185.1V51.7004H191.3C191.8 50.4004 192.2 49.2004 192.5 48.1004C193.1 46.3004 193.6 44.5004 193.9 42.8004ZM188.4 43.1004C189.3 45.7004 190 48.1004 190.3 50.3004L188.5 50.8004C188.3 48.8004 187.7 46.4004 186.9 43.6004L188.4 43.1004ZM190.2 37.4004L191.9 37.5004C192.2 37.5004 192.4 37.6004 192.4 37.7004C192.4 37.8004 192.3 37.9004 192 38.1004V40.1004H196.6V41.6004H186.1V40.2004H190.2V37.4004ZM184.7 36.9004L186.2 37.6004C186.4 37.7004 186.5 37.7004 186.5 37.8004C186.5 38.0004 186.4 38.1004 186.1 38.2004C185.5 39.5004 184.9 40.6004 184.4 41.6004V53.9004H182.7V44.3004C182.3 44.9004 181.8 45.5004 181.3 46.2004L180 44.9004C181.1 43.7004 181.9 42.4004 182.7 41.2004C183.4 40.1004 184 38.6004 184.7 36.9004Z" fill="#FFFCDB"/>
<path d="M280.699 40.5L281.999 41.1C282.199 41.2 282.299 41.3 282.299 41.4C282.299 41.6 282.199 41.7 281.899 41.8L280.399 45.3L279.099 44.7L280.699 40.5ZM273.599 40.5C274.199 41.9 274.699 43.2 275.199 44.5L273.899 45.3C273.399 43.9 272.899 42.5 272.299 41.1L273.599 40.5ZM271.999 37.9H282.099V39.4H277.899V45.9H282.699V47.4H277.899V53.9H276.199V47.4H271.399V45.9H276.199V39.4H271.999V37.9ZM265.699 41.6H267.799V37L269.399 37.1C269.699 37.1 269.799 37.2 269.799 37.4C269.799 37.5 269.699 37.6 269.499 37.8V41.6H271.599V43.1H269.499V48.4C270.299 48.2 271.099 48 271.899 47.8V49.3C270.699 49.7 268.899 50.2 266.399 50.8C266.299 51 266.199 51.2 265.999 51.2C265.899 51.2 265.799 51.1 265.799 50.9L265.399 49.1C266.199 49 267.099 48.8 267.899 48.7V43H265.799V41.6H265.699Z" fill="#FFFCDB"/>
<path d="M310 43.3H317.7V37L319.4 37.1C319.7 37.1 319.9 37.2 319.9 37.4C319.9 37.5 319.8 37.6 319.5 37.8V43.3H327V44.9H319.9C321.3 46.7 322.4 47.9 323.2 48.5C324.2 49.4 325.4 50.2 326.9 50.9L325.3 52.4C323.8 51.4 322.7 50.3 321.7 49.3C320.9 48.5 320.2 47.5 319.4 46.2V53.8H317.6V46.2C316.8 47.5 316 48.5 315.3 49.3C314.3 50.4 313 51.5 311.2 52.6L309.8 51.2C311.5 50.3 313 49.2 314.3 48.1C315.1 47.4 316 46.4 317 44.9H310.1V43.3H310ZM323.6 38.8L325.1 39.5C325.2 39.6 325.3 39.6 325.3 39.7C325.3 39.8 325.2 39.9 325.1 40C324.3 41.1 323.5 42 322.7 42.7L321.1 42C322.1 41.1 323 40 323.6 38.8ZM312.9 38.8C314.1 39.7 315.1 40.6 316 41.5L314.8 42.8C313.8 41.8 312.8 40.8 311.6 40L312.9 38.8Z" fill="#FFFCDB"/>
<path d="M339.5 41.9H346.8C346.8 41.8 346.8 41.6 346.8 41.5V38.4C346.8 38 346.7 37.6 346.7 37L348.6 37.1C348.9 37.1 349.1 37.2 349.1 37.3C349.1 37.5 349 37.7 348.7 37.9V41.4C348.7 41.5 348.7 41.7 348.7 41.8H355.8V43.4H348.7C349.4 45.6 350.3 47.3 351.5 48.6C352.6 49.9 354.2 51.1 356.4 52.1L354.9 53.9C353 52.9 351.4 51.5 350.1 49.8C349.4 48.8 348.7 47.6 348.1 46.1C348 46.6 347.8 47 347.6 47.4C347 48.7 346 50 344.4 51.3C343.3 52.2 342 53.1 340.5 53.9L339 52.5C340.6 51.8 341.8 51 342.7 50.4C344.1 49.4 345.1 48.3 345.6 47.3C346.2 46.2 346.6 45 346.8 43.5H339.6V41.9H339.5Z" fill="#FFFCDB"/>
<path d="M365.699 44.9004H368.899V43.2004H365.699V44.9004ZM365.699 48.3004H368.899V46.3004H365.699V48.3004ZM370.499 51.5004H373.199V43.2004H370.499V51.5004ZM365.699 51.5004H368.899V49.7004H365.699V51.5004ZM361.599 51.5004H364.099V43.2004H361.599V51.5004ZM358.899 37.9004H375.799V39.5004H368.399L367.699 41.6004H374.799V53.9004H373.099V53.0004H361.499V53.9004H359.799V41.6004H365.899L366.599 39.5004H358.899V37.9004Z" fill="#FFFCDB"/>
<path d="M383.5 45.7H391.2V45H383.5V45.7ZM383.5 47.5H391.2V46.8H383.5V47.5ZM391.2 49.2V48.6H383.5V49.2H391.2ZM391.9 52.5C391.4 52 390.9 51.5 390.3 51.1L391 50.5H389.6V51.8C389.6 52.3 389.8 52.5 390.2 52.5H391.9ZM381.8 43.8H392.9V50.5H391.6C392.2 50.9 392.8 51.3 393.3 51.9L392.4 52.5H393.5C393.7 52.5 393.8 52.4 393.9 52.3C394 52.2 394.1 51.8 394.2 51.1L395.8 51.6C395.7 52.6 395.4 53.2 395.2 53.5C394.9 53.8 394.5 54 394 54H389.8C388.6 54 388 53.6 388 52.7V50.6H386.2C385.9 51.3 385.6 51.9 385.1 52.3C384.5 52.8 383.8 53.3 382.9 53.6C382.1 53.9 381 54 379.7 54.1L379 52.6C380.2 52.6 381.1 52.5 381.7 52.4C382.5 52.2 383.2 51.9 383.7 51.5C384 51.3 384.2 51 384.4 50.6H381.8V43.8ZM381.6 41.3H384.1V40.2L385.6 40.3C385.9 40.3 386 40.4 386 40.5C386 40.6 385.9 40.7 385.7 40.9V41.3H388.8V40.2L390.3 40.3C390.6 40.3 390.7 40.4 390.7 40.5C390.7 40.6 390.6 40.7 390.4 40.9V41.3H393.1V42.6H390.4V43.4H388.8V42.6H385.7V43.4H384.1V42.6H381.6V41.3ZM386.4 37L388.1 37.1C388.4 37.1 388.6 37.2 388.6 37.4C388.6 37.5 388.5 37.6 388.2 37.8V38.5H395.4V41.8H393.7V40H381V41.8H379.3V38.5H386.5V37H386.4Z" fill="#FFFCDB"/>
<path d="M126.1 38.7002L122.4 52.7002H120.8L124.5 38.7002H126.1Z" fill="#FFFCDB"/>
<path d="M140.6 52.2998H131.6C131.7 50.7998 132.6 49.2998 134.6 47.4998C136.3 45.9998 137.3 44.9998 137.7 44.4998C138.2 43.8998 138.5 43.1998 138.5 42.4998C138.5 41.7998 138.3 41.2998 137.8 40.8998C137.4 40.5998 136.9 40.3998 136.3 40.3998C134.8 40.3998 134.1 41.1998 134 42.8998L131.9 42.6998C132 41.0998 132.7 39.9998 133.8 39.3998C134.5 38.9998 135.3 38.7998 136.2 38.7998C137.8 38.7998 138.9 39.2998 139.7 40.1998C140.3 40.8998 140.5 41.6998 140.5 42.5998C140.5 43.5998 140.1 44.4998 139.4 45.4998C138.9 46.0998 138.1 46.8998 136.9 47.9998C135.6 49.0998 134.8 49.9998 134.5 50.3998H140.4V52.2998H140.6Z" fill="#FFFCDB"/>
<path d="M147.9 46.2998H142.8V48.3998H147.9V46.2998Z" fill="#FFFCDB"/>
<path d="M159.1 48.3006C159.1 49.5006 158.7 50.5006 157.8 51.3006C156.9 52.1006 155.8 52.5006 154.5 52.5006C153.3 52.5006 152.3 52.1006 151.5 51.4006C150.8 50.7006 150.3 49.8006 150.2 48.7006L152.3 48.5006C152.5 50.1006 153.3 50.8006 154.6 50.8006C155.3 50.8006 155.9 50.5006 156.3 50.0006C156.7 49.5006 156.9 48.9006 156.9 48.2006C156.9 47.5006 156.7 46.9006 156.3 46.5006C155.9 46.0006 155.4 45.8006 154.7 45.8006C154.4 45.8006 153.9 45.9006 153.5 46.0006L153.7 44.2006C154.4 44.2006 154.9 44.1006 155.4 43.8006C156 43.4006 156.3 42.9006 156.3 42.2006C156.3 41.6006 156.1 41.2006 155.7 40.8006C155.3 40.5006 154.9 40.4006 154.4 40.4006C153.2 40.4006 152.5 41.1006 152.3 42.5006L150.3 42.1006C150.8 39.8006 152.2 38.6006 154.4 38.6006C155.6 38.6006 156.6 39.0006 157.3 39.7006C158 40.4006 158.4 41.2006 158.4 42.1006C158.4 43.3006 157.8 44.2006 156.5 44.9006C157.5 45.1006 158.2 45.6006 158.7 46.4006C158.9 47.1006 159.1 47.6006 159.1 48.3006Z" fill="#FFFCDB"/>
<path d="M208.799 38.7002L204.999 52.7002H203.399L207.099 38.7002H208.799Z" fill="#FFFCDB"/>
<path d="M223.4 40.5004C222.4 41.5004 221.5 42.9004 220.6 44.7004C219.4 47.2004 218.7 49.7004 218.6 52.3004H216.5C216.6 50.1004 217.1 47.9004 218.2 45.5004C219 43.6004 219.9 42.1004 221 40.9004H214.7V38.9004H223.5V40.5004H223.4Z" fill="#FFFCDB"/>
<path d="M230.9 47.4002V42.0002L227.2 47.4002H230.9ZM234.7 49.3002H233V52.3002H230.9V49.3002H225.2V47.4002L231.2 38.7002H233V47.4002H234.7V49.3002Z" fill="#FFFCDB"/>
<path d="M241.8 46.2998H236.7V48.3998H241.8V46.2998Z" fill="#FFFCDB"/>
<path d="M250.8 48.4002C250.8 47.7002 250.6 47.0002 250.1 46.6002C249.7 46.1002 249.1 45.9002 248.4 45.9002C247.7 45.9002 247.1 46.2002 246.6 46.7002C246.2 47.2002 246.1 47.7002 246.1 48.3002C246.1 49.0002 246.3 49.5002 246.7 50.0002C247.1 50.5002 247.7 50.8002 248.5 50.8002C249.1 50.8002 249.7 50.6002 250.1 50.2002C250.6 49.7002 250.8 49.1002 250.8 48.4002ZM250.4 42.3002C250.4 41.7002 250.2 41.3002 249.8 40.9002C249.5 40.6002 249 40.4002 248.4 40.4002C247.8 40.4002 247.4 40.6002 247 40.9002C246.6 41.2002 246.5 41.7002 246.5 42.2002C246.5 42.8002 246.7 43.3002 247.1 43.6002C247.5 43.9002 247.9 44.1002 248.4 44.1002C248.9 44.1002 249.4 43.9002 249.7 43.6002C250.2 43.4002 250.4 42.9002 250.4 42.3002ZM252.9 48.4002C252.9 49.6002 252.5 50.5002 251.7 51.3002C250.9 52.1002 249.8 52.5002 248.5 52.5002C247.2 52.5002 246.1 52.1002 245.3 51.4002C244.5 50.7002 244 49.7002 244 48.5002C244 47.8002 244.2 47.1002 244.5 46.5002C244.9 45.8002 245.5 45.3002 246.4 45.0002C245.1 44.6002 244.4 43.6002 244.4 42.2002C244.4 41.2002 244.7 40.4002 245.4 39.8002C246.1 39.1002 247.1 38.7002 248.4 38.7002C249.7 38.7002 250.6 39.1002 251.4 39.8002C252.1 40.5002 252.4 41.3002 252.4 42.2002C252.4 43.5002 251.7 44.4002 250.4 44.9002C252.1 45.5002 252.9 46.7002 252.9 48.4002Z" fill="#FFFCDB"/>
<path d="M261.7 52.3002H259.6V42.1002C258.7 42.9002 257.6 43.6002 256.3 44.1002V42.2002C256.9 42.0002 257.5 41.6002 258.2 41.1002C259.2 40.4002 259.9 39.6002 260.2 38.7002H261.7V52.3002Z" fill="#FFFCDB"/>
<path d="M293.9 38.7002L290.2 52.7002H288.6L292.3 38.7002H293.9Z" fill="#FFFCDB"/>
<path d="M308.5 40.5004C307.5 41.5004 306.6 42.9004 305.7 44.7004C304.5 47.2004 303.8 49.7004 303.7 52.3004H301.6C301.7 50.1004 302.2 47.9004 303.3 45.5004C304.1 43.6004 305 42.1004 306.1 40.9004H299.8V38.9004H308.6V40.5004H308.5Z" fill="#FFFCDB"/>
<path d="M335.5 48.4002C335.5 47.7002 335.3 47.0002 334.8 46.6002C334.4 46.1002 333.8 45.9002 333.1 45.9002C332.4 45.9002 331.8 46.2002 331.3 46.7002C330.9 47.2002 330.8 47.7002 330.8 48.3002C330.8 49.0002 331 49.5002 331.4 50.0002C331.8 50.5002 332.4 50.8002 333.2 50.8002C333.8 50.8002 334.4 50.6002 334.8 50.2002C335.3 49.7002 335.5 49.1002 335.5 48.4002ZM335 42.3002C335 41.7002 334.8 41.3002 334.4 40.9002C334.1 40.6002 333.6 40.4002 333 40.4002C332.4 40.4002 332 40.6002 331.6 40.9002C331.2 41.2002 331.1 41.7002 331.1 42.2002C331.1 42.8002 331.3 43.3002 331.7 43.6002C332.1 43.9002 332.5 44.1002 333 44.1002C333.5 44.1002 334 43.9002 334.3 43.6002C334.8 43.4002 335 42.9002 335 42.3002ZM337.6 48.4002C337.6 49.6002 337.2 50.5002 336.4 51.3002C335.6 52.1002 334.5 52.5002 333.2 52.5002C331.9 52.5002 330.8 52.1002 330 51.4002C329.2 50.7002 328.7 49.7002 328.7 48.5002C328.7 47.8002 328.9 47.1002 329.2 46.5002C329.6 45.8002 330.2 45.3002 331.1 45.0002C329.8 44.6002 329.1 43.6002 329.1 42.2002C329.1 41.2002 329.4 40.4002 330.1 39.8002C330.8 39.1002 331.8 38.7002 333.1 38.7002C334.4 38.7002 335.3 39.1002 336.1 39.8002C336.8 40.5002 337.1 41.3002 337.1 42.2002C337.1 43.5002 336.4 44.4002 335.1 44.9002C336.8 45.5002 337.6 46.7002 337.6 48.4002Z" fill="#FFFCDB"/>
</svg>
