<svg width="666" height="124" viewBox="0 0 666 124" fill="none" xmlns="http://www.w3.org/2000/svg">
<path d="M13.5 23.4H20.2V16.9H13.5V23.4ZM10.3 14.8C11.5 15.2 12.7 15.6 13.9 16.1H19.4C19.8 15.7 20.3 15.2 20.6 14.9C20.9 14.6 21.1 14.4 21.4 14.4C21.6 14.4 22.2 14.7 23 15.2C24 15.9 24.5 16.4 24.5 16.6C24.5 16.9 24.3 17.1 23.9 17.4C23.6 17.7 23.5 17.9 23.5 18.2V21.4C23.5 22.3 23.5 23.6 23.6 25.2C23.6 25.6 23.1 25.9 22 26C21.5 26.1 21.2 26.1 21 26.1C20.5 26.1 20.2 25.8 20.2 25.2V24.1H13.5V25.3C13.5 25.7 13.1 26 12.2 26.1C11.8 26.2 11.5 26.2 11.3 26.2C10.7 26.2 10.4 25.9 10.4 25.3C10.5 24.3 10.5 23.4 10.5 22.4V18.7C10.5 17.4 10.4 16.1 10.3 14.8ZM11.2 10.7C12.1 10.8 13.4 10.9 15.1 10.9H17.6C17.7 10.9 17.9 10.5 18.5 9.9C19.1 9.1 19.5 8.7 19.6 8.7C20 8.7 20.5 9.1 21.2 9.9C21.9 10.7 22.3 11.1 22.3 11.3C22.3 11.6 22.2 11.8 21.9 11.8H15.2C13.6 11.8 12.4 11.8 11.8 11.9L11.2 10.7ZM14.6 0C15.7 0.3 16.6 0.6 17.4 0.8C18.4 1.1 19 1.4 19 1.6C19 1.9 18.7 2.1 18.1 2.2C19.3 3.8 20.6 5 21.8 5.9C23.4 6.9 24.9 7.6 26.4 8L26.3 8.6C25.5 8.9 24.9 9.4 24.6 10.3C24.4 10.9 24.1 11.3 23.9 11.3C23.6 11.3 23 10.9 22 10C21 9.1 20 7.9 19.1 6.5C18.3 5.3 17.7 4 17.1 2.7C16 4.8 14.8 6.6 13.5 7.9C12 9.6 10.1 11.2 7.7 12.8L7.4 12.3C8.6 11 10 9.3 11.4 7C12.7 5.1 13.7 2.8 14.6 0ZM7.6 3.6C8.8 4.2 9.6 4.7 10 5.2C10.6 5.8 10.9 6.4 10.9 6.8C10.9 7.4 10.8 7.8 10.5 8.2C10.1 8.5 9.8 8.7 9.3 8.7C9 8.7 8.8 8.6 8.6 8.5C8.5 8.4 8.3 7.9 8.2 7.1C8.1 6 7.8 5 7.3 3.9L7.6 3.6ZM3.8 0C4.6 0.1 5.7 0.2 6.9 0.4C7.8 0.5 8.2 0.7 8.2 0.9C8.2 1.2 7.9 1.4 7.4 1.6C7.1 1.7 6.9 1.9 6.9 2.2V20.8C6.9 22.4 6.9 24 7 25.5C7 25.8 6.5 26.1 5.6 26.2C5.2 26.3 4.9 26.3 4.7 26.3C4.3 26.3 4 26 4 25.5C4.1 23.8 4.1 22.2 4.1 20.8V4.6C4.1 2.8 4 1.3 3.8 0ZM2.7 5.3C3.2 6.6 3.5 7.7 3.5 8.7C3.5 10 3.2 10.9 2.7 11.3C2.3 11.7 1.8 11.9 1.2 11.9C0.8 11.9 0.6 11.8 0.3 11.5C0.1 11.3 0 11 0 10.7C0 10.5 0.4 10 1.1 9.1C1.8 8.1 2.2 6.9 2.2 5.4L2.7 5.3Z" fill="#7A623E"/>
<path d="M41.2998 2.10039C42.3998 2.30039 43.6998 2.40039 45.1998 2.40039H50.9998C51.2998 2.10039 51.4998 1.80039 51.6998 1.60039C52.2998 1.00039 52.6998 0.800391 52.9998 0.800391C53.2998 0.800391 53.9998 1.20039 54.8998 2.00039C55.8998 2.80039 56.3998 3.30039 56.3998 3.60039C56.3998 3.90039 55.9998 4.00039 55.1998 4.10039C54.4998 4.10039 54.0998 4.20039 53.8998 4.40039C52.4998 5.60039 51.1998 6.50039 50.1998 7.20039C51.1998 7.40039 51.6998 7.50039 51.6998 7.70039C51.6998 8.00039 51.3998 8.30039 50.8998 8.60039C50.5998 8.70039 50.3998 9.00039 50.2998 9.30039V12.2004H52.0998C52.1998 12.2004 52.4998 11.8004 52.9998 11.1004C53.6998 10.2004 54.0998 9.80039 54.1998 9.80039C54.5998 9.80039 55.0998 10.2004 55.8998 11.1004C56.6998 11.9004 57.0998 12.5004 57.0998 12.6004C57.0998 12.9004 56.8998 13.1004 56.5998 13.1004H50.2998V22.4004C50.2998 24.0004 49.8998 25.1004 48.9998 25.5004C47.9998 26.0004 47.2998 26.3004 46.6998 26.3004C46.4998 26.3004 46.2998 26.0004 46.0998 25.4004C45.8998 24.4004 44.7998 23.5004 42.9998 22.9004L43.0998 22.3004C44.0998 22.5004 44.8998 22.7004 45.5998 22.7004C46.1998 22.7004 46.5998 22.6004 46.8998 22.4004C47.0998 22.3004 47.1998 22.0004 47.1998 21.6004V13.0004H45.4998C43.8998 13.0004 42.6998 13.0004 41.9998 13.1004L41.5998 12.0004C42.4998 12.1004 43.7998 12.2004 45.4998 12.2004H47.1998V11.3004C47.1998 9.50039 47.0998 8.00039 46.9998 6.70039C47.6998 6.80039 48.2998 6.90039 48.7998 7.00039C49.4998 5.90039 50.2998 4.70039 51.0998 3.20039H45.1998C43.9998 3.20039 42.7998 3.30039 41.6998 3.40039L41.2998 2.10039ZM37.1998 16.4004C37.4998 15.7004 37.6998 15.0004 37.7998 14.3004C38.2998 12.2004 38.6998 9.80039 38.7998 7.20039H36.9998C36.3998 10.4004 35.7998 13.1004 35.1998 15.6004C35.8998 15.9004 36.5998 16.1004 37.1998 16.4004ZM34.8998 0.400391C35.8998 0.600391 36.9998 0.700391 38.0998 1.00039C39.0998 1.20039 39.5998 1.40039 39.5998 1.80039C39.5998 2.10039 39.1998 2.30039 38.4998 2.40039C38.0998 2.40039 37.7998 2.60039 37.6998 2.90039C37.4998 4.20039 37.2998 5.40039 37.0998 6.50039H38.4998C38.8998 6.20039 39.0998 5.90039 39.2998 5.70039C39.6998 5.20039 40.0998 5.00039 40.2998 5.00039C40.4998 5.00039 41.0998 5.30039 41.8998 6.00039C42.6998 6.70039 43.1998 7.20039 43.1998 7.40039C43.1998 7.50039 42.8998 7.80039 42.3998 8.10039C41.9998 8.30039 41.6998 8.50039 41.6998 8.70039C41.3998 11.5004 40.7998 14.1004 39.8998 16.6004C39.7998 16.9004 39.6998 17.2004 39.4998 17.5004C39.5998 17.5004 39.6998 17.6004 39.6998 17.6004C40.9998 18.4004 41.6998 19.2004 42.0998 19.9004C42.2998 20.3004 42.3998 20.9004 42.3998 21.4004C42.3998 21.9004 42.2998 22.3004 41.9998 22.6004C41.5998 23.0004 41.1998 23.2004 40.8998 23.2004C40.5998 23.2004 40.2998 22.8004 39.6998 21.9004C39.2998 21.1004 38.7998 20.4004 38.2998 19.8004C37.7998 20.6004 37.2998 21.3004 36.6998 21.9004C35.3998 23.3004 33.4998 24.7004 30.9998 25.9004L30.7998 25.5004C32.7998 23.8004 34.2998 22.1004 35.3998 20.2004C35.7998 19.4004 36.1998 18.6004 36.4998 17.9004C35.9998 17.4004 35.3998 17.0004 34.6998 16.5004C34.5998 16.7004 34.5998 16.9004 34.5998 17.0004C34.2998 17.7004 33.7998 18.0004 32.9998 18.0004C31.8998 18.0004 31.2998 17.7004 31.2998 17.0004C32.3998 13.6004 33.1998 10.3004 33.7998 7.10039C32.9998 7.10039 32.1998 7.20039 31.4998 7.20039L30.9998 6.10039C31.9998 6.40039 32.9998 6.40039 33.9998 6.40039C34.3998 4.40039 34.6998 2.40039 34.8998 0.400391Z" fill="#7A623E"/>
<path d="M75.6996 10.6996C77.4996 11.5996 78.6996 12.3996 79.3996 13.0996C80.0996 13.7996 80.3996 14.3996 80.3996 14.8996C80.3996 15.7996 80.0996 16.4996 79.5996 17.0996C79.1996 17.6996 78.6996 17.9996 78.0996 17.9996C77.8996 17.9996 77.6996 17.8996 77.4996 17.7996C77.2996 17.5996 77.0996 16.8996 76.8996 15.7996C76.6996 14.4996 76.0996 12.9996 75.0996 11.1996L75.6996 10.6996ZM76.0996 0.0996094C77.0996 0.399609 78.0996 0.699609 78.9996 0.899609C79.8996 1.19961 80.3996 1.39961 80.3996 1.69961C80.3996 1.99961 80.0996 2.19961 79.5996 2.29961C79.0996 2.39961 78.7996 2.49961 78.7996 2.59961C78.4996 3.69961 78.0996 4.69961 77.7996 5.69961H82.2996C82.7996 5.19961 83.1996 4.79961 83.3996 4.59961C83.7996 4.19961 84.0996 4.09961 84.1996 4.09961C84.4996 4.09961 85.0996 4.39961 85.8996 4.99961C86.8996 5.69961 87.3996 6.19961 87.3996 6.59961C87.3996 6.79961 87.0996 7.09961 86.5996 7.39961C86.2996 7.59961 86.0996 7.79961 86.0996 7.99961C86.0996 12.7996 85.7996 16.5996 85.4996 19.4996C85.0996 22.0996 84.4996 23.7996 83.9996 24.4996C83.5996 25.0996 82.9996 25.4996 82.2996 25.7996C81.5996 26.0996 80.9996 26.2996 80.5996 26.2996C80.2996 26.2996 80.0996 25.8996 79.7996 25.1996C79.4996 24.1996 78.2996 23.3996 76.1996 22.6996L76.2996 22.1996C78.2996 22.3996 79.5996 22.4996 80.2996 22.4996C80.8996 22.4996 81.3996 21.9996 81.6996 20.7996C81.8996 19.7996 82.1996 18.0996 82.3996 15.5996C82.6996 12.1996 82.7996 9.19961 82.7996 6.49961H77.4996C77.1996 7.19961 76.8996 7.79961 76.5996 8.39961C75.7996 9.89961 74.6996 11.4996 73.3996 12.9996L72.9996 12.4996C73.8996 10.3996 74.5996 8.49961 74.9996 6.79961C75.3996 4.89961 75.7996 2.69961 76.0996 0.0996094ZM66.0996 13.4996H69.6996V6.79961H66.0996V13.4996ZM66.0996 21.7996H69.6996V14.2996H66.0996V21.7996ZM67.0996 0.299609C68.1996 0.399609 68.9996 0.599609 69.6996 0.799609C70.5996 0.999609 71.0996 1.19961 71.0996 1.39961C71.0996 1.69961 70.8996 1.89961 70.4996 1.99961C70.1996 2.19961 69.9996 2.29961 69.9996 2.49961C69.2996 3.79961 68.1996 4.99961 66.7996 6.09961H68.5996C68.9996 5.59961 69.3996 5.19961 69.6996 4.79961C69.9996 4.49961 70.1996 4.29961 70.4996 4.29961C70.6996 4.29961 71.1996 4.59961 72.0996 5.09961C73.0996 5.79961 73.4996 6.19961 73.4996 6.39961C73.4996 6.69961 73.2996 6.89961 72.9996 7.19961C72.6996 7.39961 72.5996 7.69961 72.5996 7.99961V20.3996C72.5996 21.2996 72.5996 22.4996 72.6996 23.9996C72.6996 24.3996 72.1996 24.5996 71.1996 24.7996C70.7996 24.8996 70.4996 24.8996 70.2996 24.8996C69.7996 24.8996 69.4996 24.5996 69.4996 23.9996V22.6996H65.8996V24.5996C65.8996 24.9996 65.3996 25.1996 64.4996 25.3996C64.0996 25.4996 63.7996 25.4996 63.5996 25.4996C62.9996 25.4996 62.6996 25.1996 62.6996 24.5996C62.7996 23.5996 62.7996 22.6996 62.7996 21.6996V8.69961C62.7996 7.29961 62.6996 5.99961 62.5996 4.69961C63.8996 4.89961 64.9996 5.19961 65.9996 5.69961C66.5996 3.89961 66.9996 2.09961 67.0996 0.299609Z" fill="#7A623E"/>
<path d="M107.7 16.0996H112.5V9.69961H107.7V16.0996ZM114.8 0.0996094C115 0.0996094 115.7 0.599609 116.8 1.59961C117.4 2.19961 117.8 2.59961 117.8 2.69961C117.8 2.99961 117.6 3.19961 117.2 3.19961H107.8V8.99961H111.7C112.1 8.49961 112.5 7.99961 112.9 7.59961C113.2 7.29961 113.5 7.09961 113.7 7.09961C114 7.09961 114.5 7.39961 115.4 7.89961C116.4 8.59961 117 9.09961 117 9.29961C117 9.59961 116.8 9.79961 116.3 10.0996C116 10.3996 115.9 10.5996 115.9 10.8996V13.7996C115.9 14.6996 115.9 15.9996 116 17.5996C116 17.9996 115.5 18.1996 114.5 18.3996C114 18.4996 113.7 18.4996 113.5 18.4996C113 18.4996 112.7 18.1996 112.7 17.5996V16.7996H107.9V23.7996H112.4C112.4 23.7996 112.7 23.3996 113.4 22.6996C114.2 21.6996 114.8 21.0996 115 21.0996C115.3 21.0996 116 21.6996 117.2 22.7996C118 23.4996 118.4 23.8996 118.4 24.0996C118.4 24.3996 118.2 24.5996 117.7 24.5996H108V25.1996C108 25.5996 107.5 25.7996 106.6 25.9996C106.2 26.0996 105.9 26.0996 105.7 26.0996C105 26.0996 104.7 25.7996 104.7 25.1996C104.9 22.9996 105 21.0996 105 19.4996V6.19961C105 4.79961 104.9 3.09961 104.7 1.09961C106 1.39961 107.3 1.79961 108.4 2.29961H112.7C112.7 2.29961 113 1.99961 113.6 1.29961C114.1 0.499609 114.5 0.0996094 114.8 0.0996094ZM96.1996 9.39961H99.9996V2.99961H96.1996V9.39961ZM93.0996 0.899609C94.3996 1.19961 95.5996 1.69961 96.8996 2.19961H98.9996C99.3996 1.69961 99.7996 1.19961 100.2 0.799609C100.5 0.399609 100.7 0.299609 101 0.299609C101.2 0.299609 101.7 0.599609 102.6 1.09961C103.6 1.69961 104 2.19961 104 2.49961C104 2.69961 103.8 2.99961 103.4 3.29961C103.1 3.49961 103 3.79961 103 4.09961V6.79961C103 7.59961 103 8.69961 103.1 9.99961C103.1 10.3996 102.7 10.6996 101.8 10.7996C101.4 10.7996 101.1 10.8996 100.9 10.8996C100.4 10.8996 100.2 10.6996 100.2 10.1996V15.1996H100.6C100.8 14.6996 101 14.1996 101.3 13.6996C101.6 12.9996 101.9 12.6996 102.1 12.6996C102.4 12.6996 102.8 12.9996 103.2 13.5996C103.9 14.4996 104.2 15.1996 104.2 15.4996C104.2 15.6996 104.1 15.7996 103.8 15.7996H99.9996V20.7996C101.3 20.5996 102.6 20.2996 103.9 19.9996L104.1 20.3996C101.2 22.3996 98.1996 23.7996 94.8996 24.6996C94.4996 24.7996 94.2996 24.8996 94.2996 25.0996C94.2996 25.1996 94.1996 25.2996 94.1996 25.4996C94.0996 25.7996 93.9996 25.8996 93.8996 25.8996C93.4996 25.8996 92.9996 25.1996 92.3996 23.7996C92.2996 23.3996 91.9996 22.7996 91.5996 21.8996C91.9996 21.8996 92.3996 21.7996 92.7996 21.7996V14.9996C92.7996 14.3996 92.6996 13.6996 92.5996 12.9996C93.5996 13.0996 94.5996 13.1996 95.5996 13.3996C96.1996 13.3996 96.4996 13.5996 96.4996 13.8996C96.4996 13.9996 96.2996 14.0996 95.8996 14.2996C95.4996 14.4996 95.2996 14.5996 95.2996 14.8996V21.4996C95.7996 21.3996 96.3996 21.3996 96.8996 21.2996V10.0996H95.9996V10.1996C95.9996 10.5996 95.5996 10.7996 94.6996 10.9996C94.2996 11.0996 93.9996 11.0996 93.8996 11.0996C93.2996 11.0996 92.9996 10.7996 92.9996 10.1996C93.0996 9.29961 93.0996 8.39961 93.0996 7.49961V4.69961C93.2996 3.39961 93.1996 2.09961 93.0996 0.899609Z" fill="#7A623E"/>
<path d="M126.2 19.1002C126.8 19.1002 127.3 19.0002 127.9 19.0002C128.1 18.1002 128.3 17.1002 128.5 16.1002H126.3V19.1002H126.2ZM142 11.7002V7.2002H140.3V11.8002H142V11.7002ZM142 17.2002V12.5002H140.3V17.2002H142ZM142 23.6002V18.0002H140.3V23.6002H142ZM123.8 4.9002C124.6 5.0002 125.4 5.1002 126.5 5.3002C127.5 5.4002 128 5.6002 128 5.8002C128 6.0002 127.9 6.1002 127.8 6.2002C128.4 6.4002 128.9 6.6002 129.3 6.8002C129.5 6.1002 129.6 5.4002 129.7 4.6002C130.4 4.8002 131 5.0002 131.6 5.2002C132.4 5.4002 132.7 5.6002 132.7 5.8002C132.7 6.0002 132.5 6.1002 132.1 6.2002C131.7 6.3002 131.5 6.4002 131.5 6.5002C131.3 6.9002 131.1 7.3002 131 7.6002C131.6 8.0002 132.1 8.4002 132.4 8.7002C132.6 9.0002 132.8 9.2002 132.8 9.5002C132.8 10.0002 132.6 10.4002 132.3 10.8002C131.9 11.2002 131.6 11.4002 131.2 11.4002C131 11.4002 130.8 11.2002 130.6 10.8002C130.4 10.3002 130.2 9.9002 129.9 9.5002C129.7 9.8002 129.5 10.0002 129.3 10.1002C128.8 10.6002 128.1 11.1002 127.1 11.7002L126.9 11.3002C127.7 10.4002 128.3 9.4002 128.7 8.4002C128.8 8.30019 128.8 8.1002 128.8 8.0002C128.4 7.5002 127.9 7.0002 127.3 6.4002H127.2C126.9 6.5002 126.7 6.8002 126.7 7.1002V12.0002H133V7.0002C133 6.2002 132.9 5.5002 132.8 4.8002C133.5 4.9002 134.4 5.0002 135.5 5.2002C136.5 5.3002 137 5.5002 137 5.7002C137 6.0002 136.8 6.2002 136.3 6.4002C135.9 6.5002 135.8 6.8002 135.8 7.1002V11.0002C136.4 9.3002 136.9 7.8002 137.3 6.4002C137.7 4.7002 138 2.8002 138.3 0.400195C139.2 0.700195 140.1 0.900195 141 1.2002C141.8 1.5002 142.2 1.7002 142.2 2.0002C142.2 2.2002 142 2.4002 141.5 2.5002C141 2.6002 140.8 2.7002 140.7 2.8002C140.4 3.9002 140.1 4.9002 139.7 5.8002L140.6 6.2002H142.2C142.5 5.3002 142.7 4.6002 142.9 3.8002C143.1 3.0002 143.2 2.0002 143.3 0.800195C144.2 1.0002 145 1.2002 145.8 1.5002C146.6 1.7002 147 2.0002 147 2.3002C147 2.5002 146.8 2.7002 146.3 2.8002C145.8 2.9002 145.6 3.0002 145.5 3.1002C145.1 3.9002 144.7 4.6002 144.2 5.1002C143.9 5.5002 143.5 5.8002 143.1 6.2002H144.6C144.6 6.2002 144.8 6.0002 145.2 5.6002C145.7 5.0002 146.1 4.7002 146.3 4.7002C146.4 4.7002 146.9 5.1002 147.7 5.8002C148.2 6.2002 148.5 6.5002 148.5 6.6002C148.5 6.9002 148.4 7.0002 148.1 7.0002H144.9V11.6002H145C145 11.6002 145.2 11.4002 145.5 11.1002C146 10.6002 146.3 10.4002 146.4 10.4002C146.6 10.4002 147 10.7002 147.6 11.3002C148 11.7002 148.2 11.9002 148.2 12.0002C148.2 12.3002 148.1 12.4002 147.8 12.4002H144.8V17.1002H144.9C144.9 17.1002 145.1 16.9002 145.4 16.6002C145.9 16.1002 146.2 15.9002 146.3 15.9002C146.5 15.9002 146.9 16.2002 147.5 16.8002C147.9 17.2002 148.1 17.4002 148.1 17.5002C148.1 17.8002 148 17.9002 147.7 17.9002H144.7V23.5002H144.9C144.9 23.5002 145.1 23.3002 145.5 22.9002C146 22.3002 146.3 22.0002 146.5 22.0002C146.6 22.0002 147.1 22.3002 147.8 23.0002C148.3 23.4002 148.5 23.7002 148.5 23.8002C148.5 24.1002 148.4 24.2002 148.2 24.2002H140.2V25.2002C140.2 25.5002 139.8 25.8002 138.9 25.9002C138.5 26.0002 138.2 26.0002 138.1 26.0002C137.5 26.0002 137.2 25.7002 137.2 25.2002C137.4 24.0002 137.5 22.8002 137.5 21.5002V9.6002C137 10.4002 136.4 11.2002 135.7 12.0002L135.6 11.9002V12.9002C135.6 13.2002 135.2 13.4002 134.4 13.6002C134 13.7002 133.8 13.7002 133.6 13.7002C133.1 13.7002 132.8 13.6002 132.8 13.3002C132.8 13.2002 132.8 13.1002 132.9 13.0002H131.7C131.3 13.9002 131 14.7002 130.7 15.5002H133.1C133.3 15.2002 133.5 15.0002 133.6 14.9002C134.1 14.4002 134.4 14.2002 134.6 14.2002C134.9 14.2002 135.4 14.5002 136.3 15.1002C137.1 15.7002 137.5 16.1002 137.5 16.3002C137.5 16.5002 137.3 16.7002 136.9 17.0002C136.4 17.3002 136.1 17.6002 136.1 17.9002V24.1002C136.1 24.9002 135.7 25.5002 134.8 25.9002C134.1 26.3002 133.5 26.4002 133 26.4002C132.8 26.4002 132.6 26.1002 132.5 25.5002C132.3 24.8002 131.5 24.2002 130.1 23.7002L130.2 23.2002C131.4 23.3002 132.3 23.4002 133 23.4002C133.3 23.4002 133.4 23.1002 133.4 22.6002V16.2002H130.4C130 17.2002 129.5 18.2002 129.1 19.0002C129.7 18.9002 130.2 18.9002 130.7 18.8002C130.6 18.2002 130.4 17.7002 130.3 17.2002L130.5 17.0002C131.5 17.6002 132.1 18.2002 132.5 18.7002C133 19.3002 133.2 19.9002 133.2 20.4002C133.2 20.9002 133.1 21.4002 132.8 21.7002C132.5 22.0002 132.1 22.2002 131.7 22.2002C131.5 22.2002 131.3 22.1002 131.2 22.0002C131.1 21.9002 131 21.4002 130.9 20.5002C130.9 20.3002 130.9 20.2002 130.8 20.0002C129.9 20.7002 128.9 21.2002 127.9 21.5002C127.8 21.5002 127.7 21.6002 127.7 21.7002C127.7 21.8002 127.6 21.9002 127.6 22.0002C127.6 22.2002 127.5 22.3002 127.3 22.3002C127 22.3002 126.6 21.8002 126.2 20.7002C126.1 20.5002 126.1 20.3002 125.9 20.1002V25.7002C125.9 26.0002 125.5 26.3002 124.7 26.4002C124.3 26.5002 124.1 26.5002 123.9 26.5002C123.4 26.5002 123.1 26.2002 123.1 25.7002C123.2 24.8002 123.2 24.0002 123.2 23.1002V17.9002C123.2 16.7002 123.2 15.5002 123.1 14.3002C124.2 14.6002 125.3 15.0002 126.5 15.5002H128.2C128.3 14.7002 128.5 13.9002 128.6 13.0002H126.4V13.3002C126.4 13.6002 126 13.8002 125.2 14.0002C124.8 14.1002 124.6 14.1002 124.4 14.1002C123.9 14.1002 123.6 13.9002 123.6 13.6002C123.7 13.2002 123.7 12.8002 123.7 12.6002V7.0002C124 6.2002 123.9 5.5002 123.8 4.9002ZM128.1 0.200195C129.3 0.300195 130.4 0.500195 131.5 0.700195C132.1 0.700195 132.5 0.900195 132.5 1.2002C132.5 1.3002 132.3 1.4002 131.9 1.6002C131.5 1.8002 131.2 2.0002 131.2 2.3002V3.4002H132.7C132.8 3.4002 133 3.0002 133.6 2.3002C134.2 1.5002 134.6 1.1002 134.7 1.1002C135.1 1.1002 135.6 1.5002 136.3 2.2002C137 3.0002 137.4 3.5002 137.4 3.6002C137.4 3.9002 137.3 4.0002 137 4.0002H126.4C124.8 4.0002 123.6 4.0002 122.9 4.1002L122.5 3.0002C123.4 3.1002 124.7 3.2002 126.4 3.2002H128.3V2.5002C128.3 1.8002 128.2 1.0002 128.1 0.200195Z" fill="#7A623E"/>
<path d="M121.1 110.6C138.994 110.6 153.5 96.0938 153.5 78.1998C153.5 60.3058 138.994 45.7998 121.1 45.7998C103.206 45.7998 88.7002 60.3058 88.7002 78.1998C88.7002 96.0938 103.206 110.6 121.1 110.6Z" fill="#7A623E"/>
<path d="M121.1 110.6C138.994 110.6 153.5 96.0938 153.5 78.1998C153.5 60.3058 138.994 45.7998 121.1 45.7998C103.206 45.7998 88.7002 60.3058 88.7002 78.1998C88.7002 96.0938 103.206 110.6 121.1 110.6Z" stroke="#FFFCDB" stroke-width="0.5669" stroke-miterlimit="22.9256"/>
<path d="M29.4004 85L33.5004 84.7C33.8004 86.7 34.5004 88.2 35.6004 89.2C36.7004 90.2 38.0004 90.7 39.6004 90.7C41.5004 90.7 43.1004 90 44.4004 88.6C45.7004 87.2 46.3004 85.3 46.3004 82.9C46.3004 80.7 45.7004 78.9 44.4004 77.6C43.2004 76.3 41.5004 75.7 39.5004 75.7C38.2004 75.7 37.1004 76 36.1004 76.6C35.1004 77.2 34.3004 77.9 33.7004 78.9L30.0004 78.4L33.1004 62H48.9004V65.7H36.3004L34.6004 74.3C36.5004 73 38.5004 72.3 40.6004 72.3C43.4004 72.3 45.7004 73.3 47.6004 75.2C49.5004 77.1 50.5004 79.6 50.5004 82.7C50.5004 85.6 49.7004 88.1 48.0004 90.2C46.0004 92.8 43.2004 94.1 39.6004 94.1C36.7004 94.1 34.3004 93.3 32.5004 91.7C30.7004 89.8 29.7004 87.7 29.4004 85Z" fill="black"/>
<path d="M55.2 76C55.8 76.1 56.5 76.2 57.1 76.2H62.2L62.8 75.6L63.9 76.4C64 76.5 64 76.5 64 76.6C64 76.7 63.8 76.8 63.4 77C63.4 77.7 63.3 78.6 63.1 79.5C63 80.6 62.7 81.5 62.5 82.2C62.3 82.6 62.1 83 61.8 83.2C61.5 83.4 61 83.5 60.3 83.6C60.2 83.1 60.1 82.8 59.8 82.7L58.6 82.4L58.7 82L60.5 82.2C60.7 82.2 60.9 82.1 61.1 82C61.3 81.9 61.4 81.7 61.5 81.4C61.7 80.8 61.9 80 62 79C62.1 78.1 62.2 77.3 62.2 76.5H58.7C58.6 77.5 58.4 78.3 58.1 79C57.8 79.8 57.5 80.4 57.2 80.8C56.8 81.3 56.3 81.8 55.7 82.2C55.1 82.7 54.2 83.1 53.1 83.5L53 83.4C53.8 82.9 54.5 82.5 55 82.1C55.5 81.7 55.9 81.2 56.3 80.6C56.6 80.1 56.9 79.5 57.1 78.8C57.3 78.2 57.5 77.4 57.5 76.6H57C56.5 76.6 55.9 76.6 55.4 76.7L55.2 76ZM58.9 70.9C59.5 71 60.1 71.1 60.8 71.1H61.1L61.7 70.5L62.6 71.2C62.7 71.3 62.8 71.4 62.8 71.5C62.8 71.6 62.6 71.7 62.1 71.9C62.3 72.4 62.5 73 62.9 73.4C63.2 73.8 63.6 74.2 64.1 74.6C64.7 75.1 65.6 75.7 66.7 76.3L66.5 76.6C66.1 76.6 65.9 76.6 65.9 76.7C65.7 76.7 65.6 76.9 65.3 77.2C64.5 76.5 63.9 76 63.5 75.6C63 75 62.6 74.5 62.3 73.9C62 73.3 61.7 72.5 61.5 71.5H60.9C60.4 71.5 59.8 71.5 59.3 71.6L58.9 70.9ZM56.7 71.3L58.1 71.8C58.3 71.9 58.4 72 58.4 72.1C58.4 72.2 58.2 72.3 57.7 72.4C57 73.6 56.4 74.6 55.8 75.3C55.2 76.1 54.3 76.9 53.3 77.7L53 77.5C53.9 76.5 54.6 75.6 55 74.9C55.6 73.8 56.2 72.6 56.7 71.3Z" fill="black"/>
<path d="M78.2 76.2002V77.5002H79.9V76.2002H78.2ZM75.5 77.5002H77.1V76.2002H75.5V77.5002ZM78.2 77.9002V79.2002H79.9V77.9002H78.2ZM75.5 79.2002H77.1V77.9002H75.5V79.2002ZM74.4 75.2002L75.5 75.8002H79.8L80.4 75.2002L81.2 75.8002C81.3 75.9002 81.4 76.0002 81.4 76.0002C81.4 76.1002 81.4 76.2002 81.3 76.2002L81 76.3002V78.4002L81.1 79.5002C81.1 79.6002 81 79.7002 80.9 79.8002C80.7 80.0002 80.5 80.0002 80.4 80.0002C80.1 80.0002 79.9 79.9002 79.9 79.7002V79.6002H78.2V81.0002H79.6L80.3 80.2002L81.3 80.9002C81.4 81.0002 81.5 81.1002 81.5 81.2002C81.5 81.3002 81.4 81.4002 81.3 81.4002H78.3V82.8002H80.3L81.1 81.9002L82.1 82.6002C82.2 82.7002 82.3 82.8002 82.3 82.9002C82.3 83.0002 82.2 83.1002 82.1 83.1002H75.1C74.6 83.1002 74 83.1002 73.5 83.2002L73.2 82.5002C73.8 82.6002 74.4 82.7002 75.1 82.7002H77.2V81.3002H76.3C75.8 81.3002 75.2 81.3002 74.7 81.4002L74.4 80.7002C75 80.8002 75.7 80.9002 76.3 80.9002H77.2V79.5002H75.6V79.6002C75.6 79.8002 75.5 79.9002 75.4 79.9002C75.3 80.0002 75.1 80.0002 74.9 80.0002C74.7 80.0002 74.6 79.9002 74.6 79.7002V76.0002C74.5 75.7002 74.5 75.4002 74.4 75.2002ZM78.8 72.4002L80 73.0002C80.2 73.1002 80.2 73.1002 80.2 73.2002C80.2 73.3002 80 73.4002 79.6 73.5002C79.4 73.8002 79 74.1002 78.6 74.5002H80.1L80.9 73.6002L81.9 74.4002C82 74.5002 82.1 74.6002 82.1 74.7002C82.1 74.8002 82 74.9002 81.9 74.9002H75.6C75.1 74.9002 74.5 74.9002 74 75.0002L73.7 74.3002C74.3 74.4002 74.9 74.5002 75.6 74.5002H78.1C78.2 74.1002 78.3 73.8002 78.4 73.6002C78.6 73.1002 78.7 72.8002 78.8 72.4002ZM75.5 72.5002C76 72.7002 76.3 73.0002 76.6 73.2002C76.9 73.4002 77 73.6002 77 73.7002C77 74.2002 76.8 74.4002 76.4 74.4002C76.3 74.4002 76.2 74.3002 76.1 74.1002C75.9 73.6002 75.6 73.2002 75.2 72.7002L75.5 72.5002ZM77.1 70.4002L78.4 70.6002C78.7 70.6002 78.8 70.7002 78.8 70.9002C78.8 71.0002 78.6 71.2002 78.2 71.3002V72.0002H79.6L80.3 71.2002L81.3 71.9002C81.4 72.0002 81.5 72.1002 81.5 72.2002C81.5 72.3002 81.4 72.4002 81.3 72.4002H76C75.5 72.4002 75 72.4002 74.4 72.5002L74.1 71.8002C74.7 71.9002 75.4 72.0002 76 72.0002H77.1V71.3002C77.1 71.1002 77.1 70.8002 77.1 70.4002ZM72.5 78.2002L73.7 78.7002C73.9 78.8002 73.9 78.8002 73.9 78.9002C73.9 79.1002 73.7 79.2002 73.3 79.2002C73.1 79.6002 72.8 80.2002 72.4 80.8002L72.1 80.7002C72.2 80.2002 72.3 79.8002 72.3 79.5002C72.4 79.1002 72.4 78.6002 72.5 78.2002ZM69.1 78.5002C69.4 78.9002 69.7 79.2002 69.9 79.6002C70.1 79.9002 70.2 80.2002 70.2 80.5002C70.2 80.9002 70 81.1002 69.7 81.1002C69.5 81.1002 69.4 80.9002 69.4 80.6002C69.3 80.0002 69.1 79.4002 68.8 78.7002L69.1 78.5002ZM70.8 70.2002L72.1 70.5002C72.3 70.5002 72.5 70.6002 72.5 70.8002C72.5 70.9002 72.4 71.0002 72.3 71.0002L71.9 71.1002C72.5 71.5002 73 71.8002 73.3 72.1002C73.7 72.4002 73.9 72.8002 73.9 73.1002C73.9 73.5002 73.7 73.7002 73.3 73.7002C73.1 73.7002 73 73.6002 72.9 73.3002C72.6 72.7002 72.1 72.0002 71.6 71.4002C71.2 72.2002 70.7 72.9002 70.3 73.5002C70.1 73.8002 69.8 74.1002 69.5 74.5002C70 74.6002 70.6 74.6002 71.1 74.6002H71.5L72.2 73.8002L73.2 74.5002C73.3 74.6002 73.4 74.7002 73.4 74.8002C73.4 75.0002 73.3 75.0002 73.2 75.0002H71.8V77.0002H72.2L72.9 76.2002L73.9 76.9002C74 77.0002 74.1 77.1002 74.1 77.2002C74.1 77.4002 74 77.4002 73.9 77.4002H71.9V81.3002C72.1 81.3002 72.3 81.2002 72.4 81.2002C73 81.1002 73.5 81.0002 74 80.9002L74.1 81.2002C73.8 81.4002 73.4 81.6002 72.9 81.8002C72.4 82.0002 71.8 82.2002 71.1 82.4002C70.7 82.5002 70.3 82.6002 69.9 82.7002L69.7 83.1002C69.6 83.3002 69.5 83.4002 69.4 83.4002C69.3 83.4002 69.2 83.3002 69.2 83.1002L68.8 81.6002C69.3 81.6002 69.9 81.5002 70.6 81.4002C70.7 81.4002 70.8 81.4002 70.9 81.4002V77.4002H70.8C70.3 77.4002 69.8 77.4002 69.2 77.5002L68.9 76.8002C69.5 76.9002 70.2 77.0002 70.8 77.0002H70.9V75.0002C70.5 75.0002 70.1 75.0002 69.7 75.1002L69.5 74.7002C69.2 75.0002 69 75.3002 68.7 75.6002L68.5 75.3002C69.1 74.4002 69.7 73.6002 70.1 72.7002C70.2 72.0002 70.6 71.1002 70.8 70.2002Z" fill="black"/>
<path d="M108.9 68.6H115.9V67.7H108.9V68.6ZM108.9 70.6H115.9V69.7H108.9V70.6ZM108.9 72.6H115.9V71.7H108.9V72.6ZM108.9 74.6H115.9V73.6H108.9V74.6ZM106.2 64.3H111.5L112 63L113.2 63.3C113.3 63.3 113.4 63.4 113.4 63.4C113.4 63.5 113.3 63.6 113.2 63.7L113 64.2H118.9V65.4H112.6L112.2 66.5H117.3V74.6H119.2V75.8H106.1V74.6H107.8V66.5H110.8L111.2 65.4H106.3V64.3H106.2Z" fill="white"/>
<path d="M126.9 68.0002H135.1V69.2002H132.6V75.0002C132.6 75.6002 132.4 76.0002 132 76.2002C131.7 76.5002 130.8 76.6002 129.5 76.6002L128.9 75.1002H130.3C130.8 75.1002 131.1 75.0002 131.1 74.7002V69.2002H126.9V68.0002ZM127.9 64.0002H134.4V65.3002H127.9V64.0002ZM126 66.0002L127.2 66.4002C127.4 66.4002 127.4 66.5002 127.4 66.6002C127.4 66.6002 127.4 66.7002 127.3 66.8002C127.1 66.8002 126.7 67.3002 126.1 68.1002C125.8 68.4002 125.6 68.8002 125.3 69.1002V76.6002H123.9V70.5002C123.5 70.9002 123.1 71.3002 122.6 71.6002L121.3 70.9002C123.3 69.5002 124.9 67.9002 126 66.0002ZM125.3 63.2002L126.5 63.6002C126.7 63.6002 126.7 63.7002 126.7 63.8002C126.7 63.8002 126.7 63.9002 126.6 64.0002C126.4 64.0002 126.1 64.3002 125.7 64.8002C124.9 65.6002 124 66.3002 122.9 67.0002L121.6 66.3002C123.1 65.4002 124.3 64.4002 125.3 63.2002Z" fill="white"/>
<path d="M101.6 90.6002H107.2V87.7002H101.6V90.6002ZM100.3 86.4002H108.6V92.6002H107.2V91.8002H101.6V92.6002H100.2V86.4002H100.3ZM102.9 79.2002L104.2 79.7002C104.4 79.8002 104.5 79.8002 104.5 79.9002C104.5 80.0002 104.4 80.1002 104.1 80.2002C103.5 81.4002 102.7 82.6002 101.7 84.0002C103.7 83.9002 105.7 83.7002 107.6 83.4002C107.2 82.8002 106.7 82.2002 106.2 81.7002L107.2 80.9002C108.3 82.0002 109.4 83.4002 110.5 85.1002L109.2 86.0002C108.9 85.5002 108.6 85.0002 108.4 84.6002C106.4 84.9002 103.3 85.2002 99.1998 85.7002C99.0998 85.9002 98.9998 86.0002 98.8998 86.0002C98.7998 86.0002 98.6998 85.9002 98.6998 85.8002L98.2998 84.3002C98.8998 84.3002 99.4998 84.2002 99.9998 84.2002C100.5 83.5002 100.9 82.9002 101.2 82.3002C102 81.3002 102.5 80.2002 102.9 79.2002Z" fill="white"/>
<path d="M135 87.2H136.9C137.1 87.1 137.2 87 137.3 87C137.3 87 137.6 87.2 138.1 87.7C138.2 87.7 138.2 87.8 138.2 87.9C138.2 88 138.2 88 138.1 88.1C138 88.2 137.9 88.4 137.7 88.9C137.3 89.8 137 90.5 136.6 91C136.1 91.6 135.5 92 134.8 92.4L134 91.5C134.5 91.3 134.9 91.1 135.2 90.8C135.5 90.5 135.8 90.2 136 89.9C136.2 89.6 136.5 89.1 136.7 88.4H135V87.2ZM138.4 86.1L139.7 86.3C139.9 86.3 139.9 86.4 139.9 86.5C139.9 86.6 139.8 86.7 139.6 86.9V88.2C139.7 88.4 139.8 88.6 139.9 88.7C140.7 88.1 141.4 87.4 142 86.8L142.9 87.7C142.9 87.8 143 87.8 143 87.9C143 88 142.9 88 142.6 88C141.9 88.5 141.2 89.1 140.5 89.6C140.7 89.9 140.9 90.1 141.1 90.3C141.6 90.8 142.3 91.2 143.1 91.7L142 92.7C141.2 92.2 140.6 91.7 140.2 91.1C140 90.8 139.7 90.5 139.5 90.2V91C139.5 91.6 139.4 92 139.1 92.2C138.9 92.5 138.3 92.6 137.3 92.6L136.8 91.4H137.7C138 91.4 138.2 91.2 138.2 90.8V86.1H138.4ZM137 82.5H140.9V81.4H137V82.5ZM141 84.7V83.6H137V84.7H141ZM138.5 79L139.7 79.5C139.9 79.5 140 79.6 140 79.7C140 79.8 139.9 79.9 139.7 80C139.6 80.1 139.6 80.2 139.5 80.3H142.3V85.9H135.8V80.3H138.1C138.1 80.2 138.2 80.1 138.2 80C138.3 79.7 138.4 79.3 138.5 79ZM134.6 87.5C134.9 88.5 135 89.4 135.1 90.3L134 90.5C133.9 89.5 133.7 88.6 133.5 87.7L134.6 87.5ZM130.3 87.5L131.3 87.9C131.4 87.9 131.4 88 131.4 88C131.4 88.1 131.4 88.1 131.3 88.2C131 89.7 130.7 90.9 130.4 91.9L129.3 91.4C129.7 90.3 130.1 89 130.3 87.5ZM132.1 79.1L133.1 79.6C133.2 79.7 133.3 79.7 133.3 79.8C133.3 79.9 133.2 80 133.1 80.1L131.5 82.3C131.8 82.6 132 82.8 132.2 83.1L133.6 81.1L134.6 81.6C134.7 81.7 134.8 81.7 134.8 81.8C134.8 81.9 134.7 82 134.6 82.1L132.3 85.2C132.8 85.2 133.4 85.1 133.9 85.1C133.8 84.7 133.7 84.4 133.5 84.1L134.6 83.9C135 84.9 135.3 85.8 135.5 86.8L134.4 87.1C134.3 86.8 134.3 86.5 134.2 86.2L133.2 86.4V92.9H132V86.6L130.4 86.8C130.3 87 130.1 87.2 130 87.2C129.9 87.2 129.8 87.1 129.8 86.9L129.7 85.5C130.1 85.5 130.5 85.5 130.9 85.5L131.6 84.4C130.9 83.7 130.2 83 129.4 82.3L130.2 81.4C130.4 81.6 130.5 81.7 130.7 81.9L132.1 79.1Z" fill="white"/>
<path d="M119.5 88.0996C119.5 89.0996 119.1 89.8996 118.4 90.4996C117.7 91.0996 116.8 91.4996 115.8 91.4996C114.8 91.4996 114 91.1996 113.4 90.5996C112.8 89.9996 112.5 89.2996 112.4 88.4996L114 88.2996C114.2 89.4996 114.8 90.1996 115.8 90.1996C116.4 90.1996 116.8 89.9996 117.2 89.5996C117.5 89.1996 117.7 88.6996 117.7 88.1996C117.7 87.5996 117.5 87.1996 117.2 86.7996C116.9 86.3996 116.5 86.2996 116 86.2996C115.7 86.2996 115.4 86.3996 115 86.4996L115.2 85.0996C115.7 85.0996 116.2 84.9996 116.6 84.7996C117.1 84.4996 117.3 84.0996 117.3 83.4996C117.3 82.9996 117.1 82.6996 116.8 82.3996C116.5 82.1996 116.2 81.9996 115.8 81.9996C114.9 81.9996 114.3 82.5996 114.2 83.6996L112.6 83.3996C113 81.4996 114.1 80.5996 115.9 80.5996C116.8 80.5996 117.6 80.8996 118.2 81.4996C118.8 81.9996 119.1 82.6996 119.1 83.3996C119.1 84.3996 118.6 85.0996 117.6 85.5996C118.4 85.7996 119 86.1996 119.3 86.7996C119.4 87.1996 119.5 87.5996 119.5 88.0996Z" fill="white"/>
<path d="M126.5 91.3H124.8V83.2C124.1 83.9 123.2 84.4 122.1 84.8V83.3C122.6 83.1 123.1 82.8 123.6 82.4C124.4 81.8 124.9 81.2 125.2 80.5H126.4V91.3H126.5Z" fill="white"/>
<path d="M304.34 95.3303C313.797 80.1401 309.149 60.1595 293.959 50.7026C278.769 41.2456 258.788 45.8933 249.331 61.0835C239.874 76.2738 244.522 96.2543 259.712 105.711C274.903 115.168 294.883 110.521 304.34 95.3303Z" fill="#7A623E"/>
<path d="M304.34 95.3303C313.797 80.1401 309.149 60.1595 293.959 50.7026C278.769 41.2456 258.788 45.8933 249.331 61.0835C239.874 76.2738 244.522 96.2543 259.712 105.711C274.903 115.168 294.883 110.521 304.34 95.3303Z" stroke="#FFFCDB" stroke-width="0.5669" stroke-miterlimit="22.9256"/>
<path d="M355.5 93.3998H351.6V68.3998C350.7 69.2998 349.4 70.1998 347.9 71.0998C346.4 71.9998 345 72.6998 343.8 73.0998V69.2998C346 68.2998 347.9 66.9998 349.6 65.5998C351.2 64.0998 352.4 62.6998 353.1 61.2998H355.6V93.3998H355.5Z" fill="black"/>
<path d="M379.5 93.3998H375.6V68.3998C374.7 69.2998 373.4 70.1998 371.9 71.0998C370.4 71.9998 369 72.6998 367.8 73.0998V69.2998C370 68.2998 371.9 66.9998 373.6 65.5998C375.2 64.0998 376.4 62.6998 377.1 61.2998H379.6V93.3998H379.5Z" fill="black"/>
<path d="M210.8 76C211.4 76.1 212.1 76.2 212.7 76.2H217.8L218.4 75.6L219.5 76.4C219.6 76.5 219.6 76.5 219.6 76.6C219.6 76.7 219.4 76.8 219 77C219 77.7 218.9 78.6 218.7 79.5C218.6 80.6 218.3 81.5 218.1 82.2C217.9 82.6 217.7 83 217.4 83.2C217.1 83.4 216.6 83.5 215.9 83.6C215.8 83.1 215.7 82.8 215.4 82.7L214.2 82.4L214.3 82L216.1 82.2C216.3 82.2 216.5 82.1 216.7 82C216.9 81.9 217 81.7 217.1 81.4C217.3 80.8 217.5 80 217.6 79C217.7 78.1 217.8 77.3 217.8 76.5H214.3C214.2 77.5 214 78.3 213.7 79C213.4 79.8 213.1 80.4 212.8 80.8C212.4 81.3 211.9 81.8 211.3 82.2C210.7 82.7 209.8 83.1 208.7 83.5L208.6 83.2C209.4 82.7 210.1 82.3 210.6 81.9C211.1 81.5 211.5 81 211.9 80.4C212.2 79.9 212.5 79.3 212.7 78.6C212.9 78 213.1 77.2 213.1 76.4H212.6C212.1 76.4 211.5 76.4 211 76.5L210.8 76ZM214.6 70.9C215.2 71 215.8 71.1 216.5 71.1H216.8L217.4 70.5L218.3 71.2C218.4 71.3 218.5 71.4 218.5 71.5C218.5 71.6 218.3 71.7 217.8 71.9C218 72.4 218.2 73 218.6 73.4C218.9 73.8 219.3 74.2 219.8 74.6C220.4 75.1 221.3 75.7 222.4 76.3L222.2 76.6C221.8 76.6 221.6 76.6 221.6 76.7C221.4 76.7 221.3 76.9 221 77.2C220.2 76.5 219.6 76 219.2 75.6C218.7 75 218.3 74.5 218 73.9C217.7 73.3 217.4 72.5 217.2 71.5H216.6C216.1 71.5 215.5 71.5 215 71.6L214.6 70.9ZM212.4 71.3L213.8 71.8C214 71.9 214.1 72 214.1 72.1C214.1 72.2 213.9 72.3 213.4 72.4C212.7 73.6 212.1 74.6 211.5 75.3C210.9 76.1 210 76.9 209 77.7L208.7 77.5C209.6 76.5 210.3 75.6 210.7 74.9C211.3 73.8 211.9 72.6 212.4 71.3Z" fill="black"/>
<path d="M233.9 76.2002V77.5002H235.6V76.2002H233.9ZM231.2 77.5002H232.8V76.2002H231.2V77.5002ZM233.9 77.9002V79.2002H235.6V77.9002H233.9ZM231.2 79.2002H232.8V77.9002H231.2V79.2002ZM230.1 75.2002L231.2 75.8002H235.5L236.1 75.2002L236.9 75.8002C237 75.9002 237.1 76.0002 237.1 76.0002C237.1 76.1002 237.1 76.2002 237 76.2002L236.7 76.3002V78.4002L236.8 79.5002C236.8 79.6002 236.7 79.7002 236.6 79.8002C236.5 79.9002 236.4 79.9002 236.2 79.9002C235.9 79.9002 235.7 79.8002 235.7 79.6002V79.5002H234V81.0002H235.4L236.1 80.2002L237.1 80.9002C237.2 81.0002 237.3 81.1002 237.3 81.2002C237.3 81.3002 237.2 81.4002 237.1 81.4002H234.1V82.8002H236.1L236.9 81.9002L237.9 82.6002C238 82.7002 238.1 82.8002 238.1 82.9002C238.1 83.0002 238 83.1002 237.9 83.1002H230.9C230.4 83.1002 229.8 83.1002 229.3 83.2002L229 82.5002C229.6 82.6002 230.2 82.7002 230.9 82.7002H233V81.3002H232.1C231.6 81.3002 231 81.3002 230.5 81.4002L230.2 80.7002C230.8 80.8002 231.5 80.9002 232.1 80.9002H233V79.5002H231.4V79.6002C231.4 79.8002 231.3 79.9002 231.2 79.9002C231.1 80.0002 230.9 80.0002 230.7 80.0002C230.5 80.0002 230.4 79.9002 230.4 79.7002V76.0002C230.2 75.7002 230.2 75.4002 230.1 75.2002ZM234.5 72.4002L235.7 72.9002C235.9 73.0002 235.9 73.0002 235.9 73.1002C235.9 73.2002 235.7 73.3002 235.3 73.4002C235.1 73.7002 234.7 74.0002 234.3 74.4002H235.8L236.6 73.5002L237.6 74.3002C237.7 74.4002 237.8 74.5002 237.8 74.6002C237.8 74.7002 237.7 74.8002 237.6 74.8002H231.3C230.8 74.8002 230.2 74.8002 229.7 74.9002L229.4 74.2002C230 74.3002 230.6 74.4002 231.3 74.4002H233.8C233.9 74.0002 234 73.7002 234.1 73.5002C234.3 73.1002 234.4 72.8002 234.5 72.4002ZM231.2 72.5002C231.7 72.7002 232 73.0002 232.3 73.2002C232.6 73.4002 232.7 73.6002 232.7 73.7002C232.7 74.2002 232.5 74.4002 232.1 74.4002C232 74.4002 231.9 74.3002 231.8 74.1002C231.6 73.6002 231.3 73.2002 230.9 72.7002L231.2 72.5002ZM232.8 70.4002L234.1 70.6002C234.4 70.6002 234.5 70.7002 234.5 70.9002C234.5 71.0002 234.3 71.2002 233.9 71.3002V72.0002H235.3L236 71.2002L237 71.9002C237.1 72.0002 237.2 72.1002 237.2 72.2002C237.2 72.3002 237.1 72.4002 237 72.4002H231.8C231.3 72.4002 230.8 72.4002 230.2 72.5002L229.9 71.8002C230.5 71.9002 231.2 72.0002 231.8 72.0002H232.9V71.3002C232.8 71.1002 232.8 70.8002 232.8 70.4002ZM228.1 78.2002L229.3 78.7002C229.5 78.8002 229.5 78.8002 229.5 78.9002C229.5 79.1002 229.3 79.2002 228.9 79.2002C228.7 79.6002 228.4 80.2002 228 80.8002L227.7 80.7002C227.8 80.2002 227.9 79.8002 227.9 79.5002C228 79.1002 228.1 78.6002 228.1 78.2002ZM224.8 78.5002C225.1 78.9002 225.4 79.2002 225.6 79.6002C225.8 79.9002 225.9 80.2002 225.9 80.5002C225.9 80.9002 225.7 81.1002 225.4 81.1002C225.2 81.1002 225.1 80.9002 225.1 80.6002C225 80.0002 224.8 79.4002 224.5 78.7002L224.8 78.5002ZM226.5 70.2002L227.8 70.5002C228 70.5002 228.2 70.6002 228.2 70.8002C228.2 70.9002 228.1 71.0002 228 71.0002L227.6 71.1002C228.2 71.5002 228.7 71.8002 229 72.1002C229.4 72.4002 229.6 72.8002 229.6 73.1002C229.6 73.5002 229.4 73.7002 229 73.7002C228.8 73.7002 228.7 73.6002 228.6 73.3002C228.3 72.7002 227.8 72.0002 227.3 71.4002C226.9 72.2002 226.4 72.9002 226 73.5002C225.8 73.8002 225.5 74.1002 225.2 74.5002C225.7 74.6002 226.3 74.6002 226.8 74.6002H227.2L227.9 73.8002L228.9 74.5002C229 74.6002 229.1 74.7002 229.1 74.8002C229.1 75.0002 229 75.0002 228.9 75.0002H227.5V77.0002H227.9L228.6 76.2002L229.6 76.9002C229.7 77.0002 229.8 77.1002 229.8 77.2002C229.8 77.4002 229.7 77.4002 229.6 77.4002H227.6V81.3002C227.8 81.3002 228 81.2002 228.1 81.2002C228.7 81.1002 229.2 81.0002 229.7 80.9002L229.8 81.2002C229.5 81.4002 229.1 81.6002 228.6 81.8002C228.1 82.0002 227.5 82.2002 226.8 82.4002C226.4 82.5002 226 82.6002 225.6 82.7002L225.4 83.1002C225.3 83.3002 225.2 83.4002 225.1 83.4002C225 83.4002 224.9 83.3002 224.9 83.1002L224.5 81.6002C225 81.6002 225.6 81.5002 226.3 81.4002C226.4 81.4002 226.5 81.4002 226.6 81.4002V77.4002H226.5C226 77.4002 225.5 77.4002 224.9 77.5002L224.6 76.8002C225.2 76.9002 225.9 77.0002 226.5 77.0002H226.6V75.0002C226.2 75.0002 225.8 75.0002 225.4 75.1002L225.2 74.7002C224.9 75.0002 224.7 75.3002 224.4 75.6002L224.2 75.3002C224.8 74.4002 225.4 73.6002 225.8 72.7002C225.9 72.0002 226.2 71.1002 226.5 70.2002Z" fill="black"/>
<path d="M258.4 84.9996H265V81.5996H258.4V84.9996ZM256.8 80.0996H266.5V87.3996H264.9V86.3996H258.3V87.3996H256.7V80.0996H256.8ZM259.8 71.5996L261.4 72.1996C261.6 72.2996 261.7 72.3996 261.7 72.4996C261.7 72.5996 261.6 72.6996 261.3 72.8996C260.6 74.2996 259.6 75.6996 258.5 77.2996C260.9 77.0996 263.2 76.8996 265.4 76.5996C264.9 75.8996 264.3 75.1996 263.7 74.5996L264.9 73.5996C266.2 74.8996 267.5 76.5996 268.8 78.5996L267.3 79.5996C267 78.9996 266.6 78.4996 266.3 77.8996C263.9 78.1996 260.3 78.5996 255.5 79.1996C255.4 79.3996 255.3 79.4996 255.2 79.4996C255.1 79.4996 255 79.3996 255 79.1996L254.6 77.4996C255.3 77.4996 256 77.3996 256.6 77.3996C257.2 76.5996 257.7 75.8996 258 75.1996C258.8 73.9996 259.3 72.7996 259.8 71.5996Z" fill="white"/>
<path d="M287.1 81.0004H289.4C289.6 80.9004 289.7 80.8004 289.8 80.8004C289.8 80.8004 290.2 81.1004 290.8 81.6004C290.9 81.7004 290.9 81.7004 290.9 81.8004C290.9 81.9004 290.9 82.0004 290.8 82.0004C290.7 82.1004 290.6 82.4004 290.4 82.9004C290 84.0004 289.5 84.8004 289.1 85.3004C288.5 86.0004 287.8 86.5004 287 87.0004L286 85.9004C286.6 85.7004 287 85.4004 287.4 85.1004C287.8 84.8004 288.1 84.4004 288.4 84.0004C288.7 83.6004 288.9 83.0004 289.2 82.2004H287.1V81.0004ZM291.1 79.7004L292.6 79.9004C292.8 79.9004 292.9 80.0004 292.9 80.1004C292.9 80.2004 292.8 80.4004 292.6 80.5004V82.1004C292.7 82.3004 292.9 82.5004 293 82.7004C294 82.0004 294.8 81.2004 295.5 80.4004L296.6 81.5004C296.7 81.6004 296.7 81.7004 296.7 81.7004C296.7 81.8004 296.5 81.8004 296.2 81.8004C295.4 82.4004 294.6 83.0004 293.8 83.6004C294 83.9004 294.3 84.2004 294.6 84.4004C295.2 85.0004 296 85.5004 297 86.1004L295.7 87.3004C294.8 86.7004 294.1 86.1004 293.5 85.4004C293.2 85.1004 293 84.7004 292.7 84.3004V85.3004C292.7 86.0004 292.5 86.5004 292.2 86.8004C291.9 87.1004 291.2 87.3004 290.1 87.3004L289.5 85.8004H290.6C291 85.8004 291.2 85.5004 291.2 85.0004V79.7004H291.1ZM289.5 75.5004H294.1V74.2004H289.5V75.5004ZM294.1 78.0004V76.8004H289.5V78.0004H294.1ZM291.3 71.4004L292.7 71.9004C292.9 72.0004 293 72.0004 293 72.1004C293 72.2004 292.9 72.3004 292.7 72.5004C292.6 72.6004 292.5 72.7004 292.5 72.8004H295.8V79.4004H288V72.8004H290.7C290.7 72.7004 290.8 72.6004 290.8 72.5004C291 72.2004 291.1 71.8004 291.3 71.4004ZM286.6 81.4004C286.9 82.5004 287.1 83.6004 287.2 84.7004L286 84.9004C285.8 83.7004 285.6 82.6004 285.4 81.7004L286.6 81.4004ZM281.6 81.4004L282.8 81.9004C282.9 81.9004 283 82.0004 283 82.1004C283 82.2004 283 82.2004 282.9 82.3004C282.6 84.0004 282.2 85.5004 281.9 86.7004L280.6 86.1004C280.9 84.7004 281.3 83.1004 281.6 81.4004ZM283.7 71.5004L284.8 72.1004C285 72.2004 285 72.3004 285 72.3004C285 72.4004 284.9 72.6004 284.7 72.6004L282.8 75.2004C283.1 75.5004 283.4 75.8004 283.7 76.1004L285.3 73.7004L286.4 74.3004C286.6 74.4004 286.7 74.4004 286.7 74.5004C286.7 74.6004 286.6 74.7004 286.4 74.8004L283.7 78.4004C284.3 78.4004 285 78.3004 285.5 78.2004C285.4 77.8004 285.2 77.4004 285.1 77.0004L286.4 76.7004C286.9 77.9004 287.2 79.0004 287.5 80.1004L286.2 80.4004C286.1 80.0004 286 79.7004 285.9 79.3004L284.7 79.5004V87.1004H283.3V80.0004L281.4 80.3004C281.2 80.6004 281.1 80.7004 281 80.7004C280.9 80.7004 280.8 80.6004 280.7 80.4004L280.6 78.8004C281.1 78.8004 281.6 78.8004 282 78.8004L282.9 77.5004C282.1 76.7004 281.3 75.8004 280.3 75.0004L281.2 73.9004C281.4 74.1004 281.6 74.3004 281.8 74.4004L283.7 71.5004Z" fill="white"/>
<path d="M277.1 85.7996H275.2V76.2996C274.4 77.0996 273.3 77.6996 272.1 78.0996V76.2996C272.7 76.0996 273.2 75.6996 273.8 75.2996C274.7 74.5996 275.3 73.8996 275.7 73.0996H277.1V85.7996Z" fill="white"/>
<path d="M460.097 109.853C477.569 105.989 488.601 88.6939 484.738 71.2222C480.874 53.7505 463.579 42.7187 446.107 46.582C428.635 50.4453 417.604 67.7408 421.467 85.2125C425.33 102.684 442.626 113.716 460.097 109.853Z" fill="#7A623E"/>
<path d="M460.097 109.853C477.569 105.989 488.601 88.6939 484.738 71.2222C480.874 53.7505 463.579 42.7187 446.107 46.582C428.635 50.4453 417.604 67.7408 421.467 85.2125C425.33 102.684 442.626 113.716 460.097 109.853Z" stroke="#FFFCDB" stroke-width="0.5669" stroke-miterlimit="22.9256"/>
<path d="M189.5 64.1004V60.4004H210.2V63.4004C208.2 65.6004 206.1 68.4004 204.2 72.0004C202.2 75.6004 200.7 79.3004 199.6 83.1004C198.8 85.8004 198.3 88.7004 198.1 91.9004H194.1C194.1 89.4004 194.6 86.3004 195.6 82.8004C196.5 79.2004 197.9 75.8004 199.7 72.5004C201.5 69.2004 203.3 66.4004 205.3 64.1004H189.5Z" fill="black"/>
<path d="M387.2 76C387.8 76.1 388.5 76.2 389.1 76.2H394.2L394.8 75.6L395.9 76.4C396 76.5 396 76.5 396 76.6C396 76.7 395.8 76.8 395.4 77C395.4 77.7 395.3 78.6 395.1 79.5C395 80.6 394.7 81.5 394.5 82.2C394.3 82.6 394.1 83 393.8 83.2C393.5 83.4 393 83.5 392.3 83.6C392.2 83.1 392.1 82.8 391.8 82.7L390.6 82.4L390.7 82L392.5 82.2C392.7 82.2 392.9 82.1 393.1 82C393.3 81.9 393.4 81.7 393.5 81.4C393.7 80.8 393.9 80 394 79C394.1 78.1 394.2 77.3 394.2 76.5H390.7C390.6 77.5 390.4 78.3 390.1 79C389.8 79.8 389.5 80.4 389.2 80.8C388.8 81.3 388.3 81.8 387.7 82.2C387.1 82.7 386.2 83.1 385.1 83.5L385 83.2C385.8 82.7 386.5 82.3 387 81.9C387.5 81.5 387.9 81 388.3 80.4C388.6 79.9 388.9 79.3 389.1 78.6C389.3 78 389.5 77.2 389.5 76.4H389C388.5 76.4 387.9 76.4 387.4 76.5L387.2 76ZM390.9 70.9C391.5 71 392.1 71.1 392.8 71.1H393.1L393.7 70.5L394.6 71.2C394.7 71.3 394.8 71.4 394.8 71.5C394.8 71.6 394.6 71.7 394.1 71.9C394.3 72.4 394.5 73 394.9 73.4C395.2 73.8 395.6 74.2 396.1 74.6C396.7 75.1 397.6 75.7 398.7 76.3L398.5 76.6C398.1 76.6 397.9 76.6 397.9 76.7C397.7 76.7 397.6 76.9 397.3 77.2C396.5 76.5 395.9 76 395.5 75.6C395 75 394.6 74.5 394.3 73.9C394 73.3 393.7 72.5 393.5 71.5H392.9C392.4 71.5 391.8 71.5 391.3 71.6L390.9 70.9ZM388.7 71.3L390.1 71.8C390.3 71.9 390.4 72 390.4 72.1C390.4 72.2 390.2 72.3 389.7 72.4C389 73.6 388.4 74.6 387.8 75.3C387.2 76.1 386.3 76.9 385.3 77.7L385 77.5C385.9 76.5 386.6 75.6 387 74.9C387.6 73.8 388.2 72.6 388.7 71.3Z" fill="black"/>
<path d="M410.2 76.2002V77.5002H411.9V76.2002H410.2ZM407.5 77.5002H409.1V76.2002H407.5V77.5002ZM410.2 77.9002V79.2002H411.9V77.9002H410.2ZM407.5 79.2002H409.1V77.9002H407.5V79.2002ZM406.4 75.2002L407.5 75.8002H411.8L412.4 75.2002L413.2 75.8002C413.3 75.9002 413.4 76.0002 413.4 76.0002C413.4 76.1002 413.4 76.2002 413.3 76.2002L413 76.3002V78.4002L413.1 79.5002C413.1 79.6002 413 79.7002 412.9 79.8002C412.8 79.9002 412.7 79.9002 412.5 79.9002C412.2 79.9002 412 79.8002 412 79.6002V79.5002H410.3V81.0002H411.7L412.4 80.2002L413.4 80.9002C413.5 81.0002 413.6 81.1002 413.6 81.2002C413.6 81.3002 413.5 81.4002 413.4 81.4002H410.4V82.8002H412.4L413.2 81.9002L414.2 82.6002C414.3 82.7002 414.4 82.8002 414.4 82.9002C414.4 83.0002 414.3 83.1002 414.2 83.1002H407.2C406.7 83.1002 406.1 83.1002 405.6 83.2002L405.3 82.5002C405.9 82.6002 406.5 82.7002 407.2 82.7002H409.3V81.3002H408.4C407.9 81.3002 407.3 81.3002 406.8 81.4002L406.5 80.7002C407.1 80.8002 407.8 80.9002 408.4 80.9002H409.3V79.5002H407.7V79.6002C407.7 79.8002 407.6 79.9002 407.5 79.9002C407.4 80.0002 407.2 80.0002 407 80.0002C406.8 80.0002 406.7 79.9002 406.7 79.7002V76.0002C406.5 75.7002 406.5 75.4002 406.4 75.2002ZM410.8 72.4002L412 73.0002C412.2 73.1002 412.2 73.1002 412.2 73.2002C412.2 73.3002 412 73.4002 411.6 73.5002C411.4 73.8002 411 74.1002 410.6 74.5002H412.1L412.9 73.6002L413.9 74.4002C414 74.5002 414.1 74.6002 414.1 74.7002C414.1 74.8002 414 74.9002 413.9 74.9002H407.6C407.1 74.9002 406.5 74.9002 406 75.0002L405.7 74.3002C406.3 74.4002 406.9 74.5002 407.6 74.5002H410.1C410.2 74.1002 410.3 73.8002 410.4 73.6002C410.6 73.1002 410.7 72.8002 410.8 72.4002ZM407.5 72.5002C408 72.7002 408.3 73.0002 408.6 73.2002C408.9 73.4002 409 73.6002 409 73.7002C409 74.2002 408.8 74.4002 408.4 74.4002C408.3 74.4002 408.2 74.3002 408.1 74.1002C407.9 73.6002 407.6 73.2002 407.2 72.7002L407.5 72.5002ZM409.1 70.4002L410.4 70.6002C410.7 70.6002 410.8 70.7002 410.8 70.9002C410.8 71.0002 410.6 71.2002 410.2 71.3002V72.0002H411.6L412.3 71.2002L413.3 71.9002C413.4 72.0002 413.5 72.1002 413.5 72.2002C413.5 72.3002 413.4 72.4002 413.3 72.4002H408C407.5 72.4002 407 72.4002 406.4 72.5002L406.1 71.8002C406.7 71.9002 407.4 72.0002 408 72.0002H409.1V71.3002C409.1 71.1002 409.1 70.8002 409.1 70.4002ZM404.4 78.2002L405.6 78.7002C405.8 78.8002 405.8 78.8002 405.8 78.9002C405.8 79.1002 405.6 79.2002 405.2 79.2002C405 79.6002 404.7 80.2002 404.3 80.8002L404 80.7002C404.1 80.2002 404.2 79.8002 404.2 79.5002C404.3 79.1002 404.4 78.6002 404.4 78.2002ZM401.1 78.5002C401.4 78.9002 401.7 79.2002 401.9 79.6002C402.1 79.9002 402.2 80.2002 402.2 80.5002C402.2 80.9002 402 81.1002 401.7 81.1002C401.5 81.1002 401.4 80.9002 401.4 80.6002C401.3 80.0002 401.1 79.4002 400.8 78.7002L401.1 78.5002ZM402.8 70.2002L404.1 70.5002C404.3 70.5002 404.5 70.6002 404.5 70.8002C404.5 70.9002 404.4 71.0002 404.3 71.0002L403.9 71.1002C404.5 71.5002 405 71.8002 405.3 72.1002C405.7 72.4002 405.9 72.8002 405.9 73.1002C405.9 73.5002 405.7 73.7002 405.3 73.7002C405.1 73.7002 405 73.6002 404.9 73.3002C404.6 72.7002 404.1 72.0002 403.6 71.4002C403.2 72.2002 402.7 72.9002 402.3 73.5002C402.1 73.8002 401.8 74.1002 401.5 74.5002C402 74.6002 402.6 74.6002 403.1 74.6002H403.5L404.2 73.8002L405.2 74.5002C405.3 74.6002 405.4 74.7002 405.4 74.8002C405.4 75.0002 405.3 75.0002 405.2 75.0002H403.8V77.0002H404.2L404.9 76.2002L405.9 76.9002C406 77.0002 406.1 77.1002 406.1 77.2002C406.1 77.4002 406 77.4002 405.9 77.4002H403.9V81.3002C404.1 81.3002 404.3 81.2002 404.4 81.2002C405 81.1002 405.5 81.0002 406 80.9002L406.1 81.2002C405.8 81.4002 405.4 81.6002 404.9 81.8002C404.4 82.0002 403.8 82.2002 403.1 82.4002C402.7 82.5002 402.3 82.6002 401.9 82.7002L401.7 83.1002C401.6 83.3002 401.5 83.4002 401.4 83.4002C401.3 83.4002 401.2 83.3002 401.2 83.1002L400.8 81.6002C401.3 81.6002 401.9 81.5002 402.6 81.4002C402.7 81.4002 402.8 81.4002 402.9 81.4002V77.4002H402.8C402.3 77.4002 401.8 77.4002 401.2 77.5002L400.9 76.8002C401.5 76.9002 402.2 77.0002 402.8 77.0002H402.9V75.0002C402.5 75.0002 402.1 75.0002 401.7 75.1002L401.5 74.7002C401.2 75.0002 401 75.3002 400.7 75.6002L400.5 75.3002C401.1 74.4002 401.7 73.6002 402.1 72.7002C402.2 72.0002 402.6 71.1002 402.8 70.2002Z" fill="black"/>
<path d="M662.816 80.4234C664.068 62.5741 650.614 47.0893 632.765 45.8372C614.915 44.585 599.43 58.0397 598.178 75.889C596.926 93.7383 610.381 109.223 628.23 110.475C646.079 111.727 661.564 98.2727 662.816 80.4234Z" fill="#7A623E"/>
<path d="M662.816 80.4234C664.068 62.5741 650.614 47.0893 632.765 45.8372C614.915 44.585 599.43 58.0397 598.178 75.889C596.926 93.7383 610.381 109.223 628.23 110.475C646.079 111.727 661.564 98.2727 662.816 80.4234Z" stroke="#FFFCDB" stroke-width="0.5669" stroke-miterlimit="22.9256"/>
<path d="M522.5 93.3998H518.6V68.3998C517.7 69.2998 516.4 70.1998 514.9 71.0998C513.4 71.9998 512 72.6998 510.8 73.0998V69.2998C513 68.2998 514.9 66.9998 516.6 65.5998C518.2 64.0998 519.4 62.6998 520.1 61.2998H522.6V93.3998H522.5Z" fill="black"/>
<path d="M555.7 89.5998V93.2998H534.5C534.5 92.3998 534.6 91.3998 535 90.5998C535.5 89.1998 536.4 87.6998 537.6 86.3998C538.8 84.9998 540.5 83.3998 542.7 81.5998C546.2 78.7998 548.5 76.4998 549.7 74.7998C550.9 73.0998 551.6 71.5998 551.6 70.0998C551.6 68.4998 551 67.1998 549.9 66.1998C548.8 65.0998 547.3 64.5998 545.5 64.5998C543.6 64.5998 542.1 65.1998 540.9 66.2998C539.8 67.3998 539.2 68.9998 539.2 70.9998L535.2 70.5998C535.5 67.5998 536.5 65.2998 538.3 63.6998C540.1 62.0998 542.5 61.2998 545.6 61.2998C548.7 61.2998 551.1 62.0998 552.9 63.8998C554.7 65.5998 555.6 67.6998 555.6 70.1998C555.6 71.4998 555.3 72.6998 554.8 73.9998C554.3 75.1998 553.4 76.4998 552.2 77.8998C551 79.2998 549 81.0998 546.2 83.4998C543.8 85.4998 542.3 86.7998 541.7 87.4998C541 88.1998 540.5 88.8998 540 89.5998H555.7Z" fill="black"/>
<path d="M562.1 76C562.7 76.1 563.4 76.2 564 76.2H569.1L569.7 75.6L570.8 76.4C570.9 76.5 570.9 76.5 570.9 76.6C570.9 76.7 570.7 76.8 570.3 77C570.3 77.7 570.2 78.6 570 79.5C569.9 80.6 569.6 81.5 569.4 82.2C569.2 82.6 569 83 568.7 83.2C568.4 83.4 567.9 83.5 567.2 83.6C567.1 83.1 567 82.8 566.7 82.7L565.5 82.4L565.6 82L567.4 82.2C567.6 82.2 567.8 82.1 568 82C568.2 81.9 568.3 81.7 568.4 81.4C568.6 80.8 568.8 80 568.9 79C569 78.1 569.1 77.3 569.1 76.5H565.6C565.5 77.5 565.3 78.3 565 79C564.7 79.8 564.4 80.4 564.1 80.8C563.7 81.3 563.2 81.8 562.6 82.2C562 82.7 561.1 83.1 560 83.5L559.9 83.2C560.7 82.7 561.4 82.3 561.9 81.9C562.4 81.5 562.8 81 563.2 80.4C563.5 79.9 563.8 79.3 564 78.6C564.2 78 564.4 77.2 564.4 76.4H564C563.5 76.4 562.9 76.4 562.4 76.5L562.1 76ZM565.8 70.9C566.4 71 567 71.1 567.7 71.1H568L568.6 70.5L569.5 71.2C569.6 71.3 569.7 71.4 569.7 71.5C569.7 71.6 569.5 71.7 569 71.9C569.2 72.4 569.4 73 569.8 73.4C570.1 73.8 570.5 74.2 571 74.6C571.6 75.1 572.5 75.7 573.6 76.3L573.4 76.6C573 76.6 572.8 76.6 572.8 76.7C572.6 76.7 572.5 76.9 572.2 77.2C571.4 76.5 570.8 76 570.4 75.6C569.9 75 569.5 74.5 569.2 73.9C568.9 73.3 568.6 72.5 568.4 71.5H567.8C567.3 71.5 566.7 71.5 566.2 71.6L565.8 70.9ZM563.6 71.3L565 71.8C565.2 71.9 565.3 72 565.3 72.1C565.3 72.2 565.1 72.3 564.6 72.4C563.9 73.6 563.3 74.6 562.7 75.3C562.1 76.1 561.2 76.9 560.2 77.7L559.9 77.5C560.8 76.5 561.5 75.6 561.9 74.9C562.5 73.8 563.1 72.6 563.6 71.3Z" fill="black"/>
<path d="M585.1 76.2002V77.5002H586.8V76.2002H585.1ZM582.5 77.5002H584.1V76.2002H582.5V77.5002ZM585.1 77.9002V79.2002H586.8V77.9002H585.1ZM582.5 79.2002H584.1V77.9002H582.5V79.2002ZM581.3 75.2002L582.4 75.8002H586.7L587.3 75.2002L588.1 75.8002C588.2 75.9002 588.3 76.0002 588.3 76.0002C588.3 76.1002 588.3 76.2002 588.2 76.2002L587.9 76.3002V78.4002L588 79.5002C588 79.6002 587.9 79.7002 587.8 79.8002C587.7 79.9002 587.6 79.9002 587.4 79.9002C587.1 79.9002 586.9 79.8002 586.9 79.6002V79.5002H585.2V81.0002H586.6L587.3 80.2002L588.3 80.9002C588.4 81.0002 588.5 81.1002 588.5 81.2002C588.5 81.3002 588.4 81.4002 588.3 81.4002H585.3V82.8002H587.3L588.1 81.9002L589.1 82.6002C589.2 82.7002 589.3 82.8002 589.3 82.9002C589.3 83.0002 589.2 83.1002 589.1 83.1002H582.1C581.6 83.1002 581 83.1002 580.5 83.2002L580.2 82.5002C580.8 82.6002 581.4 82.7002 582.1 82.7002H584.2V81.3002H583.3C582.8 81.3002 582.2 81.3002 581.7 81.4002L581.4 80.7002C582 80.8002 582.7 80.9002 583.3 80.9002H584.2V79.5002H582.6V79.6002C582.6 79.8002 582.5 79.9002 582.4 79.9002C582.3 80.0002 582.1 80.0002 581.9 80.0002C581.7 80.0002 581.6 79.9002 581.6 79.7002V76.0002C581.4 75.7002 581.4 75.4002 581.3 75.2002ZM585.7 72.4002L586.9 72.9002C587.1 73.0002 587.1 73.0002 587.1 73.1002C587.1 73.2002 586.9 73.3002 586.5 73.4002C586.3 73.7002 585.9 74.0002 585.5 74.4002H587L587.8 73.5002L588.8 74.3002C588.9 74.4002 589 74.5002 589 74.6002C589 74.7002 588.9 74.8002 588.8 74.8002H582.5C582 74.8002 581.4 74.8002 580.9 74.9002L580.6 74.2002C581.2 74.3002 581.8 74.4002 582.5 74.4002H585C585.1 74.0002 585.2 73.7002 585.3 73.5002C585.5 73.1002 585.6 72.8002 585.7 72.4002ZM582.4 72.5002C582.9 72.7002 583.2 73.0002 583.5 73.2002C583.8 73.4002 583.9 73.6002 583.9 73.7002C583.9 74.2002 583.7 74.4002 583.3 74.4002C583.2 74.4002 583.1 74.3002 583 74.1002C582.8 73.6002 582.5 73.2002 582.1 72.7002L582.4 72.5002ZM584 70.4002L585.3 70.6002C585.6 70.6002 585.7 70.7002 585.7 70.9002C585.7 71.0002 585.5 71.2002 585.1 71.3002V72.0002H586.5L587.2 71.2002L588.2 71.9002C588.3 72.0002 588.4 72.1002 588.4 72.2002C588.4 72.3002 588.3 72.4002 588.2 72.4002H583C582.5 72.4002 582 72.4002 581.4 72.5002L581.1 71.8002C581.7 71.9002 582.4 72.0002 583 72.0002H584.1V71.3002C584 71.1002 584 70.8002 584 70.4002ZM579.4 78.2002L580.6 78.7002C580.8 78.8002 580.8 78.8002 580.8 78.9002C580.8 79.1002 580.6 79.2002 580.2 79.2002C580 79.6002 579.7 80.2002 579.3 80.8002L579 80.7002C579.1 80.2002 579.2 79.8002 579.2 79.5002C579.3 79.1002 579.3 78.6002 579.4 78.2002ZM576 78.5002C576.3 78.9002 576.6 79.2002 576.8 79.6002C577 79.9002 577.1 80.2002 577.1 80.5002C577.1 80.9002 576.9 81.1002 576.6 81.1002C576.4 81.1002 576.3 80.9002 576.3 80.6002C576.2 80.0002 576 79.4002 575.7 78.7002L576 78.5002ZM577.7 70.2002L579 70.5002C579.2 70.5002 579.4 70.6002 579.4 70.8002C579.4 70.9002 579.3 71.0002 579.2 71.0002L578.8 71.1002C579.4 71.5002 579.9 71.8002 580.2 72.1002C580.6 72.4002 580.8 72.8002 580.8 73.1002C580.8 73.5002 580.6 73.7002 580.2 73.7002C580 73.7002 579.9 73.6002 579.8 73.3002C579.5 72.7002 579 72.0002 578.5 71.4002C578.1 72.2002 577.6 72.9002 577.2 73.5002C577 73.8002 576.7 74.1002 576.4 74.5002C576.9 74.6002 577.5 74.6002 578 74.6002H578.4L579.1 73.8002L580.1 74.5002C580.2 74.6002 580.3 74.7002 580.3 74.8002C580.3 75.0002 580.2 75.0002 580.1 75.0002H578.7V77.0002H579.1L579.8 76.2002L580.8 76.9002C580.9 77.0002 581 77.1002 581 77.2002C581 77.4002 580.9 77.4002 580.8 77.4002H578.8V81.3002C579 81.3002 579.2 81.2002 579.3 81.2002C579.9 81.1002 580.4 81.0002 580.9 80.9002L581 81.2002C580.7 81.4002 580.3 81.6002 579.8 81.8002C579.3 82.0002 578.7 82.2002 578 82.4002C577.6 82.5002 577.2 82.6002 576.8 82.7002L576.6 83.1002C576.5 83.3002 576.4 83.4002 576.3 83.4002C576.2 83.4002 576.1 83.3002 576.1 83.1002L575.7 81.6002C576.2 81.6002 576.8 81.5002 577.5 81.4002C577.6 81.4002 577.7 81.4002 577.8 81.4002V77.4002H577.7C577.2 77.4002 576.7 77.4002 576.1 77.5002L575.8 76.8002C576.4 76.9002 577.1 77.0002 577.7 77.0002H577.8V75.0002C577.4 75.0002 577 75.0002 576.6 75.1002L576.4 74.7002C576.1 75.0002 575.9 75.3002 575.6 75.6002L575.4 75.3002C576 74.4002 576.6 73.6002 577 72.7002C577.1 72.0002 577.5 71.1002 577.7 70.2002Z" fill="black"/>
<path d="M620.9 72.2V73.3C620.1 73.5 618.8 73.7 617.1 74C617 74.2 616.9 74.2 616.8 74.2C616.7 74.2 616.7 74.1 616.6 74L616.3 72.7C618 72.6 619.5 72.4 620.9 72.2ZM619.6 70.7V69.4H618V70.7H619.6ZM616.8 68.4H620.7V71.7H616.8V68.4ZM616.4 66.5H621.3C621.3 66 621.3 65.5 621.3 65L622.5 65.3C622.7 65.3 622.7 65.4 622.7 65.5C622.7 65.6 622.6 65.7 622.5 65.9C622.5 66.2 622.5 66.4 622.5 66.6H624.3C623.9 66.2 623.6 65.9 623.3 65.6L624.1 64.9C624.5 65.2 624.9 65.6 625.3 66L624.6 66.6H625.7V67.7H622.5C622.6 68.9 622.7 69.9 623 70.8C623.1 71 623.1 71.2 623.2 71.3C623.7 70.5 624 69.6 624.2 68.6L625.3 68.9C625.4 68.9 625.5 69 625.5 69.1C625.5 69.2 625.4 69.3 625.3 69.4C624.9 70.8 624.4 71.8 623.8 72.5C623.8 72.5 623.8 72.6 623.7 72.6C623.8 72.7 623.9 72.8 623.9 72.9C624.1 73.1 624.3 73.2 624.4 73.2C624.5 73.2 624.7 72.8 625 71.9L626 72.7C625.4 74.1 624.9 74.8 624.5 74.8C624.2 74.8 623.7 74.5 623.2 74C623.1 73.8 622.9 73.7 622.8 73.5C622.3 74 621.6 74.5 620.9 74.9L619.9 74.1C620.6 73.7 621.1 73.3 621.6 72.9C621.8 72.7 622 72.5 622.2 72.4C622 71.9 621.8 71.4 621.7 70.8C621.5 70 621.4 68.9 621.3 67.6H616.3V66.5H616.4ZM615.8 75.3H626.2V64.7H615.8V75.3ZM614.5 63.5H627.5V77H626.2V76.5H615.8V77H614.5V63.5Z" fill="white"/>
<path d="M636.9 69.5004H641.6V68.5004H636.9V69.5004ZM636.9 71.5004H641.6V70.5004H636.9V71.5004ZM636.9 73.4004H641.6V72.5004H636.9V73.4004ZM637 62.9004C637.6 63.5004 638.1 64.2004 638.6 64.8004L638.1 65.1004H640L641.3 63.0004L642.4 63.2004C642.6 63.2004 642.7 63.3004 642.7 63.4004C642.7 63.5004 642.6 63.7004 642.4 63.8004L641.5 65.0004H644V66.1004H640L639.5 67.2004H643.1V75.0004H641.8V74.3004H637.1V75.0004H635.8V67.2004H638.2L638.7 66.1004H634.9V65.0004H637.5C637.1 64.5004 636.6 63.9004 636.1 63.4004L637 62.9004ZM631.1 69.7004H633.7V74.3004C634 74.8004 634.5 75.2004 635.2 75.4004C635.9 75.6004 637.1 75.7004 638.7 75.7004C640.9 75.7004 642.9 75.6004 644.7 75.5004L644.2 77.0004H638.7C637.4 77.0004 636.3 76.9004 635.5 76.7004C634.6 76.5004 634 76.2004 633.5 75.7004C633.3 75.5004 633.1 75.3004 632.9 75.0004L631.5 76.5004C631.4 76.7004 631.3 76.8004 631.3 76.8004C631.2 76.8004 631.1 76.7004 631.1 76.6004L630.3 75.6004C631.1 75.1004 631.8 74.6004 632.4 74.1004V70.8004H631.3V69.7004H631.1ZM631.2 66.0004C632.2 66.5004 633 67.1004 633.7 67.6004L632.8 68.6004C632 68.0004 631.2 67.4004 630.3 67.0004L631.2 66.0004ZM631.9 63.1004C632.7 63.6004 633.4 64.1004 634 64.6004L633.1 65.6004C632.4 65.0004 631.7 64.5004 630.9 64.1004L631.9 63.1004Z" fill="white"/>
<path d="M623.1 92.2996H621.4V83.8996C620.7 84.5996 619.7 85.0996 618.7 85.4996V83.8996C619.2 83.6996 619.7 83.3996 620.2 82.9996C621 82.3996 621.6 81.7996 621.9 81.0996H623.2V92.2996H623.1Z" fill="white"/>
<path d="M636.8 88.0996L638.3 88.2996C638.5 88.2996 638.6 88.3996 638.6 88.4996C638.6 88.5996 638.5 88.7996 638.3 88.8996C638.1 88.9996 638.1 89.0996 638.1 89.3996V91.1996C638.1 91.5996 638.2 91.8996 638.3 92.0996C638.4 92.2996 638.6 92.2996 638.8 92.3996C639 92.3996 639.1 92.2996 639.2 92.1996C639.3 92.0996 639.4 91.7996 639.5 91.2996L640.7 91.7996C640.5 92.4996 640.4 92.8996 640.1 93.0996C639.9 93.2996 639.7 93.3996 639.4 93.3996H638.5C637.9 93.3996 637.5 93.1996 637.2 92.8996C636.9 92.5996 636.8 92.0996 636.8 91.3996V88.0996ZM634.4 88.0996L635.7 88.1996C635.9 88.1996 636 88.2996 636 88.3996C636 88.4996 635.9 88.5996 635.8 88.6996C635.8 89.0996 635.7 89.4996 635.7 89.8996C635.7 90.5996 635.6 91.1996 635.5 91.6996C635.4 92.0996 635.2 92.4996 634.9 92.7996C634.7 93.0996 634.4 93.3996 633.9 93.7996L632.6 93.2996C633.1 92.9996 633.4 92.7996 633.7 92.4996C634 92.1996 634.2 91.8996 634.3 91.4996C634.4 91.0996 634.5 90.5996 634.5 89.9996V88.0996H634.4ZM634.8 79.5996L636 79.6996C636.2 79.6996 636.3 79.7996 636.3 79.8996C636.3 79.9996 636.2 80.0996 636.1 80.1996V80.4996H639.4V81.4996H636.1V82.2996H640.2V84.6996H638.9V83.3996H636.2V84.3996L638.5 83.9996L638.6 84.9996L636.2 85.3996V85.6996C636.2 86.1996 636.3 86.3996 636.5 86.3996H638C638.2 86.3996 638.4 86.2996 638.5 86.1996C638.6 86.0996 638.7 85.8996 638.8 85.3996L640 85.7996C639.9 86.3996 639.7 86.7996 639.4 86.9996C639.1 87.1996 638.7 87.2996 638.3 87.2996H636.4C635.5 87.2996 635 86.9996 635 86.2996V85.4996L633.7 85.6996L633.6 84.5996L635 84.3996V83.1996H633.5V85.8996C633.5 87.4996 633.4 88.8996 633.1 90.1996C632.9 91.0996 632.5 92.2996 631.9 93.6996L630.6 93.0996C631.2 91.8996 631.6 90.7996 631.8 89.8996C632.1 88.5996 632.2 87.1996 632.2 85.9996V82.1996H634.7V79.5996H634.8ZM626.4 84.9996H631.9V86.0996H629C628.9 86.5996 628.8 87.0996 628.7 87.5996H631.5C631.4 89.3996 631.2 90.5996 631.1 91.1996C631 92.0996 630.6 92.6996 630.1 92.9996C629.6 93.2996 628.8 93.4996 627.6 93.4996L627.2 92.2996C628.5 92.2996 629.3 92.0996 629.6 91.7996C629.9 91.4996 630.1 90.4996 630.3 88.6996H628.4C628.3 89.1996 628.1 89.5996 628 89.9996L626.7 89.6996C627.1 88.4996 627.5 87.2996 627.7 86.0996H626.5V84.9996H626.4ZM630 82.9996V81.3996H628.1V82.9996H630ZM626.9 80.3996H631.2V83.9996H626.9V80.3996Z" fill="white"/>
<path d="M324.8 48.7998H322.7V109H324.8V48.7998Z" fill="#B29873"/>
<path d="M324.8 48.7998H322.7V109H324.8V48.7998Z" stroke="#FFFCDB" stroke-width="0.5669" stroke-miterlimit="22.9256"/>
<path d="M168.9 48.7998H166.8V109H168.9V48.7998Z" fill="#B29873"/>
<path d="M168.9 48.7998H166.8V109H168.9V48.7998Z" stroke="#FFFCDB" stroke-width="0.5669" stroke-miterlimit="22.9256"/>
<path d="M502.1 48.7998H500V109H502.1V48.7998Z" fill="#B29873"/>
<path d="M502.1 48.7998H500V109H502.1V48.7998Z" stroke="#FFFCDB" stroke-width="0.5669" stroke-miterlimit="22.9256"/>
<path d="M445.6 74.5998H450.3L450.7 69.8998H446.2L445.6 74.5998ZM441.3 63.7998H453.2V65.0998H447L446.5 68.6998H452.3L451.8 74.6998H453.9V75.9998H440.5V74.6998H444.2L444.9 69.9998H442V68.6998H445.1L445.6 65.0998H441.2V63.7998H441.3Z" fill="white"/>
<path d="M468.4 72.1C468 73.2 467.5 74 467.1 74.6C466.9 74.8 466.7 75.1 466.5 75.3C467.3 75.3 467.8 75.2 467.9 75.1C468 75 468.2 74.8 468.2 74.5C468.3 74.1 468.3 73.4 468.4 72.1ZM461.7 69H470.2V70.1H465C464.9 70.4 464.8 70.6 464.7 70.9H469.7C469.7 73.1 469.6 74.5 469.5 75.1C469.4 75.7 469.2 76.1 468.9 76.3C468.6 76.5 468 76.6 467.1 76.6L466.5 75.3C465.9 75.9 465.2 76.4 464.4 76.9L463.3 76.2C464.5 75.5 465.4 74.9 466 74.2C466.5 73.6 466.9 72.9 467.3 72H466.3C465.9 73 465.4 73.7 464.9 74.2C464.1 74.9 463.2 75.6 462 76.1L460.9 75.4C462.2 74.8 463.2 74.3 463.8 73.7C464.3 73.2 464.8 72.7 465.2 72H464.2C464.2 72.1 464.1 72.1 464.1 72.1C463.6 72.8 462.9 73.4 462 73.9L460.9 73.2C461.8 72.7 462.5 72.2 463 71.7C463.4 71.3 463.7 70.8 463.9 70.2H461.8V69H461.7ZM463.8 65.3H468V64.4H463.8V65.3ZM468 67.2V66.3H463.8V67.2H468ZM462.6 63.3H469.3V68.2H462.6V63.3ZM456.3 66.2H458.5V63L459.7 63.1C459.9 63.1 460 63.2 460 63.3C460 63.4 459.9 63.5 459.8 63.6V66.2H461.5V67.4H459.8C460.3 68.7 460.9 69.8 461.6 70.7L460.7 71.6C460.4 71 460.1 70.4 459.8 69.7V76H458.5V70C458.5 70.1 458.4 70.3 458.4 70.4C458 71.4 457.6 72.3 457.2 73.1L455.9 72.2C456.5 71.5 457 70.7 457.4 69.8C457.7 69.2 458.1 68.4 458.5 67.2H456.3V66.2Z" fill="white"/>
<path d="M441.1 90.2V89.2H437.3V90.2H441.1ZM436.1 88.1H442.3V91.2H436.1V88.1ZM433.9 86.2H445.2V91.3C445.2 91.9 444.9 92.3 444.3 92.5C443.8 92.6 443.4 92.7 442.9 92.7L442.4 91.4H443.5C443.8 91.4 444 91.2 444 90.8V87.3H434.6V92.6H433.3V86.1H433.9V86.2ZM442.1 84.3V83.2H436.5V84.3H442.1ZM435.2 82.1H443.4V85.4H435.2V82.1ZM438.6 79L439.8 79.1C440 79.1 440.2 79.2 440.2 79.3C440.2 79.4 440.1 79.5 439.9 79.7V80.2H445.7V81.4H432.7V80.2H438.6V79Z" fill="white"/>
<path d="M448.5 87.0004H454.4V85.6004L455.7 85.7004C455.9 85.7004 456.1 85.8004 456.1 85.9004C456.1 86.0004 456 86.1004 455.8 86.3004V87.0004H461.7V88.2004H456.4C457.1 88.8004 457.8 89.2004 458.5 89.6004C459.4 90.0004 460.5 90.5004 462.1 90.9004L460.7 92.2004C459.5 91.7004 458.5 91.2004 457.7 90.6004C457.1 90.2004 456.4 89.6004 455.8 89.0004V92.7004H454.4V89.1004C453.7 89.8004 453.1 90.3004 452.4 90.7004C451.5 91.2004 450.5 91.7004 449.3 92.1004L448.1 90.9004C449.6 90.5004 450.9 90.0004 452 89.4004C452.6 89.1004 453.2 88.6004 453.9 88.1004H448.6V87.0004H448.5ZM459.9 84.1004V81.4004H457.4V84.1004H459.9ZM456.1 80.2004H461.1V85.2004H456.1V80.2004ZM448.7 80.4004H451.3C451.4 80.0004 451.4 79.5004 451.5 78.9004L452.7 79.1004C452.9 79.1004 452.9 79.1004 452.9 79.2004C452.9 79.3004 452.8 79.3004 452.7 79.4004C452.7 79.7004 452.6 80.1004 452.6 80.3004H455.2C455.2 82.3004 455.1 83.6004 455 84.1004C454.9 84.6004 454.7 85.0004 454.3 85.1004C453.9 85.3004 453.3 85.4004 452.5 85.4004L451.9 84.1004C452.7 84.1004 453.2 84.1004 453.4 84.0004C453.6 83.9004 453.7 83.7004 453.8 83.4004C453.9 83.1004 454 82.5004 454 81.4004H452.5C452.4 81.9004 452.2 82.3004 452.1 82.6004C451.8 83.3004 451.4 84.0004 450.8 84.6004C450.4 85.0004 449.9 85.3004 449.2 85.6004L448.3 84.5004C449 84.2004 449.6 83.9004 450 83.5004C450.4 83.1004 450.7 82.5004 451 81.8004C451.1 81.7004 451.1 81.5004 451.1 81.4004H448.7V80.4004Z" fill="white"/>
<path d="M473.9 90.6V89.7H472.2V90.6H473.9ZM471.1 88.8H475V91.5H471.1V88.8ZM469 88V87H477.2V91.4C477.2 92 476.9 92.5 476.4 92.6C476 92.7 475.5 92.8 475.1 92.8L474.6 91.5H475.5C475.8 91.5 475.9 91.3 475.9 90.9V87.9H470.3V92.7H469V88ZM474.2 85.3V84.5H471.9V85.3H474.2ZM471.6 83.5H474.7C474.4 83.2 474.1 82.9 473.8 82.5H472.2C472.1 82.9 471.9 83.3 471.6 83.5ZM476.2 80C476 80 475.9 80 475.6 80.1C474.8 80.2 474 80.4 473.1 80.5C473 80.9 472.9 81.2 472.8 81.5H477.1V82.6H475.2C475.6 83 476 83.3 476.3 83.5C476.7 83.8 477.3 84 478 84.3L477.1 85.4C476.4 85.1 475.9 84.7 475.3 84.3V86.4H470.5V84.5C470.1 84.8 469.6 85.1 469 85.4L468.1 84.6C468.7 84.3 469.2 84.1 469.5 83.9C469.9 83.6 470.2 83.4 470.5 83C470.6 82.9 470.7 82.8 470.8 82.7H468.7V81.6H471.4C471.5 81.3 471.6 81 471.7 80.7C471 80.8 470.2 80.8 469.5 80.9L468.7 79.8C470.1 79.8 471.3 79.7 472.3 79.6C473.2 79.5 474.3 79.3 475.6 79.1L476.5 79.9C476.6 80 476.6 80 476.6 80.1C476.6 80.2 476.5 80.2 476.4 80.2L476.2 80ZM464.3 82.1H466.1V79L467.2 79.1C467.4 79.1 467.5 79.2 467.5 79.2C467.5 79.3 467.4 79.4 467.3 79.6V82.1H468.4V83.3H467.3V83.5C467.8 84.6 468.3 85.5 469 86.2L468.1 87.1C467.8 86.6 467.5 86.1 467.3 85.6V92.8H466.1V86.3C465.8 87.2 465.4 88.1 465.1 88.9L463.9 88.1C464.4 87.4 464.9 86.6 465.2 85.8C465.5 85.2 465.8 84.4 466.1 83.2H464.3V82.1Z" fill="white"/>
<path d="M168.6 25.0998H163V3.2998H168.6C166.2 6.0998 165 9.6998 165 14.1998C165 18.6998 166.2 22.2998 168.6 25.0998Z" fill="#7A623E"/>
<path d="M180 17.8996L180.5 17.9996C180.5 19.5996 180.4 20.6996 180.2 21.2996C180 21.8996 179.6 22.3996 179.1 22.6996C178.8 22.7996 178.5 22.8996 178.2 22.8996C177.7 22.8996 177.3 22.7996 177 22.4996C176.7 22.2996 176.5 21.8996 176.5 21.4996C176.5 21.2996 176.8 20.9996 177.4 20.6996C178 20.3996 178.6 19.9996 178.9 19.5996C179.4 19.1996 179.7 18.5996 180 17.8996ZM192.4 17.1996C193.7 17.6996 194.7 18.2996 195.3 18.8996C196.1 19.5996 196.5 20.2996 196.5 20.8996C196.5 21.3996 196.3 21.7996 195.9 22.0996C195.7 22.2996 195.4 22.3996 195.1 22.3996C194.8 22.3996 194.5 22.2996 194.3 22.0996C194.1 21.8996 193.9 21.4996 193.7 20.7996C193.5 19.7996 192.9 18.6996 192 17.3996L192.4 17.1996ZM186.2 16.5996C187.4 16.8996 188.3 17.1996 188.8 17.5996C189.2 17.8996 189.4 18.2996 189.4 18.7996C189.4 19.1996 189.2 19.5996 188.9 19.8996C188.7 20.1996 188.3 20.2996 188 20.2996C187.7 20.2996 187.5 19.9996 187.3 19.3996C187.1 18.4996 186.6 17.6996 186 16.9996L186.2 16.5996ZM181.7 16.7996C182.4 16.8996 183.2 16.9996 184.2 17.0996C185.1 17.1996 185.5 17.3996 185.5 17.5996C185.5 17.8996 185.3 18.0996 184.9 18.1996C184.6 18.2996 184.5 18.4996 184.5 18.7996V20.7996C184.5 21.2996 184.7 21.4996 185 21.5996C185.6 21.6996 186.5 21.6996 187.7 21.6996C188.4 21.6996 188.9 21.6996 189.4 21.4996C189.7 21.3996 189.9 21.2996 190 21.1996C190.1 21.0996 190.2 20.7996 190.3 20.4996C190.4 19.9996 190.6 19.3996 190.8 18.6996L191.3 18.7996C191.4 19.5996 191.4 20.0996 191.4 20.3996C191.4 20.8996 191.6 21.2996 192.2 21.4996C192.8 21.7996 193.2 21.9996 193.2 22.1996C193.2 22.5996 192.9 22.8996 192.4 23.1996C192 23.3996 191.6 23.4996 191.1 23.5996C190.3 23.7996 189.2 23.7996 187.8 23.7996C185.7 23.7996 184.2 23.6996 183.5 23.5996C182.9 23.4996 182.5 23.1996 182.3 22.7996C182.1 22.4996 182.1 22.0996 182.1 21.3996V19.3996C181.9 18.5996 181.8 17.6996 181.7 16.7996ZM188.5 8.19961C188.6 8.69961 188.8 9.19961 189.1 9.69961C189.5 10.5996 190 11.2996 190.6 11.7996C190.7 11.4996 190.9 11.2996 191 10.9996C191.4 9.99961 191.7 8.89961 191.9 7.59961H188.8C188.7 7.89961 188.6 7.99961 188.5 8.19961ZM187.6 4.09961C188.3 4.29961 189 4.49961 189.7 4.69961C190.4 4.89961 190.7 5.09961 190.7 5.29961C190.7 5.49961 190.5 5.59961 190.2 5.69961C189.8 5.69961 189.6 5.79961 189.6 5.89961C189.5 6.29961 189.3 6.59961 189.2 6.89961H192.1C192.1 6.89961 192.4 6.69961 192.8 6.19961C193.4 5.49961 193.8 5.19961 193.9 5.19961C194.1 5.19961 194.6 5.59961 195.4 6.29961C195.9 6.69961 196.1 6.99961 196.1 7.09961C196.1 7.29961 196 7.49961 195.7 7.49961H194.6C194.3 8.99961 194 10.1996 193.5 11.1996C193.2 11.8996 192.8 12.4996 192.3 12.9996C192.5 13.0996 192.7 13.1996 192.9 13.2996C194 13.7996 195.2 14.2996 196.6 14.5996L196.5 14.9996C195.9 15.0996 195.4 15.4996 195.1 16.0996C194.9 16.5996 194.7 16.7996 194.6 16.7996C194.3 16.7996 193.7 16.5996 192.9 16.1996C192.2 15.6996 191.4 15.0996 190.6 14.3996C190.2 14.6996 189.7 14.8996 189.1 15.1996C187.9 15.6996 186.4 15.9996 184.6 16.2996L184.5 15.8996C185.9 15.4996 186.9 14.9996 187.6 14.5996C188.2 14.1996 188.8 13.7996 189.4 13.1996C189.1 12.6996 188.8 12.1996 188.6 11.6996C188.3 10.9996 188.1 9.99961 187.9 8.89961C187.9 8.99961 187.8 8.99961 187.8 9.09961C187.2 9.89961 186.4 10.7996 185.5 11.6996L185.2 11.3996C185.8 10.1996 186.3 9.09961 186.6 8.09961C187.1 6.89961 187.4 5.59961 187.6 4.09961ZM182.6 6.89961C183.2 6.99961 183.9 7.09961 184.8 7.19961C185.6 7.29961 186 7.39961 186 7.59961C186 7.79961 185.8 7.99961 185.5 8.19961C185.2 8.29961 185.1 8.49961 185.1 8.79961V14.9996C185.1 15.1996 184.8 15.3996 184.1 15.4996C183.8 15.4996 183.6 15.5996 183.5 15.5996C183.1 15.5996 182.9 15.3996 182.9 15.0996C182.9 14.7996 183 14.4996 183 14.2996V8.59961C182.9 7.89961 182.8 7.39961 182.6 6.89961ZM180.2 4.09961C181 4.29961 181.7 4.49961 182.4 4.69961C183.1 4.89961 183.5 5.09961 183.5 5.29961C183.5 5.49961 183.3 5.69961 182.9 5.79961C182.5 5.89961 182.3 5.99961 182.3 5.99961C182 6.69961 181.7 7.39961 181.3 7.99961C181.4 7.99961 181.5 8.09961 181.6 8.09961C182 8.19961 182.3 8.39961 182.3 8.49961C182.3 8.69961 182.2 8.89961 181.9 8.99961C181.7 9.09961 181.6 9.29961 181.6 9.49961V16.5996C181.6 16.7996 181.3 16.9996 180.6 17.0996C180.3 17.0996 180.1 17.1996 180 17.1996C179.5 17.1996 179.2 16.9996 179.2 16.5996C179.3 14.9996 179.4 13.4996 179.4 11.9996V10.5996C178.7 11.2996 177.9 12.0996 176.9 12.7996L176.6 12.3996C177.6 10.9996 178.4 9.69961 179 8.49961C179.4 7.29961 179.8 5.79961 180.2 4.09961Z" fill="#7A623E"/>
<path d="M203.5 7.7H206.6V5.8H203.5V7.7ZM203.5 10.3H206.6V8.3H203.5V10.3ZM201 4.3C202 4.5 202.9 4.9 203.7 5.2H205.9C206.2 4.9 206.5 4.5 206.8 4.3C207 4.1 207.2 4 207.4 4C207.6 4 208 4.2 208.7 4.6C209.5 5.1 209.9 5.5 209.9 5.7C209.9 5.9 209.7 6.1 209.3 6.3C209 6.5 208.9 6.7 208.9 6.9V8.4C208.9 9.1 208.9 10 209 11.1C209 11.4 208.6 11.6 207.9 11.7C207.6 11.7 207.3 11.8 207.2 11.8C206.8 11.8 206.6 11.6 206.6 11.1V10.9H203.5V23.5C203.5 23.8 203.2 24 202.5 24.1C202.2 24.1 202 24.2 201.8 24.2C201.3 24.2 201 24 201 23.5C201.1 22 201.2 20.6 201.2 19.4V8.1C201.2 7 201.1 5.8 201 4.3ZM207.9 15.4H211.6V13.4H207.9V15.4ZM207.9 17.8H211.6V16H207.9C207.9 16.7 207.9 17.3 207.9 17.8ZM213 7.8H216.1V5.9H213V7.8ZM213 10.4H216.1V8.4H213V10.4ZM205.6 11.8C206.5 12.1 207.3 12.4 208 12.7H211.3C211.5 12.5 211.7 12.3 211.8 12.1C212.2 11.7 212.4 11.4 212.6 11.4C212.8 11.4 213.2 11.6 213.9 12.1C214.5 12.6 214.8 12.9 214.8 13.1C214.8 13.2 214.7 13.4 214.4 13.7C214 13.9 213.8 14.2 213.8 14.4V20.9C214.6 21.1 215.2 21.1 215.7 21.1C216.1 21.1 216.2 20.9 216.2 20.4V11H213C212.9 11.2 212.6 11.4 211.9 11.5C211.6 11.5 211.3 11.6 211.2 11.6C210.8 11.6 210.5 11.4 210.5 10.9C210.6 10.1 210.6 9.4 210.6 8.6V7.5C210.6 6.4 210.5 5.3 210.4 4.3C211.3 4.6 212.3 4.9 213.3 5.3H215.7C215.9 5.1 216.1 4.9 216.2 4.7C216.6 4.3 216.9 4.1 217.1 4.1C217.3 4.1 217.8 4.4 218.5 4.9C219.2 5.4 219.6 5.8 219.6 6C219.6 6.2 219.4 6.4 219.1 6.6C218.7 6.9 218.5 7.2 218.5 7.4V21.7C218.5 22.5 218.1 23.1 217.3 23.5C216.6 23.8 216.1 24 215.6 24C215.5 24 215.3 23.7 215.2 23.1C215 22.5 214.5 22 213.7 21.5C213.6 22.1 213.3 22.5 212.6 22.8C212 23.1 211.5 23.2 211.1 23.2C211 23.2 210.8 23 210.7 22.5C210.5 21.9 209.9 21.4 208.8 21L208.9 20.6C209.8 20.8 210.6 20.9 211.1 20.9C211.4 20.9 211.6 20.7 211.6 20.3V18.3H207.8C207.8 18.6 207.8 18.9 207.7 19C207.6 19.6 207.4 20.1 207.2 20.5C207 20.9 206.6 21.4 206.2 21.8C205.7 22.3 205 22.7 204.3 23H204C204.3 22.6 204.6 22.2 204.9 21.7C205.1 21.3 205.3 20.8 205.4 20.1C205.6 19.3 205.7 17.7 205.7 15.2C205.7 13.6 205.7 12.5 205.6 11.8Z" fill="#7A623E"/>
<path d="M234.3 12.2996C235.7 12.9996 236.6 13.5996 237.1 14.0996C237.6 14.5996 237.9 15.0996 237.9 15.4996C237.9 16.1996 237.7 16.6996 237.3 17.1996C237 17.5996 236.6 17.8996 236.1 17.8996C235.9 17.8996 235.8 17.7996 235.6 17.6996C235.5 17.4996 235.3 16.9996 235.2 16.1996C235 15.1996 234.6 14.0996 233.8 12.6996L234.3 12.2996ZM234.7 4.09961C235.5 4.29961 236.2 4.49961 236.9 4.69961C237.6 4.89961 238 5.09961 238 5.29961C238 5.49961 237.8 5.69961 237.4 5.79961C237 5.89961 236.8 5.89961 236.8 5.99961C236.6 6.89961 236.3 7.59961 236 8.29961H239.4C239.8 7.89961 240.1 7.59961 240.3 7.49961C240.6 7.19961 240.8 7.09961 240.9 7.09961C241.1 7.09961 241.6 7.29961 242.2 7.79961C242.9 8.29961 243.3 8.69961 243.3 8.99961C243.3 9.19961 243.1 9.39961 242.7 9.59961C242.5 9.69961 242.3 9.89961 242.3 10.0996C242.3 13.7996 242.1 16.6996 241.8 18.8996C241.5 20.8996 241.1 22.1996 240.6 22.6996C240.3 23.0996 239.8 23.4996 239.3 23.6996C238.8 23.8996 238.3 24.0996 238 24.0996C237.8 24.0996 237.6 23.7996 237.4 23.1996C237.2 22.4996 236.3 21.7996 234.7 21.2996L234.8 20.8996C236.3 20.9996 237.3 21.0996 237.9 21.0996C238.4 21.0996 238.7 20.6996 239 19.7996C239.2 19.0996 239.4 17.6996 239.5 15.7996C239.7 13.1996 239.8 10.8996 239.8 8.79961H235.7C235.5 9.29961 235.2 9.79961 235 10.1996C234.4 11.3996 233.5 12.4996 232.5 13.7996L232.2 13.3996C232.9 11.7996 233.4 10.3996 233.7 8.99961C234.1 7.79961 234.4 6.09961 234.7 4.09961ZM227 14.3996H229.7V9.29961H227V14.3996ZM227 20.7996H229.7V14.9996H227V20.7996ZM227.8 4.29961C228.6 4.39961 229.3 4.49961 229.8 4.69961C230.5 4.89961 230.9 4.99961 230.9 5.19961C230.9 5.39961 230.8 5.59961 230.5 5.69961C230.2 5.79961 230.1 5.89961 230.1 5.99961C229.5 6.99961 228.7 7.89961 227.7 8.69961H229.1C229.4 8.29961 229.7 7.99961 230 7.69961C230.2 7.39961 230.4 7.29961 230.6 7.29961C230.8 7.29961 231.2 7.49961 231.8 7.89961C232.5 8.39961 232.9 8.69961 232.9 8.89961C232.9 9.09961 232.8 9.29961 232.5 9.49961C232.3 9.69961 232.2 9.89961 232.2 10.0996V19.5996C232.2 20.2996 232.2 21.1996 232.3 22.2996C232.3 22.5996 231.9 22.7996 231.2 22.8996C230.9 22.8996 230.7 22.9996 230.5 22.9996C230.1 22.9996 229.9 22.7996 229.9 22.2996V21.2996H227V22.6996C227 22.9996 226.6 23.1996 225.9 23.2996C225.6 23.2996 225.4 23.3996 225.2 23.3996C224.7 23.3996 224.5 23.1996 224.5 22.6996C224.6 21.9996 224.6 21.1996 224.6 20.4996V10.4996C224.6 9.39961 224.5 8.39961 224.4 7.39961C225.2 7.59961 226.1 7.89961 226.9 8.29961C227.4 6.99961 227.7 5.59961 227.8 4.29961Z" fill="#7A623E"/>
<path d="M260.6 9.50039V12.0004H263.3V9.50039H260.6ZM255.8 12.0004H258.3V9.50039H255.8V12.0004ZM260.6 12.6004V14.0004C260.6 14.5004 260.6 14.9004 260.6 15.3004H263.3V12.6004H260.6ZM255.8 15.3004H258.2C258.2 14.9004 258.2 14.5004 258.2 14.0004V12.6004H255.7V15.3004H255.8ZM250.3 4.20039C251 4.40039 251.7 4.60039 252.4 4.80039C253.1 5.00039 253.4 5.20039 253.4 5.50039C253.4 5.60039 253.4 5.70039 253.3 5.70039C254 5.80039 254.9 5.80039 256 5.80039H263.1C263.2 5.80039 263.4 5.50039 263.8 4.90039C264.3 4.20039 264.6 3.90039 264.7 3.90039C265 3.90039 265.4 4.20039 266 4.90039C266.6 5.50039 266.9 5.90039 266.9 6.10039C266.9 6.30039 266.7 6.50039 266.4 6.50039H260.6V8.90039H262.4C262.7 8.50039 263 8.20039 263.3 7.90039C263.5 7.70039 263.7 7.50039 263.9 7.50039C264.1 7.50039 264.5 7.70039 265.1 8.10039C265.9 8.60039 266.2 9.00039 266.2 9.20039C266.2 9.40039 266.1 9.60039 265.8 9.80039C265.6 10.0004 265.5 10.2004 265.5 10.4004V13.6004C265.5 14.3004 265.5 15.2004 265.6 16.3004C265.6 16.6004 265.2 16.8004 264.5 16.9004C264.2 16.9004 264 17.0004 263.8 17.0004C263.4 17.0004 263.2 16.8004 263.2 16.3004V15.9004H260.4C260.3 17.1004 260 18.2004 259.6 19.1004C259.5 19.4004 259.3 19.7004 259.1 19.9004C259.4 20.0004 259.6 20.1004 259.9 20.2004C262.2 21.0004 264.5 21.6004 266.9 21.7004L267.1 22.1004C266.5 22.4004 266.1 22.8004 266 23.3004C265.9 23.7004 265.7 24.0004 265.5 24.0004C264.7 24.0004 263.3 23.7004 261.6 23.1004C260.2 22.7004 259 22.1004 257.9 21.3004C257.6 21.5004 257.3 21.8004 257 22.0004C255.7 22.9004 254.2 23.7004 252.4 24.2004L252.2 23.9004C253.3 23.4004 254.4 22.7004 255.4 21.8004C256 21.3004 256.5 20.8004 256.8 20.3004C256.3 19.8004 255.8 19.1004 255.5 18.4004C255.5 18.3004 255.4 18.2004 255.3 18.2004C255.3 18.2004 255.2 18.4004 255.1 18.7004C255 19.2004 254.8 19.7004 254.6 20.1004C254.5 20.4004 254.4 20.6004 254.4 20.6004V21.2004C254.4 21.4004 254.4 21.5004 254.2 21.5004C254 21.5004 253.7 21.2004 253.3 20.7004C253 20.3004 252.7 20.0004 252.3 19.7004C253.1 19.3004 253.9 18.5004 254.7 17.4004C254.8 17.2004 255 17.1004 255.1 17.1004C255.4 17.1004 255.7 17.2004 255.8 17.3004C256 17.4004 256.1 17.6004 256.3 17.8004C256.6 18.2004 257 18.6004 257.4 18.9004C257.8 18.0004 258 17.0004 258.1 16.0004H255.7V16.2004C255.7 16.5004 255.3 16.7004 254.6 16.8004C254.3 16.8004 254.1 16.9004 253.9 16.9004C253.4 16.9004 253.2 16.7004 253.2 16.2004C253.3 15.5004 253.3 14.7004 253.3 14.0004V11.0004C253.3 9.90039 253.2 8.90039 253.1 7.90039C254 8.20039 255 8.50039 255.9 8.90039H258.1V6.40039H255.8C254.5 6.40039 253.6 6.40039 253.1 6.50039L253 5.80039C252.9 5.80039 252.9 5.80039 252.8 5.80039C252.4 5.80039 252.2 5.90039 252.2 6.00039C251.8 7.30039 251.4 8.40039 250.9 9.40039C251.1 9.50039 251.3 9.50039 251.4 9.60039C251.9 9.70039 252.1 9.90039 252.1 10.0004C252.1 10.3004 252 10.5004 251.7 10.6004C251.5 10.7004 251.4 10.9004 251.4 11.2004V23.5004C251.4 23.8004 251.1 24.0004 250.4 24.1004C250.1 24.1004 249.9 24.2004 249.7 24.2004C249.2 24.2004 248.9 24.0004 248.9 23.5004C249 21.9004 249.1 20.4004 249.1 18.8004V12.6004C248.5 13.4004 247.8 14.2004 247.1 15.0004L246.8 14.6004C247.8 12.9004 248.5 11.3004 249 9.80039C249.5 8.20039 249.9 6.40039 250.3 4.20039Z" fill="#7A623E"/>
<path d="M286.3 4.2002C287 4.3002 287.6 4.4002 288.1 4.5002C289.3 4.7002 289.9 4.8002 289.9 5.0002C289.9 5.2002 289.7 5.4002 289.4 5.6002C289.1 5.7002 289 5.8002 289 6.1002V21.1002C289 22.3002 288.6 23.1002 287.9 23.5002C287 23.9002 286.4 24.1002 285.9 24.1002C285.7 24.1002 285.5 23.9002 285.4 23.4002C285.2 22.6002 284.3 22.0002 282.6 21.4002L282.7 20.9002C283.8 21.1002 284.8 21.2002 285.5 21.2002C285.9 21.2002 286.3 21.1002 286.5 21.0002C286.7 20.9002 286.8 20.7002 286.8 20.4002V7.4002C286.5 6.3002 286.4 5.2002 286.3 4.2002ZM282.2 6.7002C282.8 6.8002 283.6 6.9002 284.4 7.0002C285.2 7.1002 285.7 7.2002 285.7 7.5002C285.7 7.7002 285.5 7.9002 285 8.1002C284.7 8.2002 284.6 8.4002 284.6 8.7002V18.5002C284.6 18.7002 284.3 18.9002 283.6 19.0002C283.3 19.0002 283.1 19.1002 283 19.1002C282.5 19.1002 282.3 19.0002 282.3 18.7002C282.4 18.3002 282.4 18.0002 282.4 17.8002V8.5002C282.3 7.8002 282.3 7.2002 282.2 6.7002ZM279.7 6.7002C278.9 6.8002 278.1 7.0002 277.4 7.1002V10.7002H278C278.1 10.7002 278.3 10.4002 278.7 9.9002C279.2 9.3002 279.5 8.9002 279.6 8.9002C279.9 8.9002 280.3 9.2002 280.9 9.8002C281.5 10.4002 281.8 10.8002 281.8 10.9002C281.8 11.1002 281.6 11.3002 281.3 11.3002H277.4V13.1002C278.8 13.6002 279.8 14.1002 280.4 14.5002C281 15.1002 281.3 15.8002 281.3 16.6002C281.3 16.9002 281.2 17.3002 280.9 17.6002C280.7 17.8002 280.5 17.9002 280.1 17.9002C279.6 17.9002 279.2 17.5002 278.8 16.7002C278.5 15.9002 278 15.1002 277.4 14.3002V23.5002C277.4 23.8002 277 24.0002 276.2 24.1002C275.9 24.1002 275.6 24.2002 275.5 24.2002C275.1 24.2002 274.9 24.0002 274.9 23.5002C275 22.7002 275.1 21.6002 275.1 20.1002V15.8002C274.3 17.0002 273.5 17.8002 272.8 18.4002C272.1 19.1002 271.3 19.7002 270.4 20.2002L270.1 20.0002C272.4 17.0002 274 14.1002 274.9 11.4002H273.6C272.3 11.4002 271.5 11.4002 270.9 11.5002L270.5 10.7002C271.2 10.8002 272.2 10.8002 273.5 10.8002H275V7.4002C273.7 7.5002 272.5 7.6002 271.4 7.7002L271.2 7.2002C273.1 6.8002 274.5 6.4002 275.4 6.0002C276.4 5.6002 277.4 5.1002 278.4 4.4002C279.1 4.9002 279.7 5.3002 280.1 5.6002C280.7 6.1002 281.1 6.4002 281.1 6.6002C281.1 6.8002 281 6.9002 280.8 6.9002L279.7 6.7002Z" fill="#7A623E"/>
<path d="M301.3 9.49961C300.2 10.2996 299.3 10.8996 298.6 11.1996C297.9 11.5996 296.6 11.9996 294.8 12.2996L294.6 11.9996C295.8 11.4996 296.7 10.8996 297.3 10.3996C298.3 9.49961 299.1 8.49961 299.7 7.39961C300.5 7.79961 301.1 8.19961 301.6 8.49961C302.2 8.79961 302.5 9.09961 302.5 9.29961C302.5 9.49961 302.3 9.59961 301.9 9.59961L301.3 9.49961ZM306.6 6.99961V8.39961C306.6 8.89961 306.7 9.19961 306.9 9.39961C307.1 9.49961 307.7 9.49961 308.7 9.49961C309.3 9.49961 309.8 9.39961 310 9.29961C310.3 9.29961 310.6 8.99961 310.7 8.39961V8.29961C310.3 8.39961 309.9 8.49961 309.5 8.59961L309.2 8.39961C309.5 7.89961 309.8 7.39961 310.1 6.79961H306.6V6.99961ZM302.4 4.09961C303.4 4.19961 304.3 4.29961 305.2 4.39961C305.7 4.39961 306 4.59961 306 4.79961C306 4.89961 305.8 4.99961 305.5 5.19961C305.1 5.39961 304.9 5.59961 304.9 5.79961V6.39961H309.7C310 6.09961 310.2 5.89961 310.4 5.79961C310.7 5.49961 310.9 5.29961 311 5.29961C311.2 5.29961 311.7 5.59961 312.4 6.19961C313.1 6.69961 313.4 7.09961 313.4 7.39961C313.4 7.59961 313.2 7.69961 312.9 7.69961C312.5 7.69961 312.3 7.69961 312.2 7.79961C312.2 7.99961 312 7.99961 311.9 8.09961C311.9 8.59961 312 8.79961 312 8.79961C312.1 8.99961 312.2 9.19961 312.3 9.29961C312.7 9.49961 312.8 9.59961 312.8 9.69961C312.8 10.0996 312.6 10.4996 312.3 10.6996C312 10.8996 311.5 11.0996 311 11.0996C311.2 11.2996 311.5 11.4996 311.8 11.7996C312.4 12.4996 312.7 12.8996 312.7 12.9996C312.7 13.1996 312.5 13.2996 312.2 13.2996H308V16.1996H309.3C309.3 16.1996 309.6 15.8996 310.1 15.3996C310.7 14.5996 311.1 14.1996 311.3 14.1996C311.5 14.1996 312.1 14.5996 313 15.4996C313.6 15.9996 313.9 16.2996 313.9 16.4996C313.9 16.6996 313.7 16.7996 313.4 16.7996H308.1V21.1996C308.1 22.4996 307.7 23.2996 307 23.5996C306.3 23.9996 305.8 24.1996 305.4 24.1996C305.2 24.1996 305 23.8996 304.9 23.3996C304.7 22.6996 303.9 21.9996 302.6 21.4996L302.7 21.0996C303.7 21.1996 304.5 21.2996 305.2 21.2996C305.5 21.2996 305.7 21.0996 305.7 20.5996V17.4996C304.6 18.4996 303.6 19.1996 302.7 19.7996C301.6 20.3996 300.3 20.9996 298.8 21.4996C297.4 21.9996 295.7 22.3996 294 22.6996L293.8 22.2996C295.7 21.6996 297.4 20.8996 299.1 19.9996C300.7 19.0996 302 17.9996 303.1 16.7996H298.8L298.5 17.9996C298.5 18.2996 298.1 18.4996 297.2 18.4996C296.3 18.4996 295.9 18.2996 295.9 17.9996C296.6 15.9996 296.9 14.5996 296.9 13.6996C297.9 13.8996 298.8 14.0996 299.4 14.2996C300 14.4996 300.4 14.6996 300.4 14.8996C300.4 15.0996 300.2 15.2996 299.8 15.2996C299.5 15.3996 299.3 15.5996 299.2 15.7996L299.1 16.1996H305.9V13.2996H299.4C298.1 13.2996 297.3 13.2996 296.7 13.3996L296.4 12.5996C297.1 12.6996 298.1 12.7996 299.4 12.7996H309.3C309.4 12.7996 309.6 12.4996 310 11.8996C310.2 11.5996 310.4 11.3996 310.5 11.2996C310.1 11.2996 309.6 11.3996 309.1 11.3996C307.8 11.3996 306.9 11.3996 306.3 11.2996C305.8 11.1996 305.5 11.0996 305.4 10.8996C305.1 10.5996 304.9 10.0996 304.9 9.29961V6.99961H297C297 7.69961 296.9 8.19961 296.8 8.59961C296.7 9.19961 296.4 9.69961 296.1 9.89961C295.9 9.99961 295.7 10.0996 295.5 10.0996C295 10.0996 294.7 9.99961 294.4 9.69961C294.1 9.49961 294 9.09961 294 8.69961C294 8.49961 294.2 8.19961 294.7 7.89961C295.2 7.59961 295.6 7.29961 295.9 6.89961C296.2 6.49961 296.4 5.99961 296.6 5.29961L297.1 5.39961V6.49961H302.7V5.89961C302.6 5.29961 302.6 4.69961 302.4 4.09961Z" fill="#7A623E"/>
<path d="M327.7 16.6998C328.6 17.8998 329.4 18.7998 330.2 19.1998V19.2998C331 18.4998 331.7 17.3998 332.4 15.9998H328.2C328.1 16.1998 327.9 16.4998 327.7 16.6998ZM317.2 8.8998C317.8 8.9998 318.7 9.0998 319.9 9.0998V7.7998C319.9 6.3998 319.8 5.1998 319.7 4.0998C320.4 4.1998 321.2 4.2998 322.2 4.3998C322.9 4.4998 323.3 4.6998 323.3 4.8998C323.3 5.0998 323.1 5.2998 322.6 5.3998C322.3 5.4998 322.1 5.6998 322.1 5.8998V8.8998C322.2 8.7998 322.4 8.5998 322.5 8.3998C322.9 7.8998 323.1 7.6998 323.2 7.6998C323.4 7.6998 323.7 7.8998 324.2 8.3998C324.7 8.8998 324.9 9.1998 324.9 9.2998C324.9 9.4998 324.8 9.5998 324.6 9.5998H322.1V11.7998C322.6 11.8998 323.1 12.1998 323.6 12.3998C324.2 12.7998 324.5 13.1998 324.7 13.5998C325.1 13.3998 325.4 13.0998 325.7 12.8998C326.1 12.5998 326.4 12.1998 326.6 11.7998C326.8 11.4998 327 11.0998 327.2 10.4998C327.3 10.2998 327.3 10.0998 327.4 9.8998C327.2 9.8998 327.1 9.9998 326.9 9.9998C326.6 9.9998 326.4 10.0998 326.4 10.1998C326.4 10.2998 326.3 10.2998 326.3 10.3998C326.2 10.5998 326.2 10.6998 326 10.6998C325.7 10.6998 325.4 10.2998 325.1 9.3998C325 9.0998 324.8 8.6998 324.6 8.1998C325.2 8.1998 325.7 8.0998 326.2 8.0998C327 6.7998 327.7 5.2998 328.1 3.7998C328.8 3.9998 329.4 4.1998 330 4.4998C330.6 4.6998 330.9 4.9998 330.9 5.2998C330.9 5.3998 330.8 5.4998 330.5 5.4998C330.2 5.4998 330 5.5998 330 5.5998C329.3 6.3998 328.4 7.1998 327.5 7.9998C329.7 7.7998 331.7 7.6998 333.6 7.3998C333.2 6.7998 332.7 6.1998 332.1 5.6998L332.3 5.3998C333.9 5.7998 335 6.1998 335.6 6.5998C336.1 6.9998 336.4 7.4998 336.4 7.9998C336.4 8.3998 336.2 8.6998 335.9 9.0998C335.7 9.2998 335.4 9.3998 335.1 9.3998C334.7 9.3998 334.4 9.0998 334.1 8.3998C334 8.2998 334 8.0998 333.9 7.9998C333.6 8.0998 333.3 8.2998 332.9 8.3998V10.6998C332.9 11.1998 333 11.5998 333.1 11.6998C333.2 11.7998 333.6 11.7998 334.2 11.7998C334.6 11.6998 334.8 11.6998 335 11.5998C335.2 11.5998 335.4 11.2998 335.4 10.6998L336 9.3998H336.4C336.5 10.4998 336.5 11.0998 336.5 11.0998C336.6 11.2998 336.7 11.4998 336.8 11.5998C337 11.7998 337.2 11.8998 337.2 12.0998C337.2 12.4998 337.1 12.8998 336.9 13.0998C336.6 13.2998 336.2 13.4998 335.7 13.4998C335.4 13.5998 334.9 13.6998 334.2 13.6998C333.2 13.6998 332.4 13.6998 332 13.5998C331.6 13.4998 331.4 13.3998 331.3 13.1998C331 12.8998 330.9 12.2998 330.9 11.4998V9.1998C330.5 9.2998 330.1 9.3998 329.7 9.4998C329.5 9.9998 329.3 10.4998 329 10.9998C328.7 11.5998 328.3 12.0998 327.9 12.3998C327.8 12.4998 327.6 12.5998 327.5 12.7998C328.1 12.9998 328.6 13.0998 329.1 13.2998C329.8 13.4998 330.2 13.6998 330.2 13.8998C330.2 14.0998 330 14.1998 329.6 14.1998C329.3 14.2998 329.1 14.2998 329 14.3998C328.8 14.6998 328.7 14.9998 328.5 15.2998H332.2C332.4 15.0998 332.7 14.8998 332.8 14.6998C333.2 14.3998 333.4 14.1998 333.5 14.1998C333.7 14.1998 334.1 14.4998 334.8 14.9998C335.5 15.5998 335.8 15.8998 335.8 16.1998C335.8 16.3998 335.6 16.4998 335.1 16.5998C334.6 16.6998 334.3 16.8998 334.2 16.9998C333.4 18.2998 332.5 19.3998 331.7 20.0998C332 20.1998 332.3 20.2998 332.6 20.3998C334 20.8998 335.4 21.1998 337 21.4998L336.8 21.9998C336.2 22.2998 335.8 22.6998 335.6 23.1998C335.5 23.6998 335.4 23.9998 335.3 23.9998C335 23.9998 334.3 23.7998 333.2 23.1998C332.1 22.6998 331.1 22.1998 330.3 21.4998C330.2 21.3998 330.1 21.3998 330.1 21.2998C329.3 21.7998 328.5 22.0998 327.7 22.4998C326.2 23.0998 324.4 23.5998 322.4 23.9998L322.2 23.5998C324.1 22.8998 325.5 22.2998 326.6 21.7998C327.4 21.2998 328.2 20.7998 328.9 20.1998C328.6 19.8998 328.4 19.4998 328.2 19.1998C327.8 18.5998 327.4 17.8998 327 16.9998C326.9 17.0998 326.8 17.2998 326.6 17.3998C325.7 18.2998 324.5 19.2998 323 20.1998L322.8 19.7998C323.6 19.0998 324.4 17.9998 325.2 16.6998C325.8 15.6998 326.4 14.4998 326.9 13.0998C326.7 13.1998 326.5 13.2998 326.3 13.3998C325.7 13.6998 325.1 13.8998 324.4 14.0998C324.4 14.5998 324.3 14.9998 324 15.2998C323.8 15.5998 323.5 15.7998 323.1 15.7998C322.8 15.7998 322.5 15.4998 322.3 14.8998C322.2 14.1998 322 13.5998 321.7 13.0998V23.3998C321.7 23.6998 321.4 23.8998 320.7 23.9998C320.4 23.9998 320.2 24.0998 320.1 24.0998C319.6 24.0998 319.3 23.8998 319.3 23.3998C319.4 22.0998 319.5 20.8998 319.5 19.7998V14.1998C319.3 14.6998 319.1 15.0998 318.9 15.4998C318.2 16.9998 317.4 18.0998 316.7 18.7998L316.6 18.5998C317 17.4998 317.3 16.1998 317.7 14.5998C318 13.0998 318.3 11.4998 318.6 9.5998C318 9.5998 317.5 9.5998 317.2 9.6998V8.8998Z" fill="#7A623E"/>
<path d="M350.7 25.0998H345.1C347.5 22.2998 348.7 18.6998 348.7 14.1998C348.7 9.6998 347.5 6.0998 345.1 3.2998H350.7V25.0998Z" fill="#7A623E"/>
</svg>
