<?xml version="1.0" encoding="utf-8"?>
<!-- Generator: Adobe Illustrator 25.2.3, SVG Export Plug-In . SVG Version: 6.00 Build 0)  -->
<svg version="1.1" id="圖層_1" xmlns="http://www.w3.org/2000/svg" xmlns:xlink="http://www.w3.org/1999/xlink" x="0px" y="0px"
	 viewBox="0 0 413 238" style="enable-background:new 0 0 413 238;" xml:space="preserve">
<style type="text/css">
	.st0{fill:#FFFFFF;}
	.st1{fill:none;}
	.st2{fill-rule:evenodd;clip-rule:evenodd;fill:none;}
	.st3{fill:#595757;}
</style>
<rect class="st0" width="413" height="238"/>
<line class="st1" x1="506.8" y1="414.2" x2="506.8" y2="271.5"/>
<line class="st2" x1="506.8" y1="271.8" x2="506.8" y2="414.1"/>
<path class="st3" d="M57.4,79.9c1.2,0.5,2,0.9,2.5,1.3c0.6,0.5,0.9,0.9,0.9,1.3c0,0.4-0.1,0.8-0.3,1c-0.3,0.3-0.5,0.4-0.8,0.4
	c-0.3,0-0.6-0.1-0.8-0.2c-0.2-0.1-0.3-0.4-0.5-1.1c-0.1-0.8-0.5-1.6-1.1-2.5L57.4,79.9z M54.1,80.1c1.1,0.6,1.9,1,2.3,1.5
	c0.5,0.6,0.8,1.1,0.8,1.5c0,0.4-0.1,0.8-0.3,1.1c-0.3,0.3-0.6,0.4-0.8,0.4c-0.3,0-0.6-0.1-0.7-0.2c-0.1-0.1-0.3-0.5-0.4-1.3
	c-0.1-0.9-0.5-1.8-1-2.7L54.1,80.1z M51,80.4c0.8,0.5,1.5,1.1,2,1.7c0.4,0.6,0.7,1.2,0.7,1.7c0,0.5-0.1,0.9-0.3,1.1
	c-0.3,0.3-0.5,0.5-0.9,0.5c-0.4,0-0.7-0.1-0.9-0.4c-0.2-0.2-0.3-0.7-0.3-1.5c0-0.9-0.2-1.9-0.5-3.1L51,80.4z M48.8,80.1l0.6,0.1
	c0,2-0.1,3.3-0.3,4c-0.3,0.8-0.7,1.3-1.3,1.6c-0.3,0.2-0.7,0.3-1.2,0.3c-0.5,0-0.9-0.2-1.2-0.5c-0.3-0.2-0.5-0.6-0.5-1.1
	c0-0.3,0.4-0.6,1.1-1c0.8-0.4,1.4-0.9,1.8-1.3C48.2,81.7,48.6,81,48.8,80.1z M51.5,75.6c-0.1,0.1-0.2,0.3-0.3,0.4
	c-0.7,1-1.6,2-2.5,2.8h9.5l0.9-3.2H51.5z M53.9,71.3C53.3,72.7,52.7,74,52,75h3.9l0.8-3.7H53.9z M46.3,66.8c1.5,0.3,2.6,0.7,3.2,1
	c0.5,0.3,0.8,0.8,0.8,1.2c0,0.5-0.2,1-0.7,1.4c-0.1,0.1-0.1,0.1-0.2,0.2h2c0.4-1.4,0.7-3,0.9-4.6c1.1,0.3,2.1,0.5,3,0.6
	c0.7,0.2,1,0.5,1,0.7c0,0.3-0.2,0.4-0.6,0.6c-0.4,0.1-0.6,0.2-0.6,0.3c-0.3,0.9-0.5,1.7-0.8,2.4h2.3c0.3-0.2,0.5-0.5,0.8-0.7
	c0.4-0.3,0.7-0.5,0.8-0.5c0.3,0,0.8,0.3,1.4,0.8c0.7,0.6,1.1,1,1.1,1.1c0,0.3-0.2,0.5-0.7,0.7c-0.5,0.2-0.8,0.5-0.8,0.7L58.4,75h0.3
	c0.3-0.2,0.5-0.4,0.8-0.6c0.4-0.3,0.6-0.4,0.8-0.4c0.3,0,0.7,0.3,1.4,0.9c0.6,0.6,0.9,0.9,0.9,1.2c0,0.1-0.2,0.3-0.7,0.4
	c-0.4,0.1-0.6,0.3-0.6,0.6l-0.4,1.9h0.3c0.3-0.3,0.5-0.5,0.6-0.6c0.3-0.3,0.5-0.4,0.7-0.4c0.3,0,0.8,0.3,1.5,0.8
	c0.6,0.5,0.9,0.8,0.9,1.1c0,0.1-0.1,0.3-0.4,0.4c-0.3,0.2-0.5,0.4-0.5,0.6c-0.1,1-0.2,2.2-0.5,3.6c-0.3,1.1-0.6,1.9-1,2.3
	c-0.3,0.3-0.8,0.5-1.3,0.7c-0.6,0.2-1,0.3-1.3,0.3c-0.2,0-0.3-0.2-0.5-0.7c-0.2-0.6-1.1-1.2-2.6-1.9l0.1-0.4c1.2,0.3,2,0.4,2.5,0.4
	c0.5,0,0.9-0.1,1.1-0.3c0.2-0.2,0.4-0.8,0.6-1.9c0.3-1.2,0.4-2.3,0.4-3.4H48.1c-1.3,1.1-2.6,2.1-4.2,3l-0.2-0.3
	c2.5-2,4.6-4.8,6.4-8.3c0.4-0.8,0.7-1.7,1-2.6h-3.6c-1,0-1.8,0.1-2.4,0.2l-0.4-1c1.1,0.1,2.1,0.2,2.8,0.2h0.4
	c-0.1-0.2-0.3-0.4-0.4-0.7c-0.3-0.9-0.8-1.8-1.6-2.7L46.3,66.8z"/>
<path class="st3" d="M73.3,75.1h10.4v-3.8H73.3V75.1z M73.3,79.9h10.4v-4.2H73.3V79.9z M73.3,85h10.4v-4.5H73.3V85z M76.2,66.6
	c0.7,0.2,1.2,0.4,1.7,0.6c1,0.3,1.6,0.6,1.6,0.9c0,0.1-0.2,0.3-0.5,0.4c-0.3,0-0.5,0.2-0.6,0.3c-0.4,0.5-0.8,1-1.1,1.3
	c-0.3,0.3-0.6,0.5-0.9,0.7h6.6c0.4-0.4,0.7-0.8,1-1.1c0.3-0.3,0.5-0.4,0.7-0.4c0.2,0,0.7,0.2,1.5,0.7c0.9,0.6,1.3,1,1.3,1.3
	c0,0.2-0.2,0.4-0.6,0.6c-0.3,0.2-0.4,0.4-0.4,0.7v11.1c0,0.7,0,1.7,0.1,3c0,0.3-0.4,0.5-1.2,0.7c-0.4,0-0.6,0.1-0.8,0.1
	c-0.4,0-0.6-0.2-0.6-0.7v-1H73.3v1c0,0.3-0.4,0.5-1.2,0.7c-0.3,0-0.6,0.1-0.8,0.1c-0.5,0-0.7-0.2-0.7-0.7c0.1-0.8,0.1-1.7,0.1-2.5
	V72.9c0-1.2-0.1-2.3-0.2-3.4c1,0.3,2.1,0.7,3.2,1.2h1.6c0.2-0.4,0.4-0.9,0.5-1.5C76,68.5,76.1,67.6,76.2,66.6z"/>
<path class="st3" d="M93.4,68.1c1,0.1,2.2,0.2,3.7,0.2h10.5c0.3-0.3,0.5-0.6,0.8-0.8c0.4-0.4,0.6-0.6,0.8-0.6c0.3,0,0.7,0.3,1.4,0.8
	c0.8,0.6,1.1,0.9,1.1,1.1c0,0.2-0.2,0.4-0.5,0.6c-0.3,0.3-0.5,0.5-0.5,0.7c0,3.1,0,5,0.1,5.8c0,0.5,0,0.9,0,1.2
	c0,0.3-0.4,0.5-1.3,0.6c-0.4,0-0.7,0.1-0.8,0.1c-0.4,0-0.6-0.2-0.6-0.7v-1H97.5v6.5c0,0.9,0.2,1.4,0.6,1.5c0.7,0.2,2.7,0.2,5.9,0.2
	c2.9,0,4.6-0.1,5.1-0.3c0.6-0.2,1-0.6,1.2-1.3l0.9-2.9l0.5,0.1c0.1,1.9,0.2,2.9,0.2,2.9c0.1,0.6,0.3,1,0.8,1.2
	c0.4,0.2,0.6,0.5,0.6,0.7c0,0.6-0.4,1.1-1.1,1.3c-0.3,0.2-1,0.3-1.9,0.4c-1.6,0.2-3.7,0.3-6.3,0.3c-3.7,0-6-0.1-7-0.3
	c-0.8-0.1-1.4-0.4-1.7-0.9c-0.2-0.4-0.4-0.9-0.4-1.7v-6.4c0-1,0-2-0.1-3c1.1,0.3,2.2,0.6,3.1,1.1H108v-6.7H97c-1.6,0-2.7,0-3.3,0.1
	L93.4,68.1z"/>
<path class="st3" d="M129.5,82.3c2.1,0.4,3.7,0.8,5,1.3c1.8,0.6,2.6,1.3,2.6,2c0,0.5-0.1,0.9-0.4,1.2c-0.4,0.4-0.8,0.6-1.1,0.6
	c-0.4,0-0.8-0.2-1.3-0.7c-0.5-0.6-1.3-1.4-2.2-2.2c-0.5-0.4-1.4-1-2.8-1.7L129.5,82.3z M123,82c0.7,0.4,1.3,0.7,1.8,1
	c0.7,0.4,1,0.6,1,0.8c0,0.2-0.2,0.3-0.5,0.3c-0.4,0-0.6,0.1-0.7,0.2c-0.8,0.5-1.6,1-2.5,1.4c-1,0.5-2.6,1.1-4.8,1.6l-0.2-0.4
	c1.3-0.7,2.4-1.4,3.4-2.3C121.8,83.7,122.5,82.8,123,82z M124.3,72.2c0.4-1.3,0.6-2.5,0.8-3.4c0,0-0.1,0-0.2,0l-1.2-0.1
	c-0.7,0.3-1.5,0.6-2.7,0.9l0.1,3h0.6c0,0,0.2-0.2,0.5-0.5c0.4-0.5,0.7-0.8,0.8-0.8C123.2,71.2,123.6,71.5,124.3,72.2
	C124.3,72.2,124.3,72.2,124.3,72.2z M123.9,80.6c0.2-1.4,0.3-2.5,0.5-3.5c0,0,0,0,0,0h-3l0.1,3.5H123.9z M126.6,73.5l0,0.3
	c0,0.3-0.4,0.5-1.3,0.5c-0.9,0-1.4-0.2-1.4-0.5c0.1-0.2,0.1-0.4,0.2-0.6h-2.8l0.1,3.3h0.5c0,0,0.2-0.2,0.4-0.5
	c0.4-0.5,0.7-0.7,0.8-0.7c0.1,0,0.5,0.3,1.1,0.8c0.2,0.2,0.3,0.3,0.4,0.4c0.1-0.6,0.1-1.1,0.2-1.5c0.5,0.1,1.2,0.2,2.1,0.4
	c0.6,0.2,0.9,0.4,0.9,0.5c0,0.1-0.1,0.2-0.5,0.3c-0.4,0-0.7,0.2-0.7,0.4l-0.3,3.8h1.1l1.1-7.1H126.6z M129.4,71.8
	c0.2,0,0.6,0.3,1.3,0.8c0.6,0.5,0.8,0.9,0.8,1.1c0,0.2-0.2,0.3-0.5,0.5c-0.3,0.1-0.4,0.3-0.5,0.5l-0.8,6h3.2l0.2-3.5
	c-0.7,0-1.3,0.1-1.8,0.2l-0.4-1.1c0.6,0.1,1.3,0.2,2.2,0.2l0.2-3.4c-0.7,0-1.3,0.1-1.8,0.2l-0.3-1.1c0.6,0.1,1.3,0.2,2.1,0.2
	l0.2-3.4c-0.8,0-1.5,0-2.1,0.1l-0.4-0.9c0.9,0.1,1.6,0.2,2.2,0.2c0.3-0.3,0.5-0.5,0.8-0.7c0.3-0.3,0.6-0.5,0.7-0.5
	c0.3,0,0.7,0.2,1.3,0.7c0.7,0.5,1,0.8,1,1c0,0.2-0.2,0.4-0.6,0.6c-0.4,0.2-0.6,0.5-0.6,0.7l-0.5,10.4h0.3c0.1-0.4,0.3-0.8,0.5-1.2
	c0.3-0.5,0.5-0.8,0.7-0.8c0.2,0,0.4,0.2,0.7,0.7c0.5,0.7,0.7,1.2,0.7,1.5c0,0.2-0.1,0.4-0.4,0.4h-18.2c-0.7,0-1.4,0-2.2,0.1
	l-0.3-0.9c0.9,0.1,1.6,0.2,2.1,0.2l-0.2-9c0-1.2-0.1-2.4-0.4-3.6l2.3,0.8c0.1-0.1,0.3-0.3,0.4-0.4c0.6-0.6,1-1.2,1.4-1.8
	c0.6,0.4,1.2,0.8,1.8,1.1c0.4,0.3,0.7,0.6,0.8,0.7c0.1-0.8,0.2-1.5,0.2-2.1c1,0.2,1.9,0.4,2.5,0.6c0.7,0.2,1,0.4,1,0.6
	c0,0.2-0.2,0.4-0.6,0.5c-0.4,0.1-0.6,0.3-0.7,0.5l-0.2,1.3h0.7c0,0,0.2-0.2,0.6-0.6c0.5-0.6,0.8-0.9,0.9-0.9c0.2,0,0.6,0.3,1.4,1
	c0.4,0.4,0.7,0.7,0.7,0.8c0,0.2-0.1,0.3-0.3,0.3h-4l-0.5,2.5h1.1c0.3-0.3,0.5-0.5,0.7-0.7C129,71.9,129.2,71.8,129.4,71.8z"/>
<path class="st3" d="M150.4,66.4c1.1,0.1,2.2,0.3,3.2,0.5c0.7,0,1,0.2,1,0.5c0,0.1-0.2,0.2-0.6,0.4c-0.4,0.2-0.6,0.4-0.6,0.6v0.9
	h5.5c0.3-0.3,0.6-0.5,0.8-0.7c0.3-0.3,0.5-0.5,0.7-0.5c0.2,0,0.7,0.3,1.5,1c0.7,0.6,1.1,1,1.1,1.2c0,0.2-0.2,0.3-0.5,0.4
	c-0.4,0-0.7,0-0.7,0.1c-0.6,0.4-1.3,0.7-2.1,1.1c0.3,0.3,0.4,0.6,0.4,0.6c0,0.3-0.1,0.4-0.3,0.4H153c-0.8,0.7-1.5,1.2-2.2,1.6
	c1.2,0.9,2,1.8,2.5,2.6c0.1,0.2,0.2,0.3,0.3,0.5c0.7-0.4,1.4-0.9,2-1.5c0.9-0.8,1.6-1.5,1.9-2.2c0.7,0.4,1.3,0.7,1.8,1
	c0.7,0.4,1.1,0.7,1.1,0.9c0,0.2-0.2,0.3-0.6,0.3c-0.4,0-0.6,0.1-0.7,0.2c-0.7,0.3-1.4,0.7-2.1,0.9c-0.7,0.3-1.7,0.5-3,0.8
	c1,1,1.9,1.8,2.9,2.3c1.8,1,3.5,1.7,5.2,2.1l-0.1,0.5c-0.7,0.2-1.1,0.7-1.4,1.4c-0.1,0.5-0.3,0.8-0.6,0.8c-0.3,0-1.1-0.4-2.2-1.3
	c-1.2-0.9-2.4-1.9-3.4-3.3c0,0.2,0,0.4,0,0.6c0,1.6-0.2,2.8-0.5,3.6c-0.3,0.9-0.8,1.5-1.3,1.9c-0.5,0.4-0.9,0.6-1.1,0.6
	c-0.2,0-0.4-0.3-0.6-0.8c-0.3-0.6-1.1-1.1-2.6-1.5l0.1-0.4c1.1,0.1,1.8,0.1,2.2,0.1c0.5,0,0.9-0.2,1.1-0.6c0.2-0.4,0.3-1.1,0.3-2.3
	c-1.1,0.7-2.3,1.2-3.5,1.7c-1.6,0.6-3.7,1.2-6.3,1.8L142,85c1.9-0.7,3.5-1.5,4.8-2.3c1.5-0.8,3.2-1.9,5.1-3.4c0-0.3-0.1-0.7-0.2-1.1
	c-1.2,0.8-2.4,1.4-3.7,1.9c-1.4,0.6-3.3,1.1-5.7,1.7l-0.2-0.4c1.6-0.7,3.1-1.4,4.2-2.2c1.4-0.8,2.9-1.9,4.6-3.4
	c-0.2-0.4-0.4-0.7-0.6-0.9c-0.2,0.1-0.3,0.2-0.4,0.2c-1,0.5-2.1,1-3.4,1.4c-1.3,0.4-2.7,0.7-4.3,1l-0.2-0.5c1.5-0.5,3-1.1,4.3-1.8
	c1.2-0.7,2.2-1.5,3.1-2.3h-1.6c-1.3,0-2.2,0-2.8,0.1l-0.4-0.9c0.7,0.1,1.8,0.2,3.1,0.2h8.5c0.1,0,0.3-0.3,0.7-0.8
	c0.5-0.6,0.8-1,0.9-1c0.2,0,0.5,0.2,0.9,0.6c0.2-0.4,0.4-0.8,0.5-1.2h-14.3c0,1.3-0.3,2.1-0.8,2.5c-0.4,0.4-0.9,0.6-1.5,0.6
	c-0.3,0-0.6-0.1-0.8-0.4c-0.2-0.2-0.3-0.4-0.3-0.7c0-0.1,0.4-0.5,1.2-1.1c0.7-0.7,1.2-1.5,1.3-2.6l0.4-0.1c0.2,0.4,0.3,0.8,0.4,1.1
	h5.8v-0.7C150.7,67.9,150.6,67.2,150.4,66.4"/>
<path class="st3" d="M174.6,67.2c0.8,0.1,1.6,0.2,2.4,0.4c1.1,0.2,1.7,0.4,1.7,0.7c0,0.2-0.2,0.4-0.5,0.5c-0.2,0.1-0.3,0.2-0.4,0.2
	c0,2.3,0.3,4.2,0.8,5.7c0.5,1.4,1.1,2.6,1.9,3.9c0.8,1.2,1.6,2.2,2.5,3c1,0.8,2.3,1.6,4,2.5l-0.2,0.6c-0.8,0.1-1.4,0.6-1.8,1.2
	c-0.3,0.6-0.6,0.8-0.7,0.8c-0.3,0-1-0.6-2-1.7c-1.2-1.1-2.2-2.6-3-4.4c-0.7-1.6-1.2-3.3-1.5-4.9c-0.2-1.3-0.3-2.6-0.4-3.9
	c-0.4,3.3-0.9,5.6-1.6,7.1c-0.9,1.9-2.1,3.5-3.6,4.8c-1.3,1.2-3.1,2.3-5.3,3.3l-0.2-0.5c1.7-1.1,3.2-2.5,4.4-4.1
	c1.1-1.3,2.1-3.1,2.7-5.3c0.5-2,0.8-4.3,0.9-7C174.7,69.1,174.7,68.1,174.6,67.2"/>
<path class="st3" d="M59.4,125.9c1.2,0.2,2.1,0.4,2.8,0.6c0.7,0.3,1.2,0.5,1.5,0.8c0.3,0.2,0.4,0.5,0.4,0.7c0,0.4-0.1,0.8-0.4,1.1
	c-0.3,0.4-0.6,0.6-1,0.6c-0.2,0-0.6-0.4-1.2-1.3c-0.6-0.8-1.4-1.5-2.4-2.1L59.4,125.9z M57.2,128c-2.2,1.1-4.3,1.7-6.2,1.9l-0.2-0.5
	c1.4-0.5,2.4-1,3-1.6c0.7-0.5,1.4-1.2,2.2-2.2c0.7,0.5,1.2,0.9,1.6,1.2c0.6,0.4,0.9,0.8,0.9,1c0,0.2-0.1,0.3-0.4,0.3L57.2,128z
	 M56.4,117.2h4.5v-2.6h-4.5V117.2z M56.4,120.5h4.5v-2.8h-4.5V120.5z M56.4,124.1h4.5v-3h-4.5V124.1z M43.7,116.7
	c0.9,0.2,2,0.3,3.1,0.3h3.9c0.2-0.2,0.4-0.4,0.6-0.5c0.4-0.4,0.8-0.6,1-0.6c0.3,0,0.7,0.3,1.4,0.9c0.1,0.1,0.2,0.2,0.3,0.2v-0.2
	c0-1.1-0.1-2.4-0.2-3.9c1.1,0.3,2,0.6,2.9,1.1h0.4c0.2-0.8,0.3-1.6,0.4-2.6h-0.9c-1.3,0-2.2,0-2.8,0.1l-0.4-0.9
	c0.7,0.1,1.8,0.2,3.2,0.2h4.3c0.1,0,0.3-0.3,0.7-0.9c0.5-0.6,0.8-0.9,0.9-0.9c0.3,0,0.7,0.3,1.3,0.9c0.6,0.6,0.9,1,0.9,1.1
	c0,0.2-0.1,0.4-0.4,0.4h-4c-0.6,1-1.3,1.9-2,2.6h1.8c0.3-0.3,0.6-0.6,0.9-0.9c0.2-0.2,0.4-0.3,0.6-0.3c0.2,0,0.6,0.2,1.3,0.6
	c0.8,0.5,1.1,0.9,1.1,1.1c0,0.2-0.1,0.4-0.4,0.6c-0.2,0.2-0.4,0.4-0.4,0.6v6.5c0,0.7,0,1.6,0.1,2.9c0,0.3-0.4,0.5-1.2,0.6
	c-0.3,0-0.6,0.1-0.7,0.1c-0.4,0-0.6-0.2-0.6-0.7v-0.4h-4.5v0.2c0,0.3-0.4,0.5-1.1,0.6c-0.3,0-0.5,0.1-0.7,0.1
	c-0.5,0-0.8-0.2-0.8-0.7c0.1-1.6,0.2-3.1,0.2-4.3v-2.2h-0.1c-0.5,0-0.8,0.1-1,0.2c-1.2,1.2-2.1,2-2.8,2.5l-0.2-0.2
	c0.3-0.8,0.6-1.9,0.9-3.3h-1.3v9.3c0,1.1-0.3,1.8-1,2.2c-0.7,0.4-1.2,0.5-1.5,0.5c-0.2,0-0.3-0.3-0.4-0.8c-0.2-0.7-0.9-1.3-2.2-1.8
	l0.1-0.4c0.9,0.2,1.7,0.3,2.3,0.3c0.3,0,0.5-0.2,0.5-0.6v-8.7h-0.3c-1,0-1.9,0.1-2.8,0.2L43.7,116.7z M44.4,110.5
	c0.9,0.2,2,0.3,3.1,0.3h1.9c0.2-0.2,0.4-0.4,0.6-0.5c0.4-0.3,0.7-0.5,1-0.5c0.3,0,0.7,0.3,1.5,0.9c0.7,0.6,1.1,1,1.1,1.3
	c0,0.2-0.3,0.4-0.9,0.4c-0.5,0-0.8,0.1-1,0.2c-0.8,0.6-1.5,1.1-2.1,1.5c0.4,0.4,0.7,0.8,0.7,1.2c0,0.4-0.2,0.8-0.5,1.1
	c-0.2,0.2-0.5,0.4-0.9,0.4c-0.4,0-0.7-0.3-0.9-0.9c-0.3-0.9-0.9-1.8-1.8-2.6l0.2-0.4c1,0.2,1.8,0.5,2.4,0.7c0.3-0.7,0.6-1.4,0.9-2.2
	h-2c-1,0-1.9,0.1-2.8,0.2L44.4,110.5z"/>
<path class="st3" d="M75,122.3c1.1,0.7,1.9,1.4,2.2,1.9c0.5,0.7,0.8,1.4,0.8,2c0,0.5-0.1,0.8-0.3,1.1c-0.3,0.3-0.6,0.5-0.9,0.5
	c-0.3,0-0.5-0.1-0.6-0.3c-0.2-0.1-0.3-0.6-0.4-1.5c-0.1-1.1-0.4-2.3-1-3.4L75,122.3z M74.4,112.6c0.7,0.2,1.5,0.5,2.1,0.8
	c0.7,0.3,1,0.5,1,0.8c0,0.1-0.2,0.2-0.5,0.2c-0.3,0-0.5,0.1-0.6,0.1c-1.3,1.5-2.8,3-4.5,4.3c1.2,0,2.4-0.1,3.4-0.1
	c-0.2-0.5-0.4-0.9-0.7-1.4l0.2-0.2c1.1,0.5,1.9,1,2.3,1.4c0.5,0.6,0.8,1.1,0.8,1.5c0,0.4-0.1,0.8-0.3,1c-0.3,0.3-0.5,0.4-0.9,0.4
	c-0.3,0-0.5-0.1-0.7-0.2c-0.2-0.1-0.3-0.5-0.4-1.3c0-0.3-0.1-0.5-0.2-0.8c-0.5,0.2-1,0.4-1.4,0.6v5.8c0,1.4,0,2.6,0.1,3.5
	c0,0.3-0.4,0.5-1.2,0.6c-0.3,0-0.6,0.1-0.7,0.1c-0.4,0-0.6-0.2-0.6-0.6c0.1-0.8,0.1-2,0.1-3.5v-1.7c-0.3,0.1-0.5,0.2-0.6,0.2
	c-0.3,1-0.7,1.9-1.1,2.6c-0.4,0.7-0.9,1.4-1.6,2.1l-0.3-0.2c0.3-1.1,0.5-2.1,0.7-3c0.1-1,0.3-2.1,0.4-3.5c0.8,0.2,1.5,0.4,2.2,0.6
	c0.1,0,0.2,0.1,0.3,0.1v-2.3c-0.5,0.2-1,0.3-1.5,0.4c-0.2,0-0.3,0.1-0.3,0.2c0,0.1-0.1,0.2-0.1,0.3c0,0.2-0.1,0.3-0.2,0.3
	c-0.3,0-0.7-0.5-1.1-1.6c-0.1-0.3-0.3-0.8-0.6-1.5c0.9,0,1.8,0,2.7,0C72.3,116.9,73.5,114.8,74.4,112.6z M71.6,108.9
	c0.8,0.2,1.5,0.5,2.2,0.8c0.7,0.3,1,0.5,1,0.9c0,0.1-0.2,0.2-0.5,0.3c-0.3,0-0.5,0.1-0.6,0.2c-0.8,1.1-1.7,2-2.8,2.9
	c0.2,0.1,0.4,0.2,0.5,0.3c0.5,0.4,0.8,0.9,0.8,1.5c0,0.3-0.1,0.6-0.4,0.9c-0.2,0.2-0.5,0.3-0.8,0.3c-0.4,0-0.7-0.3-1-1
	c-0.4-0.9-1-1.8-1.9-2.7l0.2-0.3c0.7,0.2,1.4,0.4,1.9,0.6C70.8,112.1,71.3,110.6,71.6,108.9z M79.1,117.2c1.4,0.5,2.5,1,3.2,1.5
	c0.9,0.7,1.3,1.3,1.3,1.8c0,0.6-0.2,1.1-0.6,1.5c-0.3,0.2-0.6,0.4-1,0.4c-0.3,0-0.6-0.1-0.8-0.3c-0.2-0.2-0.4-0.6-0.6-1.3
	c-0.2-1-0.8-2.1-1.7-3.4L79.1,117.2z M79,109.2c0.8,0.2,1.6,0.4,2.3,0.7c0.7,0.2,1.1,0.4,1.1,0.7c0,0.2-0.2,0.4-0.6,0.4
	c-0.4,0.1-0.6,0.1-0.6,0.2c-0.3,0.9-0.6,1.6-0.8,2.3h4.5c0.3-0.3,0.5-0.6,0.7-0.8c0.3-0.4,0.6-0.6,0.8-0.6c0.3,0,0.8,0.3,1.6,0.9
	c0.7,0.5,1,0.9,1,1.2c0,0.1-0.1,0.3-0.4,0.5c-0.3,0.2-0.4,0.5-0.5,0.7c-0.1,2.1-0.3,4.7-0.6,7.7c-0.3,2.4-0.6,4-1.1,4.8
	c-0.4,0.6-0.8,1.1-1.4,1.4c-0.6,0.4-1.1,0.6-1.5,0.6c-0.2,0-0.4-0.3-0.5-0.8c-0.3-0.7-1.2-1.4-3-2l0.1-0.6c1.3,0.2,2.3,0.3,2.9,0.3
	c0.5,0,0.9-0.2,1.1-0.6c0.2-0.5,0.4-1.9,0.6-4.3c0.3-2.7,0.5-5.3,0.5-7.7H80c-0.2,0.3-0.3,0.7-0.5,0.9c-0.6,1-1.4,2.1-2.4,3.1
	l-0.4-0.4c0.6-1.4,1.1-2.7,1.4-4C78.5,112.5,78.8,111,79,109.2z"/>
<path class="st3" d="M92.7,118c1.4,0.2,2.6,0.3,3.8,0.3H109c0.1,0,0.4-0.4,0.9-1c0.6-0.8,1-1.1,1.1-1.1c0.3,0,0.8,0.4,1.5,1.1
	c0.7,0.7,1,1.2,1,1.3c0,0.2-0.2,0.4-0.5,0.4H96.1c-1.2,0-2.2,0.1-3.1,0.2L92.7,118z"/>
<path class="st3" d="M275.5,119.1v1.9h3.7v-1.9H275.5z M269.1,121h4v-1.9h-4V121z M275.5,121.6v1.8h3.7v-1.8H275.5z M269.1,123.4h4
	v-1.8h-4V123.4z M275.5,124.1v2h4.1c0,0,0.3-0.3,0.6-0.8c0.2-0.2,0.4-0.4,0.5-0.6c-0.1,0-0.1,0-0.2,0c-0.4,0.1-0.6,0.1-0.8,0.1
	c-0.4,0-0.6-0.2-0.6-0.7H275.5z M266.5,117.5c0.9,0.2,1.8,0.6,2.8,1h9.4c0.3-0.3,0.6-0.6,0.9-0.9c0.2-0.2,0.4-0.3,0.5-0.3
	c0.2,0,0.6,0.2,1.2,0.6c0.8,0.5,1.1,0.8,1.1,1c0,0.2-0.1,0.4-0.4,0.7c-0.2,0.2-0.3,0.4-0.3,0.7v0.8c0,0.7,0,1.7,0.1,2.9
	c0,0.1-0.1,0.3-0.3,0.4c0.2,0.2,0.5,0.4,0.8,0.8c0.5,0.6,0.8,1,0.8,1.1c0,0.2-0.1,0.4-0.3,0.4h-7.3v1.9h5.5c0.1,0,0.3-0.3,0.7-0.8
	c0.5-0.6,0.8-0.9,0.9-0.9c0.3,0,0.7,0.3,1.2,0.9c0.6,0.6,0.8,1,0.8,1.1c0,0.2-0.1,0.3-0.4,0.3h-17.2c-1.3,0-2.2,0-2.8,0.1l-0.4-0.9
	c0.7,0.1,1.8,0.2,3.2,0.2h5.9v-1.9h-4.4c-1.3,0-2.2,0-2.8,0.1l-0.3-0.9c0.7,0.1,1.8,0.2,3.1,0.2h4.4v-2h-3.9v0.2
	c0,0.3-0.4,0.5-1.2,0.6c-0.3,0.1-0.6,0.1-0.7,0.1c-0.5,0-0.7-0.2-0.7-0.7c0-0.4,0.1-0.9,0.1-1.5v-3.3
	C266.6,118.9,266.6,118.3,266.5,117.5z M263.9,116.3c0.7,0.1,1.8,0.2,3.1,0.2h13.8c0,0,0.3-0.3,0.7-0.8c0.5-0.6,0.8-0.9,0.9-0.9
	c0.3,0,0.7,0.3,1.2,0.9c0.6,0.6,0.8,1,0.8,1.1c0,0.2-0.1,0.4-0.4,0.4H267c-1.3,0-2.2,0-2.8,0.1L263.9,116.3z M269.2,112.2h9.8v-1.5
	h-9.8V112.2z M269.2,114.4h9.8v-1.6h-9.8V114.4z M266.6,109.1c0.9,0.2,1.8,0.6,2.7,1h9.2c0.3-0.3,0.6-0.6,0.9-0.9
	c0.2-0.2,0.4-0.3,0.6-0.3c0.2,0,0.6,0.2,1.3,0.6c0.8,0.5,1.2,0.9,1.2,1.1c0,0.2-0.2,0.4-0.5,0.6c-0.2,0.2-0.4,0.4-0.4,0.7v0.2
	c0,0.7,0,1.7,0.1,3c0,0.3-0.4,0.5-1.2,0.7c-0.4,0-0.6,0-0.8,0c-0.4,0-0.6-0.2-0.6-0.7h-9.8v0.1c0,0.3-0.4,0.5-1.2,0.6
	c-0.3,0-0.6,0.1-0.7,0.1c-0.5,0-0.7-0.2-0.7-0.7c0.1-0.4,0.1-0.9,0.1-1.4v-2.6C266.7,110.5,266.6,109.9,266.6,109.1z"/>
<path class="st3" d="M128.7,121.1v1.4h4.1v-1.4H128.7z M122.3,122.5h4v-1.4h-4V122.5z M128.7,123.2v1.3h4.1v-1.3H128.7z
	 M122.3,124.5h4v-1.3h-4V124.5z M135.3,109.7c0.1,0,0.6,0.3,1.3,1c0.4,0.4,0.6,0.6,0.6,0.7c0,0.2-0.1,0.4-0.3,0.4h-5.7v1.4h2.4
	c0,0,0.2-0.2,0.5-0.5c0.4-0.5,0.7-0.8,0.8-0.8c0.1,0,0.5,0.3,1.1,0.9c0.4,0.3,0.6,0.6,0.6,0.7c0,0.2-0.1,0.4-0.3,0.4h-5.2v1.6h3
	c0,0,0.2-0.2,0.6-0.6c0.5-0.6,0.8-0.9,1-0.9c0.1,0,0.6,0.3,1.3,1c0.4,0.4,0.7,0.7,0.7,0.8c0,0.2-0.1,0.3-0.4,0.3h-6.2v1
	c0,0.3-0.4,0.5-1.1,0.6c-0.3,0-0.6,0.1-0.7,0.1c-0.2,0-0.4,0-0.5-0.1c-0.1,0.1-0.2,0.2-0.2,0.4v0.5h4.8c0.1,0,0.3-0.3,0.7-0.8
	c0.5-0.6,0.8-0.9,0.9-0.9c0.3,0,0.7,0.3,1.2,0.9c0.6,0.6,0.8,1,0.8,1.1c0,0.2-0.1,0.4-0.3,0.4h-8.2v1.4h3.6c0.3-0.3,0.5-0.6,0.7-0.8
	c0.2-0.2,0.4-0.3,0.6-0.3c0.3,0,0.7,0.2,1.3,0.7c0.7,0.5,1.1,0.8,1.1,1c0,0.1-0.1,0.3-0.4,0.4c-0.2,0.1-0.3,0.3-0.4,0.4v3
	c0,0.2-0.4,0.4-1.1,0.5c-0.3,0-0.6,0.1-0.7,0.1c-0.4,0-0.6-0.2-0.6-0.5h-4.1c0,0.6,0,1.1,0,1.6h5.5c0,0,0.3-0.3,0.7-0.9
	c0.5-0.6,0.8-0.9,0.9-0.9c0.3,0,0.7,0.3,1.3,0.9c0.6,0.6,0.9,1,0.9,1.1c0,0.2-0.1,0.3-0.4,0.3h-8.8c0,0.6,0,1.3,0.1,1.9
	c0,0.3-0.4,0.5-1.2,0.7c-0.3,0-0.6,0.1-0.8,0.1c-0.5,0-0.8-0.2-0.8-0.7c0.1-0.7,0.1-1.3,0.1-1.9h-6c-1.3,0-2.2,0-2.8,0.1l-0.4-0.9
	c0.7,0.1,1.8,0.2,3.1,0.2h6c0-0.6,0-1.1,0-1.6h-4v0.2c0,0.3-0.4,0.5-1.1,0.7c-0.3,0-0.5,0.1-0.7,0.1c-0.5,0-0.7-0.2-0.7-0.7
	c0.1-0.8,0.1-1.5,0.1-2.3v-0.4c0-1.1-0.1-2.2-0.2-3.2c0.9,0.3,1.9,0.6,2.9,1.1h3.6v-0.2c0-0.4,0-0.8,0-1.2h-5.3
	c-1.3,0-2.2,0-2.8,0.1l-0.3-0.9c0.7,0.1,1.8,0.2,3.1,0.2h5.3c0-0.9-0.1-1.7-0.2-2.4c0.7,0.1,1.6,0.2,2.6,0.4
	c0.1-1.2,0.1-2.3,0.1-3.3c0-1.5-0.1-2.9-0.3-4c0.7,0.1,1.6,0.2,2.7,0.4c0.7,0.1,1.1,0.3,1.1,0.5c0,0.2-0.2,0.4-0.6,0.6
	c-0.3,0.1-0.4,0.3-0.4,0.6v0.1h2.6c0,0,0.2-0.2,0.6-0.6C134.9,109.9,135.2,109.7,135.3,109.7z M118,110.6c0.8,0.1,1.8,0.2,2.9,0.2
	h2.9c0-0.5-0.1-1.1-0.2-1.6c0.8,0.1,1.6,0.2,2.4,0.2c1,0.1,1.6,0.3,1.6,0.6c0,0.1-0.2,0.3-0.7,0.4c-0.3,0.1-0.5,0.3-0.5,0.5
	c0,2.6-0.2,4.2-0.6,4.7c-0.3,0.5-0.9,1-1.7,1.4c-0.8,0.4-2,0.8-3.7,1.2l-0.2-0.4c1-0.4,1.8-0.8,2.3-1.1c0.5-0.3,0.8-0.6,1-1.1
	c0.1-0.1,0.1-0.3,0.2-0.5c-0.8,0.4-1.6,0.7-2.4,1c-0.9,0.3-1.3,0.5-1.3,0.5v0.5c0,0.3-0.1,0.4-0.2,0.4c-0.2,0-0.5-0.4-1-1.1
	c-0.3-0.4-0.6-0.9-0.9-1.6c1.6-0.1,3.6-0.4,5.9-0.7c0-0.3,0-0.5,0-0.8h-2.2c-1.1,0-2,0-2.6,0.1l-0.3-0.9c0.8,0.1,1.8,0.2,3,0.2h2.2
	v-1.4h-3c-1.1,0-1.9,0-2.6,0.1L118,110.6z"/>
<path class="st3" d="M143.8,110.2c0.9,0.2,2,0.3,3.2,0.3h8.9c0.3-0.2,0.5-0.4,0.6-0.5c0.5-0.4,0.8-0.6,1.1-0.6c0.3,0,0.8,0.3,1.6,1
	c0.8,0.7,1.2,1.1,1.2,1.4c0,0.2-0.3,0.3-1,0.4c-0.6,0-0.9,0.1-1.1,0.2c-1.6,1-3,1.8-4.2,2.3c0.2,0.1,0.3,0.1,0.3,0.2
	c0,0.3-0.2,0.5-0.6,0.8c-0.3,0.1-0.4,0.3-0.4,0.6v2.5h4.1c0.1,0,0.4-0.4,0.9-1.1c0.7-0.8,1-1.2,1.1-1.2c0.3,0,0.9,0.4,1.6,1.2
	c0.7,0.8,1.1,1.3,1.1,1.4c0,0.2-0.2,0.4-0.6,0.4h-8.3v6.8c0,1.5-0.4,2.4-1.3,2.9c-1,0.5-1.7,0.7-2.3,0.7c-0.3,0-0.5-0.3-0.6-0.9
	c-0.2-0.9-1.3-1.7-3.2-2.3l0.1-0.6c1.3,0.2,2.4,0.4,3.3,0.4c0.5,0,0.8-0.1,1.1-0.2c0.2-0.1,0.3-0.3,0.3-0.7v-6.2H145
	c-1.2,0-2.2,0.1-3.1,0.2l-0.4-1.1c1.4,0.2,2.6,0.3,3.8,0.3h5.5V118c0-1.5-0.1-2.8-0.3-3.9c0.8,0.1,1.4,0.2,2,0.3
	c0.2,0,0.4,0.1,0.5,0.1c1-1,1.9-2.1,2.9-3.5h-9c-1,0-1.9,0.1-2.8,0.2L143.8,110.2z"/>
<path class="st3" d="M177.4,117.5c1.4,0.7,2.4,1.4,3,1.9c0.6,0.6,0.8,1,0.8,1.5c0,0.7-0.2,1.3-0.6,1.7c-0.3,0.5-0.7,0.7-1.2,0.7
	c-0.2,0-0.3-0.1-0.5-0.2c-0.1-0.2-0.3-0.7-0.5-1.6c-0.2-1-0.7-2.2-1.5-3.7L177.4,117.5z M177.8,109c0.8,0.2,1.6,0.4,2.3,0.7
	c0.7,0.2,1.1,0.4,1.1,0.7c0,0.3-0.2,0.4-0.6,0.5c-0.4,0.1-0.6,0.1-0.6,0.2c-0.3,0.9-0.5,1.7-0.8,2.4h3.6c0.4-0.4,0.7-0.7,0.9-0.9
	c0.3-0.3,0.6-0.4,0.7-0.4c0.2,0,0.7,0.2,1.4,0.7c0.8,0.6,1.2,1,1.2,1.2c0,0.2-0.2,0.4-0.6,0.6c-0.3,0.2-0.4,0.3-0.4,0.5
	c0,3.8-0.2,6.9-0.5,9.2c-0.4,2.1-0.8,3.4-1.2,4c-0.3,0.4-0.8,0.8-1.4,1c-0.5,0.3-1,0.4-1.4,0.4c-0.2,0-0.4-0.3-0.6-0.9
	c-0.2-0.8-1.2-1.4-2.9-2l0.1-0.4c1.6,0.1,2.6,0.2,3.2,0.2c0.5,0,0.9-0.4,1.1-1.3c0.2-0.8,0.4-2.1,0.5-4.2c0.2-2.7,0.3-5.1,0.3-7.2
	h-4.3c-0.2,0.6-0.5,1.1-0.7,1.5c-0.7,1.2-1.5,2.4-2.6,3.7l-0.3-0.4c0.7-1.6,1.3-3.2,1.6-4.6C177.2,112.9,177.5,111.1,177.8,109z
	 M169.7,119.7h2.9v-5.4h-2.9V119.7z M169.7,126.4h2.9v-6h-2.9V126.4z M170.5,109.2c0.8,0.1,1.5,0.2,2.1,0.4c0.7,0.2,1.1,0.3,1.1,0.5
	c0,0.2-0.1,0.4-0.4,0.5c-0.3,0.1-0.5,0.2-0.5,0.3c-0.6,1-1.4,2-2.5,2.9h1.5c0.3-0.4,0.6-0.8,0.9-1.1c0.2-0.3,0.4-0.4,0.6-0.4
	c0.2,0,0.6,0.2,1.3,0.6c0.8,0.5,1.1,0.9,1.1,1.1c0,0.2-0.1,0.4-0.4,0.6c-0.2,0.2-0.3,0.4-0.3,0.6v9.9c0,0.7,0,1.6,0.1,2.9
	c0,0.3-0.4,0.5-1.2,0.6c-0.3,0-0.6,0.1-0.7,0.1c-0.4,0-0.6-0.2-0.6-0.7V127h-2.9v1.5c0,0.3-0.4,0.5-1.1,0.6c-0.3,0-0.6,0.1-0.7,0.1
	c-0.5,0-0.7-0.2-0.7-0.7c0.1-0.8,0.1-1.6,0.1-2.3v-10.4c0-1.1-0.1-2.2-0.2-3.2c0.9,0.2,1.7,0.5,2.6,0.9
	C170.2,112,170.5,110.6,170.5,109.2z"/>
<path class="st3" d="M205.7,115v2.3h1.3V115H205.7z M205.7,112.2v2.2h1.3v-2.2H205.7z M201.4,111.4c0.6,0.1,1.3,0.1,2,0.2
	c0-1-0.1-1.8-0.3-2.6c0.7,0.1,1.5,0.2,2.5,0.3c0.7,0.1,1,0.2,1,0.4c0,0.2-0.2,0.4-0.6,0.5c-0.3,0.1-0.4,0.3-0.4,0.5v0.8h0.9
	c0.2-0.3,0.5-0.5,0.7-0.7c0.3-0.4,0.5-0.5,0.6-0.5c0.2,0,0.6,0.2,1.1,0.7c0.6,0.5,0.9,0.8,0.9,0.9c0,0.2-0.1,0.4-0.4,0.5
	c-0.3,0.2-0.4,0.4-0.4,0.6v1.4h0.2c0.1-0.3,0.2-0.5,0.4-0.8c0.2-0.4,0.4-0.6,0.5-0.6c0.1,0,0.3,0.2,0.5,0.5c0.4,0.5,0.5,0.9,0.5,1.1
	c0,0.2-0.1,0.3-0.3,0.3h-1.9c0,1,0,1.7,0.1,2c0,0.4,0,0.6,0,0.8c0,0.3-0.3,0.5-1,0.6c-0.3,0-0.5,0.1-0.6,0.1c-0.3,0-0.5-0.2-0.5-0.6
	h-1.3v2.4h0.9c0,0,0.3-0.3,0.7-0.8c0.5-0.6,0.7-0.9,0.9-0.9c0.2,0,0.6,0.3,1.2,0.9c0.5,0.6,0.8,1,0.8,1.1c0,0.2-0.1,0.4-0.4,0.4h-4
	v1.1c0,0.4,0,0.9,0,1.3h1.6c0,0,0.3-0.3,0.7-0.8c0.5-0.6,0.8-0.9,0.9-0.9c0.3,0,0.7,0.3,1.2,0.9c0.6,0.6,0.9,0.9,0.9,1.1
	c0,0.2-0.1,0.4-0.4,0.4h-4.9c0,0.6,0,1.3,0.1,1.9c0,0.3-0.4,0.4-1.1,0.5c-0.3,0-0.6,0.1-0.7,0.1c-0.4,0-0.6-0.2-0.6-0.6
	c0-0.7,0-1.3,0.1-1.9h-0.3c-1.3,0-2.2,0-2.8,0.1l-0.4-0.9c0.7,0.1,1.8,0.2,3.1,0.2h0.3c0-0.5,0-0.9,0-1.3v-1.1c-1,0-1.8,0.1-2.3,0.1
	l-0.3-0.9c0.6,0.1,1.5,0.2,2.6,0.2V118c-0.6,0-1.2,0-1.6,0.1l-0.3-0.9c0.6,0.1,1.2,0.1,2,0.2V115h-1.3c-0.7,0-1.4,0-2.1,0.1
	l-0.3-0.9c1.1,0.1,1.9,0.2,2.5,0.2h1.3v-1.7c0-0.1,0-0.3,0-0.5c-0.7,0-1.3,0-1.7,0.1L201.4,111.4z M194.7,122.3c0.4-0.5,0.7-1,1-1.6
	c0.3-0.5,0.6-0.7,0.9-0.7c0.5,0,0.8,0.4,0.8,1.1c0.1,0.7,0.3,1.3,0.5,1.9c0.3-1.5,0.5-3.2,0.7-5.2h-0.9l-0.2,0.4
	c-0.1,0.2-0.3,0.4-0.4,0.4c-0.2,0-0.5,0-0.7,0c-0.1,0-0.4,0-0.8-0.1c-0.2-0.1-0.3-0.2-0.3-0.3l2.7-6.4h-0.2c-0.9,0-1.7,0-2.4,0.1
	l0,0c-0.3,1.1-0.7,2.1-1.1,2.9c0.1,0,0.3,0.1,0.4,0.1c0.5,0.1,0.7,0.3,0.7,0.4c0,0.2-0.1,0.4-0.4,0.5c-0.2,0.1-0.2,0.3-0.2,0.5
	V122.3z M193.5,108.9c0.8,0.2,1.5,0.4,2.2,0.6c0.7,0.2,1,0.4,1,0.7c0,0.2-0.2,0.4-0.6,0.4c-0.4,0-0.6,0.1-0.6,0.2
	c0,0.1,0,0.2-0.1,0.2c0.8,0.1,1.5,0.1,2.2,0.1h0.1c0.3-0.2,0.5-0.4,0.7-0.6c0.3-0.3,0.5-0.4,0.6-0.4c0.2,0,0.5,0.2,1,0.6
	c0.7,0.5,1,0.9,1,1.1c0,0.1-0.2,0.3-0.6,0.4c-0.4,0-0.7,0.2-0.8,0.5l-1.9,4.6h0.6c0.2-0.2,0.3-0.3,0.5-0.5c0.3-0.2,0.5-0.3,0.6-0.3
	c0.2,0,0.6,0.2,1.1,0.6c0.6,0.5,0.9,0.9,0.9,1.1c0,0.1-0.2,0.3-0.6,0.5c-0.3,0.2-0.5,0.3-0.5,0.4c-0.3,2.1-0.7,3.8-1.2,5.2
	c-0.1,0.4-0.2,0.7-0.4,1c0.4,0.5,0.8,0.8,1.4,1c0.9,0.5,2.6,0.7,5.1,0.7c2,0,4-0.2,6.1-0.6l0.1,0.6c-0.8,0.4-1.2,1-1.3,1.6
	c-0.1,0.6-0.3,0.9-0.6,0.9c-4.3,0-7.2-0.2-8.5-0.7c-1.3-0.4-2.3-1.1-3-2c-0.1,0.3-0.3,0.5-0.4,0.7c-0.8,1.1-1.6,1.9-2.4,2.5
	l-0.2-0.3c0.9-1.4,1.7-2.9,2.2-4.6c-0.3-1-0.5-2.1-0.6-3.4c0-0.4,0-0.6-0.2-0.6c0,0-0.1,0.2-0.1,0.6c-0.1,0.6-0.2,1.2-0.3,1.7
	c-0.1,0.4-0.1,0.6-0.1,0.7c0,0.1,0.1,0.3,0.1,0.4c0,0.2,0.1,0.3,0.1,0.4c0,0.2-0.1,0.3-0.2,0.3c-0.2,0-0.6-0.3-1.1-0.8
	c-0.1-0.1-0.2-0.2-0.3-0.3v5.2c0,0.3-0.4,0.5-1.1,0.6c-0.3,0-0.5,0.1-0.7,0.1c-0.5,0-0.7-0.2-0.7-0.6c0.1-1.5,0.2-3,0.2-4.5v-6.7
	c-0.5,0.8-1.1,1.6-1.8,2.4l-0.3-0.3c0.9-1.9,1.6-3.6,2-5.2C192.8,113.3,193.2,111.3,193.5,108.9z"/>
<path class="st3" d="M224.4,123l0.2,0.3c-1,1.3-2,2.3-3,3.1c-0.7,0.5-1,0.7-1,0.8v0.6c0,0.3-0.1,0.5-0.2,0.5c-0.2,0-0.5-0.4-1.1-1.2
	c-0.3-0.4-0.6-1-1-1.7C220,125,222,124.2,224.4,123 M220,120.9c1.2,0.2,2,0.4,2.4,0.6c0.4,0.2,0.6,0.4,0.6,0.7
	c0,0.4-0.2,0.8-0.5,1.1c-0.2,0.3-0.5,0.4-0.9,0.4c-0.2,0-0.4-0.2-0.6-0.6c-0.2-0.6-0.6-1.2-1.2-1.8L220,120.9z M227.5,115.1v2.1h3
	v-2.1H227.5z M225,114.5v-2.3h-5.5v5h5.5v-2.1h-2.2c-1,0-1.8,0-2.4,0.1l-0.4-0.9c1,0.1,1.9,0.2,2.8,0.2H225z M227.5,117.8v2.2h3
	v-2.2H227.5z M224.5,109c1,0.1,2,0.2,2.9,0.4c0.6,0,0.9,0.2,0.9,0.4c0,0.1-0.2,0.2-0.5,0.4c-0.4,0.2-0.6,0.4-0.6,0.7v0.7h4.1
	c0,0,0.3-0.2,0.7-0.7c0.6-0.7,1-1.1,1.2-1.1c0.2,0,0.7,0.4,1.6,1.1c0.5,0.5,0.8,0.8,0.8,0.9c0,0.2-0.2,0.4-0.5,0.4h-7.6v2.3h2.4
	c0.3-0.3,0.5-0.5,0.7-0.7c0.3-0.4,0.5-0.5,0.7-0.5c0.3,0,0.7,0.3,1.3,0.8c0.7,0.5,1.1,0.9,1.1,1c0,0.2-0.2,0.4-0.5,0.6
	c-0.3,0.2-0.4,0.4-0.4,0.6v0.7c0.1-0.1,0.2-0.2,0.4-0.4c0.5-0.6,0.8-0.9,0.9-0.9c0.1,0,0.6,0.3,1.3,1c0.4,0.4,0.6,0.7,0.6,0.8
	c0,0.2-0.1,0.3-0.3,0.3h-2.9c0,0.2,0,0.4,0,0.6c0,1.3,0,2,0,2.2c0,0.3-0.4,0.5-1.1,0.7c-0.3,0-0.6,0.1-0.7,0.1
	c-0.4,0-0.6-0.2-0.6-0.7h-2.3c0.3,0.8,0.7,1.5,1.2,2.2c0.4,0.5,0.9,1,1.4,1.4c0.5-0.8,0.8-1.7,1-2.6c0.7,0.2,1.3,0.5,1.8,0.7
	c0.8,0.3,1.1,0.5,1.1,0.8c0,0.1-0.2,0.3-0.6,0.3c-0.3,0.1-0.5,0.2-0.6,0.3c-0.5,0.4-1.1,0.8-1.9,1.1c0,0,0,0,0,0
	c1.2,0.7,2.5,1.3,4,1.7l-0.2,0.5c-0.7,0.3-1.1,0.6-1.3,1c-0.2,0.5-0.4,0.8-0.6,0.8c-0.2,0-0.6-0.2-1.2-0.6c-0.7-0.4-1.4-1-2.1-1.7
	c-0.6-0.5-1.1-1.3-1.5-2.2c-0.5-0.8-0.9-2-1.2-3.6h-0.1v6.4c0,1.2-0.4,2-1.1,2.4c-0.7,0.4-1.2,0.6-1.6,0.6c-0.2,0-0.4-0.2-0.5-0.7
	c-0.2-0.7-1-1.3-2.4-1.8l0.1-0.4c1,0.1,1.8,0.1,2.5,0.1c0.3,0,0.5-0.2,0.5-0.7v-5.7h-1.8c-1.1,0-2,0-2.6,0.1l-0.3-0.9
	c0.8,0.1,1.8,0.2,3,0.2h1.8v-2.2h-5.6c0,1.8-0.1,3.4-0.3,4.8c-0.3,1.5-0.7,2.9-1.4,4.2c-0.6,1-1.3,2-2.3,3l-0.4-0.2
	c0.7-1.7,1.2-3.2,1.5-4.7c0.3-1.8,0.5-4.5,0.5-8.1c0-2.9-0.1-5.1-0.2-6.3c1.4,0.4,2.4,0.8,3.1,1.2h4.8V111
	C224.7,110.3,224.6,109.7,224.5,109z"/>
<path class="st3" d="M258,122.9c-1.1,0.4-2.6,0.9-4.6,1.4v1.9c0,0.5,0.2,0.8,0.6,1c0.4,0.1,1,0.2,1.7,0.2c0.8,0,1.3-0.1,1.6-0.2
	c0.2-0.1,0.4-0.4,0.6-0.8c0.2-0.5,0.4-1.2,0.6-2.1h0.6c0.1,0.9,0.1,1.6,0.1,2c0.1,0.4,0.2,0.8,0.4,1c0.4,0.3,0.7,0.5,0.7,0.7
	c0,0.3-0.2,0.6-0.5,0.8c-0.3,0.2-0.8,0.3-1.5,0.4c-0.7,0.1-1.6,0.2-2.5,0.2c-1.2,0-2.1,0-2.8-0.1c-0.6-0.1-1-0.2-1.2-0.4
	c-0.5-0.3-0.7-0.8-0.7-1.7v-4.6c0-1.5-0.1-2.6-0.3-3.3c0.7,0.1,1.6,0.2,2.7,0.3c0.7,0.1,1.1,0.3,1.1,0.5c0,0.3-0.2,0.5-0.6,0.6
	c-0.3,0.1-0.4,0.3-0.4,0.6v2.2c0.3-0.2,0.7-0.5,1-0.7c0.9-0.7,1.7-1.4,2.3-2.2c0.7,0.5,1.4,0.9,2,1.3c0.6,0.4,0.9,0.7,0.9,0.9
	s-0.1,0.3-0.3,0.3L258,122.9z M257.8,112.8c-1.1,0.4-2.6,0.9-4.5,1.3v1.7c0,0.5,0.2,0.8,0.6,0.9c0.4,0.1,1,0.2,1.8,0.2
	c0.8,0,1.4-0.1,1.7-0.2c0.3-0.1,0.4-0.3,0.6-0.8c0.2-0.5,0.4-1.1,0.6-1.9h0.5c0.1,0.9,0.1,1.5,0.1,1.8c0,0.4,0.2,0.7,0.4,0.9
	c0.4,0.3,0.6,0.5,0.6,0.7c0,0.3-0.2,0.6-0.5,0.8c-0.3,0.2-0.8,0.3-1.5,0.4c-0.7,0.1-1.6,0.2-2.5,0.2c-1.2,0-2.1,0-2.7-0.1
	c-0.6-0.1-1-0.2-1.2-0.4c-0.5-0.3-0.8-0.8-0.8-1.6v-4.7c0-1.4-0.1-2.4-0.2-3.1c0.7,0.1,1.6,0.2,2.6,0.3c0.7,0.1,1.1,0.3,1.1,0.5
	c0,0.3-0.2,0.4-0.7,0.6c-0.3,0.1-0.5,0.3-0.5,0.6v2.4c0.3-0.3,0.7-0.5,1.1-0.8c0.9-0.7,1.7-1.4,2.2-2.2c0.7,0.4,1.4,0.8,2,1.2
	c0.6,0.4,0.9,0.7,0.9,0.9c0,0.2-0.1,0.2-0.3,0.2L257.8,112.8z M243.1,120.8h3.7v-2.2h-3.7V120.8z M243.1,123.8h3.7v-2.3h-3.7V123.8z
	 M242.6,108.9c1,0.3,1.8,0.5,2.5,0.7c0.9,0.2,1.4,0.5,1.4,0.7c0,0.3-0.3,0.4-0.8,0.5c-0.4,0.1-0.7,0.2-0.7,0.3
	c-0.4,0.9-0.9,1.7-1.3,2.3c-0.3,0.4-0.6,0.7-0.9,1.1c1.8,0,3.5-0.1,5.1-0.2c-0.3-0.7-0.7-1.5-1.2-2.4l0.3-0.2
	c1.3,0.6,2.2,1.2,2.7,1.7c0.5,0.5,0.7,0.9,0.7,1.3c0,0.5-0.2,1-0.5,1.3c-0.3,0.4-0.6,0.6-1,0.6c-0.2,0-0.3-0.1-0.5-0.2
	c-0.1-0.1-0.3-0.6-0.4-1.3c0-0.1,0-0.1,0-0.2c-2,0.9-4.1,1.6-6.2,2c-0.3,0-0.4,0.1-0.4,0.2c0,0.1,0,0.1,0,0.2c0.7,0.2,1.3,0.5,2,0.7
	h3.1c0.2-0.2,0.4-0.3,0.5-0.4c0.4-0.4,0.8-0.5,0.9-0.5c0.2,0,0.7,0.3,1.5,0.8c0.7,0.5,1.1,0.9,1.1,1.1c0,0.2-0.2,0.4-0.5,0.6
	c-0.4,0.3-0.6,0.6-0.6,0.8v7.4c0,0.7-0.4,1.3-1.2,1.7c-0.7,0.3-1.2,0.5-1.7,0.5c-0.1,0-0.2-0.3-0.3-0.9c-0.1-0.7-0.7-1.2-1.6-1.7
	l0.1-0.4c0.8,0.2,1.4,0.2,1.9,0.2c0.3,0,0.5-0.2,0.5-0.7v-2.1h-3.7v4.8c0,0.3-0.4,0.5-1.1,0.7c-0.3,0-0.6,0.1-0.7,0.1
	c-0.5,0-0.8-0.2-0.8-0.7c0.1-1.6,0.2-3,0.2-4.3v-4c0-1.1-0.1-2.4-0.2-3.9c-0.1-0.3-0.3-0.6-0.5-1c-0.1-0.3-0.3-0.8-0.6-1.4
	c0.7,0,1.3,0,2,0c0.2-0.6,0.4-1.3,0.6-2.1C242.2,111.5,242.4,110.3,242.6,108.9z"/>
<path class="st3" d="M49.8,159.9h8.4v-2.7h-8.4V159.9z M47.3,155.5c0.9,0.3,1.9,0.6,2.9,1.1h7.6c0.3-0.3,0.5-0.6,0.7-0.8
	c0.2-0.2,0.4-0.3,0.6-0.3c0.3,0,0.7,0.2,1.4,0.7c0.8,0.5,1.1,0.8,1.1,1.1c0,0.1-0.1,0.3-0.4,0.5c-0.2,0.2-0.3,0.3-0.4,0.5v2.2
	c0,0.3-0.4,0.5-1.1,0.6c-0.1,0-0.1,0-0.1,0c0.3,0.1,0.6,0.4,0.9,0.6c0.8,0.6,1.2,1,1.2,1.3c0,0.2-0.3,0.3-0.9,0.4
	c-0.7,0.1-1.1,0.2-1.2,0.3c-0.9,0.5-1.8,0.9-2.7,1.3c0,0,0,0,0,0c0,0.3-0.2,0.5-0.7,0.7c-0.3,0.1-0.4,0.3-0.4,0.5v0.1h4.6
	c0.1,0,0.4-0.4,0.8-1c0.6-0.8,0.9-1.1,1.1-1.1c0.3,0,0.8,0.4,1.5,1.1c0.7,0.7,1,1.2,1,1.3c0,0.2-0.1,0.3-0.4,0.3h-8.6v2.5
	c0,1.3-0.4,2.1-1.3,2.5c-1,0.4-1.7,0.6-2.3,0.6c-0.2,0-0.4-0.2-0.5-0.7c-0.2-0.8-1.1-1.5-2.6-2l0.1-0.4c1,0.1,1.9,0.2,2.7,0.2
	c0.5,0,0.9-0.1,1.1-0.2c0.2-0.1,0.3-0.3,0.3-0.6v-1c0-0.3,0-0.6,0-0.9h-6.5c-1.3,0-2.2,0-2.8,0.1l-0.3-0.9c0.7,0.1,1.8,0.2,3.1,0.2
	h6.5c0-0.8-0.1-1.6-0.2-2.2c0.7,0.1,1.4,0.2,2,0.3c0.3,0,0.5,0.1,0.7,0.1l1.7-1.6h-8.7c-0.9,0-1.6,0.1-2.2,0.2l-0.4-1
	c0.9,0.2,1.8,0.2,2.6,0.2h8.5c0.4-0.4,0.8-0.8,1-1.1c0.1-0.1,0.3-0.2,0.4-0.3c-0.1-0.1-0.2-0.2-0.2-0.5h-8.4v0.4
	c0,0.3-0.4,0.5-1.1,0.6c-0.3,0.1-0.6,0.1-0.7,0.1c-0.5,0-0.7-0.2-0.7-0.7c0.1-0.4,0.1-0.9,0.1-1.5v-2
	C47.4,156.9,47.3,156.2,47.3,155.5z M52.4,151.5c1.1,0.1,2.1,0.2,3,0.4c0.6,0,0.9,0.2,0.9,0.5c0,0.1-0.2,0.2-0.5,0.4
	c-0.4,0.2-0.6,0.4-0.6,0.6v0.9H60c0.1,0,0.4-0.4,0.9-1.1c0.7-0.8,1-1.2,1.1-1.2c0.3,0,0.9,0.4,1.5,1.1c0.7,0.8,1.1,1.2,1.1,1.4
	c0,0.2-0.2,0.4-0.5,0.4h-17c-1.2,0-2.2,0.1-3.1,0.2l-0.4-1.1c1.4,0.2,2.6,0.3,3.8,0.3h5.1v-0.7C52.6,152.8,52.6,152.1,52.4,151.5z"
	/>
<path class="st3" d="M73.8,163.3c1.5,1.6,2.9,2.7,4.1,3.4c0.2,0.1,0.3,0.2,0.5,0.3c0.1-0.1,0.3-0.2,0.4-0.3c1.2-1,2.1-2.1,2.6-3.3
	C78,163.3,75.4,163.3,73.8,163.3 M71.4,162.5c2,0.1,3.6,0.2,4.9,0.2h4.9c0.2-0.3,0.4-0.6,0.6-0.8c0.4-0.5,0.7-0.7,0.9-0.7
	c0.2,0,0.7,0.3,1.5,1c0.9,0.7,1.4,1.2,1.4,1.5c0,0.2-0.2,0.4-0.6,0.5c-0.5,0.1-0.8,0.3-0.8,0.6c-0.9,1.2-2,2.2-3.3,3.1
	c0.4,0.1,0.9,0.3,1.3,0.4c2.1,0.6,4.4,1,6.8,1.3l-0.2,0.5c-0.7,0.3-1.2,0.8-1.4,1.4c-0.1,0.6-0.3,0.9-0.4,0.9
	c-0.5,0-1.7-0.3-3.6-0.9c-1.8-0.6-3.4-1.2-4.7-2c-0.1-0.1-0.2-0.1-0.3-0.2c-0.2,0.1-0.3,0.2-0.5,0.2c-2.5,1.1-5.6,2.1-9.3,2.8
	l-0.2-0.4c2.6-0.9,4.7-1.7,6.4-2.6c0.8-0.4,1.5-0.8,2.1-1.3c-0.6-0.5-1.1-1-1.5-1.5c-0.8-0.9-1.6-2-2.4-3.3c-0.6,0-1,0-1.3,0
	L71.4,162.5z M83.9,154.4c0.8,0.3,1.7,0.6,2.5,0.9c0.7,0.3,1.1,0.6,1.1,0.9c0,0.2-0.2,0.3-0.6,0.3c-0.4,0.1-0.6,0.1-0.6,0.2
	c-1,0.9-2.2,1.8-3.5,2.5H85c0.3-0.3,0.6-0.6,0.8-0.8c0.3-0.4,0.6-0.5,0.7-0.5c0.2,0,0.8,0.3,1.6,1c0.7,0.6,1.1,1,1.1,1.3
	c0,0.2-0.2,0.3-0.6,0.4c-0.4,0-0.7,0-0.7,0.1c-0.8,0.5-1.7,1.1-2.9,1.7l-0.4-0.2c0.3-0.7,0.5-1.5,0.7-2.3H71.5
	c0.1,0.3,0.1,0.5,0.1,0.8c0,1.3-0.3,2.1-0.8,2.5c-0.4,0.4-0.9,0.6-1.5,0.6c-0.3,0-0.6-0.1-0.8-0.4c-0.2-0.2-0.3-0.5-0.3-0.7
	c0-0.2,0.3-0.6,0.9-1.4c0.6-0.9,0.9-2,0.9-3.3l0.4-0.1c0.3,0.5,0.6,0.9,0.7,1.3h10.6C82.7,157.7,83.4,156.1,83.9,154.4z M76.8,154.8
	c1.3,0.4,2.2,0.7,2.8,1.1c0.8,0.5,1.2,0.9,1.2,1.3c0,0.6-0.2,1.1-0.6,1.4c-0.3,0.3-0.6,0.4-1,0.4c-0.3,0-0.5-0.1-0.7-0.2
	c-0.2-0.1-0.4-0.5-0.5-1c-0.2-0.8-0.7-1.7-1.5-2.7L76.8,154.8z M71,155c1.7,0.3,2.8,0.7,3.4,1.1c0.6,0.4,0.8,0.8,0.8,1.3
	c0,0.4-0.2,0.9-0.6,1.3c-0.3,0.3-0.6,0.4-1,0.4c-0.4,0-0.7-0.3-1-1c-0.4-0.9-1-1.8-1.9-2.6L71,155z M85.4,154
	c-2.7,0.3-5.1,0.5-7.4,0.5c-2,0-4.7,0.1-7.9,0.1L70,154c2.8-0.2,5.2-0.5,7.3-0.8c2.2-0.3,4.5-0.9,7-1.7c0.7,0.5,1.4,0.9,2,1.3
	c0.6,0.5,1,0.9,1,1.2c0,0.1-0.3,0.2-0.6,0.2L85.4,154z"/>
<path class="st3" d="M96.7,153.3c0.9,0.2,1.7,0.5,2.5,0.7c0.8,0.2,1.1,0.5,1.1,0.7c0,0.3-0.2,0.4-0.6,0.5c-0.4,0.1-0.6,0.2-0.7,0.2
	c-0.2,0.6-0.5,1.1-0.7,1.6h3.8v-1.8c0-1.4-0.1-2.6-0.3-3.7c0.7,0.1,1.6,0.2,2.7,0.5c0.9,0.1,1.4,0.3,1.4,0.4c0,0.3-0.3,0.5-0.8,0.7
	c-0.3,0.1-0.5,0.3-0.5,0.6v3.3h2.9c0,0,0.3-0.3,0.8-0.9c0.7-0.8,1.1-1.2,1.3-1.2c0.2,0,0.8,0.4,1.7,1.3c0.6,0.5,0.9,0.9,0.9,1
	c0,0.2-0.2,0.4-0.5,0.4h-7v5.9h2.2c0.1,0,0.3-0.4,0.8-1c0.6-0.8,0.9-1.2,1.1-1.2c0.3,0,0.8,0.4,1.5,1.1c0.7,0.7,1,1.2,1,1.3
	c0,0.2-0.2,0.3-0.5,0.3h-6.2v6.6h4.2c0.1,0,0.4-0.4,0.9-1c0.7-0.8,1-1.2,1.1-1.2c0.3,0,0.9,0.4,1.5,1.1c0.7,0.7,1.1,1.2,1.1,1.4
	c0,0.2-0.2,0.4-0.5,0.4H96.2c-1.3,0-2.2,0-2.8,0.1l-0.4-0.9c0.7,0.1,1.8,0.2,3.2,0.2h5.8v-6.6h-3.4c-1.3,0-2.2,0-2.8,0.1l-0.4-0.9
	c0.7,0.1,1.8,0.2,3.1,0.2h3.4v-5.9h-4.1c-0.4,0.7-0.8,1.4-1.2,1.9c-0.8,1.1-1.8,2.2-3.1,3.4l-0.3-0.3c0.9-1.6,1.6-3,2.1-4.3
	C95.9,156.9,96.3,155.3,96.7,153.3"/>
<path class="st3" d="M127.5,170.2h6.4V165h-6.4V170.2z M135.3,154.1c-1.2,0.2-2.3,0.4-3.4,0.6v4.5h1.7c0.1,0,0.4-0.4,0.8-1
	c0.6-0.8,0.9-1.1,1.1-1.1c0.3,0,0.8,0.4,1.5,1.1c0.7,0.7,1,1.2,1,1.3c0,0.2-0.2,0.4-0.5,0.4h-5.6v4.6h1.3c0.3-0.4,0.6-0.7,1-1
	c0.2-0.3,0.4-0.4,0.6-0.4c0.2,0,0.6,0.2,1.3,0.6c0.8,0.5,1.2,0.9,1.2,1.1c0,0.2-0.1,0.4-0.4,0.6c-0.2,0.2-0.4,0.5-0.4,0.7v2.6
	c0,0.7,0,1.7,0.1,3c0,0.3-0.4,0.5-1.2,0.7c-0.4,0-0.6,0.1-0.8,0.1c-0.4,0-0.6-0.2-0.6-0.7v-0.9h-6.4v1c0,0.3-0.4,0.5-1.2,0.7
	c-0.4,0-0.6,0.1-0.8,0.1c-0.5,0-0.7-0.2-0.7-0.7c0.1-0.8,0.1-1.6,0.1-2.5v-2.8c0-1.2-0.1-2.3-0.2-3.4c1.1,0.3,2.2,0.7,3.4,1.3h1.2
	v-4.6h-2.1c-1.3,0-2.2,0-2.8,0.1L124,159c0.7,0.1,1.8,0.2,3.2,0.2h2.1V155c-1.6,0.2-3.1,0.3-4.5,0.4l-0.2-0.5
	c2.5-0.4,4.3-0.9,5.5-1.4c1.3-0.4,2.6-1.1,3.9-1.9c0.7,0.5,1.3,1,1.8,1.3c0.7,0.5,1,0.8,1,1c0,0.2-0.1,0.3-0.4,0.3L135.3,154.1z
	 M123.6,156.6l0.4,0.1c-0.7,3.1-1.3,5.5-1.7,7.2c-0.3,1.7-0.5,2.9-0.5,3.5c0,0.4,0,0.8,0,1.2c0.2,0.9,0.3,1.6,0.3,2.2
	c0,0.4-0.1,0.6-0.3,0.8c-0.2,0.2-0.5,0.3-0.9,0.3c-0.5,0-0.9-0.1-1.2-0.3c-0.2-0.1-0.3-0.4-0.3-0.8c0-0.3,0.1-0.6,0.2-1.2
	c0-0.4,0.1-0.7,0.1-1c0-0.5-0.1-0.9-0.3-1.2c-0.2-0.3-0.8-0.6-1.8-0.8l0.1-0.6c1,0,1.7-0.1,2-0.2c0.3-0.2,0.5-0.5,0.7-1L123.6,156.6
	z M117.4,157.4c1.4,0.4,2.4,0.8,3,1.2c0.5,0.4,0.7,0.9,0.7,1.4c0,0.4-0.2,0.8-0.6,1.3c-0.3,0.3-0.6,0.4-1,0.4c-0.3,0-0.6-0.3-0.8-1
	c-0.3-1-0.8-1.9-1.5-2.8L117.4,157.4z M119.3,151.9c1.5,0.4,2.5,0.8,3.1,1.2c0.5,0.4,0.7,0.9,0.7,1.4c0,0.4-0.2,0.8-0.5,1.2
	c-0.3,0.3-0.6,0.4-1,0.4c-0.3,0-0.6-0.3-0.9-1c-0.3-1-0.9-1.9-1.7-2.8L119.3,151.9z"/>
<path class="st3" d="M161.3,159.9h8.4v-2.7h-8.4V159.9z M158.8,155.5c0.9,0.3,1.9,0.6,2.9,1.1h7.6c0.3-0.3,0.5-0.6,0.7-0.8
	c0.2-0.2,0.4-0.3,0.6-0.3c0.3,0,0.7,0.2,1.4,0.7c0.8,0.5,1.1,0.8,1.1,1.1c0,0.1-0.1,0.3-0.4,0.5c-0.2,0.2-0.3,0.3-0.4,0.5v2.2
	c0,0.3-0.4,0.5-1.1,0.6c-0.1,0-0.1,0-0.1,0c0.3,0.1,0.6,0.4,0.9,0.6c0.8,0.6,1.2,1,1.2,1.3c0,0.2-0.3,0.3-0.9,0.4
	c-0.7,0.1-1.1,0.2-1.2,0.3c-0.9,0.5-1.8,0.9-2.7,1.3c0,0,0,0,0,0c0,0.3-0.2,0.5-0.7,0.7c-0.3,0.1-0.4,0.3-0.4,0.5v0.1h4.6
	c0.1,0,0.4-0.4,0.8-1c0.6-0.8,0.9-1.1,1.1-1.1c0.3,0,0.8,0.4,1.5,1.1c0.7,0.7,1,1.2,1,1.3c0,0.2-0.1,0.3-0.4,0.3h-8.6v2.5
	c0,1.3-0.4,2.1-1.3,2.5c-1,0.4-1.7,0.6-2.3,0.6c-0.2,0-0.4-0.2-0.5-0.7c-0.2-0.8-1.1-1.5-2.6-2l0.1-0.4c1,0.1,1.9,0.2,2.7,0.2
	c0.5,0,0.9-0.1,1.1-0.2c0.2-0.1,0.3-0.3,0.3-0.6v-1c0-0.3,0-0.6,0-0.9h-6.5c-1.3,0-2.2,0-2.8,0.1l-0.3-0.9c0.7,0.1,1.8,0.2,3.1,0.2
	h6.5c0-0.8-0.1-1.6-0.2-2.2c0.7,0.1,1.4,0.2,2,0.3c0.3,0,0.5,0.1,0.7,0.1l1.7-1.6h-8.7c-0.9,0-1.6,0.1-2.2,0.2l-0.4-1
	c0.9,0.2,1.8,0.2,2.6,0.2h8.5c0.4-0.4,0.8-0.8,1-1.1c0.1-0.1,0.3-0.2,0.4-0.3c-0.1-0.1-0.2-0.2-0.2-0.5h-8.4v0.4
	c0,0.3-0.4,0.5-1.1,0.6c-0.3,0.1-0.6,0.1-0.7,0.1c-0.5,0-0.7-0.2-0.7-0.7c0.1-0.4,0.1-0.9,0.1-1.5v-2
	C158.9,156.9,158.8,156.2,158.8,155.5z M163.9,151.5c1.1,0.1,2.1,0.2,3,0.4c0.6,0,0.9,0.2,0.9,0.5c0,0.1-0.2,0.2-0.5,0.4
	c-0.4,0.2-0.6,0.4-0.6,0.6v0.9h4.8c0.1,0,0.4-0.4,0.9-1.1c0.7-0.8,1-1.2,1.1-1.2c0.3,0,0.9,0.4,1.5,1.1c0.7,0.8,1.1,1.2,1.1,1.4
	c0,0.2-0.2,0.4-0.5,0.4h-17c-1.2,0-2.2,0.1-3.1,0.2l-0.4-1.1c1.4,0.2,2.6,0.3,3.8,0.3h5.1v-0.7C164.1,152.8,164,152.1,163.9,151.5z"
	/>
<path class="st3" d="M185.3,163.3c1.5,1.6,2.9,2.7,4.1,3.4c0.2,0.1,0.3,0.2,0.5,0.3c0.1-0.1,0.3-0.2,0.4-0.3c1.2-1,2.1-2.1,2.6-3.3
	C189.5,163.3,186.9,163.3,185.3,163.3 M182.9,162.5c2,0.1,3.6,0.2,4.9,0.2h4.9c0.2-0.3,0.4-0.6,0.6-0.8c0.4-0.5,0.7-0.7,0.9-0.7
	c0.2,0,0.7,0.3,1.5,1c0.9,0.7,1.4,1.2,1.4,1.5c0,0.2-0.2,0.4-0.6,0.5c-0.5,0.1-0.8,0.3-0.8,0.6c-0.9,1.2-2,2.2-3.3,3.1
	c0.4,0.1,0.9,0.3,1.3,0.4c2.1,0.6,4.4,1,6.8,1.3l-0.2,0.5c-0.7,0.3-1.2,0.8-1.4,1.4c-0.1,0.6-0.3,0.9-0.4,0.9
	c-0.5,0-1.7-0.3-3.6-0.9c-1.8-0.6-3.4-1.2-4.7-2c-0.1-0.1-0.2-0.1-0.3-0.2c-0.2,0.1-0.3,0.2-0.5,0.2c-2.5,1.1-5.6,2.1-9.3,2.8
	l-0.2-0.4c2.6-0.9,4.7-1.7,6.4-2.6c0.8-0.4,1.5-0.8,2.1-1.3c-0.6-0.5-1.1-1-1.5-1.5c-0.8-0.9-1.6-2-2.4-3.3c-0.6,0-1,0-1.3,0
	L182.9,162.5z M195.3,154.4c0.8,0.3,1.7,0.6,2.5,0.9c0.7,0.3,1.1,0.6,1.1,0.9c0,0.2-0.2,0.3-0.6,0.3c-0.4,0.1-0.6,0.1-0.6,0.2
	c-1,0.9-2.2,1.8-3.5,2.5h2.3c0.3-0.3,0.6-0.6,0.8-0.8c0.3-0.4,0.6-0.5,0.7-0.5c0.2,0,0.8,0.3,1.6,1c0.7,0.6,1.1,1,1.1,1.3
	c0,0.2-0.2,0.3-0.6,0.4c-0.4,0-0.7,0-0.7,0.1c-0.8,0.5-1.7,1.1-2.9,1.7l-0.4-0.2c0.3-0.7,0.5-1.5,0.7-2.3H183
	c0.1,0.3,0.1,0.5,0.1,0.8c0,1.3-0.3,2.1-0.8,2.5c-0.4,0.4-0.9,0.6-1.5,0.6c-0.3,0-0.6-0.1-0.8-0.4c-0.2-0.2-0.3-0.5-0.3-0.7
	c0-0.2,0.3-0.6,0.9-1.4c0.6-0.9,0.9-2,0.9-3.3l0.4-0.1c0.3,0.5,0.6,0.9,0.7,1.3h10.6C194.2,157.7,194.9,156.1,195.3,154.4z
	 M188.3,154.8c1.3,0.4,2.2,0.7,2.8,1.1c0.8,0.5,1.2,0.9,1.2,1.3c0,0.6-0.2,1.1-0.6,1.4c-0.3,0.3-0.6,0.4-1,0.4
	c-0.3,0-0.5-0.1-0.7-0.2c-0.2-0.1-0.4-0.5-0.5-1c-0.2-0.8-0.7-1.7-1.5-2.7L188.3,154.8z M182.5,155c1.7,0.3,2.8,0.7,3.4,1.1
	c0.6,0.4,0.8,0.8,0.8,1.3c0,0.4-0.2,0.9-0.6,1.3c-0.3,0.3-0.6,0.4-1,0.4c-0.4,0-0.7-0.3-1-1c-0.4-0.9-1-1.8-1.9-2.6L182.5,155z
	 M196.9,154c-2.7,0.3-5.1,0.5-7.4,0.5c-2,0-4.7,0.1-7.9,0.1l-0.1-0.6c2.8-0.2,5.2-0.5,7.3-0.8c2.2-0.3,4.5-0.9,7-1.7
	c0.7,0.5,1.4,0.9,2,1.3c0.6,0.5,1,0.9,1,1.2c0,0.1-0.3,0.2-0.6,0.2L196.9,154z"/>
<path class="st3" d="M209.2,160.1h10.4v-3.8h-10.4V160.1z M209.2,165h10.4v-4.2h-10.4V165z M209.2,170.1h10.4v-4.5h-10.4V170.1z
	 M212.1,151.6c0.7,0.2,1.2,0.4,1.7,0.6c1,0.3,1.6,0.6,1.6,0.9c0,0.1-0.2,0.3-0.5,0.4c-0.3,0-0.5,0.2-0.6,0.3c-0.4,0.5-0.8,1-1.1,1.3
	c-0.3,0.3-0.6,0.5-0.9,0.7h6.6c0.4-0.4,0.7-0.8,1-1.1c0.3-0.3,0.5-0.4,0.7-0.4c0.2,0,0.7,0.2,1.5,0.7c0.9,0.6,1.3,1,1.3,1.3
	c0,0.2-0.2,0.4-0.6,0.6c-0.3,0.2-0.4,0.4-0.4,0.7v11.1c0,0.7,0,1.7,0.1,3c0,0.3-0.4,0.5-1.2,0.7c-0.4,0-0.6,0.1-0.8,0.1
	c-0.4,0-0.6-0.2-0.6-0.7v-1h-10.4v1c0,0.3-0.4,0.5-1.2,0.7c-0.3,0-0.6,0.1-0.8,0.1c-0.5,0-0.7-0.2-0.7-0.7c0.1-0.8,0.1-1.7,0.1-2.5
	V158c0-1.2-0.1-2.3-0.2-3.4c1,0.3,2.1,0.7,3.2,1.2h1.6c0.2-0.4,0.4-0.9,0.5-1.5C211.9,153.6,212,152.7,212.1,151.6z"/>
<path class="st3" d="M245.7,167.3c1.4,0.5,2.4,1,3,1.5c0.6,0.4,0.8,0.8,0.8,1.1c0,0.6-0.2,1.2-0.6,1.6c-0.3,0.4-0.7,0.6-1.2,0.6
	c-0.2,0-0.3-0.1-0.5-0.2c-0.1-0.1-0.3-0.6-0.4-1.3c-0.2-0.8-0.7-1.9-1.5-3L245.7,167.3z M240.6,167.2c1.2,0.5,2.1,1,2.5,1.4
	c0.6,0.5,0.9,1,0.9,1.4c0,0.6-0.1,1-0.4,1.4c-0.3,0.3-0.7,0.5-1.1,0.5c-0.3,0-0.6-0.1-0.7-0.2c-0.2-0.1-0.3-0.5-0.4-1.3
	c-0.1-0.9-0.4-1.9-1-2.9L240.6,167.2z M235.9,167.5c0.8,0.4,1.4,0.8,1.8,1.3c0.4,0.5,0.6,0.9,0.6,1.4c0,0.7-0.1,1.1-0.4,1.4
	c-0.3,0.4-0.7,0.6-1.1,0.6c-0.3,0-0.5-0.1-0.7-0.3c-0.1-0.2-0.2-0.6-0.2-1.3c0-0.8-0.1-1.7-0.4-2.8L235.9,167.5z M232.3,167.1
	l0.4,0.1c0,1.6-0.1,2.7-0.2,3.3c-0.2,0.6-0.5,1.1-1,1.3c-0.3,0.1-0.6,0.2-0.9,0.2c-0.5,0-0.9-0.1-1.2-0.4c-0.3-0.2-0.4-0.6-0.4-1
	c0-0.2,0.3-0.5,0.9-0.8c0.7-0.3,1.2-0.7,1.5-1.1C231.7,168.4,232,167.8,232.3,167.1z M244.9,152.1c1,0.3,1.8,0.5,2.3,0.8
	c0.6,0.4,0.9,0.7,0.9,1c0,0.5-0.2,0.9-0.6,1.3c-0.2,0.2-0.5,0.3-0.9,0.3c-0.2,0-0.4-0.1-0.6-0.2c-0.1-0.1-0.3-0.4-0.4-0.8
	c-0.1-0.6-0.5-1.4-1.1-2.3L244.9,152.1z M233,156.2c0.9,0.3,1.5,0.6,1.9,1c0.2,0.2,0.4,0.5,0.4,0.8c0.3-0.9,0.6-1.9,0.9-3h-2.6
	C233.4,155.5,233.2,155.9,233,156.2z M230.9,159.3c1,0.4,1.7,0.8,2.1,1.2c0.4,0.4,0.7,0.8,0.8,1c0.2-0.3,0.4-0.6,0.5-1
	c0.1-0.2,0.2-0.5,0.3-0.7c-0.1,0.1-0.3,0.1-0.4,0.1c-0.3,0-0.5-0.3-0.7-0.9c-0.2-0.7-0.5-1.5-0.9-2.1c-0.2,0.3-0.4,0.6-0.5,0.9
	C231.7,158.3,231.3,158.8,230.9,159.3z M232.1,151.4c0.8,0.2,1.6,0.4,2.3,0.6c0.7,0.2,1.1,0.4,1.1,0.7c0,0.3-0.2,0.4-0.6,0.5
	c-0.4,0.1-0.6,0.2-0.6,0.3c-0.1,0.3-0.2,0.7-0.4,1h2.2c0.3-0.2,0.5-0.4,0.7-0.5c0.3-0.3,0.6-0.4,0.7-0.4c0.2,0,0.7,0.3,1.4,0.9
	c0.7,0.6,1.1,1,1.1,1.3c0,0.2-0.2,0.4-0.7,0.5c-0.5,0.2-0.8,0.3-0.9,0.5c-0.1,0.4-0.2,0.7-0.3,1h2.5c0.1-0.9,0.2-2,0.2-3
	c0-1.1,0-2.1-0.1-2.9c0.7,0.1,1.4,0.2,2.1,0.4c1,0.2,1.5,0.4,1.5,0.5c0,0.2-0.2,0.4-0.5,0.5c-0.4,0.1-0.5,0.3-0.5,0.4
	c-0.1,1.6-0.2,2.9-0.4,4h2.2c0,0,0.2-0.2,0.6-0.7c0.5-0.7,0.9-1,1.1-1c0.2,0,0.6,0.4,1.4,1.1c0.5,0.4,0.7,0.7,0.7,0.9
	c0,0.2-0.1,0.4-0.4,0.4h-4.7c0.2,0.7,0.5,1.4,0.9,2.1c0.4,0.8,1,1.5,1.7,2.1c0.9,0.7,1.8,1.2,2.9,1.6l-0.2,0.6
	c-0.8,0.3-1.3,0.7-1.6,1.3c-0.3,0.7-0.6,1-0.8,1c-0.1,0-0.4-0.2-0.7-0.6c-0.4-0.4-0.8-1-1.3-1.8c-0.4-0.6-0.7-1.4-1-2.3
	c-0.3-0.9-0.5-2.1-0.7-3.8h-0.3c-0.2,1.1-0.5,2-0.8,2.7c-0.5,1.4-1.4,2.6-2.5,3.6c-0.9,0.9-2.3,1.6-4,2.3l-0.2-0.3
	c1.2-0.9,2.2-1.9,3.1-3c0.8-1,1.4-2.3,1.9-3.9c0.1-0.4,0.2-0.9,0.3-1.4h-2.7c-0.6,1.6-1.1,2.8-1.7,3.6c-0.8,1.2-1.8,2.2-2.8,3
	c-1.1,0.8-2.5,1.6-4,2.2l-0.2-0.3c1.3-1,2.3-1.9,3-2.7c0.2-0.3,0.4-0.5,0.6-0.8c-0.3,0-0.6-0.1-0.7-0.2c-0.2-0.1-0.4-0.5-0.5-1.1
	c-0.1-0.7-0.4-1.5-1-2.2c-0.5,0.6-1,1.1-1.6,1.7l-0.4-0.3c0.9-1.6,1.7-3.1,2.1-4.4C231.3,155.1,231.7,153.4,232.1,151.4z"/>
<path class="st3" d="M264.5,160.1c1.4,0.7,2.4,1.4,3,1.9c0.6,0.5,0.8,1,0.8,1.5c0,0.7-0.2,1.3-0.6,1.7c-0.3,0.5-0.7,0.7-1.2,0.7
	c-0.2,0-0.3-0.1-0.5-0.2c-0.1-0.2-0.3-0.7-0.5-1.6c-0.2-1-0.7-2.2-1.5-3.7L264.5,160.1z M264.8,151.5c0.8,0.2,1.6,0.4,2.3,0.7
	c0.7,0.2,1.1,0.4,1.1,0.7c0,0.3-0.2,0.4-0.6,0.5c-0.4,0.1-0.6,0.1-0.6,0.2c-0.3,0.9-0.5,1.7-0.8,2.4h3.6c0.4-0.4,0.7-0.7,0.9-0.9
	c0.3-0.3,0.6-0.4,0.7-0.4c0.2,0,0.7,0.2,1.4,0.7c0.8,0.6,1.2,1,1.2,1.2c0,0.2-0.2,0.4-0.6,0.6c-0.3,0.2-0.4,0.3-0.4,0.5
	c0,3.8-0.2,6.9-0.5,9.2c-0.4,2.1-0.8,3.4-1.2,4c-0.3,0.4-0.8,0.8-1.4,1c-0.5,0.3-1,0.4-1.4,0.4c-0.2,0-0.4-0.3-0.6-0.9
	c-0.2-0.8-1.2-1.4-2.9-2l0.1-0.4c1.6,0.1,2.6,0.2,3.2,0.2c0.5,0,0.9-0.4,1.1-1.3c0.2-0.8,0.4-2.1,0.5-4.2c0.2-2.7,0.3-5.1,0.3-7.2
	h-4.3c-0.2,0.6-0.5,1.1-0.7,1.5c-0.7,1.2-1.5,2.4-2.6,3.7l-0.3-0.4c0.7-1.6,1.3-3.2,1.6-4.6C264.2,155.4,264.6,153.6,264.8,151.5z
	 M256.8,162.3h2.9v-5.4h-2.9V162.3z M256.8,168.9h2.9v-6h-2.9V168.9z M257.6,151.7c0.8,0.1,1.5,0.2,2.1,0.4c0.7,0.2,1.1,0.3,1.1,0.5
	c0,0.2-0.1,0.4-0.4,0.5c-0.3,0.1-0.5,0.2-0.5,0.3c-0.6,1-1.4,2-2.5,2.9h1.5c0.3-0.4,0.6-0.8,0.9-1.1c0.2-0.3,0.4-0.4,0.6-0.4
	c0.2,0,0.6,0.2,1.3,0.6c0.8,0.5,1.1,0.9,1.1,1.1c0,0.2-0.1,0.4-0.4,0.6c-0.2,0.2-0.3,0.4-0.3,0.6v9.9c0,0.7,0,1.6,0.1,2.9
	c0,0.3-0.4,0.5-1.2,0.6c-0.3,0-0.6,0.1-0.7,0.1c-0.4,0-0.6-0.2-0.6-0.7v-1.1h-2.9v1.5c0,0.3-0.4,0.5-1.1,0.6c-0.3,0-0.6,0.1-0.7,0.1
	c-0.5,0-0.7-0.2-0.7-0.7c0.1-0.8,0.1-1.6,0.1-2.3v-10.4c0-1.1-0.1-2.2-0.2-3.2c0.9,0.2,1.7,0.5,2.6,0.9
	C257.2,154.6,257.5,153.1,257.6,151.7z"/>
<path class="st3" d="M281.1,165.9l0.5,0.1c0,1.7-0.1,2.9-0.3,3.5c-0.2,0.7-0.6,1.1-1.1,1.4c-0.3,0.1-0.6,0.2-0.9,0.2
	c-0.5,0-0.9-0.1-1.3-0.4c-0.3-0.3-0.5-0.6-0.5-1.1c0-0.3,0.3-0.5,1-0.9c0.7-0.3,1.2-0.7,1.6-1.1
	C280.6,167.2,280.9,166.6,281.1,165.9 M294.1,165.1c1.4,0.5,2.4,1.1,3,1.7c0.9,0.7,1.3,1.4,1.3,2c0,0.5-0.2,1-0.6,1.3
	c-0.2,0.2-0.5,0.3-0.9,0.3c-0.3,0-0.6-0.1-0.8-0.3c-0.2-0.2-0.4-0.6-0.6-1.3c-0.2-1-0.8-2.2-1.7-3.6L294.1,165.1z M287.6,164.5
	c1.3,0.3,2.2,0.6,2.7,1c0.4,0.3,0.7,0.8,0.7,1.2c0,0.4-0.2,0.8-0.5,1.2c-0.3,0.3-0.6,0.4-1,0.4c-0.3,0-0.5-0.3-0.7-0.9
	c-0.3-0.9-0.7-1.7-1.4-2.6L287.6,164.5z M282.9,164.8c0.7,0.1,1.6,0.2,2.6,0.3c0.9,0.1,1.4,0.3,1.4,0.6c0,0.3-0.2,0.5-0.6,0.6
	c-0.3,0.1-0.4,0.3-0.4,0.6v2.1c0,0.5,0.2,0.8,0.5,0.8c0.6,0.1,1.6,0.1,2.9,0.1c0.7,0,1.3,0,1.7-0.2c0.3-0.1,0.6-0.2,0.7-0.3
	c0.1-0.1,0.2-0.4,0.4-0.8c0.1-0.5,0.3-1.1,0.5-1.9l0.5,0.1c0.1,0.9,0.1,1.4,0.1,1.6c0,0.5,0.3,0.9,0.8,1.1c0.7,0.3,1,0.5,1,0.8
	c0,0.4-0.3,0.8-0.8,1.1c-0.4,0.2-0.9,0.3-1.4,0.4c-0.9,0.2-2,0.2-3.5,0.2c-2.2,0-3.7-0.1-4.4-0.2c-0.6-0.1-1-0.4-1.3-0.8
	c-0.2-0.3-0.2-0.8-0.2-1.5v-2.1C283.2,166.6,283.1,165.7,282.9,164.8z M290.1,155.8c0.1,0.5,0.4,1.1,0.6,1.6c0.5,0.9,1,1.7,1.5,2.2
	c0,0,0,0,0,0c0.1-0.3,0.3-0.6,0.4-0.9c0.4-1,0.8-2.2,1-3.6h-3.3C290.3,155.4,290.2,155.6,290.1,155.8z M289.1,151.5
	c0.8,0.2,1.5,0.4,2.2,0.7c0.7,0.2,1,0.4,1,0.7c0,0.2-0.2,0.4-0.6,0.4c-0.4,0-0.6,0.1-0.6,0.2c-0.1,0.4-0.3,0.7-0.4,1.1h3
	c0,0,0.3-0.2,0.7-0.7c0.6-0.7,1-1.1,1.2-1.1c0.2,0,0.7,0.4,1.6,1.2c0.5,0.5,0.8,0.8,0.8,0.9c0,0.3-0.1,0.4-0.4,0.4h-1.1
	c-0.3,1.5-0.7,2.8-1.2,3.8c-0.3,0.7-0.7,1.4-1.2,1.9c0.2,0.1,0.4,0.2,0.6,0.3c1.1,0.5,2.4,1,3.9,1.4l-0.2,0.4
	c-0.7,0.1-1.1,0.5-1.4,1.1c-0.2,0.5-0.4,0.8-0.5,0.8c-0.3,0-0.9-0.2-1.8-0.7c-0.8-0.5-1.6-1.1-2.4-1.9c-0.4,0.3-1,0.5-1.5,0.8
	c-1.2,0.5-2.8,0.9-4.7,1.1l-0.1-0.4c1.4-0.5,2.5-0.9,3.3-1.3c0.6-0.4,1.3-0.9,1.9-1.4c-0.3-0.5-0.6-1-0.9-1.6
	c-0.3-0.8-0.5-1.8-0.7-3c0,0.1-0.1,0.1-0.1,0.2c-0.6,0.9-1.4,1.8-2.4,2.7l-0.3-0.3c0.7-1.3,1.2-2.4,1.5-3.5
	C288.5,154.4,288.8,153.1,289.1,151.5z M283.9,154.4c0.6,0.1,1.4,0.2,2.2,0.3c0.8,0.1,1.2,0.2,1.2,0.4c0,0.2-0.2,0.4-0.6,0.6
	c-0.3,0.1-0.4,0.3-0.4,0.6v6.6c0,0.2-0.3,0.4-1,0.6c-0.3,0-0.5,0.1-0.7,0.1c-0.4,0-0.6-0.2-0.6-0.5c0-0.3,0.1-0.6,0.1-0.8v-6.1
	C284.2,155.5,284.1,154.9,283.9,154.4z M281.4,151.5c0.8,0.2,1.6,0.4,2.3,0.6c0.7,0.2,1.1,0.4,1.1,0.7c0,0.3-0.2,0.4-0.6,0.5
	c-0.4,0.1-0.6,0.2-0.7,0.2c-0.3,0.8-0.7,1.5-1.1,2.1c0.1,0,0.2,0.1,0.3,0.1c0.5,0.1,0.7,0.3,0.7,0.4c0,0.2-0.1,0.4-0.4,0.5
	c-0.2,0.1-0.3,0.3-0.3,0.5v7.4c0,0.2-0.3,0.4-1,0.5c-0.3,0-0.5,0.1-0.6,0.1c-0.5,0-0.8-0.2-0.8-0.6c0.1-1.6,0.2-3.2,0.2-4.8v-1.4
	c-0.7,0.8-1.6,1.5-2.6,2.3l-0.4-0.4c1.1-1.5,1.9-2.8,2.5-4.1C280.5,154.9,281,153.3,281.4,151.5z"/>
<path class="st3" d="M328.1,155.6c0.6,1.7,0.9,3.1,0.9,4.3c0,1-0.2,1.7-0.6,2c-0.3,0.3-0.7,0.5-1.2,0.5c-0.3,0-0.5-0.1-0.7-0.3
	c-0.1-0.2-0.2-0.4-0.2-0.6c0-0.2,0.2-0.8,0.7-1.7c0.5-1.1,0.7-2.5,0.8-4.1L328.1,155.6z M344.6,169.3c-0.1-0.2-0.2-0.3-0.4-0.5
	c-0.4-0.5-0.9-1.2-1.3-2.2c-0.3-0.7-0.7-1.6-1-2.8c0-0.1,0-0.1,0-0.2c-0.2,0.8-0.5,1.5-0.8,2.1c-0.4,0.8-1,1.5-1.8,2.2
	c-0.7,0.6-1.9,1.2-3.4,1.8v0.8h7.8c0,0,0.2-0.2,0.6-0.7C344.4,169.5,344.5,169.4,344.6,169.3z M339.5,164.4
	c-0.2,0.2-0.5,0.3-0.7,0.3c-0.2,0-0.3-0.1-0.4-0.2c-0.1-0.1-0.2-0.5-0.3-1.1c0-0.3-0.1-0.7-0.2-1c-0.1,0.2-0.2,0.4-0.3,0.5
	c-0.5,0.9-1.1,1.7-1.8,2.5v3.8c1-0.7,1.8-1.6,2.5-2.5C338.8,166,339.2,165.2,339.5,164.4z M340.1,159.3c-0.1,0.1-0.3,0.1-0.4,0.1
	c-0.3,0.1-0.5,0.1-0.6,0.3c-0.2,0.5-0.4,1.1-0.6,1.5c0.4,0.3,0.7,0.5,0.9,0.7c0.2,0.3,0.4,0.6,0.5,0.8
	C340,161.9,340,160.8,340.1,159.3z M345,151.4c0.2,0,0.6,0.4,1.4,1.1c0.5,0.5,0.7,0.8,0.7,0.9c0,0.2-0.2,0.3-0.5,0.3h-10.8v10.2
	c0.2-0.5,0.3-1.1,0.5-1.7c0.3-1.1,0.6-2.5,0.8-4.2c0.8,0.2,1.4,0.4,2,0.6c0.5,0.1,0.8,0.3,0.9,0.4c0-0.4,0-0.8,0-1.2h-0.7
	c-1.3,0-2.2,0-2.8,0.1l-0.4-0.9c0.7,0.1,1.8,0.2,3.2,0.2h0.7c0-0.8-0.1-1.8-0.2-3c0.7,0.1,1.4,0.2,2.1,0.4c0.9,0.2,1.4,0.4,1.4,0.6
	c0,0.2-0.2,0.3-0.6,0.5c-0.3,0.1-0.5,0.3-0.5,0.4v1.1h1c0,0,0.3-0.3,0.7-0.8c0.5-0.6,0.7-0.9,0.8-0.9c0.3,0,0.6,0.3,1.2,0.9
	c0.5,0.6,0.8,1,0.8,1.1c0,0.2-0.1,0.4-0.4,0.4h-4.1c0,1.5-0.1,2.7-0.1,3.6c0.1,0.3,0.2,0.6,0.3,0.9c0,0,0,0.1,0.1,0.1
	c0.1-0.3,0.2-0.7,0.3-1.1c0.2-0.8,0.4-1.8,0.5-3.1c0.8,0.2,1.4,0.4,2,0.6c0.7,0.2,1.1,0.4,1.1,0.6c0,0.2-0.2,0.3-0.6,0.4
	c-0.3,0.1-0.5,0.1-0.6,0.3c-0.2,0.5-0.4,0.9-0.6,1.2c0.9,0.4,1.5,0.8,1.8,1.1c0.4,0.4,0.7,0.7,0.7,1c0,0.4-0.1,0.8-0.4,1.1
	c-0.2,0.3-0.5,0.5-0.8,0.5c-0.2,0-0.3-0.1-0.4-0.2c-0.1-0.1-0.2-0.5-0.3-1.1c-0.1-0.5-0.4-1.2-0.8-1.9c0,0.1-0.1,0.1-0.1,0.2
	c-0.3,0.5-0.7,0.9-1.1,1.3c0.3,0.6,0.7,1.2,1.1,1.7c0.8,1,1.8,1.7,2.8,2.3l-0.2,0.5c-0.7,0.3-1.1,0.6-1.3,1c0,0,0,0.1,0,0.1
	c0.3,0.2,0.7,0.5,1.2,1c0.5,0.5,0.7,0.7,0.7,0.8c0,0.2-0.1,0.4-0.4,0.4h-11.2v0.7c0,0.3-0.3,0.5-1,0.6c-0.3,0-0.5,0.1-0.7,0.1
	c-0.5,0-0.7-0.2-0.7-0.6c0.1-1.4,0.2-2.7,0.2-3.8v-9.2c-0.1,0.1-0.2,0.2-0.3,0.3c-0.2,0.2-0.5,0.3-0.8,0.3c-0.1,0-0.3-0.1-0.4-0.2
	c-0.1-0.1-0.2-0.5-0.2-1c-0.1-0.5-0.2-1-0.4-1.6V168c0,1.3,0,2.5,0.1,3.8c0,0.3-0.4,0.5-1.1,0.6c-0.3,0-0.5,0.1-0.7,0.1
	c-0.4,0-0.6-0.2-0.6-0.6c0.1-1.4,0.1-2.6,0.1-3.8v-12.8c0-1.4-0.1-2.6-0.2-3.7c0.6,0.1,1.5,0.2,2.5,0.3c0.7,0.1,1,0.2,1,0.4
	c0,0.2-0.2,0.4-0.6,0.5c-0.3,0.1-0.4,0.3-0.4,0.5v1.9c0.7,0.4,1.2,0.8,1.6,1.1c0.2,0.2,0.4,0.4,0.5,0.6v-1.3c0-0.9-0.1-2.1-0.2-3.5
	c0.9,0.2,1.8,0.5,2.6,0.9h7.2c0,0,0.2-0.2,0.6-0.7C344.4,151.7,344.8,151.4,345,151.4z"/>
<path class="st3" d="M305.7,155.3h3.2v-2h-3.2V155.3z M305.7,158h3.2v-2.1h-3.2V158z M303.1,151.7c1,0.3,1.9,0.6,2.8,1h2.3
	c0.3-0.4,0.6-0.7,1-1c0.2-0.2,0.4-0.4,0.6-0.4c0.2,0,0.6,0.2,1.3,0.6c0.8,0.5,1.2,0.9,1.2,1.1c0,0.2-0.2,0.4-0.6,0.6
	c-0.3,0.2-0.4,0.4-0.4,0.6v1.5c0,0.7,0,1.6,0.1,2.9c0,0.3-0.4,0.5-1.1,0.6c-0.3,0-0.6,0.1-0.7,0.1c-0.4,0-0.6-0.2-0.6-0.7v-0.2h-3.2
	v13.2c0,0.3-0.4,0.5-1.1,0.7c-0.3,0-0.6,0.1-0.7,0.1c-0.5,0-0.8-0.2-0.8-0.7c0.1-1.6,0.2-3,0.2-4.3v-11.8
	C303.2,154.6,303.2,153.3,303.1,151.7z M310.2,163.3h3.8v-2.1h-3.8V163.3z M310.2,165.8h3.9v-1.9h-3.8
	C310.2,164.7,310.2,165.3,310.2,165.8z M315.6,155.4h3.3v-1.9h-3.3V155.4z M315.6,158.1h3.3V156h-3.3V158.1z M307.9,159.6
	c0.9,0.3,1.8,0.6,2.5,1h3.4c0.2-0.2,0.4-0.4,0.5-0.6c0.4-0.5,0.7-0.7,0.8-0.7c0.2,0,0.7,0.3,1.3,0.8c0.6,0.5,1,0.9,1,1
	c0,0.1-0.1,0.3-0.4,0.6c-0.4,0.3-0.6,0.5-0.6,0.7v6.8c0.8,0.2,1.5,0.2,2,0.2c0.4,0,0.6-0.2,0.6-0.7v-10h-3.3
	c-0.1,0.2-0.5,0.4-1.1,0.5c-0.3,0-0.6,0.1-0.7,0.1c-0.5,0-0.7-0.2-0.7-0.7c0.1-0.8,0.1-1.6,0.1-2.4V155c0-1.1-0.1-2.3-0.2-3.3
	c1,0.3,2,0.6,3,1.1h2.5c0.2-0.2,0.4-0.4,0.5-0.6c0.4-0.5,0.7-0.7,0.9-0.7c0.2,0,0.7,0.3,1.5,0.9c0.7,0.5,1.1,0.9,1.1,1.1
	c0,0.2-0.2,0.4-0.5,0.7c-0.4,0.3-0.6,0.6-0.6,0.9V170c0,0.9-0.4,1.5-1.3,1.9c-0.7,0.4-1.3,0.5-1.7,0.5c-0.1,0-0.3-0.3-0.4-0.9
	c-0.2-0.6-0.7-1.2-1.6-1.7c-0.1,0.6-0.4,1.1-1.1,1.4c-0.6,0.3-1.1,0.4-1.5,0.4c-0.1,0-0.3-0.3-0.4-0.8c-0.2-0.6-0.8-1.1-2-1.5
	l0.1-0.4c1,0.2,1.7,0.3,2.3,0.3c0.3,0,0.5-0.2,0.5-0.6v-2.1h-3.9c0,0.3,0,0.6-0.1,0.8c-0.1,0.6-0.3,1.1-0.6,1.6
	c-0.2,0.4-0.6,0.9-1.1,1.4c-0.5,0.5-1.2,0.9-2,1.3l-0.3-0.3c0.3-0.4,0.7-0.8,0.9-1.4c0.2-0.4,0.4-1,0.5-1.6c0.2-0.8,0.3-2.5,0.3-5.1
	C308,161.5,307.9,160.3,307.9,159.6z"/>
<path class="st3" d="M367.8,166.2c1.2,0.5,2.1,1,2.7,1.5c0.8,0.6,1.1,1.2,1.1,1.8c0,0.5-0.2,1-0.6,1.3c-0.2,0.2-0.5,0.3-0.9,0.3
	c-0.3,0-0.5-0.1-0.7-0.3c-0.2-0.2-0.4-0.6-0.5-1.2c-0.2-0.9-0.7-2-1.5-3.3L367.8,166.2z M360.2,165.5c1.3,0.3,2.2,0.6,2.7,0.9
	c0.4,0.3,0.6,0.7,0.6,1.1c0,0.4-0.2,0.8-0.5,1.2c-0.3,0.3-0.6,0.4-1,0.4c-0.3,0-0.5-0.3-0.7-0.9c-0.2-0.8-0.7-1.6-1.3-2.4
	L360.2,165.5z M355.6,166.5c0.7,0.1,1.6,0.2,2.5,0.3c0.9,0.1,1.3,0.3,1.3,0.5c0,0.3-0.2,0.5-0.7,0.6c-0.3,0.1-0.5,0.3-0.5,0.6v0.4
	c0,0.5,0.2,0.8,0.5,0.8c0.6,0.1,1.6,0.1,3,0.1c0.8,0,1.6,0,2.1-0.1c0.4-0.1,0.7-0.1,0.8-0.3c0.1-0.1,0.3-0.3,0.4-0.6
	c0.2-0.4,0.4-0.9,0.6-1.6l0.5,0.1c0,0.7,0.1,1.2,0.1,1.4c0,0.5,0.2,0.8,0.5,1c0.4,0.2,0.6,0.5,0.6,0.7c0,0.4-0.3,0.8-0.8,1.1
	c-0.4,0.2-0.9,0.3-1.4,0.4c-0.9,0.2-2,0.2-3.5,0.2c-2.3,0-3.8-0.1-4.5-0.2c-0.6-0.1-1-0.4-1.3-0.8c-0.2-0.3-0.3-0.8-0.3-1.5v-0.6
	C355.8,168.2,355.7,167.3,355.6,166.5z M354,166.9l0.5,0.1c0,1.5-0.1,2.5-0.2,3c-0.2,0.6-0.5,1-1,1.3c-0.3,0.1-0.5,0.2-0.8,0.2
	c-0.5,0-0.9-0.1-1.2-0.4c-0.3-0.2-0.4-0.6-0.4-1c0-0.2,0.3-0.4,0.9-0.7c0.6-0.3,1.1-0.6,1.5-0.9C353.5,168.1,353.8,167.6,354,166.9z
	 M356.3,162.2h9.4v-1.7h-9.4V162.2z M356.3,164.7h9.4v-1.9h-9.4V164.7z M353.7,158.7c1,0.3,2.1,0.7,3.2,1.2h8.1
	c0.3-0.4,0.6-0.7,1-0.9c0.2-0.2,0.4-0.4,0.6-0.4c0.2,0,0.6,0.2,1.3,0.6c0.8,0.6,1.2,0.9,1.2,1.1c0,0.2-0.1,0.4-0.4,0.7
	c-0.2,0.2-0.4,0.4-0.4,0.7v0.7c0,0.7,0,1.8,0.1,3.1c0,0.3-0.4,0.5-1.2,0.6c-0.4,0-0.6,0.1-0.8,0.1c-0.4,0-0.6-0.2-0.6-0.7v-0.2h-9.4
	c0,0.3-0.4,0.5-1.1,0.6c-0.3,0-0.6,0.1-0.7,0.1c-0.5,0-0.7-0.2-0.7-0.7c0.1-0.8,0.1-1.6,0.1-2.3v-1.1
	C353.9,160.8,353.8,159.7,353.7,158.7z M359.7,151.5c1,0.1,1.9,0.2,2.8,0.4c0.6,0,0.8,0.2,0.8,0.4c0,0.1-0.2,0.2-0.5,0.4
	c-0.4,0.2-0.6,0.4-0.6,0.6v1h4.4c0,0,0.3-0.3,0.7-0.8c0.5-0.6,0.8-0.9,0.9-0.9c0.3,0,0.7,0.3,1.2,0.9c0.6,0.6,0.8,1,0.8,1.1
	c0,0.2-0.1,0.4-0.4,0.4h-5.8c0.4,0.2,0.8,0.3,1.2,0.5c0.6,0.2,0.9,0.5,0.9,0.8c0,0.1-0.1,0.2-0.4,0.2c-0.3,0-0.5,0.1-0.5,0.1
	c-0.6,0.5-1.4,1-2.3,1.4h4.4c0.1,0,0.3-0.3,0.7-0.9c0.5-0.7,0.9-1,0.9-1c0.3,0,0.7,0.3,1.3,1c0.6,0.6,0.9,1,0.9,1.2
	c0,0.2-0.2,0.3-0.5,0.3h-17.3c-1.3,0-2.2,0-2.8,0.1l-0.3-0.9c0.7,0.1,1.8,0.2,3.1,0.2h3.3c-0.1-0.2-0.2-0.4-0.3-0.7
	c-0.1-0.6-0.4-1.2-1-1.8l0.3-0.3c1.1,0.2,1.9,0.5,2.3,0.6c0.6,0.3,0.8,0.5,0.8,0.7c0,0.5-0.1,0.9-0.4,1.2c-0.1,0.1-0.2,0.1-0.2,0.2
	h3.6c0.5-0.9,0.8-1.9,1.1-3h-8.2c-1.3,0-2.2,0-2.8,0.1l-0.4-0.9c0.7,0.1,1.8,0.2,3.2,0.2h4.7v-0.9
	C359.9,152.7,359.8,152.1,359.7,151.5z"/>
</svg>
